<svg xmlns="http://www.w3.org/2000/svg" xmlns:xlink="http://www.w3.org/1999/xlink" width="2000" zoomAndPan="magnify" viewBox="0 0 1500 1499.999933" height="2000" preserveAspectRatio="xMidYMid meet" version="1.0"><defs><g/><clipPath id="bcbbb0b9b5"><path d="M 518 404 L 1078 404 L 1078 455 L 518 455 Z M 518 404 " clip-rule="nonzero"/></clipPath><clipPath id="b194770c2a"><path d="M 1077.714844 454.363281 C 1076.363281 437.59375 1073.53125 421.082031 1069.210938 404.824219 L 527.035156 404.824219 C 522.714844 421.082031 519.882812 437.59375 518.53125 454.363281 Z M 1077.714844 454.363281 " clip-rule="nonzero"/></clipPath><linearGradient x1="0.5" gradientTransform="matrix(559.186315, 0, 0, 49.548155, 518.53077, 404.822592)" y1="0.999816" x2="0.5" gradientUnits="userSpaceOnUse" y2="0.000000958046" id="d707640807"><stop stop-opacity="1" stop-color="rgb(18.733215%, 14.483643%, 36.132812%)" offset="0"/><stop stop-opacity="1" stop-color="rgb(18.640137%, 14.411926%, 35.957336%)" offset="0.125"/><stop stop-opacity="1" stop-color="rgb(18.453979%, 14.266968%, 35.604858%)" offset="0.25"/><stop stop-opacity="1" stop-color="rgb(18.267822%, 14.122009%, 35.253906%)" offset="0.375"/><stop stop-opacity="1" stop-color="rgb(18.081665%, 13.977051%, 34.901428%)" offset="0.5"/><stop stop-opacity="1" stop-color="rgb(17.895508%, 13.832092%, 34.550476%)" offset="0.625"/><stop stop-opacity="1" stop-color="rgb(17.709351%, 13.687134%, 34.197998%)" offset="0.75"/><stop stop-opacity="1" stop-color="rgb(17.523193%, 13.542175%, 33.847046%)" offset="0.875"/><stop stop-opacity="1" stop-color="rgb(17.338562%, 13.398743%, 33.500671%)" offset="1"/></linearGradient><clipPath id="d09efca001"><path d="M 518 500 L 1078 500 L 1078 550 L 518 550 Z M 518 500 " clip-rule="nonzero"/></clipPath><clipPath id="f705e6d1c8"><path d="M 1077.714844 500.402344 L 518.53125 500.402344 C 519.867188 517.132812 522.726562 533.710938 527.035156 549.953125 L 1069.210938 549.953125 C 1073.527344 533.691406 1076.363281 517.171875 1077.714844 500.402344 Z M 1077.714844 500.402344 " clip-rule="nonzero"/></clipPath><linearGradient x1="0.5" gradientTransform="matrix(559.186315, 0, 0, 49.548155, 518.53077, 500.400778)" y1="1.000111" x2="0.5" gradientUnits="userSpaceOnUse" y2="0.000000545035" id="8ff576660e"><stop stop-opacity="1" stop-color="rgb(21.609497%, 16.722107%, 41.563416%)" offset="0"/><stop stop-opacity="1" stop-color="rgb(21.516418%, 16.648865%, 41.386414%)" offset="0.125"/><stop stop-opacity="1" stop-color="rgb(21.328735%, 16.503906%, 41.033936%)" offset="0.25"/><stop stop-opacity="1" stop-color="rgb(21.142578%, 16.358948%, 40.682983%)" offset="0.375"/><stop stop-opacity="1" stop-color="rgb(20.956421%, 16.213989%, 40.330505%)" offset="0.5"/><stop stop-opacity="1" stop-color="rgb(20.770264%, 16.069031%, 39.979553%)" offset="0.625"/><stop stop-opacity="1" stop-color="rgb(20.584106%, 15.924072%, 39.627075%)" offset="0.75"/><stop stop-opacity="1" stop-color="rgb(20.397949%, 15.779114%, 39.276123%)" offset="0.875"/><stop stop-opacity="1" stop-color="rgb(20.211792%, 15.634155%, 38.923645%)" offset="1"/></linearGradient><clipPath id="456de8c1e5"><path d="M 543 595 L 1053 595 L 1053 759 L 543 759 Z M 543 595 " clip-rule="nonzero"/></clipPath><clipPath id="b825448275"><path d="M 798.121094 758.027344 C 910.714844 758.027344 1007.789062 691.660156 1052.457031 595.964844 L 543.789062 595.964844 C 588.484375 691.660156 685.523438 758.027344 798.121094 758.027344 Z M 798.121094 758.027344 " clip-rule="nonzero"/></clipPath><linearGradient x1="0.5" gradientTransform="matrix(508.667767, 0, 0, 162.059014, 543.789799, 595.964303)" y1="1.000014" x2="0.5" gradientUnits="userSpaceOnUse" y2="0.0000000581333" id="fec1d3c073"><stop stop-opacity="1" stop-color="rgb(27.839661%, 21.569824%, 53.329468%)" offset="0"/><stop stop-opacity="1" stop-color="rgb(27.774048%, 21.51947%, 53.207397%)" offset="0.03125"/><stop stop-opacity="1" stop-color="rgb(27.632141%, 21.408081%, 52.938843%)" offset="0.0625"/><stop stop-opacity="1" stop-color="rgb(27.478027%, 21.287537%, 52.645874%)" offset="0.09375"/><stop stop-opacity="1" stop-color="rgb(27.322388%, 21.166992%, 52.354431%)" offset="0.125"/><stop stop-opacity="1" stop-color="rgb(27.168274%, 21.046448%, 52.061462%)" offset="0.15625"/><stop stop-opacity="1" stop-color="rgb(27.012634%, 20.925903%, 51.77002%)" offset="0.1875"/><stop stop-opacity="1" stop-color="rgb(26.858521%, 20.805359%, 51.477051%)" offset="0.21875"/><stop stop-opacity="1" stop-color="rgb(26.704407%, 20.684814%, 51.185608%)" offset="0.25"/><stop stop-opacity="1" stop-color="rgb(26.548767%, 20.56427%, 50.892639%)" offset="0.28125"/><stop stop-opacity="1" stop-color="rgb(26.394653%, 20.445251%, 50.601196%)" offset="0.3125"/><stop stop-opacity="1" stop-color="rgb(26.239014%, 20.324707%, 50.308228%)" offset="0.34375"/><stop stop-opacity="1" stop-color="rgb(26.0849%, 20.204163%, 50.016785%)" offset="0.375"/><stop stop-opacity="1" stop-color="rgb(25.930786%, 20.083618%, 49.723816%)" offset="0.40625"/><stop stop-opacity="1" stop-color="rgb(25.775146%, 19.963074%, 49.432373%)" offset="0.4375"/><stop stop-opacity="1" stop-color="rgb(25.621033%, 19.842529%, 49.139404%)" offset="0.46875"/><stop stop-opacity="1" stop-color="rgb(25.465393%, 19.721985%, 48.847961%)" offset="0.5"/><stop stop-opacity="1" stop-color="rgb(25.311279%, 19.60144%, 48.554993%)" offset="0.53125"/><stop stop-opacity="1" stop-color="rgb(25.15564%, 19.480896%, 48.26355%)" offset="0.5625"/><stop stop-opacity="1" stop-color="rgb(25.001526%, 19.360352%, 47.970581%)" offset="0.59375"/><stop stop-opacity="1" stop-color="rgb(24.847412%, 19.239807%, 47.679138%)" offset="0.625"/><stop stop-opacity="1" stop-color="rgb(24.691772%, 19.120789%, 47.386169%)" offset="0.65625"/><stop stop-opacity="1" stop-color="rgb(24.537659%, 19.000244%, 47.093201%)" offset="0.6875"/><stop stop-opacity="1" stop-color="rgb(24.382019%, 18.8797%, 46.801758%)" offset="0.71875"/><stop stop-opacity="1" stop-color="rgb(24.227905%, 18.759155%, 46.508789%)" offset="0.75"/><stop stop-opacity="1" stop-color="rgb(24.073792%, 18.638611%, 46.217346%)" offset="0.78125"/><stop stop-opacity="1" stop-color="rgb(23.918152%, 18.518066%, 45.924377%)" offset="0.8125"/><stop stop-opacity="1" stop-color="rgb(23.764038%, 18.397522%, 45.632935%)" offset="0.84375"/><stop stop-opacity="1" stop-color="rgb(23.608398%, 18.276978%, 45.339966%)" offset="0.875"/><stop stop-opacity="1" stop-color="rgb(23.454285%, 18.156433%, 45.048523%)" offset="0.90625"/><stop stop-opacity="1" stop-color="rgb(23.300171%, 18.035889%, 44.755554%)" offset="0.9375"/><stop stop-opacity="1" stop-color="rgb(23.144531%, 17.915344%, 44.464111%)" offset="0.96875"/><stop stop-opacity="1" stop-color="rgb(22.990417%, 17.796326%, 44.171143%)" offset="1"/></linearGradient></defs><path fill="#2c2255" d="M 543.789062 595.964844 L 403.078125 595.964844 C 421.710938 659.898438 456.277344 717.179688 506.90625 767.78125 C 587.601562 848.496094 684.640625 888.800781 798.089844 888.800781 C 820.785156 888.800781 842.761719 887.121094 864.113281 883.890625 C 949.59375 870.984375 1024.429688 832.339844 1088.535156 767.789062 C 1139.476562 717.175781 1174.300781 659.898438 1193.078125 595.964844 Z M 466.214844 404.84375 L 392.6875 404.84375 C 389.941406 421.257812 388.15625 437.777344 387.324219 454.398438 L 1208.921875 454.398438 C 1208.082031 437.777344 1206.285156 421.257812 1203.527344 404.84375 M 387.324219 500.402344 C 388.160156 517.023438 389.945312 533.539062 392.6875 549.953125 L 1203.558594 549.953125 C 1206.296875 533.542969 1208.085938 517.015625 1208.949219 500.402344 M 1193.109375 358.804688 C 1174.332031 294.734375 1139.507812 237.164062 1088.527344 186.191406 C 1024.597656 122.230469 949.964844 83.871094 864.769531 70.96875 C 842.679688 67.628906 820.460938 65.964844 798.121094 65.96875 C 684.648438 65.96875 587.601562 106.074219 506.914062 186.1875 C 456.277344 237.164062 421.660156 294.734375 403.050781 358.804688 " fill-opacity="1" fill-rule="nonzero"/><path fill="#f7941e" d="M 362.890625 477.398438 C 362.890625 260.371094 525.894531 80.042969 737.957031 48.332031 C 732.703125 48.132812 727.398438 47.90625 722.085938 47.90625 C 484.136719 47.9375 291.222656 240.21875 291.222656 477.398438 C 291.222656 714.609375 484.136719 906.890625 722.09375 906.890625 C 727.425781 906.890625 732.703125 906.695312 737.984375 906.496094 C 525.894531 874.785156 362.890625 694.457031 362.890625 477.398438 Z M 362.890625 477.398438 " fill-opacity="1" fill-rule="nonzero"/><g clip-path="url(#bcbbb0b9b5)"><g clip-path="url(#b194770c2a)"><path fill="url(#d707640807)" d="M 518.53125 404.824219 L 518.53125 454.363281 L 1077.714844 454.363281 L 1077.714844 404.824219 Z M 518.53125 404.824219 " fill-rule="nonzero"/></g></g><g clip-path="url(#d09efca001)"><g clip-path="url(#f705e6d1c8)"><path fill="url(#8ff576660e)" d="M 518.53125 500.402344 L 518.53125 549.953125 L 1077.714844 549.953125 L 1077.714844 500.402344 Z M 518.53125 500.402344 " fill-rule="nonzero"/></g></g><g clip-path="url(#456de8c1e5)"><g clip-path="url(#b825448275)"><path fill="url(#fec1d3c073)" d="M 543.789062 595.964844 L 543.789062 758.027344 L 1052.457031 758.027344 L 1052.457031 595.964844 Z M 543.789062 595.964844 " fill-rule="nonzero"/></g></g><path fill="#ffffff" d="M 477.085938 500.402344 L 1208.351562 500.402344 C 1208.75 493.035156 1208.949219 485.660156 1208.949219 478.285156 C 1208.949219 470.261719 1208.65625 462.304688 1208.203125 454.367188 L 387.332031 454.367188 C 386.867188 462.332031 386.621094 470.304688 386.585938 478.285156 C 386.585938 485.707031 386.8125 493.066406 387.1875 500.402344 Z M 542.160156 358.804688 L 403.050781 358.804688 C 398.484375 373.792969 395.515625 389.179688 392.6875 404.84375 L 1200.925781 404.84375 C 1198.136719 389.285156 1194.445312 373.941406 1189.859375 358.8125 M 1148.0625 549.953125 L 392.695312 549.953125 C 395.4375 565.589844 398.578125 580.976562 403.085938 595.964844 L 1192.566406 595.964844 C 1197.085938 580.835938 1200.714844 565.5 1203.457031 549.953125 Z M 1148.0625 549.953125 " fill-opacity="1" fill-rule="nonzero"/><g fill="#f7941e" fill-opacity="1"><g transform="translate(211.993265, 1339.370673)"><g><path d="M 180.953125 -18.5625 C 175.703125 -15.15625 170.289062 -11.984375 164.71875 -9.046875 C 159.15625 -6.109375 152.96875 -3.554688 146.15625 -1.390625 C 136.570312 1.390625 126.210938 3.085938 115.078125 3.703125 C 103.941406 4.328125 93.113281 3.398438 82.59375 0.921875 C 72.070312 -1.546875 62.789062 -6.179688 54.75 -12.984375 C 43.613281 -22.578125 34.875 -34.953125 28.53125 -50.109375 C 22.195312 -65.265625 19.03125 -81.351562 19.03125 -98.375 C 19.332031 -116.3125 22.113281 -133.550781 27.375 -150.09375 C 32.632812 -166.644531 41.21875 -180.253906 53.125 -190.921875 C 65.03125 -201.597656 80.882812 -206.9375 100.6875 -206.9375 C 129.144531 -206.9375 149.25 -197.8125 161 -179.5625 C 172.757812 -161.3125 178.796875 -136.566406 179.109375 -105.328125 L 54.75 -105.328125 C 53.507812 -87.691406 55.441406 -72.222656 60.546875 -58.921875 C 65.648438 -45.617188 72.992188 -35.410156 82.578125 -28.296875 C 92.171875 -21.179688 103.3125 -17.78125 116 -18.09375 C 127.75 -18.40625 138.03125 -20.257812 146.84375 -23.65625 C 155.664062 -27.0625 164.410156 -30.773438 173.078125 -34.796875 Z M 144.765625 -125.28125 L 145.234375 -124.8125 C 145.234375 -134.707031 143.765625 -144.375 140.828125 -153.8125 C 137.890625 -163.25 133.25 -170.984375 126.90625 -177.015625 C 120.5625 -183.046875 112.285156 -186.0625 102.078125 -186.0625 C 91.253906 -186.0625 82.59375 -183.046875 76.09375 -177.015625 C 69.601562 -170.984375 64.8125 -163.328125 61.71875 -154.046875 C 58.625 -144.765625 56.613281 -135.175781 55.6875 -125.28125 Z M 144.765625 -125.28125 "/></g></g></g><g fill="#f7941e" fill-opacity="1"><g transform="translate(391.558729, 1339.370673)"><g><path d="M 101.609375 4.171875 C 84.285156 3.867188 69.4375 -1.304688 57.0625 -11.359375 C 44.695312 -21.421875 35.265625 -34.335938 28.765625 -50.109375 C 22.273438 -65.890625 19.03125 -82.285156 19.03125 -99.296875 C 19.03125 -118.472656 22.816406 -136.722656 30.390625 -154.046875 C 37.972656 -171.367188 48.878906 -184.828125 63.109375 -194.421875 C 72.691406 -200.910156 83.4375 -205.082031 95.34375 -206.9375 C 107.257812 -208.800781 119.476562 -208.570312 132 -206.25 C 144.53125 -203.925781 156.054688 -199.363281 166.578125 -192.5625 L 156.828125 -174.46875 C 150.023438 -177.863281 142.210938 -180.722656 133.390625 -183.046875 C 124.578125 -185.367188 116.148438 -186.21875 108.109375 -185.59375 C 96.046875 -184.976562 85.914062 -180.1875 77.71875 -171.21875 C 69.519531 -162.25 63.410156 -151.265625 59.390625 -138.265625 C 55.367188 -125.273438 53.359375 -112.285156 53.359375 -99.296875 C 53.359375 -87.234375 55.523438 -75.015625 59.859375 -62.640625 C 64.191406 -50.265625 70.6875 -39.898438 79.34375 -31.546875 C 88.007812 -23.203125 98.679688 -18.875 111.359375 -18.5625 C 122.179688 -18.25 131.921875 -19.789062 140.578125 -23.1875 C 149.242188 -26.59375 158.21875 -30.460938 167.5 -34.796875 L 176.3125 -17.171875 C 166.414062 -10.671875 155.203125 -5.488281 142.671875 -1.625 C 130.148438 2.238281 116.460938 4.171875 101.609375 4.171875 Z M 101.609375 4.171875 "/></g></g></g><g fill="#f7941e" fill-opacity="1"><g transform="translate(556.276333, 1339.370673)"><g><path d="M 102.078125 3.25 C 79.492188 5.414062 62.015625 1.78125 49.640625 -7.65625 C 37.273438 -17.09375 31.09375 -30.472656 31.09375 -47.796875 L 31.09375 -312.734375 L 64.03125 -323.40625 L 64.03125 -48.71875 C 64.03125 -35.414062 67.429688 -26.519531 74.234375 -22.03125 C 81.046875 -17.550781 90.328125 -15.003906 102.078125 -14.390625 Z M 102.078125 3.25 "/></g></g></g><g fill="#f7941e" fill-opacity="1"><g transform="translate(642.114979, 1339.370673)"><g><path d="M 37.125 0 L 37.125 -197.203125 L 70.53125 -208.34375 L 70.53125 0 Z M 31.546875 -273.765625 L 31.546875 -274.21875 C 31.546875 -280.40625 33.710938 -285.585938 38.046875 -289.765625 C 42.378906 -293.941406 47.640625 -296.03125 53.828125 -296.03125 C 60.015625 -296.03125 65.191406 -293.863281 69.359375 -289.53125 C 73.535156 -285.207031 75.625 -279.953125 75.625 -273.765625 C 75.625 -267.878906 73.457031 -262.769531 69.125 -258.4375 C 64.800781 -254.113281 59.546875 -251.953125 53.359375 -251.953125 C 47.484375 -251.953125 42.378906 -254.113281 38.046875 -258.4375 C 33.710938 -262.769531 31.546875 -267.878906 31.546875 -273.765625 Z M 31.546875 -273.765625 "/></g></g></g><g fill="#f7941e" fill-opacity="1"><g transform="translate(723.77763, 1339.370673)"><g><path d="M 124.8125 -207.875 L 124.359375 -208.34375 C 107.335938 -208.03125 92.71875 -206.09375 80.5 -202.53125 C 68.28125 -198.976562 58.457031 -194.878906 51.03125 -190.234375 C 43.613281 -185.597656 38.203125 -181.5 34.796875 -177.9375 C 31.398438 -174.382812 29.703125 -172.609375 29.703125 -172.609375 L 29.234375 94.1875 L 62.640625 106.25 L 62.640625 -13.921875 C 72.234375 -8.046875 81.976562 -3.484375 91.875 -0.234375 C 101.769531 3.015625 112.441406 4.640625 123.890625 4.640625 C 142.453125 4.023438 157.765625 -1.148438 169.828125 -10.890625 C 181.890625 -20.640625 190.859375 -33.25 196.734375 -48.71875 C 202.609375 -64.1875 205.546875 -80.582031 205.546875 -97.90625 C 205.546875 -117.695312 202.609375 -135.945312 196.734375 -152.65625 C 190.859375 -169.363281 182.039062 -182.820312 170.28125 -193.03125 C 158.53125 -203.238281 143.375 -208.1875 124.8125 -207.875 Z M 116.46875 -19.484375 C 105.945312 -18.867188 95.660156 -20.800781 85.609375 -25.28125 C 75.554688 -29.769531 67.742188 -33.71875 62.171875 -37.125 L 62.171875 -169.359375 C 63.722656 -170.910156 67.125 -173.078125 72.375 -175.859375 C 77.632812 -178.640625 84.285156 -181.113281 92.328125 -183.28125 C 100.378906 -185.445312 109.195312 -186.21875 118.78125 -185.59375 C 129.300781 -185.289062 137.726562 -182.273438 144.0625 -176.546875 C 150.40625 -170.828125 155.203125 -163.554688 158.453125 -154.734375 C 161.703125 -145.921875 163.867188 -136.71875 164.953125 -127.125 C 166.035156 -117.539062 166.578125 -108.570312 166.578125 -100.21875 C 166.578125 -91.5625 166.035156 -82.671875 164.953125 -73.546875 C 163.867188 -64.421875 161.625 -55.910156 158.21875 -48.015625 C 154.820312 -40.128906 149.796875 -33.554688 143.140625 -28.296875 C 136.492188 -23.046875 127.601562 -20.109375 116.46875 -19.484375 Z M 116.46875 -19.484375 "/></g></g></g><g fill="#f7941e" fill-opacity="1"><g transform="translate(933.966672, 1339.370673)"><g><path d="M 80.265625 5.5625 C 68.515625 5.5625 56.992188 3.476562 45.703125 -0.6875 C 34.410156 -4.863281 24.28125 -10.359375 15.3125 -17.171875 L 27.375 -36.65625 C 34.488281 -31.394531 42.765625 -27.140625 52.203125 -23.890625 C 61.640625 -20.648438 70.84375 -18.875 79.8125 -18.5625 C 87.226562 -18.5625 94.648438 -19.796875 102.078125 -22.265625 C 109.503906 -24.742188 115.691406 -28.613281 120.640625 -33.875 C 125.585938 -39.132812 127.90625 -45.9375 127.59375 -54.28125 C 127.289062 -64.1875 123.503906 -71.222656 116.234375 -75.390625 C 108.960938 -79.566406 101.460938 -83.203125 93.734375 -86.296875 C 90.640625 -87.535156 87.546875 -88.773438 84.453125 -90.015625 C 81.359375 -91.253906 78.109375 -92.335938 74.703125 -93.265625 C 68.515625 -95.734375 62.25 -98.28125 55.90625 -100.90625 C 49.570312 -103.539062 43.773438 -106.867188 38.515625 -110.890625 C 32.941406 -114.910156 28.300781 -119.9375 24.59375 -125.96875 C 20.882812 -132.007812 19.03125 -139.820312 19.03125 -149.40625 C 19.03125 -162.394531 22.429688 -173.375 29.234375 -182.34375 C 36.035156 -191.320312 44.847656 -198.128906 55.671875 -202.765625 C 66.503906 -207.410156 77.953125 -209.734375 90.015625 -209.734375 C 100.535156 -209.734375 110.664062 -208.1875 120.40625 -205.09375 C 130.15625 -202 139.664062 -197.820312 148.9375 -192.5625 L 136.421875 -172.609375 C 121.566406 -180.960938 106.71875 -185.445312 91.875 -186.0625 C 82.28125 -186.0625 73.078125 -183.429688 64.265625 -178.171875 C 55.453125 -172.910156 50.890625 -164.867188 50.578125 -154.046875 C 50.578125 -148.171875 52.195312 -143.53125 55.4375 -140.125 C 58.6875 -136.726562 62.941406 -133.789062 68.203125 -131.3125 C 73.460938 -129.144531 79.335938 -126.671875 85.828125 -123.890625 C 92.328125 -121.109375 98.828125 -118.476562 105.328125 -116 C 111.515625 -113.519531 117.773438 -110.96875 124.109375 -108.34375 C 130.453125 -105.71875 136.253906 -102.238281 141.515625 -97.90625 C 147.085938 -93.570312 151.726562 -88.234375 155.4375 -81.890625 C 159.15625 -75.554688 161.015625 -67.75 161.015625 -58.46875 C 161.015625 -43.925781 156.988281 -31.9375 148.9375 -22.5 C 140.894531 -13.070312 130.6875 -6.035156 118.3125 -1.390625 C 105.945312 3.242188 93.265625 5.5625 80.265625 5.5625 Z M 80.265625 5.5625 "/></g></g></g><g fill="#f7941e" fill-opacity="1"><g transform="translate(1086.620542, 1339.370673)"><g><path d="M 180.953125 -18.5625 C 175.703125 -15.15625 170.289062 -11.984375 164.71875 -9.046875 C 159.15625 -6.109375 152.96875 -3.554688 146.15625 -1.390625 C 136.570312 1.390625 126.210938 3.085938 115.078125 3.703125 C 103.941406 4.328125 93.113281 3.398438 82.59375 0.921875 C 72.070312 -1.546875 62.789062 -6.179688 54.75 -12.984375 C 43.613281 -22.578125 34.875 -34.953125 28.53125 -50.109375 C 22.195312 -65.265625 19.03125 -81.351562 19.03125 -98.375 C 19.332031 -116.3125 22.113281 -133.550781 27.375 -150.09375 C 32.632812 -166.644531 41.21875 -180.253906 53.125 -190.921875 C 65.03125 -201.597656 80.882812 -206.9375 100.6875 -206.9375 C 129.144531 -206.9375 149.25 -197.8125 161 -179.5625 C 172.757812 -161.3125 178.796875 -136.566406 179.109375 -105.328125 L 54.75 -105.328125 C 53.507812 -87.691406 55.441406 -72.222656 60.546875 -58.921875 C 65.648438 -45.617188 72.992188 -35.410156 82.578125 -28.296875 C 92.171875 -21.179688 103.3125 -17.78125 116 -18.09375 C 127.75 -18.40625 138.03125 -20.257812 146.84375 -23.65625 C 155.664062 -27.0625 164.410156 -30.773438 173.078125 -34.796875 Z M 144.765625 -125.28125 L 145.234375 -124.8125 C 145.234375 -134.707031 143.765625 -144.375 140.828125 -153.8125 C 137.890625 -163.25 133.25 -170.984375 126.90625 -177.015625 C 120.5625 -183.046875 112.285156 -186.0625 102.078125 -186.0625 C 91.253906 -186.0625 82.59375 -183.046875 76.09375 -177.015625 C 69.601562 -170.984375 64.8125 -163.328125 61.71875 -154.046875 C 58.625 -144.765625 56.613281 -135.175781 55.6875 -125.28125 Z M 144.765625 -125.28125 "/></g></g></g></svg>