<svg xmlns="http://www.w3.org/2000/svg" xmlns:xlink="http://www.w3.org/1999/xlink" width="2000" zoomAndPan="magnify" viewBox="0 0 1500 1499.999933" height="2000" preserveAspectRatio="xMidYMid meet" version="1.0"><defs><g/><clipPath id="3526ed425d"><path d="M 475.574219 212.246094 L 1067.285156 212.246094 L 1067.285156 803.957031 L 475.574219 803.957031 Z M 475.574219 212.246094 " clip-rule="nonzero"/></clipPath><clipPath id="34a0d5fac0"><path d="M 266.632812 0 L 1093.195312 0 L 1093.195312 826.5625 L 266.632812 826.5625 Z M 266.632812 0 " clip-rule="nonzero"/></clipPath><clipPath id="ce51c2f840"><rect x="0" width="1341" y="0" height="1186"/></clipPath></defs><g transform="matrix(1, 0, 0, 1, 70, 150)"><g clip-path="url(#ce51c2f840)"><path fill="#ff0000" d="M 1060.109375 513.164062 C 1056.953125 518.347656 1051.589844 521.402344 1046.292969 524.363281 C 1048.53125 527.601562 1048.449219 531.949219 1047.453125 535.757812 C 1046.453125 539.570312 1044.640625 543.132812 1043.625 546.941406 C 1042.613281 550.753906 1042.871094 555.789062 1045.082031 559.039062 C 1042.039062 559.171875 1039.488281 561.609375 1038.246094 564.40625 C 1037.019531 567.203125 1036.820312 570.308594 1036.558594 573.347656 C 1036.300781 576.390625 1035.890625 579.53125 1034.304688 582.128906 L 1034.371094 582.144531 C 1038.738281 583.875 1043.28125 585.726562 1046.375 589.273438 C 1047.273438 590.320312 1048.042969 591.496094 1048.515625 592.773438 C 1049.597656 595.714844 1049.15625 599.050781 1047.945312 601.929688 C 1046.734375 604.824219 1044.820312 607.355469 1042.941406 609.855469 C 1045.394531 612.292969 1049.417969 615.039062 1050.527344 618.324219 C 1051.230469 620.421875 1051.296875 622.675781 1051.609375 624.867188 C 1052.691406 632.617188 1056.808594 639.910156 1056.546875 647.742188 L 1056.546875 647.757812 C 1056.53125 648.558594 1055.945312 649.230469 1055.257812 649.640625 C 1054.570312 650.050781 1053.800781 650.277344 1053.101562 650.636719 C 1050.664062 651.878906 1049.371094 654.644531 1048.863281 657.34375 C 1048.355469 660.042969 1048.4375 662.824219 1047.867188 665.5 C 1046.707031 670.960938 1042.519531 675.394531 1038.886719 679.648438 C 1040.867188 682.132812 1042.875 684.648438 1044.003906 687.613281 C 1045.132812 690.570312 1045.261719 694.085938 1043.578125 696.765625 C 1041.519531 700.054688 1036.5625 701.625 1032.816406 702.605469 C 1035.582031 705.289062 1038.507812 708.246094 1039.0625 712.058594 C 1039.4375 714.707031 1038.621094 717.402344 1038.960938 720.054688 C 1039.257812 722.339844 1040.417969 724.453125 1041.90625 726.203125 C 1043.390625 727.953125 1045.207031 729.425781 1046.988281 730.882812 C 1043.75 735.738281 1044.078125 742.6875 1045.601562 748.328125 C 1047.125 753.96875 1049.816406 759.234375 1051.308594 764.890625 C 1053.222656 772.105469 1053.09375 779.839844 1050.964844 786.984375 C 1041.269531 789.285156 1030.035156 789.304688 1020.601562 786.082031 C 1016.269531 784.597656 1012.113281 782.554688 1007.632812 781.585938 C 1003.152344 780.621094 997.753906 780.769531 994.109375 783.53125 C 992.441406 780.785156 989.875 778.59375 986.898438 777.402344 C 983.449219 776.011719 979.621094 775.960938 975.945312 775.375 C 972.269531 774.785156 968.179688 773.199219 966.101562 770.109375 C 965.21875 773.980469 963.40625 777.644531 960.835938 780.6875 C 959.921875 781.769531 958.808594 782.828125 957.40625 783.042969 C 956.34375 783.1875 955.292969 782.828125 954.296875 782.4375 C 950.539062 780.96875 946.824219 778.710938 943.519531 776.386719 C 941.558594 776.289062 939.792969 777.5625 938.433594 778.972656 C 937.078125 780.375 935.898438 782.027344 934.25 783.074219 C 930.011719 785.742188 924.257812 783.660156 919.597656 785.476562 C 915.773438 786.964844 912.535156 790.578125 910.441406 794.109375 C 909.101562 792.96875 907.304688 792.574219 905.554688 792.425781 C 903.804688 792.28125 902.039062 792.34375 900.324219 791.953125 C 897.757812 791.382812 895.5 789.859375 893 789.058594 C 889.453125 787.914062 885.558594 788.257812 882.027344 787.097656 C 878.019531 785.789062 874.886719 782.683594 871.90625 779.6875 C 868.195312 782.46875 866.480469 783.089844 862.160156 784.804688 C 860.429688 785.492188 858.546875 786.09375 856.730469 785.65625 C 855.230469 785.28125 853.984375 784.234375 852.890625 783.140625 C 849.667969 779.9375 847.066406 775.816406 845.269531 771.628906 C 840.558594 774.046875 834.703125 772.253906 829.652344 773.855469 C 826.121094 774.984375 822.964844 777.976562 821.738281 781.492188 C 819.1875 779.054688 815.113281 779.039062 811.746094 780.085938 C 808.378906 781.132812 805.335938 783.046875 801.96875 784.09375 C 797.402344 785.5 792.335938 785.207031 787.972656 783.261719 L 787.988281 782.316406 C 786.335938 788.597656 781.835938 794.070312 776.003906 796.902344 C 774.351562 797.703125 772.519531 798.308594 770.722656 798.03125 C 769.203125 797.789062 767.839844 796.953125 766.597656 796.050781 C 762.035156 792.796875 758.144531 788.597656 755.234375 783.789062 C 750.050781 784.671875 744.769531 785.554688 739.945312 783.460938 C 737.472656 782.398438 735.332031 780.617188 732.816406 779.679688 C 728.859375 778.226562 724.117188 779.171875 721.007812 782.019531 C 720.386719 778.996094 717.785156 776.476562 714.972656 775.21875 C 712.144531 773.960938 709.019531 773.617188 705.949219 773.289062 C 702.875 772.964844 699.75 772.605469 696.9375 771.3125 C 696.449219 775.808594 694.652344 779.257812 691.609375 782.609375 C 690.382812 783.964844 688.894531 785.207031 687.097656 785.488281 C 685.9375 785.667969 684.742188 785.421875 683.613281 785.113281 C 679.492188 784 675.585938 782.140625 672.132812 779.632812 C 666.507812 781.5625 663.171875 787.449219 657.367188 788.742188 C 654.640625 789.347656 651.726562 788.808594 649 789.414062 C 646.855469 789.886719 644.941406 791.015625 642.832031 791.636719 C 639.121094 792.734375 634.902344 792.226562 631.582031 794.207031 C 629.832031 790.234375 625.566406 786.996094 621.398438 785.800781 C 618.941406 785.097656 616.34375 785.046875 613.84375 784.507812 C 609.070312 783.496094 603.851562 779.816406 600.960938 775.894531 C 598.816406 777.875 598.421875 778.25 595.890625 779.722656 C 593.355469 781.191406 590.378906 782.058594 587.503906 781.632812 C 584.871094 781.242188 582.464844 779.738281 580.78125 777.691406 C 579.082031 775.648438 577.710938 772.25 577.367188 769.613281 C 575.15625 773.144531 571.101562 775.324219 566.96875 775.746094 C 564.140625 776.039062 561.257812 775.582031 558.464844 776.101562 C 554.558594 776.839844 550.421875 780.175781 548.785156 783.789062 C 545.335938 781.234375 540.691406 780.90625 536.421875 781.5 C 529.570312 782.445312 523.195312 785.441406 516.523438 787.222656 C 508.820312 789.28125 498.0625 789.335938 491.976562 786.996094 C 489.835938 779.851562 489.722656 772.117188 491.636719 764.90625 C 493.136719 759.261719 495.835938 753.980469 497.34375 748.339844 C 498.867188 742.699219 499.207031 735.75 495.953125 730.894531 C 497.753906 729.4375 499.550781 727.980469 501.039062 726.214844 C 502.527344 724.449219 503.691406 722.355469 503.980469 720.066406 C 504.324219 717.414062 503.492188 714.71875 503.882812 712.070312 C 504.441406 708.257812 507.367188 705.300781 510.128906 702.617188 C 506.367188 701.652344 501.429688 700.066406 499.367188 696.777344 C 497.683594 694.097656 497.8125 690.582031 498.941406 687.625 C 500.070312 684.664062 502.082031 682.128906 504.058594 679.660156 C 500.429688 675.40625 496.242188 670.992188 495.078125 665.511719 C 494.507812 662.832031 494.605469 660.054688 494.082031 657.355469 C 493.570312 654.65625 492.28125 651.894531 489.84375 650.648438 C 489.140625 650.289062 488.355469 650.0625 487.6875 649.652344 C 487 649.242188 486.414062 648.570312 486.394531 647.769531 L 486.394531 647.753906 C 486.121094 639.9375 490.238281 632.628906 491.335938 624.878906 C 491.648438 622.6875 491.710938 620.433594 492.417969 618.339844 C 493.527344 615.050781 497.53125 612.320312 500 609.867188 C 498.105469 607.367188 496.207031 604.832031 495 601.941406 C 493.792969 599.046875 493.332031 595.710938 494.429688 592.785156 C 494.902344 591.492188 495.671875 590.316406 496.570312 589.285156 C 499.644531 585.734375 504.207031 583.871094 508.574219 582.15625 L 508.640625 582.140625 C 507.054688 579.527344 506.660156 576.402344 506.382812 573.359375 C 506.125 570.320312 505.925781 567.195312 504.699219 564.417969 C 503.472656 561.636719 500.921875 559.1875 497.863281 559.050781 C 500.074219 555.78125 500.332031 550.761719 499.320312 546.953125 C 498.304688 543.148438 496.492188 539.582031 495.492188 535.769531 C 494.496094 531.960938 494.410156 527.613281 496.652344 524.375 C 491.355469 521.414062 485.988281 518.359375 482.835938 513.175781 C 481.640625 511.230469 480.824219 508.90625 481.234375 506.667969 C 481.542969 504.964844 482.523438 503.464844 483.585938 502.085938 C 485.320312 499.847656 487.316406 497.820312 489.539062 496.050781 C 491.027344 494.875 492.628906 493.777344 493.808594 492.292969 C 494.984375 490.804688 495.691406 488.777344 495.050781 486.976562 C 494.707031 483.984375 494.804688 480.386719 495.753906 477.511719 C 496.8125 474.289062 499.183594 471.609375 500.152344 468.355469 C 501.265625 464.644531 500.410156 460.261719 497.863281 457.347656 C 499.648438 456.597656 501.492188 455.796875 502.769531 454.339844 C 503.914062 453.03125 504.488281 451.328125 504.929688 449.644531 C 506.171875 444.933594 506.597656 440.046875 507.023438 435.207031 C 507.070312 434.734375 507.105469 434.210938 506.84375 433.804688 C 506.597656 433.394531 505.027344 432.988281 504.730469 433.363281 C 499.367188 432.070312 494.96875 427.410156 493.988281 421.964844 C 493.007812 416.523438 495.527344 410.632812 500.121094 407.558594 C 496.113281 405.042969 493.300781 400.625 491.863281 396.113281 C 490.429688 391.597656 489.964844 386.839844 489.25 382.164062 C 488.53125 377.484375 487.480469 372.742188 485.046875 368.6875 C 488.859375 365.828125 492.960938 363.0625 494.21875 358.664062 C 495.148438 355.460938 494.9375 352.007812 495.707031 348.753906 C 496.75 344.257812 499.714844 340.253906 503.6875 337.929688 C 501.726562 335.445312 499.792969 332.222656 498.8125 329.21875 C 497.832031 326.207031 497.816406 322.757812 499.453125 320.046875 C 501.511719 316.59375 506.109375 314.832031 510.035156 313.914062 L 510.195312 313.914062 C 508.25 312.476562 508.328125 312.574219 506.925781 310.613281 C 505.222656 308.226562 504.488281 305.269531 504.046875 302.355469 C 503.601562 299.445312 503.40625 296.488281 502.589844 293.660156 C 502.65625 291.648438 501.574219 289.261719 499.890625 288.164062 C 498.777344 287.445312 497.324219 286.988281 496.78125 285.777344 C 496.441406 284.992188 496.601562 284.0625 497.042969 283.339844 C 497.484375 282.621094 498.285156 281.949219 499.039062 281.539062 C 498.792969 273.476562 495.507812 265.859375 493.429688 258.0625 C 490.863281 248.496094 490.078125 238.472656 491.125 228.628906 C 497.226562 226.289062 508.871094 226.863281 516.570312 228.925781 C 523.238281 230.710938 529.617188 233.699219 536.472656 234.648438 C 540.722656 235.238281 545.367188 234.910156 548.832031 232.363281 C 550.46875 235.992188 554.605469 239.328125 558.515625 240.046875 C 561.3125 240.570312 564.1875 240.113281 567.015625 240.40625 C 571.167969 240.832031 575.207031 243.003906 577.414062 246.535156 C 577.773438 243.902344 579.144531 240.519531 580.828125 238.457031 C 582.53125 236.414062 584.933594 234.925781 587.550781 234.515625 C 590.445312 234.074219 593.40625 234.957031 595.9375 236.429688 C 598.472656 237.882812 598.863281 238.257812 601.007812 240.253906 C 603.917969 236.332031 609.117188 232.648438 613.890625 231.636719 C 616.390625 231.113281 618.992188 231.046875 621.445312 230.347656 C 625.628906 229.152344 629.882812 225.933594 631.628906 221.941406 C 634.96875 223.921875 639.167969 223.394531 642.878906 224.507812 C 644.972656 225.132812 646.902344 226.257812 649.046875 226.734375 C 651.792969 227.335938 654.6875 226.800781 657.417969 227.402344 C 663.222656 228.691406 666.554688 234.597656 672.179688 236.511719 C 675.632812 234.011719 679.539062 232.128906 683.660156 231.03125 C 684.804688 230.722656 685.984375 230.476562 687.144531 230.65625 C 688.941406 230.933594 690.445312 232.179688 691.65625 233.539062 C 694.683594 236.890625 696.496094 240.339844 696.984375 244.835938 C 699.796875 243.546875 702.921875 243.183594 705.996094 242.855469 C 709.070312 242.527344 712.191406 242.183594 715.019531 240.925781 C 717.847656 239.667969 720.433594 237.148438 721.054688 234.125 C 724.164062 236.984375 728.90625 237.921875 732.863281 236.464844 C 735.394531 235.535156 737.523438 233.75 739.992188 232.683594 C 744.816406 230.609375 750.097656 231.488281 755.28125 232.359375 C 758.191406 227.550781 762.082031 223.363281 766.644531 220.09375 C 767.902344 219.195312 769.246094 218.363281 770.769531 218.113281 C 772.582031 217.835938 774.414062 218.441406 776.050781 219.242188 C 781.886719 222.070312 786.386719 227.550781 788.035156 233.828125 L 788.019531 232.882812 C 792.386719 230.9375 797.453125 230.640625 802.015625 232.050781 C 805.382812 233.09375 808.425781 235.007812 811.792969 236.058594 C 815.164062 237.101562 819.21875 237.070312 821.785156 234.652344 C 822.996094 238.152344 826.152344 241.164062 829.699219 242.289062 C 834.75 243.890625 840.605469 242.09375 845.316406 244.515625 C 847.113281 240.332031 849.714844 236.222656 852.9375 233.003906 C 854.035156 231.910156 855.277344 230.863281 856.777344 230.488281 C 858.59375 230.046875 860.476562 230.648438 862.207031 231.339844 C 866.507812 233.054688 868.242188 233.679688 871.953125 236.457031 C 874.929688 233.460938 878.054688 230.375 882.078125 229.046875 C 885.605469 227.886719 889.515625 228.230469 893.046875 227.085938 C 895.546875 226.285156 897.804688 224.765625 900.371094 224.191406 C 902.089844 223.816406 903.855469 223.878906 905.601562 223.71875 C 907.355469 223.574219 909.152344 223.164062 910.492188 222.035156 C 912.585938 225.566406 915.804688 229.199219 919.644531 230.667969 C 924.324219 232.46875 930.078125 230.394531 934.296875 233.070312 C 935.964844 234.117188 937.125 235.769531 938.480469 237.175781 C 939.839844 238.578125 941.605469 239.855469 943.566406 239.757812 C 946.867188 237.453125 950.597656 235.195312 954.34375 233.707031 C 955.34375 233.316406 956.386719 232.953125 957.453125 233.101562 C 958.855469 233.300781 959.96875 234.363281 960.882812 235.457031 C 963.453125 238.5 965.265625 242.164062 966.152344 246.039062 C 968.226562 242.949219 972.316406 241.359375 975.992188 240.773438 C 979.671875 240.183594 983.480469 240.132812 986.945312 238.746094 C 989.921875 237.550781 992.488281 235.359375 994.160156 232.613281 C 997.804688 235.394531 1003.199219 235.542969 1007.679688 234.558594 C 1012.160156 233.59375 1016.316406 231.535156 1020.648438 230.0625 C 1030.082031 226.839844 1042.195312 226.320312 1051.914062 228.621094 C 1052.957031 238.464844 1052.171875 248.488281 1049.609375 258.054688 C 1047.515625 265.851562 1044.230469 273.457031 1044 281.53125 C 1044.753906 281.921875 1045.539062 282.59375 1045.996094 283.332031 C 1046.453125 284.070312 1046.597656 285 1046.257812 285.769531 C 1045.714844 286.996094 1044.261719 287.4375 1043.148438 288.15625 C 1041.464844 289.253906 1040.382812 291.640625 1040.449219 293.652344 C 1039.648438 296.480469 1039.453125 299.4375 1038.992188 302.347656 C 1038.535156 305.261719 1037.820312 308.203125 1036.113281 310.605469 C 1034.710938 312.566406 1034.789062 312.472656 1032.84375 313.90625 L 1033.007812 313.90625 C 1036.929688 314.824219 1041.507812 316.589844 1043.585938 320.039062 C 1045.203125 322.75 1045.203125 326.203125 1044.226562 329.207031 C 1043.242188 332.21875 1041.3125 335.4375 1039.351562 337.921875 C 1043.324219 340.246094 1046.289062 344.265625 1047.332031 348.746094 C 1048.085938 352 1047.890625 355.433594 1048.820312 358.65625 C 1050.09375 363.039062 1054.183594 365.820312 1057.992188 368.679688 C 1055.539062 372.734375 1054.507812 377.476562 1053.789062 382.15625 C 1053.074219 386.832031 1052.617188 391.589844 1051.175781 396.105469 C 1049.734375 400.617188 1046.9375 405.03125 1042.917969 407.550781 C 1047.515625 410.625 1050.015625 416.53125 1049.050781 421.957031 C 1048.082031 427.386719 1043.683594 432.0625 1038.308594 433.355469 C 1038.011719 432.980469 1036.441406 433.386719 1036.199219 433.796875 C 1035.953125 434.207031 1035.984375 434.710938 1036.015625 435.199219 C 1036.441406 440.054688 1036.882812 444.925781 1038.109375 449.636719 C 1038.550781 451.320312 1039.125 453.023438 1040.269531 454.332031 C 1041.542969 455.789062 1043.390625 456.589844 1045.175781 457.339844 C 1042.625 460.253906 1041.773438 464.636719 1042.886719 468.347656 C 1043.855469 471.601562 1046.226562 474.285156 1047.285156 477.503906 C 1048.234375 480.363281 1048.332031 483.960938 1047.988281 486.96875 C 1047.347656 488.753906 1048.054688 490.796875 1049.230469 492.285156 C 1050.40625 493.769531 1052.011719 494.851562 1053.5 496.042969 C 1055.707031 497.8125 1057.714844 499.839844 1059.453125 502.078125 C 1060.511719 503.453125 1061.496094 504.957031 1061.804688 506.660156 C 1062.136719 508.894531 1061.304688 511.199219 1060.109375 513.164062 Z M 1060.109375 513.164062 " fill-opacity="1" fill-rule="nonzero"/><g clip-path="url(#3526ed425d)"><path fill="#000000" d="M 475.574219 212.246094 L 1067.285156 212.246094 L 1067.285156 803.957031 L 475.574219 803.957031 Z M 475.574219 212.246094 " fill-opacity="1" fill-rule="nonzero"/></g><g clip-path="url(#34a0d5fac0)"><path fill="#ffe63f" d="M 900.238281 761.914062 C 828.113281 761.914062 781.46875 727.523438 758.734375 682.546875 L 821.980469 645.90625 C 838.648438 673.121094 860.257812 693.078125 898.566406 693.078125 C 930.726562 693.078125 951.265625 676.992188 951.265625 654.785156 C 951.265625 621.402344 906.703125 608.324219 875.253906 594.863281 C 819.203125 571.003906 782 541.027344 782 477.75 C 782 419.496094 826.394531 375.117188 895.804688 375.117188 C 945.164062 375.117188 980.710938 392.3125 1006.207031 437.238281 L 945.722656 476.09375 C 932.414062 452.234375 917.996094 442.8125 895.789062 442.8125 C 873.023438 442.8125 858.585938 457.246094 858.585938 476.09375 C 858.585938 499.410156 873.003906 508.832031 906.324219 523.269531 C 976.132812 553.179688 1028.960938 576.707031 1028.960938 653.675781 C 1028.992188 723.636719 974.066406 761.914062 900.238281 761.914062 Z M 721.332031 644.816406 C 721.332031 725.289062 671.761719 767.832031 602.945312 767.832031 C 540.777344 767.832031 503.539062 744.058594 485.21875 702.71875 L 484.144531 702.71875 L 547.339844 658.539062 C 559.542969 680.148438 570.539062 695.496094 597.160156 695.496094 C 622.703125 695.496094 638.660156 682.566406 638.660156 643.742188 L 638.660156 372.027344 L 721.332031 372.027344 Z M 266.632812 826.730469 L 1093.363281 826.730469 L 1093.363281 0 L 266.632812 0 Z M 266.632812 826.730469 " fill-opacity="1" fill-rule="evenodd"/></g><g fill="#ffe63f" fill-opacity="1"><g transform="translate(20.105011, 1093.75639)"><g><path d="M 77.578125 -160.125 L 51.59375 -150.875 L 51.234375 14.59375 C 51.234375 21.46875 50.695312 28.519531 49.625 35.75 C 48.5625 42.988281 46.367188 49.570312 43.046875 55.5 C 39.734375 61.4375 34.632812 65.945312 27.75 69.03125 C 20.875 72.113281 11.503906 72.828125 -0.359375 71.171875 C -2.253906 70.691406 -4.445312 70.035156 -6.9375 69.203125 C -9.425781 68.378906 -11.503906 67.609375 -13.171875 66.890625 L -18.859375 83.96875 C -13.878906 86.101562 -9.367188 87.703125 -5.328125 88.765625 C -1.296875 89.835938 3.5625 90.375 9.25 90.375 C 30.125 90.375 46.726562 84.207031 59.0625 71.875 C 71.40625 59.539062 77.578125 40.085938 77.578125 13.515625 Z M 47.6875 -209.9375 L 47.6875 -210.296875 C 47.6875 -215.035156 49.34375 -219.003906 52.65625 -222.203125 C 55.976562 -225.410156 60.015625 -227.015625 64.765625 -227.015625 C 69.503906 -227.015625 73.472656 -225.351562 76.671875 -222.03125 C 79.878906 -218.71875 81.484375 -214.6875 81.484375 -209.9375 C 81.484375 -205.425781 79.820312 -201.507812 76.5 -198.1875 C 73.175781 -194.875 69.144531 -193.21875 64.40625 -193.21875 C 59.894531 -193.21875 55.976562 -194.875 52.65625 -198.1875 C 49.34375 -201.507812 47.6875 -205.425781 47.6875 -209.9375 Z M 47.6875 -209.9375 "/></g></g></g><g fill="#ffe63f" fill-opacity="1"><g transform="translate(123.296042, 1093.75639)"><g><path d="M 134.859375 -23.84375 C 127.503906 -16.488281 117.835938 -10.140625 105.859375 -4.796875 C 93.878906 0.535156 80.179688 3.082031 64.765625 2.84375 C 55.515625 2.601562 46.972656 0.171875 39.140625 -4.453125 C 31.316406 -9.078125 25.148438 -15.242188 20.640625 -22.953125 C 16.128906 -30.660156 13.992188 -39.257812 14.234375 -48.75 C 14.472656 -63.925781 19.75 -75.84375 30.0625 -84.5 C 40.382812 -93.164062 53.019531 -97.378906 67.96875 -97.140625 C 76.5 -97.140625 83.90625 -97.140625 90.1875 -97.140625 C 96.476562 -97.140625 103.1875 -97.140625 110.3125 -97.140625 L 110.3125 -112.4375 C 110.3125 -121.457031 106.867188 -128.691406 99.984375 -134.140625 C 93.109375 -139.597656 85.28125 -142.328125 76.5 -142.328125 C 68.675781 -142.328125 61.617188 -141.378906 55.328125 -139.484375 C 49.046875 -137.585938 42.460938 -134.859375 35.578125 -131.296875 L 29.171875 -146.25 C 38.429688 -151.226562 47.09375 -154.722656 55.15625 -156.734375 C 63.21875 -158.753906 72.585938 -159.765625 83.265625 -159.765625 C 92.035156 -159.765625 100.332031 -157.925781 108.15625 -154.25 C 115.988281 -150.570312 122.394531 -145.351562 127.375 -138.59375 C 132.363281 -131.832031 134.859375 -123.585938 134.859375 -113.859375 Z M 109.59375 -27.40625 L 109.59375 -80.765625 C 105.5625 -80.765625 100.460938 -80.765625 94.296875 -80.765625 C 88.128906 -80.765625 81.84375 -80.648438 75.4375 -80.421875 C 65.46875 -80.421875 57.160156 -77.691406 50.515625 -72.234375 C 43.878906 -66.773438 40.5625 -59.179688 40.5625 -49.453125 C 40.5625 -40.679688 43.941406 -32.675781 50.703125 -25.4375 C 57.460938 -18.207031 65.941406 -14.59375 76.140625 -14.59375 C 83.734375 -14.351562 90.613281 -15.832031 96.78125 -19.03125 C 102.945312 -22.238281 107.21875 -25.03125 109.59375 -27.40625 Z M 109.59375 -27.40625 "/></g></g></g><g fill="#ffe63f" fill-opacity="1"><g transform="translate(277.370934, 1093.75639)"><g><path d="M 95 -3.5625 L 71.875 3.921875 L 7.46875 -152.65625 L 31.3125 -162.609375 L 85.75 -31.671875 L 135.21875 -160.484375 L 151.234375 -152.65625 Z M 95 -3.5625 "/></g></g></g><g fill="#ffe63f" fill-opacity="1"><g transform="translate(436.783296, 1093.75639)"><g><path d="M 134.859375 -23.84375 C 127.503906 -16.488281 117.835938 -10.140625 105.859375 -4.796875 C 93.878906 0.535156 80.179688 3.082031 64.765625 2.84375 C 55.515625 2.601562 46.972656 0.171875 39.140625 -4.453125 C 31.316406 -9.078125 25.148438 -15.242188 20.640625 -22.953125 C 16.128906 -30.660156 13.992188 -39.257812 14.234375 -48.75 C 14.472656 -63.925781 19.75 -75.84375 30.0625 -84.5 C 40.382812 -93.164062 53.019531 -97.378906 67.96875 -97.140625 C 76.5 -97.140625 83.90625 -97.140625 90.1875 -97.140625 C 96.476562 -97.140625 103.1875 -97.140625 110.3125 -97.140625 L 110.3125 -112.4375 C 110.3125 -121.457031 106.867188 -128.691406 99.984375 -134.140625 C 93.109375 -139.597656 85.28125 -142.328125 76.5 -142.328125 C 68.675781 -142.328125 61.617188 -141.378906 55.328125 -139.484375 C 49.046875 -137.585938 42.460938 -134.859375 35.578125 -131.296875 L 29.171875 -146.25 C 38.429688 -151.226562 47.09375 -154.722656 55.15625 -156.734375 C 63.21875 -158.753906 72.585938 -159.765625 83.265625 -159.765625 C 92.035156 -159.765625 100.332031 -157.925781 108.15625 -154.25 C 115.988281 -150.570312 122.394531 -145.351562 127.375 -138.59375 C 132.363281 -131.832031 134.859375 -123.585938 134.859375 -113.859375 Z M 109.59375 -27.40625 L 109.59375 -80.765625 C 105.5625 -80.765625 100.460938 -80.765625 94.296875 -80.765625 C 88.128906 -80.765625 81.84375 -80.648438 75.4375 -80.421875 C 65.46875 -80.421875 57.160156 -77.691406 50.515625 -72.234375 C 43.878906 -66.773438 40.5625 -59.179688 40.5625 -49.453125 C 40.5625 -40.679688 43.941406 -32.675781 50.703125 -25.4375 C 57.460938 -18.207031 65.941406 -14.59375 76.140625 -14.59375 C 83.734375 -14.351562 90.613281 -15.832031 96.78125 -19.03125 C 102.945312 -22.238281 107.21875 -25.03125 109.59375 -27.40625 Z M 109.59375 -27.40625 "/></g></g></g><g fill="#ffe63f" fill-opacity="1"><g transform="translate(590.858188, 1093.75639)"><g><path d="M 61.5625 4.265625 C 52.539062 4.265625 43.703125 2.664062 35.046875 -0.53125 C 26.390625 -3.738281 18.625 -7.953125 11.75 -13.171875 L 21 -28.109375 C 26.445312 -24.078125 32.789062 -20.816406 40.03125 -18.328125 C 47.269531 -15.835938 54.328125 -14.472656 61.203125 -14.234375 C 66.898438 -14.234375 72.59375 -15.179688 78.28125 -17.078125 C 83.976562 -18.972656 88.722656 -21.9375 92.515625 -25.96875 C 96.304688 -30.007812 98.085938 -35.226562 97.859375 -41.625 C 97.617188 -49.21875 94.707031 -54.613281 89.125 -57.8125 C 83.550781 -61.019531 77.800781 -63.8125 71.875 -66.1875 C 69.5 -67.132812 67.125 -68.082031 64.75 -69.03125 C 62.382812 -69.976562 59.894531 -70.804688 57.28125 -71.515625 C 52.539062 -73.421875 47.738281 -75.378906 42.875 -77.390625 C 38.007812 -79.410156 33.5625 -81.960938 29.53125 -85.046875 C 25.257812 -88.128906 21.703125 -91.984375 18.859375 -96.609375 C 16.015625 -101.234375 14.59375 -107.222656 14.59375 -114.578125 C 14.59375 -124.535156 17.203125 -132.953125 22.421875 -139.828125 C 27.640625 -146.710938 34.398438 -151.929688 42.703125 -155.484375 C 51.003906 -159.046875 59.78125 -160.828125 69.03125 -160.828125 C 77.09375 -160.828125 84.859375 -159.640625 92.328125 -157.265625 C 99.804688 -154.898438 107.101562 -151.703125 114.21875 -147.671875 L 104.609375 -132.375 C 93.222656 -138.769531 81.835938 -142.207031 70.453125 -142.6875 C 63.097656 -142.6875 56.039062 -140.671875 49.28125 -136.640625 C 42.519531 -132.609375 39.019531 -126.441406 38.78125 -118.140625 C 38.78125 -113.628906 40.023438 -110.066406 42.515625 -107.453125 C 45.003906 -104.847656 48.269531 -102.597656 52.3125 -100.703125 C 56.34375 -99.035156 60.847656 -97.132812 65.828125 -95 C 70.804688 -92.863281 75.785156 -90.847656 80.765625 -88.953125 C 85.515625 -87.054688 90.320312 -85.097656 95.1875 -83.078125 C 100.050781 -81.066406 104.5 -78.398438 108.53125 -75.078125 C 112.800781 -71.753906 116.359375 -67.660156 119.203125 -62.796875 C 122.046875 -57.941406 123.46875 -51.953125 123.46875 -44.828125 C 123.46875 -33.679688 120.382812 -24.488281 114.21875 -17.25 C 108.050781 -10.019531 100.222656 -4.625 90.734375 -1.0625 C 81.242188 2.488281 71.519531 4.265625 61.5625 4.265625 Z M 61.5625 4.265625 "/></g></g></g><g fill="#ffe63f" fill-opacity="1"><g transform="translate(724.650686, 1093.75639)"><g><path d="M 77.921875 3.203125 C 64.640625 2.960938 53.253906 -1.007812 43.765625 -8.71875 C 34.273438 -16.425781 27.039062 -26.328125 22.0625 -38.421875 C 17.082031 -50.523438 14.59375 -63.097656 14.59375 -76.140625 C 14.59375 -90.847656 17.5 -104.84375 23.3125 -118.125 C 29.125 -131.414062 37.484375 -141.738281 48.390625 -149.09375 C 55.742188 -154.070312 63.988281 -157.269531 73.125 -158.6875 C 82.257812 -160.113281 91.628906 -159.9375 101.234375 -158.15625 C 110.835938 -156.382812 119.675781 -152.890625 127.75 -147.671875 L 120.265625 -133.796875 C 115.046875 -136.398438 109.054688 -138.59375 102.296875 -140.375 C 95.535156 -142.15625 89.070312 -142.804688 82.90625 -142.328125 C 73.65625 -141.859375 65.882812 -138.179688 59.59375 -131.296875 C 53.3125 -124.421875 48.628906 -116 45.546875 -106.03125 C 42.460938 -96.070312 40.921875 -86.109375 40.921875 -76.140625 C 40.921875 -66.890625 42.582031 -57.519531 45.90625 -48.03125 C 49.226562 -38.539062 54.207031 -30.59375 60.84375 -24.1875 C 67.488281 -17.789062 75.675781 -14.472656 85.40625 -14.234375 C 93.707031 -13.992188 101.175781 -15.175781 107.8125 -17.78125 C 114.457031 -20.394531 121.335938 -23.363281 128.453125 -26.6875 L 135.21875 -13.171875 C 127.625 -8.179688 119.019531 -4.203125 109.40625 -1.234375 C 99.800781 1.722656 89.304688 3.203125 77.921875 3.203125 Z M 77.921875 3.203125 "/></g></g></g><g fill="#ffe63f" fill-opacity="1"><g transform="translate(867.694837, 1093.75639)"><g><path d="M 86.109375 -140.203125 L 85.75 -140.203125 C 77.207031 -140.203125 69.910156 -138.835938 63.859375 -136.109375 C 57.816406 -133.378906 52.425781 -130 47.6875 -125.96875 L 47.6875 0 L 21.703125 0 L 21.703125 -129.515625 C 31.671875 -140.671875 44.007812 -148.738281 58.71875 -153.71875 C 66.539062 -156.5625 74.484375 -158.632812 82.546875 -159.9375 C 90.617188 -161.25 100.109375 -160.957031 111.015625 -159.0625 C 109.359375 -155.96875 107.578125 -152.523438 105.671875 -148.734375 C 103.773438 -144.941406 102.117188 -141.382812 100.703125 -138.0625 C 98.328125 -138.53125 95.773438 -139.003906 93.046875 -139.484375 C 90.316406 -139.960938 88.003906 -140.203125 86.109375 -140.203125 Z M 86.109375 -140.203125 "/></g></g></g><g fill="#ffe63f" fill-opacity="1"><g transform="translate(983.695765, 1093.75639)"><g><path d="M 28.46875 0 L 28.46875 -151.234375 L 54.078125 -159.765625 L 54.078125 0 Z M 24.203125 -209.9375 L 24.203125 -210.296875 C 24.203125 -215.035156 25.859375 -219.003906 29.171875 -222.203125 C 32.492188 -225.410156 36.53125 -227.015625 41.28125 -227.015625 C 46.019531 -227.015625 49.988281 -225.351562 53.1875 -222.03125 C 56.394531 -218.71875 58 -214.6875 58 -209.9375 C 58 -205.425781 56.335938 -201.507812 53.015625 -198.1875 C 49.691406 -194.875 45.660156 -193.21875 40.921875 -193.21875 C 36.410156 -193.21875 32.492188 -194.875 29.171875 -198.1875 C 25.859375 -201.507812 24.203125 -205.425781 24.203125 -209.9375 Z M 24.203125 -209.9375 "/></g></g></g><g fill="#ffe63f" fill-opacity="1"><g transform="translate(1063.046113, 1093.75639)"><g><path d="M 95.71875 -159.40625 L 95.359375 -159.765625 C 82.316406 -159.523438 71.109375 -158.039062 61.734375 -155.3125 C 52.367188 -152.59375 44.835938 -149.453125 39.140625 -145.890625 C 33.441406 -142.328125 29.285156 -139.179688 26.671875 -136.453125 C 24.066406 -133.734375 22.765625 -132.375 22.765625 -132.375 L 22.421875 72.234375 L 48.03125 81.484375 L 48.03125 -10.671875 C 55.382812 -6.171875 62.859375 -2.671875 70.453125 -0.171875 C 78.046875 2.316406 86.226562 3.5625 95 3.5625 C 109.238281 3.082031 120.984375 -0.890625 130.234375 -8.359375 C 139.484375 -15.835938 146.359375 -25.503906 150.859375 -37.359375 C 155.367188 -49.222656 157.625 -61.796875 157.625 -75.078125 C 157.625 -90.265625 155.367188 -104.257812 150.859375 -117.0625 C 146.359375 -129.875 139.597656 -140.191406 130.578125 -148.015625 C 121.566406 -155.847656 109.945312 -159.644531 95.71875 -159.40625 Z M 89.3125 -14.9375 C 81.25 -14.46875 73.359375 -15.953125 65.640625 -19.390625 C 57.929688 -22.828125 51.945312 -25.851562 47.6875 -28.46875 L 47.6875 -129.875 C 48.863281 -131.0625 51.46875 -132.722656 55.5 -134.859375 C 59.539062 -136.992188 64.644531 -138.890625 70.8125 -140.546875 C 76.976562 -142.210938 83.738281 -142.804688 91.09375 -142.328125 C 99.15625 -142.085938 105.617188 -139.773438 110.484375 -135.390625 C 115.347656 -131.003906 119.023438 -125.429688 121.515625 -118.671875 C 124.003906 -111.910156 125.664062 -104.851562 126.5 -97.5 C 127.332031 -90.144531 127.75 -83.265625 127.75 -76.859375 C 127.75 -70.210938 127.332031 -63.390625 126.5 -56.390625 C 125.664062 -49.398438 123.941406 -42.878906 121.328125 -36.828125 C 118.722656 -30.773438 114.867188 -25.734375 109.765625 -21.703125 C 104.671875 -17.671875 97.851562 -15.414062 89.3125 -14.9375 Z M 89.3125 -14.9375 "/></g></g></g><g fill="#ffe63f" fill-opacity="1"><g transform="translate(1240.961712, 1093.75639)"><g><path d="M 28.109375 -139.125 L 10.3125 -139.125 L 10.3125 -155.859375 L 28.109375 -155.859375 L 28.109375 -199.265625 L 54.078125 -208.515625 L 54.078125 -155.859375 L 83.265625 -155.859375 L 83.265625 -139.125 L 54.078125 -139.125 L 54.078125 -37.71875 C 54.078125 -27.519531 56.6875 -20.695312 61.90625 -17.25 C 67.132812 -13.8125 74.253906 -11.859375 83.265625 -11.390625 L 83.265625 2.140625 C 65.941406 3.796875 52.414062 1.007812 42.6875 -6.21875 C 32.96875 -13.457031 28.109375 -23.71875 28.109375 -37 Z M 28.109375 -139.125 "/></g></g></g></g></g></svg>