<svg xmlns="http://www.w3.org/2000/svg" xmlns:xlink="http://www.w3.org/1999/xlink" width="2000" zoomAndPan="magnify" viewBox="0 0 1500 1499.999933" height="2000" preserveAspectRatio="xMidYMid meet" version="1.0"><defs><g/><clipPath id="29dc87c509"><path d="M 513.816406 292.765625 L 1180.253906 292.765625 L 1180.253906 959.203125 L 513.816406 959.203125 Z M 513.816406 292.765625 " clip-rule="nonzero"/></clipPath><clipPath id="9f24c16bd4"><path d="M 252.554688 1.121094 L 1246.871094 1.121094 L 1246.871094 995.4375 L 252.554688 995.4375 Z M 252.554688 1.121094 " clip-rule="nonzero"/></clipPath><clipPath id="2edd42a720"><path d="M 0 905 L 1486.320312 905 L 1486.320312 1424.640625 L 0 1424.640625 Z M 0 905 " clip-rule="nonzero"/></clipPath><clipPath id="6320b70c33"><path d="M 0 103 L 100 103 L 100 515 L 0 515 Z M 0 103 " clip-rule="nonzero"/></clipPath><clipPath id="8985dfe0f9"><rect x="0" width="1487" y="0" height="520"/></clipPath><clipPath id="a5927a2992"><rect x="0" width="1487" y="0" height="1425"/></clipPath></defs><g transform="matrix(1, 0, 0, 1, 0, 54)"><g clip-path="url(#a5927a2992)"><path fill="#ff0000" d="M 1172.171875 631.683594 C 1168.617188 637.523438 1162.574219 640.964844 1156.609375 644.296875 C 1159.132812 647.945312 1159.039062 652.84375 1157.914062 657.132812 C 1156.789062 661.425781 1154.746094 665.4375 1153.605469 669.730469 C 1152.464844 674.019531 1152.757812 679.695312 1155.246094 683.355469 C 1151.820312 683.503906 1148.945312 686.25 1147.546875 689.398438 C 1146.164062 692.546875 1145.941406 696.042969 1145.648438 699.46875 C 1145.355469 702.894531 1144.890625 706.433594 1143.105469 709.359375 L 1143.183594 709.378906 C 1148.101562 711.328125 1153.21875 713.414062 1156.703125 717.40625 C 1157.714844 718.582031 1158.582031 719.910156 1159.113281 721.347656 C 1160.332031 724.660156 1159.835938 728.421875 1158.46875 731.660156 C 1157.105469 734.921875 1154.953125 737.773438 1152.835938 740.589844 C 1155.601562 743.335938 1160.128906 746.425781 1161.378906 750.128906 C 1162.171875 752.488281 1162.246094 755.027344 1162.597656 757.496094 C 1163.816406 766.226562 1168.453125 774.441406 1168.160156 783.257812 L 1168.160156 783.277344 C 1168.140625 784.179688 1167.480469 784.933594 1166.707031 785.394531 C 1165.933594 785.859375 1165.066406 786.117188 1164.277344 786.519531 C 1161.53125 787.917969 1160.078125 791.035156 1159.503906 794.074219 C 1158.933594 797.113281 1159.027344 800.246094 1158.382812 803.261719 C 1157.074219 809.410156 1152.359375 814.402344 1148.269531 819.191406 C 1150.5 821.992188 1152.761719 824.828125 1154.03125 828.164062 C 1155.300781 831.496094 1155.449219 835.453125 1153.550781 838.476562 C 1151.234375 842.175781 1145.652344 843.945312 1141.429688 845.050781 C 1144.546875 848.070312 1147.84375 851.40625 1148.464844 855.695312 C 1148.886719 858.683594 1147.96875 861.714844 1148.355469 864.703125 C 1148.6875 867.277344 1149.992188 869.65625 1151.667969 871.628906 C 1153.34375 873.601562 1155.386719 875.257812 1157.394531 876.898438 C 1153.746094 882.367188 1154.117188 890.195312 1155.832031 896.546875 C 1157.546875 902.902344 1160.582031 908.832031 1162.261719 915.203125 C 1164.414062 923.324219 1164.269531 932.039062 1161.875 940.085938 C 1150.953125 942.679688 1138.300781 942.703125 1127.671875 939.070312 C 1122.792969 937.398438 1118.113281 935.09375 1113.066406 934.007812 C 1108.019531 932.917969 1101.941406 933.085938 1097.835938 936.195312 C 1095.957031 933.105469 1093.066406 930.632812 1089.714844 929.292969 C 1085.828125 927.730469 1081.519531 927.671875 1077.378906 927.007812 C 1073.238281 926.347656 1068.628906 924.5625 1066.292969 921.078125 C 1065.296875 925.441406 1063.253906 929.566406 1060.363281 932.992188 C 1059.332031 934.210938 1058.078125 935.40625 1056.496094 935.644531 C 1055.300781 935.808594 1054.121094 935.40625 1052.996094 934.964844 C 1048.761719 933.308594 1044.582031 930.769531 1040.859375 928.152344 C 1038.648438 928.039062 1036.660156 929.476562 1035.128906 931.0625 C 1033.601562 932.644531 1032.273438 934.503906 1030.417969 935.683594 C 1025.644531 938.683594 1019.164062 936.34375 1013.914062 938.386719 C 1009.605469 940.0625 1005.957031 944.132812 1003.605469 948.113281 C 1002.09375 946.824219 1000.066406 946.378906 998.097656 946.214844 C 996.125 946.050781 994.140625 946.121094 992.207031 945.683594 C 989.316406 945.039062 986.773438 943.324219 983.957031 942.421875 C 979.964844 941.132812 975.578125 941.519531 971.601562 940.214844 C 967.085938 938.738281 963.554688 935.242188 960.199219 931.871094 C 956.019531 935.003906 954.085938 935.699219 949.222656 937.632812 C 947.273438 938.40625 945.152344 939.085938 943.109375 938.59375 C 941.417969 938.167969 940.015625 936.988281 938.78125 935.757812 C 935.152344 932.148438 932.222656 927.507812 930.199219 922.792969 C 924.894531 925.515625 918.300781 923.496094 912.609375 925.296875 C 908.632812 926.570312 905.078125 929.941406 903.695312 933.898438 C 900.820312 931.15625 896.238281 931.136719 892.441406 932.320312 C 888.648438 933.496094 885.222656 935.652344 881.429688 936.832031 C 876.289062 938.414062 870.578125 938.085938 865.664062 935.894531 L 865.683594 934.828125 C 863.820312 941.902344 858.757812 948.070312 852.183594 951.257812 C 850.324219 952.160156 848.261719 952.839844 846.234375 952.527344 C 844.527344 952.253906 842.992188 951.3125 841.59375 950.300781 C 836.453125 946.632812 832.070312 941.902344 828.792969 936.484375 C 822.957031 937.480469 817.007812 938.476562 811.574219 936.117188 C 808.792969 934.921875 806.378906 932.914062 803.542969 931.859375 C 799.085938 930.222656 793.746094 931.289062 790.246094 934.496094 C 789.542969 931.085938 786.617188 928.253906 783.449219 926.835938 C 780.261719 925.417969 776.746094 925.03125 773.285156 924.664062 C 769.824219 924.292969 766.304688 923.890625 763.136719 922.433594 C 762.585938 927.496094 760.558594 931.386719 757.132812 935.15625 C 755.75 936.6875 754.078125 938.085938 752.050781 938.402344 C 750.746094 938.605469 749.398438 938.324219 748.128906 937.980469 C 743.484375 936.726562 739.085938 934.628906 735.199219 931.808594 C 728.863281 933.980469 725.105469 940.609375 718.570312 942.066406 C 715.496094 942.746094 712.214844 942.140625 709.140625 942.820312 C 706.730469 943.355469 704.574219 944.625 702.195312 945.328125 C 698.015625 946.5625 693.265625 945.988281 689.527344 948.21875 C 687.554688 943.746094 682.75 940.097656 678.054688 938.75 C 675.289062 937.960938 672.363281 937.902344 669.546875 937.300781 C 664.171875 936.15625 658.292969 932.011719 655.035156 927.59375 C 652.625 929.824219 652.179688 930.25 649.328125 931.90625 C 646.46875 933.5625 643.121094 934.539062 639.878906 934.058594 C 636.917969 933.621094 634.207031 931.921875 632.308594 929.621094 C 630.394531 927.320312 628.847656 923.492188 628.460938 920.523438 C 625.972656 924.5 621.40625 926.953125 616.75 927.425781 C 613.566406 927.761719 610.320312 927.246094 607.175781 927.832031 C 602.773438 928.660156 598.117188 932.417969 596.273438 936.484375 C 592.386719 933.613281 587.15625 933.242188 582.347656 933.910156 C 574.632812 934.976562 567.453125 938.347656 559.933594 940.355469 C 551.261719 942.675781 539.140625 942.734375 532.292969 940.097656 C 529.878906 932.050781 529.75 923.339844 531.90625 915.21875 C 533.597656 908.863281 536.636719 902.914062 538.332031 896.5625 C 540.046875 890.207031 540.433594 882.378906 536.769531 876.910156 C 538.796875 875.273438 540.820312 873.632812 542.496094 871.640625 C 544.171875 869.652344 545.480469 867.296875 545.8125 864.714844 C 546.199219 861.730469 545.261719 858.695312 545.699219 855.710938 C 546.328125 851.417969 549.625 848.085938 552.734375 845.0625 C 548.5 843.976562 542.9375 842.191406 540.613281 838.488281 C 538.714844 835.46875 538.863281 831.507812 540.132812 828.175781 C 541.402344 824.84375 543.667969 821.988281 545.894531 819.207031 C 541.808594 814.417969 537.09375 809.445312 535.785156 803.273438 C 535.140625 800.253906 535.25 797.125 534.660156 794.085938 C 534.085938 791.046875 532.632812 787.9375 529.886719 786.535156 C 529.097656 786.128906 528.210938 785.871094 527.457031 785.410156 C 526.683594 784.949219 526.023438 784.191406 526.003906 783.289062 L 526.003906 783.273438 C 525.695312 774.472656 530.332031 766.238281 531.566406 757.507812 C 531.917969 755.042969 531.988281 752.5 532.785156 750.140625 C 534.039062 746.441406 538.546875 743.367188 541.328125 740.601562 C 539.191406 737.785156 537.054688 734.929688 535.695312 731.671875 C 534.335938 728.414062 533.816406 724.65625 535.050781 721.359375 C 535.582031 719.90625 536.449219 718.578125 537.464844 717.417969 C 540.925781 713.421875 546.0625 711.324219 550.984375 709.390625 L 551.058594 709.375 C 549.273438 706.429688 548.828125 702.910156 548.515625 699.484375 C 548.222656 696.058594 548 692.539062 546.621094 689.410156 C 545.238281 686.28125 542.363281 683.519531 538.921875 683.371094 C 541.410156 679.6875 541.703125 674.03125 540.558594 669.742188 C 539.417969 665.457031 537.375 661.4375 536.25 657.148438 C 535.125 652.855469 535.03125 647.960938 537.554688 644.3125 C 531.589844 640.980469 525.546875 637.535156 521.992188 631.699219 C 520.648438 629.507812 519.726562 626.890625 520.1875 624.367188 C 520.539062 622.453125 521.640625 620.761719 522.839844 619.210938 C 524.792969 616.6875 527.039062 614.402344 529.546875 612.410156 C 531.21875 611.085938 533.023438 609.851562 534.351562 608.175781 C 535.675781 606.503906 536.472656 604.21875 535.753906 602.191406 C 535.367188 598.820312 535.476562 594.769531 536.542969 591.53125 C 537.738281 587.898438 540.410156 584.882812 541.496094 581.21875 C 542.75 577.039062 541.789062 572.101562 538.921875 568.820312 C 540.929688 567.972656 543.007812 567.070312 544.445312 565.433594 C 545.734375 563.957031 546.378906 562.042969 546.878906 560.144531 C 548.277344 554.839844 548.757812 549.335938 549.238281 543.882812 C 549.289062 543.351562 549.328125 542.761719 549.03125 542.300781 C 548.757812 541.839844 546.988281 541.382812 546.65625 541.804688 C 540.613281 540.351562 535.660156 535.101562 534.558594 528.96875 C 533.449219 522.839844 536.289062 516.203125 541.460938 512.742188 C 536.949219 509.910156 533.78125 504.933594 532.164062 499.851562 C 530.546875 494.769531 530.027344 489.410156 529.21875 484.140625 C 528.410156 478.871094 527.226562 473.53125 524.484375 468.964844 C 528.777344 465.742188 533.398438 462.628906 534.816406 457.675781 C 535.863281 454.066406 535.625 450.179688 536.488281 446.511719 C 537.667969 441.449219 541.003906 436.9375 545.476562 434.320312 C 543.269531 431.523438 541.09375 427.894531 539.992188 424.507812 C 538.882812 421.117188 538.867188 417.234375 540.710938 414.179688 C 543.03125 410.289062 548.207031 408.304688 552.625 407.273438 L 552.808594 407.273438 C 550.617188 405.652344 550.707031 405.761719 549.125 403.554688 C 547.210938 400.867188 546.378906 397.535156 545.882812 394.257812 C 545.382812 390.976562 545.164062 387.644531 544.242188 384.460938 C 544.316406 382.195312 543.101562 379.503906 541.203125 378.269531 C 539.949219 377.460938 538.3125 376.945312 537.703125 375.582031 C 537.316406 374.699219 537.5 373.648438 537.996094 372.835938 C 538.492188 372.027344 539.394531 371.273438 540.246094 370.8125 C 539.96875 361.730469 536.269531 353.148438 533.925781 344.367188 C 531.035156 333.59375 530.148438 322.304688 531.332031 311.21875 C 538.199219 308.582031 551.316406 309.226562 559.988281 311.550781 C 567.5 313.558594 574.6875 316.925781 582.402344 317.996094 C 587.191406 318.660156 592.421875 318.292969 596.328125 315.421875 C 598.171875 319.507812 602.828125 323.265625 607.230469 324.074219 C 610.378906 324.667969 613.617188 324.152344 616.804688 324.480469 C 621.484375 324.960938 626.03125 327.40625 628.515625 331.382812 C 628.921875 328.421875 630.464844 324.609375 632.363281 322.285156 C 634.277344 319.984375 636.984375 318.308594 639.933594 317.847656 C 643.195312 317.347656 646.527344 318.34375 649.378906 320 C 652.238281 321.640625 652.675781 322.0625 655.089844 324.3125 C 658.367188 319.890625 664.222656 315.746094 669.597656 314.605469 C 672.417969 314.011719 675.34375 313.941406 678.109375 313.152344 C 682.820312 311.804688 687.609375 308.179688 689.578125 303.683594 C 693.335938 305.914062 698.070312 305.324219 702.25 306.574219 C 704.609375 307.277344 706.78125 308.546875 709.195312 309.082031 C 712.285156 309.761719 715.546875 309.15625 718.621094 309.835938 C 725.164062 311.289062 728.917969 317.941406 735.253906 320.09375 C 739.140625 317.277344 743.539062 315.160156 748.179688 313.925781 C 749.46875 313.574219 750.796875 313.296875 752.105469 313.5 C 754.128906 313.8125 755.824219 315.214844 757.1875 316.746094 C 760.59375 320.523438 762.636719 324.40625 763.1875 329.46875 C 766.355469 328.015625 769.875 327.609375 773.335938 327.238281 C 776.796875 326.871094 780.316406 326.484375 783.503906 325.066406 C 786.6875 323.648438 789.597656 320.808594 790.300781 317.40625 C 793.800781 320.628906 799.140625 321.679688 803.597656 320.042969 C 806.449219 318.992188 808.84375 316.984375 811.625 315.785156 C 817.058594 313.449219 823.007812 314.4375 828.847656 315.417969 C 832.125 310 836.507812 305.285156 841.648438 301.605469 C 843.0625 300.589844 844.574219 299.652344 846.289062 299.375 C 848.332031 299.0625 850.394531 299.742188 852.238281 300.644531 C 858.8125 303.828125 863.878906 310 865.734375 317.074219 L 865.71875 316.007812 C 870.636719 313.816406 876.34375 313.484375 881.480469 315.070312 C 885.277344 316.246094 888.703125 318.402344 892.496094 319.585938 C 896.289062 320.761719 900.855469 320.726562 903.75 318.003906 C 905.113281 321.941406 908.667969 325.332031 912.660156 326.605469 C 918.351562 328.40625 924.945312 326.382812 930.25 329.109375 C 932.277344 324.394531 935.207031 319.769531 938.835938 316.144531 C 940.070312 314.910156 941.46875 313.734375 943.164062 313.3125 C 945.207031 312.8125 947.324219 313.492188 949.277344 314.269531 C 954.117188 316.203125 956.074219 316.90625 960.253906 320.03125 C 963.605469 316.660156 967.125 313.183594 971.65625 311.6875 C 975.632812 310.382812 980.035156 310.769531 984.011719 309.480469 C 986.828125 308.578125 989.367188 306.863281 992.261719 306.21875 C 994.195312 305.796875 996.183594 305.867188 998.152344 305.6875 C 1000.125 305.523438 1002.152344 305.058594 1003.65625 303.789062 C 1006.015625 307.765625 1009.640625 311.859375 1013.96875 313.515625 C 1019.238281 315.542969 1025.71875 313.203125 1030.46875 316.222656 C 1032.347656 317.398438 1033.65625 319.261719 1035.183594 320.839844 C 1036.710938 322.421875 1038.703125 323.863281 1040.910156 323.75 C 1044.628906 321.15625 1048.828125 318.609375 1053.046875 316.9375 C 1054.171875 316.496094 1055.351562 316.085938 1056.550781 316.257812 C 1058.132812 316.480469 1059.382812 317.671875 1060.414062 318.910156 C 1063.308594 322.335938 1065.351562 326.460938 1066.347656 330.824219 C 1068.683594 327.347656 1073.289062 325.554688 1077.429688 324.894531 C 1081.578125 324.230469 1085.863281 324.171875 1089.769531 322.609375 C 1093.121094 321.261719 1096.011719 318.796875 1097.890625 315.707031 C 1101.996094 318.835938 1108.074219 319.003906 1113.121094 317.894531 C 1118.167969 316.808594 1122.847656 314.488281 1127.726562 312.832031 C 1138.351562 309.199219 1151.996094 308.613281 1162.941406 311.210938 C 1164.117188 322.292969 1163.234375 333.582031 1160.34375 344.359375 C 1157.984375 353.140625 1154.285156 361.707031 1154.027344 370.800781 C 1154.875 371.242188 1155.761719 371.996094 1156.273438 372.828125 C 1156.789062 373.660156 1156.957031 374.707031 1156.570312 375.574219 C 1155.960938 376.957031 1154.320312 377.453125 1153.066406 378.261719 C 1151.171875 379.496094 1149.953125 382.183594 1150.027344 384.449219 C 1149.125 387.636719 1148.90625 390.96875 1148.390625 394.246094 C 1147.875 397.527344 1147.066406 400.839844 1145.144531 403.546875 C 1143.5625 405.753906 1143.652344 405.648438 1141.460938 407.265625 L 1141.644531 407.265625 C 1146.066406 408.296875 1151.21875 410.285156 1153.5625 414.167969 C 1155.382812 417.226562 1155.382812 421.113281 1154.28125 424.5 C 1153.175781 427.890625 1151 431.515625 1148.792969 434.3125 C 1153.265625 436.929688 1156.605469 441.457031 1157.78125 446.503906 C 1158.628906 450.171875 1158.40625 454.035156 1159.457031 457.664062 C 1160.890625 462.601562 1165.5 465.734375 1169.785156 468.953125 C 1167.023438 473.523438 1165.863281 478.863281 1165.054688 484.132812 C 1164.246094 489.402344 1163.730469 494.757812 1162.109375 499.839844 C 1160.488281 504.925781 1157.335938 509.894531 1152.808594 512.734375 C 1157.984375 516.195312 1160.800781 522.847656 1159.714844 528.960938 C 1158.625 535.074219 1153.671875 540.34375 1147.617188 541.796875 C 1147.28125 541.375 1145.515625 541.832031 1145.238281 542.292969 C 1144.964844 542.753906 1145 543.324219 1145.035156 543.875 C 1145.515625 549.34375 1146.011719 554.832031 1147.394531 560.136719 C 1147.890625 562.035156 1148.535156 563.949219 1149.824219 565.421875 C 1151.257812 567.0625 1153.34375 567.964844 1155.351562 568.8125 C 1152.476562 572.09375 1151.519531 577.027344 1152.773438 581.210938 C 1153.863281 584.875 1156.53125 587.894531 1157.726562 591.519531 C 1158.792969 594.742188 1158.90625 598.792969 1158.519531 602.183594 C 1157.800781 604.191406 1158.59375 606.492188 1159.917969 608.167969 C 1161.242188 609.84375 1163.050781 611.0625 1164.726562 612.402344 C 1167.214844 614.394531 1169.476562 616.675781 1171.429688 619.199219 C 1172.625 620.746094 1173.730469 622.445312 1174.082031 624.359375 C 1174.457031 626.878906 1173.519531 629.472656 1172.171875 631.683594 Z M 1172.171875 631.683594 " fill-opacity="1" fill-rule="nonzero"/><g clip-path="url(#29dc87c509)"><path fill="#000000" d="M 513.816406 292.765625 L 1180.253906 292.765625 L 1180.253906 959.203125 L 513.816406 959.203125 Z M 513.816406 292.765625 " fill-opacity="1" fill-rule="nonzero"/></g><g clip-path="url(#9f24c16bd4)"><path fill="#ffe63f" d="M 1015.035156 918.007812 C 928.242188 918.007812 872.109375 876.621094 844.75 822.5 L 920.859375 778.40625 C 940.917969 811.15625 966.921875 835.171875 1013.027344 835.171875 C 1051.726562 835.171875 1076.441406 815.8125 1076.441406 789.089844 C 1076.441406 748.917969 1022.816406 733.175781 984.96875 716.980469 C 917.515625 688.265625 872.746094 652.191406 872.746094 576.042969 C 872.746094 505.945312 926.171875 452.539062 1009.703125 452.539062 C 1069.097656 452.539062 1111.878906 473.234375 1142.558594 527.292969 L 1069.773438 574.054688 C 1053.757812 545.339844 1036.40625 534 1009.683594 534 C 982.285156 534 964.914062 551.371094 964.914062 574.054688 C 964.914062 602.109375 982.261719 613.453125 1022.359375 630.824219 C 1106.367188 666.816406 1169.9375 695.132812 1169.9375 787.757812 C 1169.980469 871.945312 1103.878906 918.007812 1015.035156 918.007812 Z M 799.742188 777.09375 C 799.742188 873.933594 740.089844 925.132812 657.273438 925.132812 C 582.457031 925.132812 537.648438 896.519531 515.601562 846.773438 L 514.308594 846.773438 L 590.355469 793.609375 C 605.042969 819.613281 618.273438 838.078125 650.308594 838.078125 C 681.050781 838.078125 700.253906 822.519531 700.253906 775.800781 L 700.253906 448.820312 L 799.742188 448.820312 Z M 252.554688 996.007812 L 1247.441406 996.007812 L 1247.441406 1.121094 L 252.554688 1.121094 Z M 252.554688 996.007812 " fill-opacity="1" fill-rule="evenodd"/></g><g clip-path="url(#2edd42a720)"><g transform="matrix(1, 0, 0, 1, 0, 905)"><g clip-path="url(#8985dfe0f9)"><g clip-path="url(#6320b70c33)"><g fill="#ffe63f" fill-opacity="1"><g transform="translate(-5.787707, 397.270802)"><g><path d="M 100.28125 -207 L 66.703125 -195.046875 L 66.234375 18.859375 C 66.234375 27.753906 65.539062 36.878906 64.15625 46.234375 C 62.78125 55.585938 59.945312 64.097656 55.65625 71.765625 C 51.363281 79.429688 44.769531 85.253906 35.875 89.234375 C 26.988281 93.222656 14.878906 94.144531 -0.453125 92 C -2.910156 91.382812 -5.75 90.539062 -8.96875 89.46875 C -12.1875 88.394531 -14.867188 87.398438 -17.015625 86.484375 L -24.375 108.5625 C -17.9375 111.320312 -12.109375 113.390625 -6.890625 114.765625 C -1.679688 116.148438 4.597656 116.84375 11.953125 116.84375 C 38.941406 116.84375 60.410156 108.867188 76.359375 92.921875 C 92.304688 76.972656 100.28125 51.828125 100.28125 17.484375 Z M 61.640625 -271.40625 L 61.640625 -271.859375 C 61.640625 -277.992188 63.785156 -283.128906 68.078125 -287.265625 C 72.367188 -291.410156 77.582031 -293.484375 83.71875 -293.484375 C 89.851562 -293.484375 94.988281 -291.332031 99.125 -287.03125 C 103.269531 -282.738281 105.34375 -277.53125 105.34375 -271.40625 C 105.34375 -265.570312 103.191406 -260.507812 98.890625 -256.21875 C 94.597656 -251.925781 89.390625 -249.78125 83.265625 -249.78125 C 77.429688 -249.78125 72.367188 -251.925781 68.078125 -256.21875 C 63.785156 -260.507812 61.640625 -265.570312 61.640625 -271.40625 Z M 61.640625 -271.40625 "/></g></g></g></g><g fill="#ffe63f" fill-opacity="1"><g transform="translate(105.991339, 397.270802)"><g><path d="M 174.34375 -30.8125 C 164.832031 -21.3125 152.332031 -13.109375 136.84375 -6.203125 C 121.363281 0.691406 103.65625 3.988281 83.71875 3.6875 C 71.757812 3.375 60.71875 0.226562 50.59375 -5.75 C 40.476562 -11.726562 32.503906 -19.703125 26.671875 -29.671875 C 20.847656 -39.640625 18.09375 -50.753906 18.40625 -63.015625 C 18.707031 -82.640625 25.523438 -98.050781 38.859375 -109.25 C 52.203125 -120.445312 68.535156 -125.890625 87.859375 -125.578125 C 98.898438 -125.578125 108.484375 -125.578125 116.609375 -125.578125 C 124.734375 -125.578125 133.394531 -125.578125 142.59375 -125.578125 L 142.59375 -145.359375 C 142.59375 -157.015625 138.144531 -166.367188 129.25 -173.421875 C 120.363281 -180.472656 110.25 -184 98.90625 -184 C 88.78125 -184 79.65625 -182.769531 71.53125 -180.3125 C 63.40625 -177.863281 54.894531 -174.335938 46 -169.734375 L 37.71875 -189.0625 C 49.675781 -195.5 60.867188 -200.019531 71.296875 -202.625 C 81.722656 -205.238281 93.835938 -206.546875 107.640625 -206.546875 C 118.984375 -206.546875 129.710938 -204.164062 139.828125 -199.40625 C 149.953125 -194.65625 158.234375 -187.910156 164.671875 -179.171875 C 171.117188 -170.429688 174.34375 -159.773438 174.34375 -147.203125 Z M 141.6875 -35.421875 L 141.6875 -104.421875 C 136.46875 -104.421875 129.867188 -104.421875 121.890625 -104.421875 C 113.921875 -104.421875 105.796875 -104.265625 97.515625 -103.953125 C 84.640625 -103.953125 73.90625 -100.425781 65.3125 -93.375 C 56.726562 -86.320312 52.4375 -76.507812 52.4375 -63.9375 C 52.4375 -52.59375 56.804688 -42.242188 65.546875 -32.890625 C 74.285156 -23.535156 85.25 -18.859375 98.4375 -18.859375 C 108.25 -18.554688 117.140625 -20.472656 125.109375 -24.609375 C 133.085938 -28.742188 138.613281 -32.347656 141.6875 -35.421875 Z M 141.6875 -35.421875 "/></g></g></g><g fill="#ffe63f" fill-opacity="1"><g transform="translate(283.549969, 397.270802)"><g><path d="M 122.8125 -4.59375 L 92.921875 5.0625 L 9.65625 -197.34375 L 40.484375 -210.21875 L 110.859375 -40.9375 L 174.796875 -207.453125 L 195.5 -197.34375 Z M 122.8125 -4.59375 "/></g></g></g><g fill="#ffe63f" fill-opacity="1"><g transform="translate(468.008501, 397.270802)"><g><path d="M 174.34375 -30.8125 C 164.832031 -21.3125 152.332031 -13.109375 136.84375 -6.203125 C 121.363281 0.691406 103.65625 3.988281 83.71875 3.6875 C 71.757812 3.375 60.71875 0.226562 50.59375 -5.75 C 40.476562 -11.726562 32.503906 -19.703125 26.671875 -29.671875 C 20.847656 -39.640625 18.09375 -50.753906 18.40625 -63.015625 C 18.707031 -82.640625 25.523438 -98.050781 38.859375 -109.25 C 52.203125 -120.445312 68.535156 -125.890625 87.859375 -125.578125 C 98.898438 -125.578125 108.484375 -125.578125 116.609375 -125.578125 C 124.734375 -125.578125 133.394531 -125.578125 142.59375 -125.578125 L 142.59375 -145.359375 C 142.59375 -157.015625 138.144531 -166.367188 129.25 -173.421875 C 120.363281 -180.472656 110.25 -184 98.90625 -184 C 88.78125 -184 79.65625 -182.769531 71.53125 -180.3125 C 63.40625 -177.863281 54.894531 -174.335938 46 -169.734375 L 37.71875 -189.0625 C 49.675781 -195.5 60.867188 -200.019531 71.296875 -202.625 C 81.722656 -205.238281 93.835938 -206.546875 107.640625 -206.546875 C 118.984375 -206.546875 129.710938 -204.164062 139.828125 -199.40625 C 149.953125 -194.65625 158.234375 -187.910156 164.671875 -179.171875 C 171.117188 -170.429688 174.34375 -159.773438 174.34375 -147.203125 Z M 141.6875 -35.421875 L 141.6875 -104.421875 C 136.46875 -104.421875 129.867188 -104.421875 121.890625 -104.421875 C 113.921875 -104.421875 105.796875 -104.265625 97.515625 -103.953125 C 84.640625 -103.953125 73.90625 -100.425781 65.3125 -93.375 C 56.726562 -86.320312 52.4375 -76.507812 52.4375 -63.9375 C 52.4375 -52.59375 56.804688 -42.242188 65.546875 -32.890625 C 74.285156 -23.535156 85.25 -18.859375 98.4375 -18.859375 C 108.25 -18.554688 117.140625 -20.472656 125.109375 -24.609375 C 133.085938 -28.742188 138.613281 -32.347656 141.6875 -35.421875 Z M 141.6875 -35.421875 "/></g></g></g><g fill="#ffe63f" fill-opacity="1"><g transform="translate(645.567138, 397.270802)"><g><path d="M 79.578125 5.515625 C 67.921875 5.515625 56.492188 3.445312 45.296875 -0.6875 C 34.109375 -4.832031 24.070312 -10.273438 15.1875 -17.015625 L 27.140625 -36.34375 C 34.191406 -31.125 42.394531 -26.90625 51.75 -23.6875 C 61.101562 -20.46875 70.226562 -18.707031 79.125 -18.40625 C 86.476562 -18.40625 93.832031 -19.628906 101.1875 -22.078125 C 108.550781 -24.535156 114.6875 -28.367188 119.59375 -33.578125 C 124.5 -38.796875 126.800781 -45.539062 126.5 -53.8125 C 126.195312 -63.632812 122.441406 -70.613281 115.234375 -74.75 C 108.023438 -78.882812 100.585938 -82.488281 92.921875 -85.5625 C 89.847656 -86.789062 86.78125 -88.015625 83.71875 -89.234375 C 80.65625 -90.460938 77.4375 -91.535156 74.0625 -92.453125 C 67.925781 -94.910156 61.710938 -97.441406 55.421875 -100.046875 C 49.140625 -102.648438 43.394531 -105.945312 38.1875 -109.9375 C 32.664062 -113.925781 28.0625 -118.910156 24.375 -124.890625 C 20.695312 -130.867188 18.859375 -138.613281 18.859375 -148.125 C 18.859375 -161 22.226562 -171.882812 28.96875 -180.78125 C 35.71875 -189.675781 44.457031 -196.421875 55.1875 -201.015625 C 65.925781 -205.617188 77.273438 -207.921875 89.234375 -207.921875 C 99.660156 -207.921875 109.703125 -206.382812 119.359375 -203.3125 C 129.023438 -200.25 138.457031 -196.113281 147.65625 -190.90625 L 135.234375 -171.125 C 120.515625 -179.40625 105.796875 -183.847656 91.078125 -184.453125 C 81.566406 -184.453125 72.441406 -181.84375 63.703125 -176.625 C 54.960938 -171.414062 50.441406 -163.445312 50.140625 -152.71875 C 50.140625 -146.894531 51.75 -142.296875 54.96875 -138.921875 C 58.1875 -135.546875 62.40625 -132.632812 67.625 -130.1875 C 72.832031 -128.03125 78.65625 -125.570312 85.09375 -122.8125 C 91.539062 -120.0625 97.984375 -117.457031 104.421875 -115 C 110.554688 -112.539062 116.765625 -110.007812 123.046875 -107.40625 C 129.335938 -104.800781 135.085938 -101.351562 140.296875 -97.0625 C 145.816406 -92.769531 150.414062 -87.476562 154.09375 -81.1875 C 157.78125 -74.90625 159.625 -67.160156 159.625 -57.953125 C 159.625 -43.546875 155.632812 -31.664062 147.65625 -22.3125 C 139.6875 -12.957031 129.566406 -5.976562 117.296875 -1.375 C 105.035156 3.21875 92.460938 5.515625 79.578125 5.515625 Z M 79.578125 5.515625 "/></g></g></g><g fill="#ffe63f" fill-opacity="1"><g transform="translate(796.90595, 397.270802)"><g><path d="M 100.734375 4.140625 C 83.566406 3.835938 68.847656 -1.296875 56.578125 -11.265625 C 44.316406 -21.234375 34.960938 -34.035156 28.515625 -49.671875 C 22.078125 -65.316406 18.859375 -81.570312 18.859375 -98.4375 C 18.859375 -117.445312 22.613281 -135.539062 30.125 -152.71875 C 37.644531 -169.894531 48.457031 -183.234375 62.5625 -192.734375 C 72.0625 -199.179688 82.710938 -203.320312 94.515625 -205.15625 C 106.328125 -207 118.441406 -206.769531 130.859375 -204.46875 C 143.285156 -202.164062 154.710938 -197.644531 165.140625 -190.90625 L 155.484375 -172.953125 C 148.734375 -176.328125 140.988281 -179.164062 132.25 -181.46875 C 123.507812 -183.769531 115.15625 -184.613281 107.1875 -184 C 95.21875 -183.382812 85.171875 -178.628906 77.046875 -169.734375 C 68.921875 -160.847656 62.863281 -149.960938 58.875 -137.078125 C 54.894531 -124.203125 52.90625 -111.320312 52.90625 -98.4375 C 52.90625 -86.476562 55.050781 -74.363281 59.34375 -62.09375 C 63.632812 -49.832031 70.070312 -39.5625 78.65625 -31.28125 C 87.25 -23 97.832031 -18.707031 110.40625 -18.40625 C 121.132812 -18.09375 130.789062 -19.625 139.375 -23 C 147.96875 -26.375 156.863281 -30.207031 166.0625 -34.5 L 174.796875 -17.015625 C 164.984375 -10.578125 153.863281 -5.441406 141.4375 -1.609375 C 129.019531 2.222656 115.453125 4.140625 100.734375 4.140625 Z M 100.734375 4.140625 "/></g></g></g><g fill="#ffe63f" fill-opacity="1"><g transform="translate(960.204613, 397.270802)"><g><path d="M 111.3125 -181.234375 L 110.859375 -181.234375 C 99.816406 -181.234375 90.382812 -179.46875 82.5625 -175.9375 C 74.75 -172.414062 67.773438 -168.050781 61.640625 -162.84375 L 61.640625 0 L 28.0625 0 L 28.0625 -167.4375 C 40.9375 -181.851562 56.882812 -192.28125 75.90625 -198.71875 C 86.019531 -202.394531 96.289062 -205.078125 106.71875 -206.765625 C 117.144531 -208.453125 129.410156 -208.070312 143.515625 -205.625 C 141.367188 -201.632812 139.066406 -197.1875 136.609375 -192.28125 C 134.160156 -187.375 132.019531 -182.773438 130.1875 -178.484375 C 127.113281 -179.097656 123.8125 -179.707031 120.28125 -180.3125 C 116.757812 -180.925781 113.769531 -181.234375 111.3125 -181.234375 Z M 111.3125 -181.234375 "/></g></g></g><g fill="#ffe63f" fill-opacity="1"><g transform="translate(1088.54359, 397.270802)"><g><path d="M 36.796875 0 L 36.796875 -195.5 L 69.921875 -206.546875 L 69.921875 0 Z M 31.28125 -271.40625 L 31.28125 -271.859375 C 31.28125 -277.992188 33.425781 -283.128906 37.71875 -287.265625 C 42.007812 -291.410156 47.222656 -293.484375 53.359375 -293.484375 C 59.492188 -293.484375 64.628906 -291.332031 68.765625 -287.03125 C 72.910156 -282.738281 74.984375 -277.53125 74.984375 -271.40625 C 74.984375 -265.570312 72.832031 -260.507812 68.53125 -256.21875 C 64.238281 -251.925781 59.03125 -249.78125 52.90625 -249.78125 C 47.070312 -249.78125 42.007812 -251.925781 37.71875 -256.21875 C 33.425781 -260.507812 31.28125 -265.570312 31.28125 -271.40625 Z M 31.28125 -271.40625 "/></g></g></g><g fill="#ffe63f" fill-opacity="1"><g transform="translate(1169.502842, 397.270802)"><g><path d="M 123.734375 -206.078125 L 123.28125 -206.546875 C 106.414062 -206.234375 91.925781 -204.3125 79.8125 -200.78125 C 67.695312 -197.257812 57.957031 -193.195312 50.59375 -188.59375 C 43.238281 -184 37.875 -179.9375 34.5 -176.40625 C 31.125 -172.882812 29.4375 -171.125 29.4375 -171.125 L 28.984375 93.375 L 62.09375 105.34375 L 62.09375 -13.796875 C 71.601562 -7.972656 81.265625 -3.453125 91.078125 -0.234375 C 100.890625 2.984375 111.46875 4.59375 122.8125 4.59375 C 141.21875 3.988281 156.398438 -1.140625 168.359375 -10.796875 C 180.316406 -20.460938 189.207031 -32.960938 195.03125 -48.296875 C 200.863281 -63.628906 203.78125 -79.882812 203.78125 -97.0625 C 203.78125 -116.6875 200.863281 -134.78125 195.03125 -151.34375 C 189.207031 -167.90625 180.46875 -181.242188 168.8125 -191.359375 C 157.164062 -201.484375 142.140625 -206.390625 123.734375 -206.078125 Z M 115.453125 -19.3125 C 105.023438 -18.707031 94.828125 -20.625 84.859375 -25.0625 C 74.898438 -29.507812 67.160156 -33.421875 61.640625 -36.796875 L 61.640625 -167.90625 C 63.171875 -169.4375 66.539062 -171.582031 71.75 -174.34375 C 76.96875 -177.101562 83.5625 -179.554688 91.53125 -181.703125 C 99.507812 -183.847656 108.253906 -184.613281 117.765625 -184 C 128.191406 -183.695312 136.546875 -180.707031 142.828125 -175.03125 C 149.117188 -169.351562 153.875 -162.144531 157.09375 -153.40625 C 160.3125 -144.664062 162.457031 -135.539062 163.53125 -126.03125 C 164.601562 -116.53125 165.140625 -107.640625 165.140625 -99.359375 C 165.140625 -90.773438 164.601562 -81.957031 163.53125 -72.90625 C 162.457031 -63.863281 160.234375 -55.429688 156.859375 -47.609375 C 153.484375 -39.785156 148.5 -33.265625 141.90625 -28.046875 C 135.3125 -22.835938 126.492188 -19.925781 115.453125 -19.3125 Z M 115.453125 -19.3125 "/></g></g></g><g fill="#ffe63f" fill-opacity="1"><g transform="translate(1377.881152, 397.270802)"><g><path d="M 36.34375 -179.859375 L 13.34375 -179.859375 L 13.34375 -201.484375 L 36.34375 -201.484375 L 36.34375 -257.59375 L 69.921875 -269.5625 L 69.921875 -201.484375 L 107.640625 -201.484375 L 107.640625 -179.859375 L 69.921875 -179.859375 L 69.921875 -48.765625 C 69.921875 -35.578125 73.289062 -26.757812 80.03125 -22.3125 C 86.78125 -17.863281 95.984375 -15.332031 107.640625 -14.71875 L 107.640625 2.765625 C 85.253906 4.910156 67.773438 1.304688 55.203125 -8.046875 C 42.628906 -17.398438 36.34375 -30.664062 36.34375 -47.84375 Z M 36.34375 -179.859375 "/></g></g></g></g></g></g></g></g></svg>