<svg xmlns="http://www.w3.org/2000/svg" xmlns:xlink="http://www.w3.org/1999/xlink" width="2000" zoomAndPan="magnify" viewBox="0 0 1500 1499.999933" height="2000" preserveAspectRatio="xMidYMid meet" version="1.0"><defs><g/><clipPath id="2914e649f1"><path d="M 402.628906 112.871094 L 1152.941406 112.871094 L 1152.941406 863.183594 L 402.628906 863.183594 Z M 402.628906 112.871094 " clip-rule="nonzero"/></clipPath><clipPath id="a244b8aca7"><path d="M 288.71875 0.460938 L 1211.359375 0.460938 L 1211.359375 923.101562 L 288.71875 923.101562 Z M 288.71875 0.460938 " clip-rule="nonzero"/></clipPath><clipPath id="b36a7c2f6b"><path d="M 0 937 L 1492.800781 937 L 1492.800781 1460.878906 L 0 1460.878906 Z M 0 937 " clip-rule="nonzero"/></clipPath><clipPath id="432c9988bb"><path d="M 0 104 L 94 104 L 94 518 L 0 518 Z M 0 104 " clip-rule="nonzero"/></clipPath><clipPath id="20bc870115"><rect x="0" width="1493" y="0" height="524"/></clipPath><clipPath id="93b03332c2"><rect x="0" width="1493" y="0" height="1461"/></clipPath></defs><g transform="matrix(1, 0, 0, 1, 0, 6)"><g clip-path="url(#93b03332c2)"><path fill="#ff0000" d="M 1143.84375 494.445312 C 1139.84375 501.019531 1133.039062 504.894531 1126.320312 508.644531 C 1129.164062 512.753906 1129.058594 518.265625 1127.792969 523.097656 C 1126.527344 527.929688 1124.226562 532.445312 1122.941406 537.277344 C 1121.65625 542.109375 1121.984375 548.496094 1124.785156 552.621094 C 1120.929688 552.785156 1117.691406 555.875 1116.117188 559.421875 C 1114.5625 562.96875 1114.3125 566.90625 1113.980469 570.761719 C 1113.652344 574.617188 1113.132812 578.601562 1111.121094 581.894531 L 1111.207031 581.917969 C 1116.742188 584.113281 1122.503906 586.457031 1126.425781 590.957031 C 1127.566406 592.28125 1128.542969 593.777344 1129.144531 595.390625 C 1130.511719 599.125 1129.953125 603.355469 1128.417969 607 C 1126.882812 610.671875 1124.457031 613.882812 1122.074219 617.054688 C 1125.1875 620.148438 1130.285156 623.628906 1131.695312 627.796875 C 1132.585938 630.453125 1132.667969 633.3125 1133.066406 636.089844 C 1134.433594 645.917969 1139.65625 655.167969 1139.328125 665.097656 L 1139.328125 665.117188 C 1139.308594 666.132812 1138.5625 666.980469 1137.691406 667.503906 C 1136.820312 668.023438 1135.847656 668.3125 1134.957031 668.765625 C 1131.863281 670.34375 1130.230469 673.851562 1129.582031 677.269531 C 1128.9375 680.691406 1129.042969 684.21875 1128.316406 687.617188 C 1126.847656 694.539062 1121.539062 700.160156 1116.933594 705.554688 C 1119.445312 708.703125 1121.988281 711.894531 1123.421875 715.652344 C 1124.851562 719.402344 1125.015625 723.859375 1122.878906 727.261719 C 1120.269531 731.429688 1113.988281 733.417969 1109.234375 734.664062 C 1112.742188 738.066406 1116.453125 741.816406 1117.152344 746.648438 C 1117.628906 750.011719 1116.59375 753.429688 1117.027344 756.789062 C 1117.402344 759.691406 1118.875 762.367188 1120.757812 764.585938 C 1122.644531 766.808594 1124.945312 768.675781 1127.207031 770.519531 C 1123.101562 776.675781 1123.515625 785.492188 1125.445312 792.644531 C 1127.378906 799.796875 1130.792969 806.476562 1132.683594 813.648438 C 1135.109375 822.792969 1134.945312 832.601562 1132.25 841.660156 C 1119.953125 844.582031 1105.707031 844.605469 1093.742188 840.519531 C 1088.25 838.632812 1082.984375 836.042969 1077.300781 834.816406 C 1071.617188 833.589844 1064.777344 833.78125 1060.152344 837.28125 C 1058.039062 833.800781 1054.78125 831.019531 1051.011719 829.507812 C 1046.632812 827.75 1041.78125 827.683594 1037.121094 826.9375 C 1032.457031 826.191406 1027.269531 824.183594 1024.640625 820.261719 C 1023.519531 825.171875 1021.21875 829.820312 1017.960938 833.675781 C 1016.800781 835.046875 1015.390625 836.390625 1013.609375 836.664062 C 1012.265625 836.847656 1010.933594 836.390625 1009.667969 835.898438 C 1004.902344 834.03125 1000.195312 831.171875 996.003906 828.222656 C 993.515625 828.097656 991.277344 829.714844 989.554688 831.5 C 987.835938 833.28125 986.339844 835.375 984.246094 836.703125 C 978.875 840.082031 971.578125 837.449219 965.671875 839.75 C 960.816406 841.632812 956.710938 846.214844 954.058594 850.699219 C 952.359375 849.246094 950.078125 848.746094 947.863281 848.5625 C 945.640625 848.378906 943.40625 848.457031 941.230469 847.960938 C 937.972656 847.238281 935.113281 845.304688 931.941406 844.289062 C 927.445312 842.839844 922.507812 843.273438 918.03125 841.804688 C 912.949219 840.144531 908.972656 836.207031 905.195312 832.410156 C 900.488281 835.9375 898.3125 836.722656 892.835938 838.898438 C 890.640625 839.769531 888.253906 840.535156 885.953125 839.980469 C 884.046875 839.503906 882.46875 838.171875 881.078125 836.789062 C 876.992188 832.726562 873.695312 827.5 871.414062 822.191406 C 865.441406 825.257812 858.019531 822.980469 851.613281 825.011719 C 847.136719 826.441406 843.132812 830.238281 841.578125 834.695312 C 838.34375 831.605469 833.179688 831.585938 828.90625 832.914062 C 824.636719 834.242188 820.78125 836.667969 816.507812 837.996094 C 810.71875 839.777344 804.292969 839.410156 798.761719 836.941406 L 798.78125 835.742188 C 796.683594 843.707031 790.980469 850.648438 783.585938 854.238281 C 781.488281 855.253906 779.167969 856.019531 776.886719 855.671875 C 774.960938 855.359375 773.234375 854.300781 771.660156 853.160156 C 765.871094 849.03125 760.941406 843.707031 757.25 837.609375 C 750.675781 838.726562 743.976562 839.847656 737.859375 837.191406 C 734.730469 835.847656 732.011719 833.585938 728.820312 832.402344 C 723.804688 830.554688 717.792969 831.753906 713.851562 835.367188 C 713.058594 831.53125 709.761719 828.339844 706.195312 826.742188 C 702.609375 825.148438 698.648438 824.710938 694.753906 824.296875 C 690.855469 823.882812 686.894531 823.425781 683.328125 821.785156 C 682.707031 827.488281 680.425781 831.867188 676.570312 836.113281 C 675.015625 837.832031 673.128906 839.410156 670.847656 839.765625 C 669.375 839.992188 667.859375 839.679688 666.429688 839.289062 C 661.203125 837.878906 656.25 835.515625 651.875 832.339844 C 644.742188 834.785156 640.507812 842.25 633.152344 843.890625 C 629.691406 844.65625 626 843.976562 622.539062 844.742188 C 619.820312 845.339844 617.394531 846.773438 614.71875 847.5625 C 610.011719 848.953125 604.664062 848.308594 600.453125 850.816406 C 598.230469 845.78125 592.824219 841.675781 587.539062 840.160156 C 584.425781 839.269531 581.128906 839.203125 577.957031 838.523438 C 571.90625 837.238281 565.289062 832.570312 561.621094 827.597656 C 558.90625 830.109375 558.40625 830.585938 555.195312 832.449219 C 551.976562 834.316406 548.207031 835.417969 544.558594 834.875 C 541.222656 834.382812 538.171875 832.46875 536.035156 829.878906 C 533.878906 827.289062 532.140625 822.976562 531.703125 819.636719 C 528.902344 824.113281 523.761719 826.875 518.519531 827.410156 C 514.933594 827.785156 511.28125 827.203125 507.738281 827.863281 C 502.78125 828.800781 497.539062 833.027344 495.464844 837.609375 C 491.085938 834.371094 485.199219 833.957031 479.789062 834.707031 C 471.097656 835.90625 463.015625 839.703125 454.550781 841.964844 C 444.789062 844.574219 431.140625 844.640625 423.429688 841.675781 C 420.714844 832.617188 420.566406 822.804688 422.992188 813.664062 C 424.898438 806.511719 428.320312 799.8125 430.230469 792.660156 C 432.164062 785.507812 432.597656 776.691406 428.472656 770.535156 C 430.753906 768.6875 433.035156 766.84375 434.917969 764.601562 C 436.804688 762.363281 438.28125 759.710938 438.652344 756.804688 C 439.085938 753.441406 438.03125 750.027344 438.527344 746.664062 C 439.230469 741.832031 442.941406 738.082031 446.445312 734.679688 C 441.675781 733.453125 435.414062 731.445312 432.796875 727.277344 C 430.664062 723.875 430.828125 719.417969 432.257812 715.667969 C 433.6875 711.914062 436.238281 708.699219 438.746094 705.566406 C 434.144531 700.175781 428.835938 694.578125 427.359375 687.628906 C 426.636719 684.230469 426.761719 680.707031 426.09375 677.285156 C 425.449219 673.863281 423.8125 670.363281 420.722656 668.78125 C 419.832031 668.328125 418.835938 668.039062 417.988281 667.515625 C 417.117188 666.996094 416.371094 666.144531 416.351562 665.132812 L 416.351562 665.109375 C 416 655.203125 421.222656 645.933594 422.613281 636.105469 C 423.007812 633.328125 423.089844 630.464844 423.984375 627.808594 C 425.394531 623.644531 430.472656 620.183594 433.601562 617.070312 C 431.199219 613.898438 428.792969 610.683594 427.261719 607.015625 C 425.730469 603.351562 425.144531 599.117188 426.535156 595.40625 C 427.136719 593.769531 428.109375 592.277344 429.25 590.96875 C 433.148438 586.46875 438.9375 584.105469 444.472656 581.929688 L 444.558594 581.910156 C 442.546875 578.59375 442.046875 574.632812 441.695312 570.777344 C 441.367188 566.921875 441.117188 562.957031 439.5625 559.4375 C 438.003906 555.910156 434.769531 552.804688 430.890625 552.632812 C 433.695312 548.488281 434.023438 542.121094 432.738281 537.292969 C 431.453125 532.464844 429.152344 527.945312 427.886719 523.113281 C 426.621094 518.28125 426.515625 512.769531 429.355469 508.660156 C 422.640625 504.910156 415.835938 501.03125 411.835938 494.460938 C 410.320312 491.992188 409.285156 489.046875 409.804688 486.207031 C 410.199219 484.050781 411.4375 482.144531 412.789062 480.398438 C 414.984375 477.558594 417.515625 474.988281 420.339844 472.746094 C 422.222656 471.253906 424.253906 469.863281 425.75 467.980469 C 427.242188 466.09375 428.136719 463.523438 427.324219 461.242188 C 426.890625 457.445312 427.015625 452.882812 428.214844 449.234375 C 429.5625 445.148438 432.566406 441.753906 433.792969 437.625 C 435.203125 432.917969 434.125 427.363281 430.890625 423.671875 C 433.152344 422.714844 435.496094 421.699219 437.113281 419.855469 C 438.566406 418.191406 439.289062 416.039062 439.851562 413.902344 C 441.425781 407.929688 441.96875 401.730469 442.507812 395.59375 C 442.566406 394.992188 442.613281 394.328125 442.277344 393.8125 C 441.96875 393.292969 439.976562 392.777344 439.601562 393.253906 C 432.796875 391.617188 427.222656 385.703125 425.980469 378.800781 C 424.734375 371.898438 427.929688 364.429688 433.753906 360.535156 C 428.671875 357.34375 425.105469 351.742188 423.285156 346.019531 C 421.464844 340.296875 420.878906 334.261719 419.96875 328.332031 C 419.058594 322.398438 417.726562 316.386719 414.640625 311.242188 C 419.472656 307.617188 424.675781 304.109375 426.269531 298.535156 C 427.449219 294.472656 427.179688 290.09375 428.15625 285.96875 C 429.480469 280.265625 433.238281 275.1875 438.277344 272.242188 C 435.789062 269.089844 433.339844 265.003906 432.097656 261.191406 C 430.851562 257.375 430.832031 253.003906 432.90625 249.5625 C 435.519531 245.1875 441.347656 242.949219 446.324219 241.789062 L 446.527344 241.789062 C 444.0625 239.964844 444.164062 240.089844 442.382812 237.601562 C 440.226562 234.578125 439.289062 230.824219 438.730469 227.132812 C 438.171875 223.441406 437.921875 219.691406 436.886719 216.105469 C 436.96875 213.554688 435.597656 210.527344 433.464844 209.136719 C 432.054688 208.226562 430.207031 207.644531 429.523438 206.109375 C 429.085938 205.113281 429.292969 203.933594 429.851562 203.019531 C 430.414062 202.109375 431.425781 201.257812 432.382812 200.738281 C 432.074219 190.511719 427.90625 180.855469 425.269531 170.964844 C 422.011719 158.835938 421.019531 146.125 422.347656 133.644531 C 430.082031 130.679688 444.847656 131.402344 454.613281 134.019531 C 463.070312 136.28125 471.160156 140.074219 479.847656 141.277344 C 485.238281 142.023438 491.128906 141.609375 495.523438 138.375 C 497.601562 142.980469 502.84375 147.210938 507.800781 148.121094 C 511.347656 148.785156 514.992188 148.207031 518.578125 148.574219 C 523.847656 149.117188 528.96875 151.871094 531.765625 156.347656 C 532.21875 153.011719 533.960938 148.722656 536.097656 146.105469 C 538.253906 143.515625 541.296875 141.628906 544.621094 141.109375 C 548.292969 140.546875 552.042969 141.667969 555.253906 143.535156 C 558.46875 145.378906 558.964844 145.855469 561.683594 148.386719 C 565.375 143.410156 571.964844 138.742188 578.019531 137.457031 C 581.191406 136.792969 584.484375 136.710938 587.597656 135.820312 C 592.90625 134.304688 598.296875 130.222656 600.511719 125.160156 C 604.746094 127.671875 610.070312 127.007812 614.777344 128.417969 C 617.433594 129.207031 619.882812 130.636719 622.597656 131.238281 C 626.078125 132.003906 629.75 131.324219 633.210938 132.089844 C 640.574219 133.726562 644.800781 141.214844 651.933594 143.640625 C 656.3125 140.46875 661.261719 138.082031 666.492188 136.691406 C 667.941406 136.296875 669.4375 135.984375 670.90625 136.214844 C 673.1875 136.566406 675.09375 138.148438 676.628906 139.867188 C 680.464844 144.121094 682.765625 148.492188 683.386719 154.195312 C 686.953125 152.558594 690.914062 152.097656 694.8125 151.683594 C 698.707031 151.265625 702.671875 150.832031 706.257812 149.238281 C 709.84375 147.640625 713.121094 144.445312 713.910156 140.613281 C 717.851562 144.238281 723.863281 145.425781 728.882812 143.578125 C 732.09375 142.398438 734.789062 140.136719 737.921875 138.785156 C 744.039062 136.15625 750.734375 137.269531 757.308594 138.371094 C 761 132.273438 765.933594 126.96875 771.71875 122.820312 C 773.316406 121.679688 775.015625 120.625 776.945312 120.308594 C 779.246094 119.960938 781.566406 120.722656 783.644531 121.738281 C 791.046875 125.328125 796.75 132.273438 798.839844 140.238281 L 798.820312 139.039062 C 804.359375 136.570312 810.785156 136.195312 816.566406 137.980469 C 820.839844 139.308594 824.695312 141.734375 828.96875 143.0625 C 833.238281 144.390625 838.382812 144.347656 841.636719 141.28125 C 843.175781 145.71875 847.175781 149.535156 851.671875 150.96875 C 858.082031 152.996094 865.503906 150.71875 871.476562 153.789062 C 873.757812 148.480469 877.054688 143.273438 881.140625 139.191406 C 882.53125 137.800781 884.105469 136.476562 886.011719 136 C 888.3125 135.441406 890.699219 136.207031 892.894531 137.082031 C 898.347656 139.257812 900.546875 140.046875 905.253906 143.570312 C 909.027344 139.773438 912.988281 135.855469 918.089844 134.175781 C 922.566406 132.703125 927.523438 133.140625 932 131.6875 C 935.171875 130.671875 938.035156 128.742188 941.289062 128.015625 C 943.464844 127.542969 945.707031 127.621094 947.921875 127.417969 C 950.144531 127.230469 952.425781 126.710938 954.121094 125.28125 C 956.777344 129.757812 960.859375 134.363281 965.730469 136.230469 C 971.664062 138.511719 978.960938 135.878906 984.308594 139.277344 C 986.421875 140.601562 987.894531 142.699219 989.613281 144.480469 C 991.335938 146.261719 993.578125 147.878906 996.0625 147.753906 C 1000.25 144.835938 1004.976562 141.96875 1009.726562 140.082031 C 1010.992188 139.585938 1012.320312 139.128906 1013.671875 139.316406 C 1015.449219 139.566406 1016.859375 140.914062 1018.023438 142.304688 C 1021.277344 146.160156 1023.578125 150.808594 1024.699219 155.71875 C 1027.332031 151.800781 1032.519531 149.785156 1037.179688 149.042969 C 1041.847656 148.296875 1046.671875 148.230469 1051.070312 146.46875 C 1054.84375 144.953125 1058.097656 142.179688 1060.214844 138.695312 C 1064.835938 142.222656 1071.679688 142.410156 1077.363281 141.164062 C 1083.042969 139.9375 1088.3125 137.328125 1093.804688 135.460938 C 1105.769531 131.375 1121.128906 130.714844 1133.449219 133.636719 C 1134.773438 146.113281 1133.78125 158.824219 1130.527344 170.957031 C 1127.871094 180.84375 1123.707031 190.488281 1123.414062 200.726562 C 1124.371094 201.222656 1125.367188 202.074219 1125.945312 203.007812 C 1126.527344 203.945312 1126.710938 205.125 1126.277344 206.101562 C 1125.589844 207.65625 1123.746094 208.214844 1122.335938 209.125 C 1120.199219 210.515625 1118.828125 213.542969 1118.914062 216.09375 C 1117.898438 219.679688 1117.648438 223.433594 1117.066406 227.125 C 1116.488281 230.816406 1115.578125 234.546875 1113.417969 237.59375 C 1111.636719 240.078125 1111.734375 239.960938 1109.269531 241.78125 L 1109.476562 241.78125 C 1114.453125 242.941406 1120.253906 245.179688 1122.890625 249.554688 C 1124.941406 252.996094 1124.941406 257.371094 1123.699219 261.183594 C 1122.457031 265 1120.007812 269.082031 1117.523438 272.234375 C 1122.558594 275.179688 1126.316406 280.277344 1127.640625 285.957031 C 1128.597656 290.085938 1128.347656 294.4375 1129.527344 298.523438 C 1131.144531 304.082031 1136.332031 307.605469 1141.15625 311.234375 C 1138.046875 316.375 1136.742188 322.386719 1135.832031 328.320312 C 1134.921875 334.253906 1134.339844 340.285156 1132.515625 346.007812 C 1130.6875 351.730469 1127.140625 357.328125 1122.046875 360.523438 C 1127.871094 364.421875 1131.042969 371.910156 1129.816406 378.792969 C 1128.59375 385.675781 1123.015625 391.605469 1116.199219 393.242188 C 1115.824219 392.769531 1113.832031 393.28125 1113.523438 393.804688 C 1113.210938 394.324219 1113.25 394.964844 1113.292969 395.582031 C 1113.832031 401.742188 1114.390625 407.917969 1115.949219 413.890625 C 1116.507812 416.027344 1117.234375 418.183594 1118.683594 419.84375 C 1120.300781 421.691406 1122.644531 422.707031 1124.90625 423.660156 C 1121.671875 427.351562 1120.59375 432.910156 1122.003906 437.617188 C 1123.230469 441.742188 1126.238281 445.144531 1127.582031 449.226562 C 1128.78125 452.851562 1128.90625 457.414062 1128.472656 461.230469 C 1127.664062 463.492188 1128.558594 466.082031 1130.046875 467.96875 C 1131.539062 469.855469 1133.574219 471.226562 1135.460938 472.734375 C 1138.261719 474.976562 1140.808594 477.546875 1143.007812 480.390625 C 1144.355469 482.128906 1145.601562 484.039062 1145.996094 486.195312 C 1146.414062 489.03125 1145.359375 491.953125 1143.84375 494.445312 Z M 1143.84375 494.445312 " fill-opacity="1" fill-rule="nonzero"/><g clip-path="url(#2914e649f1)"><path fill="#000000" d="M 402.628906 112.871094 L 1152.941406 112.871094 L 1152.941406 863.183594 L 402.628906 863.183594 Z M 402.628906 112.871094 " fill-opacity="1" fill-rule="nonzero"/></g><g clip-path="url(#a244b8aca7)"><path fill="#ffe63f" d="M 995.757812 850.675781 C 915.273438 850.675781 863.226562 812.300781 837.855469 762.113281 L 908.429688 721.226562 C 927.027344 751.59375 951.144531 773.863281 993.894531 773.863281 C 1029.78125 773.863281 1052.699219 755.914062 1052.699219 731.132812 C 1052.699219 693.878906 1002.972656 679.285156 967.878906 664.265625 C 905.332031 637.640625 863.816406 604.191406 863.816406 533.578125 C 863.816406 468.574219 913.355469 419.054688 990.8125 419.054688 C 1045.890625 419.054688 1085.558594 438.242188 1114.011719 488.375 L 1046.515625 531.734375 C 1031.664062 505.109375 1015.574219 494.589844 990.792969 494.589844 C 965.386719 494.589844 949.28125 510.699219 949.28125 531.734375 C 949.28125 557.75 965.371094 568.265625 1002.546875 584.375 C 1080.449219 617.75 1139.398438 644.007812 1139.398438 729.894531 C 1139.433594 807.964844 1078.140625 850.675781 995.757812 850.675781 Z M 796.121094 720.007812 C 796.121094 809.808594 740.804688 857.28125 664.011719 857.28125 C 594.636719 857.28125 553.085938 830.75 532.640625 784.621094 L 531.441406 784.621094 L 601.960938 735.320312 C 615.578125 759.4375 627.847656 776.558594 657.554688 776.558594 C 686.058594 776.558594 703.863281 762.132812 703.863281 718.808594 L 703.863281 415.605469 L 796.121094 415.605469 Z M 288.71875 923.003906 L 1211.265625 923.003906 L 1211.265625 0.460938 L 288.71875 0.460938 Z M 288.71875 923.003906 " fill-opacity="1" fill-rule="evenodd"/></g><g clip-path="url(#b36a7c2f6b)"><g transform="matrix(1, 0, 0, 1, 0, 937)"><g clip-path="url(#20bc870115)"><g clip-path="url(#432c9988bb)"><g fill="#ffe63f" fill-opacity="1"><g transform="translate(-12.350469, 400.120608)"><g><path d="M 101.15625 -208.796875 L 67.28125 -196.734375 L 66.8125 19.03125 C 66.8125 28 66.113281 37.195312 64.71875 46.625 C 63.332031 56.0625 60.472656 64.644531 56.140625 72.375 C 51.804688 80.113281 45.15625 85.992188 36.1875 90.015625 C 27.21875 94.035156 15 94.960938 -0.46875 92.796875 C -2.9375 92.179688 -5.796875 91.332031 -9.046875 90.25 C -12.296875 89.164062 -15.003906 88.160156 -17.171875 87.234375 L -24.59375 109.5 C -18.09375 112.289062 -12.210938 114.378906 -6.953125 115.765625 C -1.703125 117.160156 4.632812 117.859375 12.0625 117.859375 C 39.28125 117.859375 60.929688 109.8125 77.015625 93.71875 C 93.109375 77.632812 101.15625 52.269531 101.15625 17.625 Z M 62.171875 -273.765625 L 62.171875 -274.21875 C 62.171875 -280.40625 64.335938 -285.585938 68.671875 -289.765625 C 73.003906 -293.941406 78.265625 -296.03125 84.453125 -296.03125 C 90.640625 -296.03125 95.816406 -293.863281 99.984375 -289.53125 C 104.160156 -285.207031 106.25 -279.953125 106.25 -273.765625 C 106.25 -267.878906 104.082031 -262.769531 99.75 -258.4375 C 95.425781 -254.113281 90.171875 -251.953125 83.984375 -251.953125 C 78.109375 -251.953125 73.003906 -254.113281 68.671875 -258.4375 C 64.335938 -262.769531 62.171875 -267.878906 62.171875 -273.765625 Z M 62.171875 -273.765625 "/></g></g></g></g><g fill="#ffe63f" fill-opacity="1"><g transform="translate(100.399815, 400.120608)"><g><path d="M 175.859375 -31.09375 C 166.265625 -21.5 153.65625 -13.222656 138.03125 -6.265625 C 122.414062 0.691406 104.554688 4.019531 84.453125 3.71875 C 72.390625 3.40625 61.253906 0.234375 51.046875 -5.796875 C 40.835938 -11.828125 32.789062 -19.867188 26.90625 -29.921875 C 21.03125 -39.984375 18.25 -51.195312 18.5625 -63.5625 C 18.875 -83.363281 25.753906 -98.910156 39.203125 -110.203125 C 52.660156 -121.492188 69.132812 -126.984375 88.625 -126.671875 C 99.757812 -126.671875 109.425781 -126.671875 117.625 -126.671875 C 125.820312 -126.671875 134.5625 -126.671875 143.84375 -126.671875 L 143.84375 -146.625 C 143.84375 -158.375 139.351562 -167.804688 130.375 -174.921875 C 121.40625 -182.035156 111.203125 -185.59375 99.765625 -185.59375 C 89.554688 -185.59375 80.351562 -184.351562 72.15625 -181.875 C 63.957031 -179.40625 55.375 -175.851562 46.40625 -171.21875 L 38.046875 -190.703125 C 50.109375 -197.203125 61.398438 -201.765625 71.921875 -204.390625 C 82.441406 -207.023438 94.660156 -208.34375 108.578125 -208.34375 C 120.023438 -208.34375 130.851562 -205.941406 141.0625 -201.140625 C 151.269531 -196.347656 159.617188 -189.539062 166.109375 -180.71875 C 172.609375 -171.90625 175.859375 -161.160156 175.859375 -148.484375 Z M 142.90625 -35.734375 L 142.90625 -105.328125 C 137.65625 -105.328125 131.003906 -105.328125 122.953125 -105.328125 C 114.910156 -105.328125 106.71875 -105.171875 98.375 -104.859375 C 85.375 -104.859375 74.539062 -101.300781 65.875 -94.1875 C 57.21875 -87.070312 52.890625 -77.175781 52.890625 -64.5 C 52.890625 -53.050781 57.296875 -42.609375 66.109375 -33.171875 C 74.929688 -23.742188 85.992188 -19.03125 99.296875 -19.03125 C 109.191406 -18.71875 118.160156 -20.648438 126.203125 -24.828125 C 134.242188 -29.003906 139.8125 -32.640625 142.90625 -35.734375 Z M 142.90625 -35.734375 "/></g></g></g><g fill="#ffe63f" fill-opacity="1"><g transform="translate(279.501337, 400.120608)"><g><path d="M 123.890625 -4.640625 L 93.734375 5.109375 L 9.75 -199.0625 L 40.828125 -212.046875 L 111.828125 -41.296875 L 176.3125 -209.265625 L 197.203125 -199.0625 Z M 123.890625 -4.640625 "/></g></g></g><g fill="#ffe63f" fill-opacity="1"><g transform="translate(465.562731, 400.120608)"><g><path d="M 175.859375 -31.09375 C 166.265625 -21.5 153.65625 -13.222656 138.03125 -6.265625 C 122.414062 0.691406 104.554688 4.019531 84.453125 3.71875 C 72.390625 3.40625 61.253906 0.234375 51.046875 -5.796875 C 40.835938 -11.828125 32.789062 -19.867188 26.90625 -29.921875 C 21.03125 -39.984375 18.25 -51.195312 18.5625 -63.5625 C 18.875 -83.363281 25.753906 -98.910156 39.203125 -110.203125 C 52.660156 -121.492188 69.132812 -126.984375 88.625 -126.671875 C 99.757812 -126.671875 109.425781 -126.671875 117.625 -126.671875 C 125.820312 -126.671875 134.5625 -126.671875 143.84375 -126.671875 L 143.84375 -146.625 C 143.84375 -158.375 139.351562 -167.804688 130.375 -174.921875 C 121.40625 -182.035156 111.203125 -185.59375 99.765625 -185.59375 C 89.554688 -185.59375 80.351562 -184.351562 72.15625 -181.875 C 63.957031 -179.40625 55.375 -175.851562 46.40625 -171.21875 L 38.046875 -190.703125 C 50.109375 -197.203125 61.398438 -201.765625 71.921875 -204.390625 C 82.441406 -207.023438 94.660156 -208.34375 108.578125 -208.34375 C 120.023438 -208.34375 130.851562 -205.941406 141.0625 -201.140625 C 151.269531 -196.347656 159.617188 -189.539062 166.109375 -180.71875 C 172.609375 -171.90625 175.859375 -161.160156 175.859375 -148.484375 Z M 142.90625 -35.734375 L 142.90625 -105.328125 C 137.65625 -105.328125 131.003906 -105.328125 122.953125 -105.328125 C 114.910156 -105.328125 106.71875 -105.171875 98.375 -104.859375 C 85.375 -104.859375 74.539062 -101.300781 65.875 -94.1875 C 57.21875 -87.070312 52.890625 -77.175781 52.890625 -64.5 C 52.890625 -53.050781 57.296875 -42.609375 66.109375 -33.171875 C 74.929688 -23.742188 85.992188 -19.03125 99.296875 -19.03125 C 109.191406 -18.71875 118.160156 -20.648438 126.203125 -24.828125 C 134.242188 -29.003906 139.8125 -32.640625 142.90625 -35.734375 Z M 142.90625 -35.734375 "/></g></g></g><g fill="#ffe63f" fill-opacity="1"><g transform="translate(644.664216, 400.120608)"><g><path d="M 80.265625 5.5625 C 68.515625 5.5625 56.992188 3.476562 45.703125 -0.6875 C 34.410156 -4.863281 24.28125 -10.359375 15.3125 -17.171875 L 27.375 -36.65625 C 34.488281 -31.394531 42.765625 -27.140625 52.203125 -23.890625 C 61.640625 -20.648438 70.84375 -18.875 79.8125 -18.5625 C 87.226562 -18.5625 94.648438 -19.796875 102.078125 -22.265625 C 109.503906 -24.742188 115.691406 -28.613281 120.640625 -33.875 C 125.585938 -39.132812 127.90625 -45.9375 127.59375 -54.28125 C 127.289062 -64.1875 123.503906 -71.222656 116.234375 -75.390625 C 108.960938 -79.566406 101.460938 -83.203125 93.734375 -86.296875 C 90.640625 -87.535156 87.546875 -88.773438 84.453125 -90.015625 C 81.359375 -91.253906 78.109375 -92.335938 74.703125 -93.265625 C 68.515625 -95.734375 62.25 -98.28125 55.90625 -100.90625 C 49.570312 -103.539062 43.773438 -106.867188 38.515625 -110.890625 C 32.941406 -114.910156 28.300781 -119.9375 24.59375 -125.96875 C 20.882812 -132.007812 19.03125 -139.820312 19.03125 -149.40625 C 19.03125 -162.394531 22.429688 -173.375 29.234375 -182.34375 C 36.035156 -191.320312 44.847656 -198.128906 55.671875 -202.765625 C 66.503906 -207.410156 77.953125 -209.734375 90.015625 -209.734375 C 100.535156 -209.734375 110.664062 -208.1875 120.40625 -205.09375 C 130.15625 -202 139.664062 -197.820312 148.9375 -192.5625 L 136.421875 -172.609375 C 121.566406 -180.960938 106.71875 -185.445312 91.875 -186.0625 C 82.28125 -186.0625 73.078125 -183.429688 64.265625 -178.171875 C 55.453125 -172.910156 50.890625 -164.867188 50.578125 -154.046875 C 50.578125 -148.171875 52.195312 -143.53125 55.4375 -140.125 C 58.6875 -136.726562 62.941406 -133.789062 68.203125 -131.3125 C 73.460938 -129.144531 79.335938 -126.671875 85.828125 -123.890625 C 92.328125 -121.109375 98.828125 -118.476562 105.328125 -116 C 111.515625 -113.519531 117.773438 -110.96875 124.109375 -108.34375 C 130.453125 -105.71875 136.253906 -102.238281 141.515625 -97.90625 C 147.085938 -93.570312 151.726562 -88.234375 155.4375 -81.890625 C 159.15625 -75.554688 161.015625 -67.75 161.015625 -58.46875 C 161.015625 -43.925781 156.988281 -31.9375 148.9375 -22.5 C 140.894531 -13.070312 130.6875 -6.035156 118.3125 -1.390625 C 105.945312 3.242188 93.265625 5.5625 80.265625 5.5625 Z M 80.265625 5.5625 "/></g></g></g><g fill="#ffe63f" fill-opacity="1"><g transform="translate(797.31804, 400.120608)"><g><path d="M 101.609375 4.171875 C 84.285156 3.867188 69.4375 -1.304688 57.0625 -11.359375 C 44.695312 -21.421875 35.265625 -34.335938 28.765625 -50.109375 C 22.273438 -65.890625 19.03125 -82.285156 19.03125 -99.296875 C 19.03125 -118.472656 22.816406 -136.722656 30.390625 -154.046875 C 37.972656 -171.367188 48.878906 -184.828125 63.109375 -194.421875 C 72.691406 -200.910156 83.4375 -205.082031 95.34375 -206.9375 C 107.257812 -208.800781 119.476562 -208.570312 132 -206.25 C 144.53125 -203.925781 156.054688 -199.363281 166.578125 -192.5625 L 156.828125 -174.46875 C 150.023438 -177.863281 142.210938 -180.722656 133.390625 -183.046875 C 124.578125 -185.367188 116.148438 -186.21875 108.109375 -185.59375 C 96.046875 -184.976562 85.914062 -180.1875 77.71875 -171.21875 C 69.519531 -162.25 63.410156 -151.265625 59.390625 -138.265625 C 55.367188 -125.273438 53.359375 -112.285156 53.359375 -99.296875 C 53.359375 -87.234375 55.523438 -75.015625 59.859375 -62.640625 C 64.191406 -50.265625 70.6875 -39.898438 79.34375 -31.546875 C 88.007812 -23.203125 98.679688 -18.875 111.359375 -18.5625 C 122.179688 -18.25 131.921875 -19.789062 140.578125 -23.1875 C 149.242188 -26.59375 158.21875 -30.460938 167.5 -34.796875 L 176.3125 -17.171875 C 166.414062 -10.671875 155.203125 -5.488281 142.671875 -1.625 C 130.148438 2.238281 116.460938 4.171875 101.609375 4.171875 Z M 101.609375 4.171875 "/></g></g></g><g fill="#ffe63f" fill-opacity="1"><g transform="translate(962.035681, 400.120608)"><g><path d="M 112.28125 -182.8125 L 111.828125 -182.8125 C 100.691406 -182.8125 91.175781 -181.03125 83.28125 -177.46875 C 75.394531 -173.914062 68.359375 -169.507812 62.171875 -164.25 L 62.171875 0 L 28.296875 0 L 28.296875 -168.890625 C 41.296875 -183.429688 57.382812 -193.953125 76.5625 -200.453125 C 86.769531 -204.160156 97.128906 -206.863281 107.640625 -208.5625 C 118.160156 -210.269531 130.535156 -209.882812 144.765625 -207.40625 C 142.597656 -203.382812 140.273438 -198.898438 137.796875 -193.953125 C 135.328125 -189.003906 133.164062 -184.363281 131.3125 -180.03125 C 128.21875 -180.644531 124.890625 -181.257812 121.328125 -181.875 C 117.773438 -182.5 114.757812 -182.8125 112.28125 -182.8125 Z M 112.28125 -182.8125 "/></g></g></g><g fill="#ffe63f" fill-opacity="1"><g transform="translate(1091.489772, 400.120608)"><g><path d="M 37.125 0 L 37.125 -197.203125 L 70.53125 -208.34375 L 70.53125 0 Z M 31.546875 -273.765625 L 31.546875 -274.21875 C 31.546875 -280.40625 33.710938 -285.585938 38.046875 -289.765625 C 42.378906 -293.941406 47.640625 -296.03125 53.828125 -296.03125 C 60.015625 -296.03125 65.191406 -293.863281 69.359375 -289.53125 C 73.535156 -285.207031 75.625 -279.953125 75.625 -273.765625 C 75.625 -267.878906 73.457031 -262.769531 69.125 -258.4375 C 64.800781 -254.113281 59.546875 -251.953125 53.359375 -251.953125 C 47.484375 -251.953125 42.378906 -254.113281 38.046875 -258.4375 C 33.710938 -262.769531 31.546875 -267.878906 31.546875 -273.765625 Z M 31.546875 -273.765625 "/></g></g></g><g fill="#ffe63f" fill-opacity="1"><g transform="translate(1173.152424, 400.120608)"><g><path d="M 124.8125 -207.875 L 124.359375 -208.34375 C 107.335938 -208.03125 92.71875 -206.09375 80.5 -202.53125 C 68.28125 -198.976562 58.457031 -194.878906 51.03125 -190.234375 C 43.613281 -185.597656 38.203125 -181.5 34.796875 -177.9375 C 31.398438 -174.382812 29.703125 -172.609375 29.703125 -172.609375 L 29.234375 94.1875 L 62.640625 106.25 L 62.640625 -13.921875 C 72.234375 -8.046875 81.976562 -3.484375 91.875 -0.234375 C 101.769531 3.015625 112.441406 4.640625 123.890625 4.640625 C 142.453125 4.023438 157.765625 -1.148438 169.828125 -10.890625 C 181.890625 -20.640625 190.859375 -33.25 196.734375 -48.71875 C 202.609375 -64.1875 205.546875 -80.582031 205.546875 -97.90625 C 205.546875 -117.695312 202.609375 -135.945312 196.734375 -152.65625 C 190.859375 -169.363281 182.039062 -182.820312 170.28125 -193.03125 C 158.53125 -203.238281 143.375 -208.1875 124.8125 -207.875 Z M 116.46875 -19.484375 C 105.945312 -18.867188 95.660156 -20.800781 85.609375 -25.28125 C 75.554688 -29.769531 67.742188 -33.71875 62.171875 -37.125 L 62.171875 -169.359375 C 63.722656 -170.910156 67.125 -173.078125 72.375 -175.859375 C 77.632812 -178.640625 84.285156 -181.113281 92.328125 -183.28125 C 100.378906 -185.445312 109.195312 -186.21875 118.78125 -185.59375 C 129.300781 -185.289062 137.726562 -182.273438 144.0625 -176.546875 C 150.40625 -170.828125 155.203125 -163.554688 158.453125 -154.734375 C 161.703125 -145.921875 163.867188 -136.71875 164.953125 -127.125 C 166.035156 -117.539062 166.578125 -108.570312 166.578125 -100.21875 C 166.578125 -91.5625 166.035156 -82.671875 164.953125 -73.546875 C 163.867188 -64.421875 161.625 -55.910156 158.21875 -48.015625 C 154.820312 -40.128906 149.796875 -33.554688 143.140625 -28.296875 C 136.492188 -23.046875 127.601562 -20.109375 116.46875 -19.484375 Z M 116.46875 -19.484375 "/></g></g></g><g fill="#ffe63f" fill-opacity="1"><g transform="translate(1383.341466, 400.120608)"><g><path d="M 36.65625 -181.421875 L 13.453125 -181.421875 L 13.453125 -203.234375 L 36.65625 -203.234375 L 36.65625 -259.84375 L 70.53125 -271.90625 L 70.53125 -203.234375 L 108.578125 -203.234375 L 108.578125 -181.421875 L 70.53125 -181.421875 L 70.53125 -49.1875 C 70.53125 -35.882812 73.929688 -26.988281 80.734375 -22.5 C 87.535156 -18.019531 96.816406 -15.46875 108.578125 -14.84375 L 108.578125 2.78125 C 85.992188 4.945312 68.359375 1.316406 55.671875 -8.109375 C 42.992188 -17.546875 36.65625 -30.925781 36.65625 -48.25 Z M 36.65625 -181.421875 "/></g></g></g></g></g></g></g></g></svg>