<svg xmlns="http://www.w3.org/2000/svg" xmlns:xlink="http://www.w3.org/1999/xlink" width="2000" zoomAndPan="magnify" viewBox="0 0 1500 1499.999933" height="2000" preserveAspectRatio="xMidYMid meet" version="1.0"><defs><g/><clipPath id="e1272d0e61"><path d="M 488.964844 277.613281 L 1195.050781 277.613281 L 1195.050781 983.699219 L 488.964844 983.699219 Z M 488.964844 277.613281 " clip-rule="nonzero"/></clipPath><clipPath id="a595b403a6"><path d="M 243.5 0.460938 L 1256.117188 0.460938 L 1256.117188 1013.078125 L 243.5 1013.078125 Z M 243.5 0.460938 " clip-rule="nonzero"/></clipPath><clipPath id="932ebc8aee"><path d="M 0 955 L 1492.800781 955 L 1492.800781 1478.878906 L 0 1478.878906 Z M 0 955 " clip-rule="nonzero"/></clipPath><clipPath id="2d316bdd98"><path d="M 0 104 L 94 104 L 94 518 L 0 518 Z M 0 104 " clip-rule="nonzero"/></clipPath><clipPath id="bef742c7ea"><rect x="0" width="1493" y="0" height="524"/></clipPath><clipPath id="8562ace2f9"><rect x="0" width="1493" y="0" height="1479"/></clipPath></defs><g transform="matrix(1, 0, 0, 1, 0, 0.000000000000112854)"><g clip-path="url(#8562ace2f9)"><path fill="#ff0000" d="M 1186.488281 636.695312 C 1182.722656 642.878906 1176.320312 646.527344 1170 650.058594 C 1172.671875 653.921875 1172.574219 659.109375 1171.382812 663.65625 C 1170.191406 668.207031 1168.027344 672.457031 1166.816406 677.003906 C 1165.605469 681.550781 1165.917969 687.5625 1168.554688 691.441406 C 1164.925781 691.59375 1161.878906 694.503906 1160.394531 697.84375 C 1158.929688 701.179688 1158.695312 704.882812 1158.386719 708.511719 C 1158.074219 712.144531 1157.585938 715.890625 1155.691406 718.992188 L 1155.773438 719.011719 C 1160.984375 721.078125 1166.40625 723.285156 1170.097656 727.515625 C 1171.171875 728.765625 1172.089844 730.171875 1172.652344 731.691406 C 1173.941406 735.203125 1173.414062 739.1875 1171.972656 742.617188 C 1170.527344 746.074219 1168.242188 749.09375 1166.003906 752.078125 C 1168.929688 754.988281 1173.726562 758.265625 1175.054688 762.183594 C 1175.890625 764.683594 1175.972656 767.378906 1176.34375 769.988281 C 1177.632812 779.238281 1182.546875 787.945312 1182.238281 797.289062 L 1182.238281 797.304688 C 1182.21875 798.261719 1181.515625 799.0625 1180.699219 799.550781 C 1179.878906 800.042969 1178.960938 800.3125 1178.125 800.742188 C 1175.214844 802.226562 1173.675781 805.523438 1173.066406 808.746094 C 1172.460938 811.964844 1172.558594 815.28125 1171.875 818.480469 C 1170.492188 824.992188 1165.5 830.285156 1161.164062 835.359375 C 1163.527344 838.324219 1165.921875 841.328125 1167.269531 844.863281 C 1168.613281 848.394531 1168.769531 852.589844 1166.761719 855.789062 C 1164.300781 859.710938 1158.390625 861.582031 1153.917969 862.753906 C 1157.21875 865.957031 1160.710938 869.488281 1161.371094 874.035156 C 1161.816406 877.199219 1160.84375 880.414062 1161.253906 883.574219 C 1161.605469 886.304688 1162.988281 888.824219 1164.765625 890.914062 C 1166.539062 893.003906 1168.703125 894.761719 1170.832031 896.496094 C 1166.96875 902.292969 1167.359375 910.585938 1169.175781 917.316406 C 1170.992188 924.046875 1174.207031 930.332031 1175.984375 937.082031 C 1178.269531 945.6875 1178.113281 954.917969 1175.578125 963.445312 C 1164.007812 966.191406 1150.601562 966.214844 1139.339844 962.371094 C 1134.171875 960.59375 1129.214844 958.15625 1123.867188 957.003906 C 1118.519531 955.851562 1112.082031 956.03125 1107.730469 959.324219 C 1105.738281 956.046875 1102.675781 953.429688 1099.125 952.007812 C 1095.007812 950.351562 1090.441406 950.292969 1086.054688 949.589844 C 1081.667969 948.890625 1076.785156 946.996094 1074.308594 943.304688 C 1073.253906 947.929688 1071.089844 952.300781 1068.023438 955.929688 C 1066.933594 957.21875 1065.605469 958.488281 1063.929688 958.742188 C 1062.664062 958.914062 1061.410156 958.488281 1060.222656 958.019531 C 1055.734375 956.265625 1051.304688 953.574219 1047.359375 950.800781 C 1045.019531 950.683594 1042.914062 952.203125 1041.292969 953.882812 C 1039.671875 955.558594 1038.265625 957.53125 1036.296875 958.777344 C 1031.242188 961.960938 1024.375 959.480469 1018.816406 961.644531 C 1014.25 963.421875 1010.386719 967.730469 1007.890625 971.949219 C 1006.289062 970.585938 1004.144531 970.113281 1002.058594 969.941406 C 999.96875 969.765625 997.863281 969.839844 995.816406 969.375 C 992.75 968.691406 990.058594 966.875 987.074219 965.917969 C 982.84375 964.554688 978.195312 964.964844 973.984375 963.578125 C 969.203125 962.015625 965.460938 958.3125 961.90625 954.738281 C 957.476562 958.058594 955.429688 958.796875 950.273438 960.84375 C 948.207031 961.664062 945.960938 962.382812 943.796875 961.863281 C 942.003906 961.414062 940.519531 960.164062 939.210938 958.859375 C 935.367188 955.035156 932.265625 950.117188 930.117188 945.121094 C 924.496094 948.007812 917.511719 945.867188 911.480469 947.777344 C 907.269531 949.125 903.503906 952.695312 902.039062 956.890625 C 898.992188 953.980469 894.136719 953.964844 890.113281 955.214844 C 886.09375 956.460938 882.464844 958.746094 878.445312 959.996094 C 873 961.671875 866.949219 961.324219 861.746094 959.003906 L 861.761719 957.875 C 859.789062 965.367188 854.425781 971.902344 847.460938 975.28125 C 845.492188 976.238281 843.304688 976.957031 841.160156 976.628906 C 839.347656 976.335938 837.722656 975.339844 836.242188 974.265625 C 830.792969 970.382812 826.152344 965.367188 822.679688 959.628906 C 816.492188 960.683594 810.191406 961.738281 804.433594 959.238281 C 801.488281 957.972656 798.929688 955.847656 795.929688 954.730469 C 791.207031 952.992188 785.546875 954.125 781.839844 957.523438 C 781.09375 953.910156 777.992188 950.90625 774.636719 949.40625 C 771.261719 947.90625 767.535156 947.496094 763.867188 947.105469 C 760.199219 946.714844 756.472656 946.285156 753.117188 944.742188 C 752.53125 950.109375 750.386719 954.226562 746.757812 958.222656 C 745.292969 959.84375 743.515625 961.324219 741.371094 961.660156 C 739.988281 961.875 738.5625 961.578125 737.214844 961.210938 C 732.296875 959.886719 727.636719 957.664062 723.515625 954.675781 C 716.804688 956.976562 712.820312 964 705.898438 965.542969 C 702.640625 966.261719 699.164062 965.621094 695.910156 966.34375 C 693.351562 966.90625 691.070312 968.253906 688.550781 969 C 684.121094 970.308594 679.089844 969.699219 675.125 972.0625 C 673.035156 967.324219 667.945312 963.457031 662.972656 962.03125 C 660.042969 961.195312 656.941406 961.132812 653.957031 960.492188 C 648.261719 959.28125 642.035156 954.890625 638.582031 950.210938 C 636.027344 952.574219 635.558594 953.023438 632.535156 954.777344 C 629.507812 956.535156 625.957031 957.570312 622.527344 957.058594 C 619.386719 956.59375 616.515625 954.796875 614.507812 952.359375 C 612.476562 949.917969 610.839844 945.863281 610.429688 942.71875 C 607.792969 946.929688 602.953125 949.527344 598.019531 950.03125 C 594.644531 950.386719 591.210938 949.839844 587.878906 950.460938 C 583.210938 951.339844 578.277344 955.320312 576.324219 959.628906 C 572.207031 956.585938 566.667969 956.195312 561.574219 956.902344 C 553.394531 958.03125 545.789062 961.601562 537.824219 963.730469 C 528.636719 966.1875 515.796875 966.25 508.535156 963.457031 C 505.980469 954.933594 505.84375 945.703125 508.125 937.097656 C 509.921875 930.367188 513.140625 924.0625 514.9375 917.332031 C 516.753906 910.601562 517.164062 902.304688 513.28125 896.511719 C 515.429688 894.773438 517.574219 893.039062 519.347656 890.929688 C 521.125 888.820312 522.511719 886.324219 522.859375 883.589844 C 523.269531 880.425781 522.277344 877.210938 522.742188 874.046875 C 523.40625 869.5 526.898438 865.96875 530.195312 862.769531 C 525.707031 861.617188 519.816406 859.722656 517.351562 855.804688 C 515.34375 852.601562 515.5 848.40625 516.84375 844.878906 C 518.191406 841.347656 520.589844 838.320312 522.949219 835.375 C 518.621094 830.300781 513.625 825.03125 512.234375 818.492188 C 511.554688 815.292969 511.671875 811.980469 511.046875 808.757812 C 510.4375 805.539062 508.898438 802.242188 505.988281 800.757812 C 505.152344 800.328125 504.214844 800.054688 503.414062 799.566406 C 502.597656 799.074219 501.894531 798.277344 501.875 797.320312 L 501.875 797.300781 C 501.546875 787.976562 506.460938 779.253906 507.769531 770.003906 C 508.140625 767.390625 508.214844 764.699219 509.058594 762.199219 C 510.386719 758.277344 515.164062 755.019531 518.109375 752.09375 C 515.847656 749.109375 513.582031 746.082031 512.140625 742.632812 C 510.703125 739.179688 510.152344 735.199219 511.460938 731.707031 C 512.023438 730.167969 512.941406 728.757812 514.015625 727.53125 C 517.683594 723.292969 523.128906 721.074219 528.339844 719.023438 L 528.417969 719.003906 C 526.527344 715.886719 526.058594 712.15625 525.726562 708.527344 C 525.417969 704.898438 525.179688 701.171875 523.71875 697.855469 C 522.253906 694.539062 519.207031 691.613281 515.558594 691.453125 C 518.195312 687.550781 518.507812 681.558594 517.296875 677.015625 C 516.085938 672.476562 513.921875 668.21875 512.730469 663.671875 C 511.539062 659.125 511.441406 653.9375 514.113281 650.074219 C 507.792969 646.542969 501.390625 642.894531 497.625 636.710938 C 496.199219 634.386719 495.222656 631.617188 495.714844 628.941406 C 496.085938 626.914062 497.253906 625.121094 498.523438 623.476562 C 500.589844 620.804688 502.972656 618.382812 505.628906 616.273438 C 507.402344 614.871094 509.3125 613.5625 510.71875 611.789062 C 512.125 610.015625 512.964844 607.59375 512.203125 605.449219 C 511.792969 601.875 511.910156 597.582031 513.042969 594.152344 C 514.308594 590.304688 517.136719 587.109375 518.289062 583.226562 C 519.617188 578.796875 518.601562 573.566406 515.558594 570.09375 C 517.6875 569.191406 519.890625 568.238281 521.414062 566.5 C 522.78125 564.9375 523.464844 562.910156 523.992188 560.898438 C 525.472656 555.277344 525.980469 549.445312 526.488281 543.671875 C 526.546875 543.105469 526.589844 542.480469 526.273438 541.996094 C 525.980469 541.503906 524.109375 541.019531 523.753906 541.46875 C 517.351562 539.929688 512.105469 534.363281 510.9375 527.867188 C 509.765625 521.371094 512.773438 514.34375 518.253906 510.675781 C 513.46875 507.675781 510.113281 502.402344 508.398438 497.015625 C 506.6875 491.632812 506.136719 485.953125 505.277344 480.371094 C 504.421875 474.789062 503.171875 469.132812 500.265625 464.292969 C 504.8125 460.878906 509.707031 457.578125 511.210938 452.332031 C 512.320312 448.507812 512.066406 444.390625 512.984375 440.507812 C 514.230469 435.140625 517.765625 430.363281 522.507812 427.589844 C 520.167969 424.625 517.863281 420.777344 516.695312 417.191406 C 515.523438 413.601562 515.503906 409.484375 517.457031 406.246094 C 519.914062 402.128906 525.398438 400.023438 530.082031 398.933594 L 530.273438 398.933594 C 527.953125 397.214844 528.046875 397.332031 526.371094 394.992188 C 524.34375 392.144531 523.464844 388.613281 522.9375 385.140625 C 522.410156 381.664062 522.171875 378.136719 521.199219 374.761719 C 521.277344 372.359375 519.988281 369.511719 517.980469 368.203125 C 516.652344 367.347656 514.914062 366.800781 514.269531 365.355469 C 513.859375 364.417969 514.054688 363.308594 514.582031 362.445312 C 515.109375 361.589844 516.0625 360.789062 516.960938 360.300781 C 516.671875 350.679688 512.75 341.589844 510.269531 332.28125 C 507.203125 320.867188 506.265625 308.90625 507.519531 297.160156 C 514.796875 294.371094 528.691406 295.050781 537.882812 297.515625 C 545.839844 299.640625 553.453125 303.210938 561.628906 304.34375 C 566.703125 305.046875 572.246094 304.65625 576.382812 301.613281 C 578.335938 305.945312 583.269531 309.925781 587.933594 310.785156 C 591.269531 311.410156 594.703125 310.863281 598.078125 311.210938 C 603.035156 311.722656 607.855469 314.316406 610.484375 318.527344 C 610.914062 315.386719 612.550781 311.347656 614.5625 308.886719 C 616.589844 306.449219 619.457031 304.675781 622.582031 304.183594 C 626.039062 303.65625 629.570312 304.710938 632.589844 306.46875 C 635.617188 308.203125 636.082031 308.652344 638.640625 311.035156 C 642.113281 306.351562 648.316406 301.957031 654.015625 300.75 C 657 300.121094 660.101562 300.046875 663.027344 299.210938 C 668.023438 297.78125 673.097656 293.941406 675.183594 289.179688 C 679.164062 291.542969 684.179688 290.914062 688.605469 292.242188 C 691.105469 292.984375 693.410156 294.332031 695.964844 294.898438 C 699.242188 295.617188 702.695312 294.976562 705.953125 295.699219 C 712.882812 297.238281 716.859375 304.285156 723.574219 306.566406 C 727.691406 303.582031 732.351562 301.335938 737.269531 300.027344 C 738.636719 299.65625 740.042969 299.363281 741.425781 299.582031 C 743.574219 299.910156 745.367188 301.398438 746.8125 303.015625 C 750.421875 307.019531 752.589844 311.132812 753.171875 316.5 C 756.527344 314.960938 760.257812 314.527344 763.921875 314.136719 C 767.589844 313.746094 771.316406 313.335938 774.695312 311.832031 C 778.070312 310.332031 781.152344 307.324219 781.894531 303.71875 C 785.605469 307.132812 791.261719 308.246094 795.984375 306.511719 C 799.007812 305.398438 801.542969 303.273438 804.492188 302 C 810.246094 299.523438 816.550781 300.574219 822.734375 301.609375 C 826.210938 295.871094 830.851562 290.878906 836.296875 286.976562 C 837.796875 285.902344 839.398438 284.910156 841.214844 284.613281 C 843.382812 284.28125 845.566406 285.003906 847.519531 285.957031 C 854.484375 289.332031 859.851562 295.871094 861.820312 303.367188 L 861.800781 302.234375 C 867.011719 299.914062 873.0625 299.5625 878.503906 301.242188 C 882.523438 302.488281 886.152344 304.773438 890.171875 306.023438 C 894.191406 307.273438 899.03125 307.234375 902.09375 304.347656 C 903.539062 308.523438 907.304688 312.117188 911.539062 313.460938 C 917.566406 315.375 924.554688 313.226562 930.171875 316.117188 C 932.320312 311.125 935.421875 306.222656 939.269531 302.382812 C 940.578125 301.074219 942.058594 299.824219 943.851562 299.378906 C 946.019531 298.851562 948.261719 299.570312 950.332031 300.394531 C 955.460938 302.441406 957.53125 303.1875 961.960938 306.5 C 965.511719 302.929688 969.238281 299.242188 974.039062 297.660156 C 978.253906 296.277344 982.917969 296.6875 987.132812 295.320312 C 990.117188 294.367188 992.808594 292.546875 995.871094 291.867188 C 997.921875 291.417969 1000.027344 291.492188 1002.113281 291.300781 C 1004.203125 291.125 1006.351562 290.636719 1007.945312 289.289062 C 1010.445312 293.503906 1014.289062 297.839844 1018.871094 299.59375 C 1024.457031 301.742188 1031.324219 299.265625 1036.355469 302.460938 C 1038.347656 303.710938 1039.730469 305.679688 1041.347656 307.355469 C 1042.96875 309.03125 1045.078125 310.558594 1047.417969 310.441406 C 1051.355469 307.691406 1055.804688 304.996094 1060.277344 303.21875 C 1061.46875 302.753906 1062.714844 302.320312 1063.988281 302.5 C 1065.664062 302.734375 1066.988281 304 1068.082031 305.308594 C 1071.144531 308.9375 1073.3125 313.3125 1074.367188 317.933594 C 1076.84375 314.25 1081.722656 312.351562 1086.109375 311.648438 C 1090.503906 310.949219 1095.042969 310.886719 1099.183594 309.230469 C 1102.730469 307.804688 1105.796875 305.191406 1107.789062 301.914062 C 1112.136719 305.234375 1118.578125 305.410156 1123.925781 304.238281 C 1129.269531 303.082031 1134.226562 300.625 1139.398438 298.871094 C 1150.65625 295.023438 1165.113281 294.402344 1176.707031 297.152344 C 1177.953125 308.898438 1177.015625 320.859375 1173.957031 332.273438 C 1171.457031 341.578125 1167.535156 350.65625 1167.261719 360.289062 C 1168.164062 360.757812 1169.097656 361.554688 1169.644531 362.4375 C 1170.191406 363.316406 1170.367188 364.429688 1169.957031 365.347656 C 1169.3125 366.808594 1167.574219 367.335938 1166.246094 368.195312 C 1164.238281 369.503906 1162.945312 372.351562 1163.027344 374.75 C 1162.070312 378.125 1161.835938 381.65625 1161.289062 385.128906 C 1160.742188 388.605469 1159.886719 392.117188 1157.855469 394.984375 C 1156.179688 397.320312 1156.273438 397.210938 1153.953125 398.921875 L 1154.144531 398.921875 C 1158.828125 400.015625 1164.289062 402.125 1166.769531 406.238281 C 1168.699219 409.476562 1168.699219 413.59375 1167.53125 417.183594 C 1166.359375 420.773438 1164.058594 424.613281 1161.71875 427.582031 C 1166.457031 430.351562 1169.992188 435.148438 1171.242188 440.496094 C 1172.140625 444.378906 1171.90625 448.476562 1173.015625 452.320312 C 1174.535156 457.550781 1179.417969 460.871094 1183.960938 464.28125 C 1181.03125 469.121094 1179.804688 474.78125 1178.945312 480.363281 C 1178.089844 485.945312 1177.542969 491.621094 1175.824219 497.007812 C 1174.109375 502.394531 1170.769531 507.660156 1165.972656 510.667969 C 1171.457031 514.335938 1174.441406 521.382812 1173.289062 527.859375 C 1172.136719 534.335938 1166.886719 539.917969 1160.472656 541.457031 C 1160.117188 541.011719 1158.246094 541.496094 1157.953125 541.984375 C 1157.660156 542.476562 1157.699219 543.078125 1157.734375 543.660156 C 1158.246094 549.457031 1158.773438 555.269531 1160.234375 560.890625 C 1160.761719 562.898438 1161.445312 564.929688 1162.808594 566.492188 C 1164.332031 568.226562 1166.539062 569.183594 1168.667969 570.082031 C 1165.621094 573.558594 1164.609375 578.785156 1165.9375 583.214844 C 1167.089844 587.097656 1169.917969 590.300781 1171.183594 594.140625 C 1172.3125 597.554688 1172.433594 601.847656 1172.023438 605.4375 C 1171.261719 607.566406 1172.101562 610.003906 1173.503906 611.78125 C 1174.90625 613.554688 1176.824219 614.84375 1178.597656 616.265625 C 1181.234375 618.375 1183.628906 620.792969 1185.703125 623.46875 C 1186.96875 625.105469 1188.140625 626.902344 1188.511719 628.933594 C 1188.90625 631.601562 1187.914062 634.351562 1186.488281 636.695312 Z M 1186.488281 636.695312 " fill-opacity="1" fill-rule="nonzero"/><g clip-path="url(#e1272d0e61)"><path fill="#000000" d="M 488.964844 277.613281 L 1195.050781 277.613281 L 1195.050781 983.699219 L 488.964844 983.699219 Z M 488.964844 277.613281 " fill-opacity="1" fill-rule="nonzero"/></g><g clip-path="url(#a595b403a6)"><path fill="#ffe63f" d="M 1019.863281 934.039062 C 931.488281 934.039062 874.335938 891.898438 846.476562 836.792969 L 923.972656 791.894531 C 944.394531 825.242188 970.871094 849.695312 1017.816406 849.695312 C 1057.222656 849.695312 1082.382812 829.984375 1082.382812 802.773438 C 1082.382812 761.871094 1027.78125 745.84375 989.25 729.351562 C 920.566406 700.117188 874.984375 663.386719 874.984375 585.851562 C 874.984375 514.476562 929.378906 460.097656 1014.433594 460.097656 C 1074.90625 460.097656 1118.464844 481.167969 1149.707031 536.214844 L 1075.597656 583.824219 C 1059.289062 554.589844 1041.621094 543.042969 1014.410156 543.042969 C 986.511719 543.042969 968.828125 560.730469 968.828125 583.824219 C 968.828125 612.390625 986.492188 623.9375 1027.316406 641.625 C 1112.855469 678.277344 1177.585938 707.105469 1177.585938 801.417969 C 1177.625 887.136719 1110.320312 934.039062 1019.863281 934.039062 Z M 800.648438 790.558594 C 800.648438 889.164062 739.910156 941.292969 655.585938 941.292969 C 579.410156 941.292969 533.785156 912.160156 511.335938 861.511719 L 510.019531 861.511719 L 587.453125 807.375 C 602.40625 833.855469 615.878906 852.65625 648.496094 852.65625 C 679.796875 852.65625 699.347656 836.8125 699.347656 789.242188 L 699.347656 456.3125 L 800.648438 456.3125 Z M 243.5 1013.460938 L 1256.496094 1013.460938 L 1256.496094 0.460938 L 243.5 0.460938 Z M 243.5 1013.460938 " fill-opacity="1" fill-rule="evenodd"/></g><g clip-path="url(#932ebc8aee)"><g transform="matrix(1, 0, 0, 1, 0, 955)"><g clip-path="url(#bef742c7ea)"><g clip-path="url(#2d316bdd98)"><g fill="#ffe63f" fill-opacity="1"><g transform="translate(-12.350469, 400.120546)"><g><path d="M 101.15625 -208.796875 L 67.28125 -196.734375 L 66.8125 19.03125 C 66.8125 28 66.113281 37.195312 64.71875 46.625 C 63.332031 56.0625 60.472656 64.644531 56.140625 72.375 C 51.804688 80.113281 45.15625 85.992188 36.1875 90.015625 C 27.21875 94.035156 15 94.960938 -0.46875 92.796875 C -2.9375 92.179688 -5.796875 91.332031 -9.046875 90.25 C -12.296875 89.164062 -15.003906 88.160156 -17.171875 87.234375 L -24.59375 109.5 C -18.09375 112.289062 -12.210938 114.378906 -6.953125 115.765625 C -1.703125 117.160156 4.632812 117.859375 12.0625 117.859375 C 39.28125 117.859375 60.929688 109.8125 77.015625 93.71875 C 93.109375 77.632812 101.15625 52.269531 101.15625 17.625 Z M 62.171875 -273.765625 L 62.171875 -274.21875 C 62.171875 -280.40625 64.335938 -285.585938 68.671875 -289.765625 C 73.003906 -293.941406 78.265625 -296.03125 84.453125 -296.03125 C 90.640625 -296.03125 95.816406 -293.863281 99.984375 -289.53125 C 104.160156 -285.207031 106.25 -279.953125 106.25 -273.765625 C 106.25 -267.878906 104.082031 -262.769531 99.75 -258.4375 C 95.425781 -254.113281 90.171875 -251.953125 83.984375 -251.953125 C 78.109375 -251.953125 73.003906 -254.113281 68.671875 -258.4375 C 64.335938 -262.769531 62.171875 -267.878906 62.171875 -273.765625 Z M 62.171875 -273.765625 "/></g></g></g></g><g fill="#ffe63f" fill-opacity="1"><g transform="translate(100.399815, 400.120546)"><g><path d="M 175.859375 -31.09375 C 166.265625 -21.5 153.65625 -13.222656 138.03125 -6.265625 C 122.414062 0.691406 104.554688 4.019531 84.453125 3.71875 C 72.390625 3.40625 61.253906 0.234375 51.046875 -5.796875 C 40.835938 -11.828125 32.789062 -19.867188 26.90625 -29.921875 C 21.03125 -39.984375 18.25 -51.195312 18.5625 -63.5625 C 18.875 -83.363281 25.753906 -98.910156 39.203125 -110.203125 C 52.660156 -121.492188 69.132812 -126.984375 88.625 -126.671875 C 99.757812 -126.671875 109.425781 -126.671875 117.625 -126.671875 C 125.820312 -126.671875 134.5625 -126.671875 143.84375 -126.671875 L 143.84375 -146.625 C 143.84375 -158.375 139.351562 -167.804688 130.375 -174.921875 C 121.40625 -182.035156 111.203125 -185.59375 99.765625 -185.59375 C 89.554688 -185.59375 80.351562 -184.351562 72.15625 -181.875 C 63.957031 -179.40625 55.375 -175.851562 46.40625 -171.21875 L 38.046875 -190.703125 C 50.109375 -197.203125 61.398438 -201.765625 71.921875 -204.390625 C 82.441406 -207.023438 94.660156 -208.34375 108.578125 -208.34375 C 120.023438 -208.34375 130.851562 -205.941406 141.0625 -201.140625 C 151.269531 -196.347656 159.617188 -189.539062 166.109375 -180.71875 C 172.609375 -171.90625 175.859375 -161.160156 175.859375 -148.484375 Z M 142.90625 -35.734375 L 142.90625 -105.328125 C 137.65625 -105.328125 131.003906 -105.328125 122.953125 -105.328125 C 114.910156 -105.328125 106.71875 -105.171875 98.375 -104.859375 C 85.375 -104.859375 74.539062 -101.300781 65.875 -94.1875 C 57.21875 -87.070312 52.890625 -77.175781 52.890625 -64.5 C 52.890625 -53.050781 57.296875 -42.609375 66.109375 -33.171875 C 74.929688 -23.742188 85.992188 -19.03125 99.296875 -19.03125 C 109.191406 -18.71875 118.160156 -20.648438 126.203125 -24.828125 C 134.242188 -29.003906 139.8125 -32.640625 142.90625 -35.734375 Z M 142.90625 -35.734375 "/></g></g></g><g fill="#ffe63f" fill-opacity="1"><g transform="translate(279.501337, 400.120546)"><g><path d="M 123.890625 -4.640625 L 93.734375 5.109375 L 9.75 -199.0625 L 40.828125 -212.046875 L 111.828125 -41.296875 L 176.3125 -209.265625 L 197.203125 -199.0625 Z M 123.890625 -4.640625 "/></g></g></g><g fill="#ffe63f" fill-opacity="1"><g transform="translate(465.562731, 400.120546)"><g><path d="M 175.859375 -31.09375 C 166.265625 -21.5 153.65625 -13.222656 138.03125 -6.265625 C 122.414062 0.691406 104.554688 4.019531 84.453125 3.71875 C 72.390625 3.40625 61.253906 0.234375 51.046875 -5.796875 C 40.835938 -11.828125 32.789062 -19.867188 26.90625 -29.921875 C 21.03125 -39.984375 18.25 -51.195312 18.5625 -63.5625 C 18.875 -83.363281 25.753906 -98.910156 39.203125 -110.203125 C 52.660156 -121.492188 69.132812 -126.984375 88.625 -126.671875 C 99.757812 -126.671875 109.425781 -126.671875 117.625 -126.671875 C 125.820312 -126.671875 134.5625 -126.671875 143.84375 -126.671875 L 143.84375 -146.625 C 143.84375 -158.375 139.351562 -167.804688 130.375 -174.921875 C 121.40625 -182.035156 111.203125 -185.59375 99.765625 -185.59375 C 89.554688 -185.59375 80.351562 -184.351562 72.15625 -181.875 C 63.957031 -179.40625 55.375 -175.851562 46.40625 -171.21875 L 38.046875 -190.703125 C 50.109375 -197.203125 61.398438 -201.765625 71.921875 -204.390625 C 82.441406 -207.023438 94.660156 -208.34375 108.578125 -208.34375 C 120.023438 -208.34375 130.851562 -205.941406 141.0625 -201.140625 C 151.269531 -196.347656 159.617188 -189.539062 166.109375 -180.71875 C 172.609375 -171.90625 175.859375 -161.160156 175.859375 -148.484375 Z M 142.90625 -35.734375 L 142.90625 -105.328125 C 137.65625 -105.328125 131.003906 -105.328125 122.953125 -105.328125 C 114.910156 -105.328125 106.71875 -105.171875 98.375 -104.859375 C 85.375 -104.859375 74.539062 -101.300781 65.875 -94.1875 C 57.21875 -87.070312 52.890625 -77.175781 52.890625 -64.5 C 52.890625 -53.050781 57.296875 -42.609375 66.109375 -33.171875 C 74.929688 -23.742188 85.992188 -19.03125 99.296875 -19.03125 C 109.191406 -18.71875 118.160156 -20.648438 126.203125 -24.828125 C 134.242188 -29.003906 139.8125 -32.640625 142.90625 -35.734375 Z M 142.90625 -35.734375 "/></g></g></g><g fill="#ffe63f" fill-opacity="1"><g transform="translate(644.664216, 400.120546)"><g><path d="M 80.265625 5.5625 C 68.515625 5.5625 56.992188 3.476562 45.703125 -0.6875 C 34.410156 -4.863281 24.28125 -10.359375 15.3125 -17.171875 L 27.375 -36.65625 C 34.488281 -31.394531 42.765625 -27.140625 52.203125 -23.890625 C 61.640625 -20.648438 70.84375 -18.875 79.8125 -18.5625 C 87.226562 -18.5625 94.648438 -19.796875 102.078125 -22.265625 C 109.503906 -24.742188 115.691406 -28.613281 120.640625 -33.875 C 125.585938 -39.132812 127.90625 -45.9375 127.59375 -54.28125 C 127.289062 -64.1875 123.503906 -71.222656 116.234375 -75.390625 C 108.960938 -79.566406 101.460938 -83.203125 93.734375 -86.296875 C 90.640625 -87.535156 87.546875 -88.773438 84.453125 -90.015625 C 81.359375 -91.253906 78.109375 -92.335938 74.703125 -93.265625 C 68.515625 -95.734375 62.25 -98.28125 55.90625 -100.90625 C 49.570312 -103.539062 43.773438 -106.867188 38.515625 -110.890625 C 32.941406 -114.910156 28.300781 -119.9375 24.59375 -125.96875 C 20.882812 -132.007812 19.03125 -139.820312 19.03125 -149.40625 C 19.03125 -162.394531 22.429688 -173.375 29.234375 -182.34375 C 36.035156 -191.320312 44.847656 -198.128906 55.671875 -202.765625 C 66.503906 -207.410156 77.953125 -209.734375 90.015625 -209.734375 C 100.535156 -209.734375 110.664062 -208.1875 120.40625 -205.09375 C 130.15625 -202 139.664062 -197.820312 148.9375 -192.5625 L 136.421875 -172.609375 C 121.566406 -180.960938 106.71875 -185.445312 91.875 -186.0625 C 82.28125 -186.0625 73.078125 -183.429688 64.265625 -178.171875 C 55.453125 -172.910156 50.890625 -164.867188 50.578125 -154.046875 C 50.578125 -148.171875 52.195312 -143.53125 55.4375 -140.125 C 58.6875 -136.726562 62.941406 -133.789062 68.203125 -131.3125 C 73.460938 -129.144531 79.335938 -126.671875 85.828125 -123.890625 C 92.328125 -121.109375 98.828125 -118.476562 105.328125 -116 C 111.515625 -113.519531 117.773438 -110.96875 124.109375 -108.34375 C 130.453125 -105.71875 136.253906 -102.238281 141.515625 -97.90625 C 147.085938 -93.570312 151.726562 -88.234375 155.4375 -81.890625 C 159.15625 -75.554688 161.015625 -67.75 161.015625 -58.46875 C 161.015625 -43.925781 156.988281 -31.9375 148.9375 -22.5 C 140.894531 -13.070312 130.6875 -6.035156 118.3125 -1.390625 C 105.945312 3.242188 93.265625 5.5625 80.265625 5.5625 Z M 80.265625 5.5625 "/></g></g></g><g fill="#ffe63f" fill-opacity="1"><g transform="translate(797.31804, 400.120546)"><g><path d="M 101.609375 4.171875 C 84.285156 3.867188 69.4375 -1.304688 57.0625 -11.359375 C 44.695312 -21.421875 35.265625 -34.335938 28.765625 -50.109375 C 22.273438 -65.890625 19.03125 -82.285156 19.03125 -99.296875 C 19.03125 -118.472656 22.816406 -136.722656 30.390625 -154.046875 C 37.972656 -171.367188 48.878906 -184.828125 63.109375 -194.421875 C 72.691406 -200.910156 83.4375 -205.082031 95.34375 -206.9375 C 107.257812 -208.800781 119.476562 -208.570312 132 -206.25 C 144.53125 -203.925781 156.054688 -199.363281 166.578125 -192.5625 L 156.828125 -174.46875 C 150.023438 -177.863281 142.210938 -180.722656 133.390625 -183.046875 C 124.578125 -185.367188 116.148438 -186.21875 108.109375 -185.59375 C 96.046875 -184.976562 85.914062 -180.1875 77.71875 -171.21875 C 69.519531 -162.25 63.410156 -151.265625 59.390625 -138.265625 C 55.367188 -125.273438 53.359375 -112.285156 53.359375 -99.296875 C 53.359375 -87.234375 55.523438 -75.015625 59.859375 -62.640625 C 64.191406 -50.265625 70.6875 -39.898438 79.34375 -31.546875 C 88.007812 -23.203125 98.679688 -18.875 111.359375 -18.5625 C 122.179688 -18.25 131.921875 -19.789062 140.578125 -23.1875 C 149.242188 -26.59375 158.21875 -30.460938 167.5 -34.796875 L 176.3125 -17.171875 C 166.414062 -10.671875 155.203125 -5.488281 142.671875 -1.625 C 130.148438 2.238281 116.460938 4.171875 101.609375 4.171875 Z M 101.609375 4.171875 "/></g></g></g><g fill="#ffe63f" fill-opacity="1"><g transform="translate(962.035681, 400.120546)"><g><path d="M 112.28125 -182.8125 L 111.828125 -182.8125 C 100.691406 -182.8125 91.175781 -181.03125 83.28125 -177.46875 C 75.394531 -173.914062 68.359375 -169.507812 62.171875 -164.25 L 62.171875 0 L 28.296875 0 L 28.296875 -168.890625 C 41.296875 -183.429688 57.382812 -193.953125 76.5625 -200.453125 C 86.769531 -204.160156 97.128906 -206.863281 107.640625 -208.5625 C 118.160156 -210.269531 130.535156 -209.882812 144.765625 -207.40625 C 142.597656 -203.382812 140.273438 -198.898438 137.796875 -193.953125 C 135.328125 -189.003906 133.164062 -184.363281 131.3125 -180.03125 C 128.21875 -180.644531 124.890625 -181.257812 121.328125 -181.875 C 117.773438 -182.5 114.757812 -182.8125 112.28125 -182.8125 Z M 112.28125 -182.8125 "/></g></g></g><g fill="#ffe63f" fill-opacity="1"><g transform="translate(1091.489772, 400.120546)"><g><path d="M 37.125 0 L 37.125 -197.203125 L 70.53125 -208.34375 L 70.53125 0 Z M 31.546875 -273.765625 L 31.546875 -274.21875 C 31.546875 -280.40625 33.710938 -285.585938 38.046875 -289.765625 C 42.378906 -293.941406 47.640625 -296.03125 53.828125 -296.03125 C 60.015625 -296.03125 65.191406 -293.863281 69.359375 -289.53125 C 73.535156 -285.207031 75.625 -279.953125 75.625 -273.765625 C 75.625 -267.878906 73.457031 -262.769531 69.125 -258.4375 C 64.800781 -254.113281 59.546875 -251.953125 53.359375 -251.953125 C 47.484375 -251.953125 42.378906 -254.113281 38.046875 -258.4375 C 33.710938 -262.769531 31.546875 -267.878906 31.546875 -273.765625 Z M 31.546875 -273.765625 "/></g></g></g><g fill="#ffe63f" fill-opacity="1"><g transform="translate(1173.152424, 400.120546)"><g><path d="M 124.8125 -207.875 L 124.359375 -208.34375 C 107.335938 -208.03125 92.71875 -206.09375 80.5 -202.53125 C 68.28125 -198.976562 58.457031 -194.878906 51.03125 -190.234375 C 43.613281 -185.597656 38.203125 -181.5 34.796875 -177.9375 C 31.398438 -174.382812 29.703125 -172.609375 29.703125 -172.609375 L 29.234375 94.1875 L 62.640625 106.25 L 62.640625 -13.921875 C 72.234375 -8.046875 81.976562 -3.484375 91.875 -0.234375 C 101.769531 3.015625 112.441406 4.640625 123.890625 4.640625 C 142.453125 4.023438 157.765625 -1.148438 169.828125 -10.890625 C 181.890625 -20.640625 190.859375 -33.25 196.734375 -48.71875 C 202.609375 -64.1875 205.546875 -80.582031 205.546875 -97.90625 C 205.546875 -117.695312 202.609375 -135.945312 196.734375 -152.65625 C 190.859375 -169.363281 182.039062 -182.820312 170.28125 -193.03125 C 158.53125 -203.238281 143.375 -208.1875 124.8125 -207.875 Z M 116.46875 -19.484375 C 105.945312 -18.867188 95.660156 -20.800781 85.609375 -25.28125 C 75.554688 -29.769531 67.742188 -33.71875 62.171875 -37.125 L 62.171875 -169.359375 C 63.722656 -170.910156 67.125 -173.078125 72.375 -175.859375 C 77.632812 -178.640625 84.285156 -181.113281 92.328125 -183.28125 C 100.378906 -185.445312 109.195312 -186.21875 118.78125 -185.59375 C 129.300781 -185.289062 137.726562 -182.273438 144.0625 -176.546875 C 150.40625 -170.828125 155.203125 -163.554688 158.453125 -154.734375 C 161.703125 -145.921875 163.867188 -136.71875 164.953125 -127.125 C 166.035156 -117.539062 166.578125 -108.570312 166.578125 -100.21875 C 166.578125 -91.5625 166.035156 -82.671875 164.953125 -73.546875 C 163.867188 -64.421875 161.625 -55.910156 158.21875 -48.015625 C 154.820312 -40.128906 149.796875 -33.554688 143.140625 -28.296875 C 136.492188 -23.046875 127.601562 -20.109375 116.46875 -19.484375 Z M 116.46875 -19.484375 "/></g></g></g><g fill="#ffe63f" fill-opacity="1"><g transform="translate(1383.341466, 400.120546)"><g><path d="M 36.65625 -181.421875 L 13.453125 -181.421875 L 13.453125 -203.234375 L 36.65625 -203.234375 L 36.65625 -259.84375 L 70.53125 -271.90625 L 70.53125 -203.234375 L 108.578125 -203.234375 L 108.578125 -181.421875 L 70.53125 -181.421875 L 70.53125 -49.1875 C 70.53125 -35.882812 73.929688 -26.988281 80.734375 -22.5 C 87.535156 -18.019531 96.816406 -15.46875 108.578125 -14.84375 L 108.578125 2.78125 C 85.992188 4.945312 68.359375 1.316406 55.671875 -8.109375 C 42.992188 -17.546875 36.65625 -30.925781 36.65625 -48.25 Z M 36.65625 -181.421875 "/></g></g></g></g></g></g></g></g></svg>