<svg xmlns="http://www.w3.org/2000/svg" xmlns:xlink="http://www.w3.org/1999/xlink" width="2000" zoomAndPan="magnify" viewBox="0 0 1500 1499.999933" height="2000" preserveAspectRatio="xMidYMid meet" version="1.0"><defs><g/><clipPath id="6333dbc1f1"><path d="M 503.914062 227.050781 L 1095.625 227.050781 L 1095.625 818.761719 L 503.914062 818.761719 Z M 503.914062 227.050781 " clip-rule="nonzero"/></clipPath><clipPath id="b791d37c50"><path d="M 293.984375 0 L 1160 0 L 1160 866 L 293.984375 866 Z M 293.984375 0 " clip-rule="nonzero"/></clipPath><clipPath id="8d112a5a9f"><path d="M 0.441406 802 L 1409 802 L 1409 1283.039062 L 0.441406 1283.039062 Z M 0.441406 802 " clip-rule="nonzero"/></clipPath><clipPath id="04c7a0678c"><rect x="0" width="1409" y="0" height="482"/></clipPath><clipPath id="0a3dd26e79"><rect x="0" width="1409" y="0" height="1284"/></clipPath></defs><g transform="matrix(1, 0, 0, 1, 43, 150)"><g clip-path="url(#0a3dd26e79)"><path fill="#ff0000" d="M 1088.449219 527.964844 C 1085.292969 533.148438 1079.929688 536.207031 1074.628906 539.164062 C 1076.871094 542.40625 1076.789062 546.75 1075.789062 550.5625 C 1074.792969 554.371094 1072.976562 557.933594 1071.964844 561.746094 C 1070.949219 565.554688 1071.210938 570.59375 1073.417969 573.84375 C 1070.378906 573.972656 1067.824219 576.410156 1066.582031 579.207031 C 1065.355469 582.003906 1065.160156 585.109375 1064.898438 588.152344 C 1064.636719 591.191406 1064.226562 594.332031 1062.640625 596.933594 L 1062.710938 596.949219 C 1067.074219 598.679688 1071.621094 600.53125 1074.714844 604.078125 C 1075.613281 605.121094 1076.382812 606.300781 1076.855469 607.574219 C 1077.9375 610.519531 1077.492188 613.855469 1076.28125 616.730469 C 1075.070312 619.625 1073.160156 622.160156 1071.28125 624.660156 C 1073.734375 627.097656 1077.753906 629.84375 1078.867188 633.128906 C 1079.570312 635.222656 1079.636719 637.480469 1079.949219 639.667969 C 1081.027344 647.421875 1085.148438 654.714844 1084.886719 662.546875 L 1084.886719 662.5625 C 1084.871094 663.363281 1084.28125 664.03125 1083.597656 664.441406 C 1082.910156 664.851562 1082.140625 665.082031 1081.4375 665.441406 C 1079 666.683594 1077.710938 669.449219 1077.203125 672.144531 C 1076.691406 674.84375 1076.777344 677.625 1076.203125 680.304688 C 1075.042969 685.765625 1070.859375 690.199219 1067.226562 694.449219 C 1069.207031 696.933594 1071.214844 699.453125 1072.34375 702.414062 C 1073.46875 705.371094 1073.601562 708.886719 1071.917969 711.570312 C 1069.855469 714.855469 1064.902344 716.425781 1061.15625 717.410156 C 1063.921875 720.089844 1066.847656 723.050781 1067.398438 726.859375 C 1067.773438 729.511719 1066.957031 732.203125 1067.300781 734.855469 C 1067.597656 737.144531 1068.757812 739.253906 1070.242188 741.003906 C 1071.730469 742.757812 1073.546875 744.230469 1075.328125 745.683594 C 1072.089844 750.539062 1072.417969 757.492188 1073.941406 763.132812 C 1075.460938 768.773438 1078.15625 774.039062 1079.648438 779.695312 C 1081.5625 786.90625 1081.429688 794.640625 1079.304688 801.785156 C 1069.609375 804.089844 1058.375 804.109375 1048.9375 800.886719 C 1044.605469 799.398438 1040.453125 797.355469 1035.972656 796.390625 C 1031.492188 795.421875 1026.09375 795.574219 1022.449219 798.335938 C 1020.78125 795.589844 1018.210938 793.394531 1015.238281 792.203125 C 1011.785156 790.816406 1007.960938 790.765625 1004.285156 790.175781 C 1000.605469 789.589844 996.515625 788.003906 994.441406 784.910156 C 993.558594 788.785156 991.742188 792.449219 989.175781 795.492188 C 988.261719 796.570312 987.148438 797.632812 985.742188 797.84375 C 984.683594 797.992188 983.632812 797.632812 982.636719 797.242188 C 978.875 795.769531 975.164062 793.515625 971.859375 791.191406 C 969.898438 791.09375 968.128906 792.367188 966.773438 793.773438 C 965.417969 795.179688 964.238281 796.832031 962.589844 797.875 C 958.351562 800.542969 952.597656 798.464844 947.9375 800.277344 C 944.109375 801.765625 940.871094 805.378906 938.78125 808.914062 C 937.441406 807.769531 935.640625 807.375 933.894531 807.230469 C 932.140625 807.082031 930.378906 807.148438 928.664062 806.757812 C 926.09375 806.183594 923.839844 804.660156 921.339844 803.859375 C 917.792969 802.71875 913.898438 803.058594 910.367188 801.902344 C 906.359375 800.589844 903.222656 797.488281 900.246094 794.492188 C 896.535156 797.273438 894.816406 797.894531 890.496094 799.609375 C 888.765625 800.296875 886.882812 800.898438 885.070312 800.460938 C 883.566406 800.085938 882.324219 799.035156 881.226562 797.945312 C 878.003906 794.742188 875.40625 790.617188 873.605469 786.433594 C 868.898438 788.851562 863.042969 787.054688 857.988281 788.65625 C 854.457031 789.785156 851.304688 792.78125 850.078125 796.296875 C 847.523438 793.855469 843.453125 793.839844 840.085938 794.890625 C 836.714844 795.9375 833.675781 797.847656 830.304688 798.898438 C 825.742188 800.304688 820.671875 800.011719 816.308594 798.066406 L 816.324219 797.121094 C 814.671875 803.398438 810.175781 808.875 804.339844 811.707031 C 802.6875 812.507812 800.859375 813.113281 799.058594 812.835938 C 797.539062 812.589844 796.179688 811.753906 794.9375 810.855469 C 790.371094 807.601562 786.484375 803.398438 783.570312 798.589844 C 778.390625 799.472656 773.105469 800.359375 768.28125 798.261719 C 765.8125 797.203125 763.671875 795.417969 761.152344 794.484375 C 757.199219 793.027344 752.457031 793.976562 749.347656 796.824219 C 748.722656 793.796875 746.125 791.28125 743.3125 790.023438 C 740.484375 788.765625 737.359375 788.421875 734.285156 788.09375 C 731.214844 787.765625 728.089844 787.40625 725.277344 786.113281 C 724.789062 790.609375 722.988281 794.0625 719.949219 797.410156 C 718.722656 798.769531 717.234375 800.011719 715.433594 800.292969 C 714.273438 800.472656 713.078125 800.222656 711.953125 799.917969 C 707.828125 798.804688 703.925781 796.941406 700.472656 794.4375 C 694.847656 796.367188 691.511719 802.25 685.707031 803.546875 C 682.976562 804.148438 680.066406 803.613281 677.335938 804.214844 C 675.195312 804.6875 673.28125 805.816406 671.171875 806.441406 C 667.457031 807.539062 663.242188 807.027344 659.921875 809.007812 C 658.167969 805.035156 653.90625 801.796875 649.734375 800.601562 C 647.28125 799.902344 644.683594 799.847656 642.179688 799.3125 C 637.40625 798.300781 632.1875 794.617188 629.296875 790.699219 C 627.15625 792.675781 626.761719 793.050781 624.230469 794.523438 C 621.691406 795.996094 618.71875 796.863281 615.84375 796.4375 C 613.210938 796.046875 610.804688 794.539062 609.121094 792.496094 C 607.421875 790.453125 606.046875 787.050781 605.703125 784.417969 C 603.496094 787.949219 599.441406 790.125 595.304688 790.546875 C 592.476562 790.84375 589.597656 790.386719 586.804688 790.90625 C 582.894531 791.644531 578.761719 794.976562 577.125 798.589844 C 573.671875 796.039062 569.03125 795.710938 564.761719 796.304688 C 557.910156 797.25 551.535156 800.242188 544.859375 802.027344 C 537.160156 804.085938 526.398438 804.136719 520.316406 801.796875 C 518.175781 794.652344 518.058594 786.917969 519.972656 779.707031 C 521.476562 774.066406 524.175781 768.785156 525.679688 763.144531 C 527.203125 757.503906 527.546875 750.550781 524.292969 745.695312 C 526.089844 744.242188 527.890625 742.785156 529.378906 741.015625 C 530.863281 739.25 532.027344 737.160156 532.320312 734.867188 C 532.664062 732.21875 531.832031 729.523438 532.222656 726.871094 C 532.777344 723.0625 535.703125 720.101562 538.464844 717.421875 C 534.707031 716.453125 529.769531 714.867188 527.703125 711.582031 C 526.019531 708.898438 526.152344 705.386719 527.277344 702.425781 C 528.40625 699.46875 530.417969 696.929688 532.394531 694.460938 C 528.765625 690.210938 524.582031 685.796875 523.417969 680.316406 C 522.84375 677.632812 522.945312 674.855469 522.417969 672.160156 C 521.910156 669.460938 520.621094 666.699219 518.183594 665.453125 C 517.480469 665.09375 516.695312 664.863281 516.023438 664.453125 C 515.339844 664.042969 514.75 663.375 514.734375 662.574219 L 514.734375 662.558594 C 514.457031 654.742188 518.578125 647.433594 519.671875 639.679688 C 519.984375 637.492188 520.046875 635.234375 520.753906 633.140625 C 521.867188 629.855469 525.871094 627.125 528.339844 624.671875 C 526.441406 622.171875 524.546875 619.632812 523.339844 616.742188 C 522.132812 613.851562 521.667969 610.515625 522.765625 607.585938 C 523.238281 606.296875 524.007812 605.117188 524.90625 604.089844 C 527.980469 600.539062 532.546875 598.675781 536.910156 596.960938 L 536.980469 596.945312 C 535.394531 594.328125 535 591.203125 534.722656 588.164062 C 534.460938 585.121094 534.265625 581.996094 533.039062 579.21875 C 531.8125 576.4375 529.257812 573.988281 526.203125 573.855469 C 528.410156 570.585938 528.671875 565.5625 527.65625 561.757812 C 526.644531 557.949219 524.828125 554.382812 523.832031 550.574219 C 522.832031 546.761719 522.75 542.417969 524.992188 539.175781 C 519.691406 536.21875 514.328125 533.160156 511.171875 527.976562 C 509.976562 526.035156 509.160156 523.710938 509.570312 521.46875 C 509.882812 519.769531 510.859375 518.265625 511.925781 516.890625 C 513.65625 514.648438 515.652344 512.621094 517.878906 510.855469 C 519.367188 509.679688 520.96875 508.582031 522.148438 507.09375 C 523.324219 505.609375 524.027344 503.582031 523.390625 501.78125 C 523.046875 498.789062 523.144531 495.191406 524.089844 492.3125 C 525.152344 489.089844 527.523438 486.414062 528.488281 483.160156 C 529.601562 479.445312 528.75 475.0625 526.203125 472.152344 C 527.984375 471.398438 529.832031 470.597656 531.109375 469.144531 C 532.253906 467.832031 532.824219 466.132812 533.265625 464.449219 C 534.507812 459.738281 534.9375 454.851562 535.363281 450.011719 C 535.410156 449.539062 535.445312 449.011719 535.179688 448.605469 C 534.9375 448.195312 533.367188 447.789062 533.070312 448.164062 C 527.703125 446.875 523.304688 442.210938 522.328125 436.769531 C 521.347656 431.324219 523.867188 425.433594 528.457031 422.363281 C 524.449219 419.84375 521.636719 415.425781 520.203125 410.914062 C 518.765625 406.402344 518.304688 401.644531 517.585938 396.964844 C 516.867188 392.289062 515.820312 387.546875 513.386719 383.492188 C 517.195312 380.632812 521.296875 377.867188 522.558594 373.46875 C 523.488281 370.265625 523.273438 366.8125 524.042969 363.558594 C 525.089844 359.0625 528.050781 355.058594 532.023438 352.734375 C 530.0625 350.25 528.132812 347.027344 527.152344 344.019531 C 526.171875 341.011719 526.15625 337.5625 527.792969 334.847656 C 529.851562 331.398438 534.445312 329.632812 538.371094 328.71875 L 538.535156 328.71875 C 536.589844 327.277344 536.667969 327.378906 535.261719 325.417969 C 533.5625 323.03125 532.824219 320.070312 532.382812 317.160156 C 531.941406 314.25 531.746094 311.289062 530.929688 308.460938 C 530.996094 306.449219 529.914062 304.0625 528.230469 302.96875 C 527.117188 302.25 525.660156 301.792969 525.121094 300.582031 C 524.777344 299.796875 524.941406 298.863281 525.382812 298.144531 C 525.824219 297.425781 526.625 296.753906 527.378906 296.34375 C 527.132812 288.28125 523.847656 280.664062 521.769531 272.863281 C 519.199219 263.296875 518.414062 253.273438 519.464844 243.433594 C 525.5625 241.09375 537.207031 241.664062 544.90625 243.730469 C 551.578125 245.511719 557.957031 248.503906 564.808594 249.453125 C 569.0625 250.039062 573.703125 249.714844 577.171875 247.164062 C 578.808594 250.792969 582.941406 254.132812 586.851562 254.847656 C 589.648438 255.375 592.523438 254.917969 595.351562 255.207031 C 599.507812 255.632812 603.546875 257.808594 605.75 261.339844 C 606.109375 258.707031 607.484375 255.324219 609.167969 253.257812 C 610.867188 251.214844 613.269531 249.730469 615.890625 249.320312 C 618.785156 248.875 621.742188 249.761719 624.277344 251.230469 C 626.8125 252.6875 627.203125 253.0625 629.34375 255.058594 C 632.257812 251.132812 637.457031 247.453125 642.226562 246.4375 C 644.730469 245.914062 647.328125 245.851562 649.78125 245.148438 C 653.96875 243.953125 658.21875 240.734375 659.96875 236.742188 C 663.304688 238.722656 667.507812 238.199219 671.21875 239.3125 C 673.3125 239.933594 675.242188 241.0625 677.382812 241.535156 C 680.128906 242.140625 683.023438 241.601562 685.753906 242.207031 C 691.5625 243.496094 694.894531 249.402344 700.519531 251.316406 C 703.972656 248.8125 707.875 246.933594 712 245.835938 C 713.144531 245.523438 714.324219 245.277344 715.480469 245.460938 C 717.28125 245.738281 718.785156 246.984375 719.996094 248.339844 C 723.019531 251.695312 724.835938 255.140625 725.324219 259.636719 C 728.136719 258.347656 731.261719 257.984375 734.332031 257.65625 C 737.40625 257.332031 740.53125 256.988281 743.359375 255.730469 C 746.1875 254.46875 748.773438 251.949219 749.394531 248.929688 C 752.503906 251.789062 757.246094 252.722656 761.203125 251.265625 C 763.734375 250.335938 765.859375 248.554688 768.328125 247.488281 C 773.152344 245.414062 778.4375 246.292969 783.621094 247.160156 C 786.53125 242.351562 790.421875 238.167969 794.984375 234.898438 C 796.242188 233.996094 797.582031 233.164062 799.105469 232.917969 C 800.921875 232.640625 802.75 233.242188 804.386719 234.042969 C 810.226562 236.875 814.722656 242.351562 816.371094 248.632812 L 816.355469 247.6875 C 820.722656 245.742188 825.792969 245.445312 830.351562 246.851562 C 833.722656 247.898438 836.761719 249.8125 840.132812 250.859375 C 843.5 251.90625 847.554688 251.875 850.125 249.457031 C 851.335938 252.957031 854.492188 255.964844 858.035156 257.09375 C 863.089844 258.695312 868.945312 256.898438 873.652344 259.320312 C 875.453125 255.132812 878.050781 251.027344 881.273438 247.808594 C 882.371094 246.710938 883.613281 245.664062 885.117188 245.292969 C 886.933594 244.847656 888.8125 245.453125 890.546875 246.144531 C 894.84375 247.859375 896.582031 248.480469 900.292969 251.257812 C 903.265625 248.265625 906.390625 245.175781 910.414062 243.851562 C 913.945312 242.691406 917.855469 243.035156 921.386719 241.890625 C 923.886719 241.089844 926.144531 239.566406 928.710938 238.996094 C 930.425781 238.621094 932.195312 238.683594 933.941406 238.523438 C 935.691406 238.375 937.492188 237.964844 938.828125 236.835938 C 940.921875 240.367188 944.140625 244 947.984375 245.472656 C 952.664062 247.269531 958.417969 245.195312 962.636719 247.875 C 964.304688 248.921875 965.464844 250.574219 966.820312 251.976562 C 968.175781 253.382812 969.945312 254.660156 971.90625 254.5625 C 975.207031 252.257812 978.933594 249.996094 982.683594 248.511719 C 983.679688 248.121094 984.726562 247.757812 985.789062 247.90625 C 987.195312 248.105469 988.308594 249.164062 989.222656 250.261719 C 991.789062 253.304688 993.605469 256.96875 994.488281 260.839844 C 996.5625 257.753906 1000.65625 256.164062 1004.332031 255.574219 C 1008.011719 254.988281 1011.816406 254.9375 1015.285156 253.546875 C 1018.261719 252.351562 1020.828125 250.164062 1022.496094 247.417969 C 1026.140625 250.199219 1031.539062 250.34375 1036.019531 249.363281 C 1040.5 248.394531 1044.652344 246.335938 1048.984375 244.863281 C 1058.421875 241.640625 1070.535156 241.121094 1080.25 243.425781 C 1081.296875 253.265625 1080.511719 263.289062 1077.949219 272.855469 C 1075.851562 280.65625 1072.566406 288.261719 1072.339844 296.335938 C 1073.089844 296.726562 1073.875 297.398438 1074.335938 298.132812 C 1074.792969 298.871094 1074.9375 299.804688 1074.59375 300.574219 C 1074.054688 301.800781 1072.597656 302.242188 1071.484375 302.960938 C 1069.800781 304.054688 1068.722656 306.441406 1068.789062 308.453125 C 1067.988281 311.28125 1067.789062 314.242188 1067.332031 317.152344 C 1066.875 320.0625 1066.15625 323.007812 1064.453125 325.410156 C 1063.046875 327.371094 1063.128906 327.273438 1061.183594 328.710938 L 1061.34375 328.710938 C 1065.269531 329.625 1069.84375 331.394531 1071.925781 334.839844 C 1073.542969 337.554688 1073.542969 341.007812 1072.5625 344.011719 C 1071.582031 347.023438 1069.652344 350.242188 1067.691406 352.726562 C 1071.664062 355.050781 1074.625 359.070312 1075.671875 363.550781 C 1076.425781 366.804688 1076.226562 370.238281 1077.160156 373.460938 C 1078.433594 377.84375 1082.523438 380.621094 1086.332031 383.484375 C 1083.875 387.539062 1082.847656 392.28125 1082.128906 396.957031 C 1081.410156 401.636719 1080.953125 406.394531 1079.515625 410.90625 C 1078.074219 415.417969 1075.277344 419.832031 1071.257812 422.355469 C 1075.851562 425.425781 1078.355469 431.332031 1077.386719 436.761719 C 1076.421875 442.1875 1072.023438 446.867188 1066.644531 448.15625 C 1066.351562 447.78125 1064.78125 448.1875 1064.535156 448.597656 C 1064.292969 449.007812 1064.324219 449.515625 1064.355469 450.003906 C 1064.78125 454.859375 1065.222656 459.730469 1066.449219 464.441406 C 1066.890625 466.125 1067.460938 467.824219 1068.605469 469.136719 C 1069.878906 470.589844 1071.730469 471.390625 1073.515625 472.144531 C 1070.960938 475.054688 1070.113281 479.4375 1071.226562 483.152344 C 1072.191406 486.40625 1074.5625 489.085938 1075.625 492.304688 C 1076.570312 495.167969 1076.667969 498.765625 1076.328125 501.773438 C 1075.6875 503.554688 1076.394531 505.601562 1077.570312 507.085938 C 1078.746094 508.574219 1080.351562 509.65625 1081.835938 510.847656 C 1084.046875 512.613281 1086.054688 514.640625 1087.789062 516.882812 C 1088.851562 518.253906 1089.832031 519.761719 1090.144531 521.460938 C 1090.476562 523.699219 1089.644531 526.003906 1088.449219 527.964844 Z M 1088.449219 527.964844 " fill-opacity="1" fill-rule="nonzero"/><g clip-path="url(#6333dbc1f1)"><path fill="#000000" d="M 503.914062 227.050781 L 1095.625 227.050781 L 1095.625 818.761719 L 503.914062 818.761719 Z M 503.914062 227.050781 " fill-opacity="1" fill-rule="nonzero"/></g><g clip-path="url(#b791d37c50)"><path fill="#ffe63f" d="M 957.503906 797.886719 C 881.976562 797.886719 833.128906 761.871094 809.320312 714.773438 L 875.550781 676.402344 C 893.003906 704.902344 915.636719 725.800781 955.753906 725.800781 C 989.433594 725.800781 1010.9375 708.953125 1010.9375 685.699219 C 1010.9375 650.738281 964.273438 637.042969 931.339844 622.949219 C 872.640625 597.960938 833.683594 566.570312 833.683594 500.304688 C 833.683594 439.304688 880.175781 392.828125 952.863281 392.828125 C 1004.550781 392.828125 1041.777344 410.835938 1068.476562 457.882812 L 1005.136719 498.574219 C 991.199219 473.585938 976.101562 463.71875 952.847656 463.71875 C 929.003906 463.71875 913.886719 478.832031 913.886719 498.574219 C 913.886719 522.988281 928.984375 532.855469 963.875 547.972656 C 1036.980469 579.296875 1092.304688 603.933594 1092.304688 684.539062 C 1092.339844 757.800781 1034.816406 797.886719 957.503906 797.886719 Z M 770.152344 675.257812 C 770.152344 759.53125 718.242188 804.085938 646.175781 804.085938 C 581.070312 804.085938 542.078125 779.183594 522.890625 735.898438 L 521.765625 735.898438 L 587.945312 689.628906 C 600.722656 712.261719 612.238281 728.332031 640.117188 728.332031 C 666.867188 728.332031 683.578125 714.789062 683.578125 674.132812 L 683.578125 389.59375 L 770.152344 389.59375 Z M 293.984375 865.761719 L 1159.746094 865.761719 L 1159.746094 0 L 293.984375 0 Z M 293.984375 865.761719 " fill-opacity="1" fill-rule="evenodd"/></g><g clip-path="url(#8d112a5a9f)"><g transform="matrix(1, 0, 0, 1, 0, 802)"><g clip-path="url(#04c7a0678c)"><g fill="#ffe63f" fill-opacity="1"><g transform="translate(27.951567, 367.398666)"><g><path d="M 92.734375 -191.421875 L 61.6875 -180.359375 L 61.25 17.4375 C 61.25 25.664062 60.609375 34.101562 59.328125 42.75 C 58.054688 51.394531 55.4375 59.265625 51.46875 66.359375 C 47.5 73.453125 41.398438 78.84375 33.171875 82.53125 C 24.953125 86.21875 13.753906 87.066406 -0.421875 85.078125 C -2.691406 84.515625 -5.316406 83.734375 -8.296875 82.734375 C -11.273438 81.742188 -13.753906 80.820312 -15.734375 79.96875 L -22.546875 100.390625 C -16.585938 102.941406 -11.195312 104.851562 -6.375 106.125 C -1.5625 107.40625 4.25 108.046875 11.0625 108.046875 C 36.019531 108.046875 55.867188 100.671875 70.609375 85.921875 C 85.359375 71.179688 92.734375 47.929688 92.734375 16.171875 Z M 57 -250.984375 L 57 -251.40625 C 57 -257.070312 58.984375 -261.820312 62.953125 -265.65625 C 66.921875 -269.488281 71.742188 -271.40625 77.421875 -271.40625 C 83.085938 -271.40625 87.835938 -269.414062 91.671875 -265.4375 C 95.503906 -261.46875 97.421875 -256.648438 97.421875 -250.984375 C 97.421875 -245.585938 95.429688 -240.90625 91.453125 -236.9375 C 87.484375 -232.96875 82.664062 -230.984375 77 -230.984375 C 71.601562 -230.984375 66.921875 -232.96875 62.953125 -236.9375 C 58.984375 -240.90625 57 -245.585938 57 -250.984375 Z M 57 -250.984375 "/></g></g></g><g fill="#ffe63f" fill-opacity="1"><g transform="translate(131.320307, 367.398666)"><g><path d="M 161.21875 -28.5 C 152.425781 -19.707031 140.867188 -12.117188 126.546875 -5.734375 C 112.234375 0.640625 95.859375 3.6875 77.421875 3.40625 C 66.359375 3.125 56.144531 0.21875 46.78125 -5.3125 C 37.425781 -10.84375 30.054688 -18.21875 24.671875 -27.4375 C 19.285156 -36.65625 16.734375 -46.9375 17.015625 -58.28125 C 17.296875 -76.425781 23.601562 -90.675781 35.9375 -101.03125 C 48.28125 -111.382812 63.382812 -116.414062 81.25 -116.125 C 91.457031 -116.125 100.316406 -116.125 107.828125 -116.125 C 115.347656 -116.125 123.363281 -116.125 131.875 -116.125 L 131.875 -134.421875 C 131.875 -145.203125 127.757812 -153.851562 119.53125 -160.375 C 111.3125 -166.894531 101.953125 -170.15625 91.453125 -170.15625 C 82.097656 -170.15625 73.660156 -169.019531 66.140625 -166.75 C 58.628906 -164.476562 50.765625 -161.21875 42.546875 -156.96875 L 34.875 -174.828125 C 45.9375 -180.785156 56.289062 -184.96875 65.9375 -187.375 C 75.582031 -189.789062 86.785156 -191 99.546875 -191 C 110.035156 -191 119.957031 -188.800781 129.3125 -184.40625 C 138.675781 -180.007812 146.332031 -173.769531 152.28125 -165.6875 C 158.238281 -157.601562 161.21875 -147.75 161.21875 -136.125 Z M 131.015625 -32.75 L 131.015625 -96.5625 C 126.191406 -96.5625 120.09375 -96.5625 112.71875 -96.5625 C 105.351562 -96.5625 97.84375 -96.421875 90.1875 -96.140625 C 78.269531 -96.140625 68.34375 -92.878906 60.40625 -86.359375 C 52.46875 -79.835938 48.5 -70.757812 48.5 -59.125 C 48.5 -48.632812 52.535156 -39.0625 60.609375 -30.40625 C 68.691406 -21.757812 78.832031 -17.4375 91.03125 -17.4375 C 100.101562 -17.15625 108.328125 -18.925781 115.703125 -22.75 C 123.078125 -26.582031 128.179688 -29.914062 131.015625 -32.75 Z M 131.015625 -32.75 "/></g></g></g><g fill="#ffe63f" fill-opacity="1"><g transform="translate(295.519405, 367.398666)"><g><path d="M 113.578125 -4.25 L 85.921875 4.671875 L 8.9375 -182.5 L 37.4375 -194.40625 L 102.515625 -37.859375 L 161.65625 -191.84375 L 180.796875 -182.5 Z M 113.578125 -4.25 "/></g></g></g><g fill="#ffe63f" fill-opacity="1"><g transform="translate(466.099298, 367.398666)"><g><path d="M 161.21875 -28.5 C 152.425781 -19.707031 140.867188 -12.117188 126.546875 -5.734375 C 112.234375 0.640625 95.859375 3.6875 77.421875 3.40625 C 66.359375 3.125 56.144531 0.21875 46.78125 -5.3125 C 37.425781 -10.84375 30.054688 -18.21875 24.671875 -27.4375 C 19.285156 -36.65625 16.734375 -46.9375 17.015625 -58.28125 C 17.296875 -76.425781 23.601562 -90.675781 35.9375 -101.03125 C 48.28125 -111.382812 63.382812 -116.414062 81.25 -116.125 C 91.457031 -116.125 100.316406 -116.125 107.828125 -116.125 C 115.347656 -116.125 123.363281 -116.125 131.875 -116.125 L 131.875 -134.421875 C 131.875 -145.203125 127.757812 -153.851562 119.53125 -160.375 C 111.3125 -166.894531 101.953125 -170.15625 91.453125 -170.15625 C 82.097656 -170.15625 73.660156 -169.019531 66.140625 -166.75 C 58.628906 -164.476562 50.765625 -161.21875 42.546875 -156.96875 L 34.875 -174.828125 C 45.9375 -180.785156 56.289062 -184.96875 65.9375 -187.375 C 75.582031 -189.789062 86.785156 -191 99.546875 -191 C 110.035156 -191 119.957031 -188.800781 129.3125 -184.40625 C 138.675781 -180.007812 146.332031 -173.769531 152.28125 -165.6875 C 158.238281 -157.601562 161.21875 -147.75 161.21875 -136.125 Z M 131.015625 -32.75 L 131.015625 -96.5625 C 126.191406 -96.5625 120.09375 -96.5625 112.71875 -96.5625 C 105.351562 -96.5625 97.84375 -96.421875 90.1875 -96.140625 C 78.269531 -96.140625 68.34375 -92.878906 60.40625 -86.359375 C 52.46875 -79.835938 48.5 -70.757812 48.5 -59.125 C 48.5 -48.632812 52.535156 -39.0625 60.609375 -30.40625 C 68.691406 -21.757812 78.832031 -17.4375 91.03125 -17.4375 C 100.101562 -17.15625 108.328125 -18.925781 115.703125 -22.75 C 123.078125 -26.582031 128.179688 -29.914062 131.015625 -32.75 Z M 131.015625 -32.75 "/></g></g></g><g fill="#ffe63f" fill-opacity="1"><g transform="translate(630.298386, 367.398666)"><g><path d="M 73.59375 5.109375 C 62.8125 5.109375 52.242188 3.195312 41.890625 -0.625 C 31.546875 -4.457031 22.257812 -9.492188 14.03125 -15.734375 L 25.09375 -33.609375 C 31.613281 -28.785156 39.195312 -24.882812 47.84375 -21.90625 C 56.5 -18.925781 64.941406 -17.296875 73.171875 -17.015625 C 79.972656 -17.015625 86.773438 -18.148438 93.578125 -20.421875 C 100.390625 -22.691406 106.0625 -26.234375 110.59375 -31.046875 C 115.132812 -35.867188 117.265625 -42.109375 116.984375 -49.765625 C 116.703125 -58.847656 113.226562 -65.300781 106.5625 -69.125 C 99.894531 -72.957031 93.015625 -76.289062 85.921875 -79.125 C 83.085938 -80.257812 80.253906 -81.394531 77.421875 -82.53125 C 74.585938 -83.664062 71.609375 -84.65625 68.484375 -85.5 C 62.816406 -87.769531 57.078125 -90.109375 51.265625 -92.515625 C 45.453125 -94.929688 40.132812 -97.984375 35.3125 -101.671875 C 30.207031 -105.359375 25.953125 -109.960938 22.546875 -115.484375 C 19.140625 -121.015625 17.4375 -128.175781 17.4375 -136.96875 C 17.4375 -148.882812 20.554688 -158.953125 26.796875 -167.171875 C 33.035156 -175.398438 41.117188 -181.640625 51.046875 -185.890625 C 60.972656 -190.148438 71.46875 -192.28125 82.53125 -192.28125 C 92.164062 -192.28125 101.445312 -190.859375 110.375 -188.015625 C 119.3125 -185.179688 128.035156 -181.351562 136.546875 -176.53125 L 125.0625 -158.25 C 111.445312 -165.90625 97.835938 -170.015625 84.234375 -170.578125 C 75.441406 -170.578125 67.003906 -168.164062 58.921875 -163.34375 C 50.835938 -158.53125 46.65625 -151.160156 46.375 -141.234375 C 46.375 -135.835938 47.859375 -131.578125 50.828125 -128.453125 C 53.804688 -125.335938 57.707031 -122.648438 62.53125 -120.390625 C 67.351562 -118.398438 72.738281 -116.128906 78.6875 -113.578125 C 84.644531 -111.023438 90.601562 -108.613281 96.5625 -106.34375 C 102.238281 -104.070312 107.984375 -101.734375 113.796875 -99.328125 C 119.609375 -96.921875 124.925781 -93.726562 129.75 -89.75 C 134.851562 -85.78125 139.101562 -80.890625 142.5 -75.078125 C 145.90625 -69.265625 147.609375 -62.101562 147.609375 -53.59375 C 147.609375 -40.269531 143.921875 -29.28125 136.546875 -20.625 C 129.171875 -11.976562 119.8125 -5.523438 108.46875 -1.265625 C 97.125 2.984375 85.5 5.109375 73.59375 5.109375 Z M 73.59375 5.109375 "/></g></g></g><g fill="#ffe63f" fill-opacity="1"><g transform="translate(770.250434, 367.398666)"><g><path d="M 93.15625 3.828125 C 77.28125 3.546875 63.671875 -1.203125 52.328125 -10.421875 C 40.984375 -19.640625 32.332031 -31.476562 26.375 -45.9375 C 20.414062 -60.40625 17.4375 -75.4375 17.4375 -91.03125 C 17.4375 -108.613281 20.910156 -125.34375 27.859375 -141.21875 C 34.804688 -157.101562 44.804688 -169.441406 57.859375 -178.234375 C 66.648438 -184.191406 76.503906 -188.019531 87.421875 -189.71875 C 98.335938 -191.425781 109.535156 -191.210938 121.015625 -189.078125 C 132.503906 -186.953125 143.070312 -182.769531 152.71875 -176.53125 L 143.78125 -159.953125 C 137.539062 -163.066406 130.378906 -165.6875 122.296875 -167.8125 C 114.210938 -169.9375 106.484375 -170.71875 99.109375 -170.15625 C 88.054688 -169.59375 78.769531 -165.195312 71.25 -156.96875 C 63.738281 -148.75 58.140625 -138.679688 54.453125 -126.765625 C 50.765625 -114.859375 48.921875 -102.945312 48.921875 -91.03125 C 48.921875 -79.96875 50.90625 -68.765625 54.875 -57.421875 C 58.84375 -46.078125 64.796875 -36.578125 72.734375 -28.921875 C 80.679688 -21.265625 90.46875 -17.296875 102.09375 -17.015625 C 112.019531 -16.734375 120.953125 -18.148438 128.890625 -21.265625 C 136.828125 -24.390625 145.050781 -27.9375 153.5625 -31.90625 L 161.65625 -15.734375 C 152.570312 -9.785156 142.285156 -5.035156 130.796875 -1.484375 C 119.316406 2.054688 106.769531 3.828125 93.15625 3.828125 Z M 93.15625 3.828125 "/></g></g></g><g fill="#ffe63f" fill-opacity="1"><g transform="translate(921.262493, 367.398666)"><g><path d="M 102.9375 -167.609375 L 102.515625 -167.609375 C 92.304688 -167.609375 83.585938 -165.972656 76.359375 -162.703125 C 69.128906 -159.441406 62.675781 -155.40625 57 -150.59375 L 57 0 L 25.953125 0 L 25.953125 -154.84375 C 37.859375 -168.164062 52.601562 -177.804688 70.1875 -183.765625 C 79.550781 -187.171875 89.050781 -189.648438 98.6875 -191.203125 C 108.332031 -192.765625 119.675781 -192.414062 132.71875 -190.15625 C 130.738281 -186.46875 128.613281 -182.351562 126.34375 -177.8125 C 124.070312 -173.269531 122.085938 -169.015625 120.390625 -165.046875 C 117.546875 -165.617188 114.492188 -166.1875 111.234375 -166.75 C 107.972656 -167.320312 105.207031 -167.609375 102.9375 -167.609375 Z M 102.9375 -167.609375 "/></g></g></g><g fill="#ffe63f" fill-opacity="1"><g transform="translate(1039.945144, 367.398666)"><g><path d="M 34.03125 0 L 34.03125 -180.796875 L 64.65625 -191 L 64.65625 0 Z M 28.921875 -250.984375 L 28.921875 -251.40625 C 28.921875 -257.070312 30.90625 -261.820312 34.875 -265.65625 C 38.851562 -269.488281 43.675781 -271.40625 49.34375 -271.40625 C 55.019531 -271.40625 59.769531 -269.414062 63.59375 -265.4375 C 67.425781 -261.46875 69.34375 -256.648438 69.34375 -250.984375 C 69.34375 -245.585938 67.351562 -240.90625 63.375 -236.9375 C 59.40625 -232.96875 54.585938 -230.984375 48.921875 -230.984375 C 43.535156 -230.984375 38.851562 -232.96875 34.875 -236.9375 C 30.90625 -240.90625 28.921875 -245.585938 28.921875 -250.984375 Z M 28.921875 -250.984375 "/></g></g></g><g fill="#ffe63f" fill-opacity="1"><g transform="translate(1114.812966, 367.398666)"><g><path d="M 114.4375 -190.578125 L 114 -191 C 98.40625 -190.71875 85.003906 -188.945312 73.796875 -185.6875 C 62.597656 -182.425781 53.59375 -178.664062 46.78125 -174.40625 C 39.976562 -170.15625 35.015625 -166.398438 31.890625 -163.140625 C 28.773438 -159.878906 27.21875 -158.25 27.21875 -158.25 L 26.796875 86.359375 L 57.421875 97.421875 L 57.421875 -12.765625 C 66.210938 -7.367188 75.144531 -3.179688 84.21875 -0.203125 C 93.300781 2.765625 103.085938 4.25 113.578125 4.25 C 130.597656 3.6875 144.632812 -1.054688 155.6875 -9.984375 C 166.75 -18.921875 174.972656 -30.476562 180.359375 -44.65625 C 185.753906 -58.84375 188.453125 -73.875 188.453125 -89.75 C 188.453125 -107.90625 185.753906 -124.640625 180.359375 -139.953125 C 174.972656 -155.265625 166.890625 -167.597656 156.109375 -176.953125 C 145.335938 -186.316406 131.445312 -190.859375 114.4375 -190.578125 Z M 106.765625 -17.859375 C 97.128906 -17.296875 87.703125 -19.070312 78.484375 -23.1875 C 69.265625 -27.300781 62.101562 -30.914062 57 -34.03125 L 57 -155.265625 C 58.414062 -156.679688 61.535156 -158.664062 66.359375 -161.21875 C 71.179688 -163.769531 77.28125 -166.035156 84.65625 -168.015625 C 92.03125 -170.003906 100.113281 -170.71875 108.90625 -170.15625 C 118.539062 -169.875 126.265625 -167.109375 132.078125 -161.859375 C 137.890625 -156.609375 142.285156 -149.941406 145.265625 -141.859375 C 148.242188 -133.785156 150.226562 -125.351562 151.21875 -116.5625 C 152.21875 -107.769531 152.71875 -99.546875 152.71875 -91.890625 C 152.71875 -83.941406 152.21875 -75.785156 151.21875 -67.421875 C 150.226562 -59.054688 148.171875 -51.257812 145.046875 -44.03125 C 141.929688 -36.800781 137.328125 -30.773438 131.234375 -25.953125 C 125.140625 -21.128906 116.984375 -18.429688 106.765625 -17.859375 Z M 106.765625 -17.859375 "/></g></g></g><g fill="#ffe63f" fill-opacity="1"><g transform="translate(1307.512931, 367.398666)"><g><path d="M 33.609375 -166.328125 L 12.34375 -166.328125 L 12.34375 -186.328125 L 33.609375 -186.328125 L 33.609375 -238.21875 L 64.65625 -249.28125 L 64.65625 -186.328125 L 99.546875 -186.328125 L 99.546875 -166.328125 L 64.65625 -166.328125 L 64.65625 -45.09375 C 64.65625 -32.894531 67.773438 -24.738281 74.015625 -20.625 C 80.253906 -16.519531 88.765625 -14.179688 99.546875 -13.609375 L 99.546875 2.546875 C 78.835938 4.535156 62.671875 1.207031 51.046875 -7.4375 C 39.421875 -16.09375 33.609375 -28.359375 33.609375 -44.234375 Z M 33.609375 -166.328125 "/></g></g></g></g></g></g></g></g></svg>