<svg xmlns="http://www.w3.org/2000/svg" xmlns:xlink="http://www.w3.org/1999/xlink" width="2000" zoomAndPan="magnify" viewBox="0 0 1500 1499.999933" height="2000" preserveAspectRatio="xMidYMid meet" version="1.0"><defs><g/><clipPath id="a9d16a59ec"><path d="M 402.628906 114.871094 L 1152.941406 114.871094 L 1152.941406 865.183594 L 402.628906 865.183594 Z M 402.628906 114.871094 " clip-rule="nonzero"/></clipPath><clipPath id="a3bff92abb"><path d="M 288.71875 0.960938 L 1211.359375 0.960938 L 1211.359375 923.601562 L 288.71875 923.601562 Z M 288.71875 0.960938 " clip-rule="nonzero"/></clipPath><clipPath id="e0143a8147"><path d="M 0 942 L 1492.800781 942 L 1492.800781 1466 L 0 1466 Z M 0 942 " clip-rule="nonzero"/></clipPath><clipPath id="a8bd2cef79"><path d="M 0 104 L 94 104 L 94 518 L 0 518 Z M 0 104 " clip-rule="nonzero"/></clipPath><clipPath id="4ae9ea4678"><rect x="0" width="1493" y="0" height="524"/></clipPath><clipPath id="58d2037b81"><rect x="0" width="1493" y="0" height="1466"/></clipPath></defs><g transform="matrix(1, 0, 0, 1, 0, 4)"><g clip-path="url(#58d2037b81)"><path fill="#ff0000" d="M 1143.84375 496.445312 C 1139.84375 503.019531 1133.039062 506.894531 1126.320312 510.644531 C 1129.164062 514.753906 1129.058594 520.265625 1127.792969 525.097656 C 1126.527344 529.929688 1124.226562 534.445312 1122.941406 539.277344 C 1121.65625 544.109375 1121.984375 550.496094 1124.785156 554.621094 C 1120.929688 554.785156 1117.691406 557.875 1116.117188 561.421875 C 1114.5625 564.96875 1114.3125 568.90625 1113.980469 572.761719 C 1113.652344 576.617188 1113.132812 580.601562 1111.121094 583.894531 L 1111.207031 583.917969 C 1116.742188 586.113281 1122.503906 588.457031 1126.425781 592.957031 C 1127.566406 594.28125 1128.542969 595.777344 1129.144531 597.390625 C 1130.511719 601.125 1129.953125 605.355469 1128.417969 609 C 1126.882812 612.671875 1124.457031 615.882812 1122.074219 619.054688 C 1125.1875 622.148438 1130.285156 625.628906 1131.695312 629.796875 C 1132.585938 632.453125 1132.667969 635.3125 1133.066406 638.089844 C 1134.433594 647.917969 1139.65625 657.167969 1139.328125 667.097656 L 1139.328125 667.117188 C 1139.308594 668.132812 1138.5625 668.980469 1137.691406 669.503906 C 1136.820312 670.023438 1135.847656 670.3125 1134.957031 670.765625 C 1131.863281 672.34375 1130.230469 675.851562 1129.582031 679.269531 C 1128.9375 682.691406 1129.042969 686.21875 1128.316406 689.617188 C 1126.847656 696.539062 1121.539062 702.160156 1116.933594 707.554688 C 1119.445312 710.703125 1121.988281 713.894531 1123.421875 717.652344 C 1124.851562 721.402344 1125.015625 725.859375 1122.878906 729.261719 C 1120.269531 733.429688 1113.988281 735.417969 1109.234375 736.664062 C 1112.742188 740.066406 1116.453125 743.816406 1117.152344 748.648438 C 1117.628906 752.011719 1116.59375 755.429688 1117.027344 758.789062 C 1117.402344 761.691406 1118.875 764.367188 1120.757812 766.585938 C 1122.644531 768.808594 1124.945312 770.675781 1127.207031 772.519531 C 1123.101562 778.675781 1123.515625 787.492188 1125.445312 794.644531 C 1127.378906 801.796875 1130.792969 808.476562 1132.683594 815.648438 C 1135.109375 824.792969 1134.945312 834.601562 1132.25 843.660156 C 1119.953125 846.582031 1105.707031 846.605469 1093.742188 842.519531 C 1088.25 840.632812 1082.984375 838.042969 1077.300781 836.816406 C 1071.617188 835.589844 1064.777344 835.78125 1060.152344 839.28125 C 1058.039062 835.800781 1054.78125 833.019531 1051.011719 831.507812 C 1046.632812 829.75 1041.78125 829.683594 1037.121094 828.9375 C 1032.457031 828.191406 1027.269531 826.183594 1024.640625 822.261719 C 1023.519531 827.171875 1021.21875 831.820312 1017.960938 835.675781 C 1016.800781 837.046875 1015.390625 838.390625 1013.609375 838.664062 C 1012.265625 838.847656 1010.933594 838.390625 1009.667969 837.898438 C 1004.902344 836.03125 1000.195312 833.171875 996.003906 830.222656 C 993.515625 830.097656 991.277344 831.714844 989.554688 833.5 C 987.835938 835.28125 986.339844 837.375 984.246094 838.703125 C 978.875 842.082031 971.578125 839.449219 965.671875 841.75 C 960.816406 843.632812 956.710938 848.214844 954.058594 852.699219 C 952.359375 851.246094 950.078125 850.746094 947.863281 850.5625 C 945.640625 850.378906 943.40625 850.457031 941.230469 849.960938 C 937.972656 849.238281 935.113281 847.304688 931.941406 846.289062 C 927.445312 844.839844 922.507812 845.273438 918.03125 843.804688 C 912.949219 842.144531 908.972656 838.207031 905.195312 834.410156 C 900.488281 837.9375 898.3125 838.722656 892.835938 840.898438 C 890.640625 841.769531 888.253906 842.535156 885.953125 841.980469 C 884.046875 841.503906 882.46875 840.171875 881.078125 838.789062 C 876.992188 834.726562 873.695312 829.5 871.414062 824.191406 C 865.441406 827.257812 858.019531 824.980469 851.613281 827.011719 C 847.136719 828.441406 843.132812 832.238281 841.578125 836.695312 C 838.34375 833.605469 833.179688 833.585938 828.90625 834.914062 C 824.636719 836.242188 820.78125 838.667969 816.507812 839.996094 C 810.71875 841.777344 804.292969 841.410156 798.761719 838.941406 L 798.78125 837.742188 C 796.683594 845.707031 790.980469 852.648438 783.585938 856.238281 C 781.488281 857.253906 779.167969 858.019531 776.886719 857.671875 C 774.960938 857.359375 773.234375 856.300781 771.660156 855.160156 C 765.871094 851.03125 760.941406 845.707031 757.25 839.609375 C 750.675781 840.726562 743.976562 841.847656 737.859375 839.191406 C 734.730469 837.847656 732.011719 835.585938 728.820312 834.402344 C 723.804688 832.554688 717.792969 833.753906 713.851562 837.367188 C 713.058594 833.53125 709.761719 830.339844 706.195312 828.742188 C 702.609375 827.148438 698.648438 826.710938 694.753906 826.296875 C 690.855469 825.882812 686.894531 825.425781 683.328125 823.785156 C 682.707031 829.488281 680.425781 833.867188 676.570312 838.113281 C 675.015625 839.832031 673.128906 841.410156 670.847656 841.765625 C 669.375 841.992188 667.859375 841.679688 666.429688 841.289062 C 661.203125 839.878906 656.25 837.515625 651.875 834.339844 C 644.742188 836.785156 640.507812 844.25 633.152344 845.890625 C 629.691406 846.65625 626 845.976562 622.539062 846.742188 C 619.820312 847.339844 617.394531 848.773438 614.71875 849.5625 C 610.011719 850.953125 604.664062 850.308594 600.453125 852.816406 C 598.230469 847.78125 592.824219 843.675781 587.539062 842.160156 C 584.425781 841.269531 581.128906 841.203125 577.957031 840.523438 C 571.90625 839.238281 565.289062 834.570312 561.621094 829.597656 C 558.90625 832.109375 558.40625 832.585938 555.195312 834.449219 C 551.976562 836.316406 548.207031 837.417969 544.558594 836.875 C 541.222656 836.382812 538.171875 834.46875 536.035156 831.878906 C 533.878906 829.289062 532.140625 824.976562 531.703125 821.636719 C 528.902344 826.113281 523.761719 828.875 518.519531 829.410156 C 514.933594 829.785156 511.28125 829.203125 507.738281 829.863281 C 502.78125 830.800781 497.539062 835.027344 495.464844 839.609375 C 491.085938 836.371094 485.199219 835.957031 479.789062 836.707031 C 471.097656 837.90625 463.015625 841.703125 454.550781 843.964844 C 444.789062 846.574219 431.140625 846.640625 423.429688 843.675781 C 420.714844 834.617188 420.566406 824.804688 422.992188 815.664062 C 424.898438 808.511719 428.320312 801.8125 430.230469 794.660156 C 432.164062 787.507812 432.597656 778.691406 428.472656 772.535156 C 430.753906 770.6875 433.035156 768.84375 434.917969 766.601562 C 436.804688 764.363281 438.28125 761.710938 438.652344 758.804688 C 439.085938 755.441406 438.03125 752.027344 438.527344 748.664062 C 439.230469 743.832031 442.941406 740.082031 446.445312 736.679688 C 441.675781 735.453125 435.414062 733.445312 432.796875 729.277344 C 430.664062 725.875 430.828125 721.417969 432.257812 717.667969 C 433.6875 713.914062 436.238281 710.699219 438.746094 707.566406 C 434.144531 702.175781 428.835938 696.578125 427.359375 689.628906 C 426.636719 686.230469 426.761719 682.707031 426.09375 679.285156 C 425.449219 675.863281 423.8125 672.363281 420.722656 670.78125 C 419.832031 670.328125 418.835938 670.039062 417.988281 669.515625 C 417.117188 668.996094 416.371094 668.144531 416.351562 667.132812 L 416.351562 667.109375 C 416 657.203125 421.222656 647.933594 422.613281 638.105469 C 423.007812 635.328125 423.089844 632.464844 423.984375 629.808594 C 425.394531 625.644531 430.472656 622.183594 433.601562 619.070312 C 431.199219 615.898438 428.792969 612.683594 427.261719 609.015625 C 425.730469 605.351562 425.144531 601.117188 426.535156 597.40625 C 427.136719 595.769531 428.109375 594.277344 429.25 592.96875 C 433.148438 588.46875 438.9375 586.105469 444.472656 583.929688 L 444.558594 583.910156 C 442.546875 580.59375 442.046875 576.632812 441.695312 572.777344 C 441.367188 568.921875 441.117188 564.957031 439.5625 561.4375 C 438.003906 557.910156 434.769531 554.804688 430.890625 554.632812 C 433.695312 550.488281 434.023438 544.121094 432.738281 539.292969 C 431.453125 534.464844 429.152344 529.945312 427.886719 525.113281 C 426.621094 520.28125 426.515625 514.769531 429.355469 510.660156 C 422.640625 506.910156 415.835938 503.03125 411.835938 496.460938 C 410.320312 493.992188 409.285156 491.046875 409.804688 488.207031 C 410.199219 486.050781 411.4375 484.144531 412.789062 482.398438 C 414.984375 479.558594 417.515625 476.988281 420.339844 474.746094 C 422.222656 473.253906 424.253906 471.863281 425.75 469.980469 C 427.242188 468.09375 428.136719 465.523438 427.324219 463.242188 C 426.890625 459.445312 427.015625 454.882812 428.214844 451.234375 C 429.5625 447.148438 432.566406 443.753906 433.792969 439.625 C 435.203125 434.917969 434.125 429.363281 430.890625 425.671875 C 433.152344 424.714844 435.496094 423.699219 437.113281 421.855469 C 438.566406 420.191406 439.289062 418.039062 439.851562 415.902344 C 441.425781 409.929688 441.96875 403.730469 442.507812 397.59375 C 442.566406 396.992188 442.613281 396.328125 442.277344 395.8125 C 441.96875 395.292969 439.976562 394.777344 439.601562 395.253906 C 432.796875 393.617188 427.222656 387.703125 425.980469 380.800781 C 424.734375 373.898438 427.929688 366.429688 433.753906 362.535156 C 428.671875 359.34375 425.105469 353.742188 423.285156 348.019531 C 421.464844 342.296875 420.878906 336.261719 419.96875 330.332031 C 419.058594 324.398438 417.726562 318.386719 414.640625 313.242188 C 419.472656 309.617188 424.675781 306.109375 426.269531 300.535156 C 427.449219 296.472656 427.179688 292.09375 428.15625 287.96875 C 429.480469 282.265625 433.238281 277.1875 438.277344 274.242188 C 435.789062 271.089844 433.339844 267.003906 432.097656 263.191406 C 430.851562 259.375 430.832031 255.003906 432.90625 251.5625 C 435.519531 247.1875 441.347656 244.949219 446.324219 243.789062 L 446.527344 243.789062 C 444.0625 241.964844 444.164062 242.089844 442.382812 239.601562 C 440.226562 236.578125 439.289062 232.824219 438.730469 229.132812 C 438.171875 225.441406 437.921875 221.691406 436.886719 218.105469 C 436.96875 215.554688 435.597656 212.527344 433.464844 211.136719 C 432.054688 210.226562 430.207031 209.644531 429.523438 208.109375 C 429.085938 207.113281 429.292969 205.933594 429.851562 205.019531 C 430.414062 204.109375 431.425781 203.257812 432.382812 202.738281 C 432.074219 192.511719 427.90625 182.855469 425.269531 172.964844 C 422.011719 160.835938 421.019531 148.125 422.347656 135.644531 C 430.082031 132.679688 444.847656 133.402344 454.613281 136.019531 C 463.070312 138.28125 471.160156 142.074219 479.847656 143.277344 C 485.238281 144.023438 491.128906 143.609375 495.523438 140.375 C 497.601562 144.980469 502.84375 149.210938 507.800781 150.121094 C 511.347656 150.785156 514.992188 150.207031 518.578125 150.574219 C 523.847656 151.117188 528.96875 153.871094 531.765625 158.347656 C 532.21875 155.011719 533.960938 150.722656 536.097656 148.105469 C 538.253906 145.515625 541.296875 143.628906 544.621094 143.109375 C 548.292969 142.546875 552.042969 143.667969 555.253906 145.535156 C 558.46875 147.378906 558.964844 147.855469 561.683594 150.386719 C 565.375 145.410156 571.964844 140.742188 578.019531 139.457031 C 581.191406 138.792969 584.484375 138.710938 587.597656 137.820312 C 592.90625 136.304688 598.296875 132.222656 600.511719 127.160156 C 604.746094 129.671875 610.070312 129.007812 614.777344 130.417969 C 617.433594 131.207031 619.882812 132.636719 622.597656 133.238281 C 626.078125 134.003906 629.75 133.324219 633.210938 134.089844 C 640.574219 135.726562 644.800781 143.214844 651.933594 145.640625 C 656.3125 142.46875 661.261719 140.082031 666.492188 138.691406 C 667.941406 138.296875 669.4375 137.984375 670.90625 138.214844 C 673.1875 138.566406 675.09375 140.148438 676.628906 141.867188 C 680.464844 146.121094 682.765625 150.492188 683.386719 156.195312 C 686.953125 154.558594 690.914062 154.097656 694.8125 153.683594 C 698.707031 153.265625 702.671875 152.832031 706.257812 151.238281 C 709.84375 149.640625 713.121094 146.445312 713.910156 142.613281 C 717.851562 146.238281 723.863281 147.425781 728.882812 145.578125 C 732.09375 144.398438 734.789062 142.136719 737.921875 140.785156 C 744.039062 138.15625 750.734375 139.269531 757.308594 140.371094 C 761 134.273438 765.933594 128.96875 771.71875 124.820312 C 773.316406 123.679688 775.015625 122.625 776.945312 122.308594 C 779.246094 121.960938 781.566406 122.722656 783.644531 123.738281 C 791.046875 127.328125 796.75 134.273438 798.839844 142.238281 L 798.820312 141.039062 C 804.359375 138.570312 810.785156 138.195312 816.566406 139.980469 C 820.839844 141.308594 824.695312 143.734375 828.96875 145.0625 C 833.238281 146.390625 838.382812 146.347656 841.636719 143.28125 C 843.175781 147.71875 847.175781 151.535156 851.671875 152.96875 C 858.082031 154.996094 865.503906 152.71875 871.476562 155.789062 C 873.757812 150.480469 877.054688 145.273438 881.140625 141.191406 C 882.53125 139.800781 884.105469 138.476562 886.011719 138 C 888.3125 137.441406 890.699219 138.207031 892.894531 139.082031 C 898.347656 141.257812 900.546875 142.046875 905.253906 145.570312 C 909.027344 141.773438 912.988281 137.855469 918.089844 136.175781 C 922.566406 134.703125 927.523438 135.140625 932 133.6875 C 935.171875 132.671875 938.035156 130.742188 941.289062 130.015625 C 943.464844 129.542969 945.707031 129.621094 947.921875 129.417969 C 950.144531 129.230469 952.425781 128.710938 954.121094 127.28125 C 956.777344 131.757812 960.859375 136.363281 965.730469 138.230469 C 971.664062 140.511719 978.960938 137.878906 984.308594 141.277344 C 986.421875 142.601562 987.894531 144.699219 989.613281 146.480469 C 991.335938 148.261719 993.578125 149.878906 996.0625 149.753906 C 1000.25 146.835938 1004.976562 143.96875 1009.726562 142.082031 C 1010.992188 141.585938 1012.320312 141.128906 1013.671875 141.316406 C 1015.449219 141.566406 1016.859375 142.914062 1018.023438 144.304688 C 1021.277344 148.160156 1023.578125 152.808594 1024.699219 157.71875 C 1027.332031 153.800781 1032.519531 151.785156 1037.179688 151.042969 C 1041.847656 150.296875 1046.671875 150.230469 1051.070312 148.46875 C 1054.84375 146.953125 1058.097656 144.179688 1060.214844 140.695312 C 1064.835938 144.222656 1071.679688 144.410156 1077.363281 143.164062 C 1083.042969 141.9375 1088.3125 139.328125 1093.804688 137.460938 C 1105.769531 133.375 1121.128906 132.714844 1133.449219 135.636719 C 1134.773438 148.113281 1133.78125 160.824219 1130.527344 172.957031 C 1127.871094 182.84375 1123.707031 192.488281 1123.414062 202.726562 C 1124.371094 203.222656 1125.367188 204.074219 1125.945312 205.007812 C 1126.527344 205.945312 1126.710938 207.125 1126.277344 208.101562 C 1125.589844 209.65625 1123.746094 210.214844 1122.335938 211.125 C 1120.199219 212.515625 1118.828125 215.542969 1118.914062 218.09375 C 1117.898438 221.679688 1117.648438 225.433594 1117.066406 229.125 C 1116.488281 232.816406 1115.578125 236.546875 1113.417969 239.59375 C 1111.636719 242.078125 1111.734375 241.960938 1109.269531 243.78125 L 1109.476562 243.78125 C 1114.453125 244.941406 1120.253906 247.179688 1122.890625 251.554688 C 1124.941406 254.996094 1124.941406 259.371094 1123.699219 263.183594 C 1122.457031 267 1120.007812 271.082031 1117.523438 274.234375 C 1122.558594 277.179688 1126.316406 282.277344 1127.640625 287.957031 C 1128.597656 292.085938 1128.347656 296.4375 1129.527344 300.523438 C 1131.144531 306.082031 1136.332031 309.605469 1141.15625 313.234375 C 1138.046875 318.375 1136.742188 324.386719 1135.832031 330.320312 C 1134.921875 336.253906 1134.339844 342.285156 1132.515625 348.007812 C 1130.6875 353.730469 1127.140625 359.328125 1122.046875 362.523438 C 1127.871094 366.421875 1131.042969 373.910156 1129.816406 380.792969 C 1128.59375 387.675781 1123.015625 393.605469 1116.199219 395.242188 C 1115.824219 394.769531 1113.832031 395.28125 1113.523438 395.804688 C 1113.210938 396.324219 1113.25 396.964844 1113.292969 397.582031 C 1113.832031 403.742188 1114.390625 409.917969 1115.949219 415.890625 C 1116.507812 418.027344 1117.234375 420.183594 1118.683594 421.84375 C 1120.300781 423.691406 1122.644531 424.707031 1124.90625 425.660156 C 1121.671875 429.351562 1120.59375 434.910156 1122.003906 439.617188 C 1123.230469 443.742188 1126.238281 447.144531 1127.582031 451.226562 C 1128.78125 454.851562 1128.90625 459.414062 1128.472656 463.230469 C 1127.664062 465.492188 1128.558594 468.082031 1130.046875 469.96875 C 1131.539062 471.855469 1133.574219 473.226562 1135.460938 474.734375 C 1138.261719 476.976562 1140.808594 479.546875 1143.007812 482.390625 C 1144.355469 484.128906 1145.601562 486.039062 1145.996094 488.195312 C 1146.414062 491.03125 1145.359375 493.953125 1143.84375 496.445312 Z M 1143.84375 496.445312 " fill-opacity="1" fill-rule="nonzero"/><g clip-path="url(#a9d16a59ec)"><path fill="#000000" d="M 402.628906 114.871094 L 1152.941406 114.871094 L 1152.941406 865.183594 L 402.628906 865.183594 Z M 402.628906 114.871094 " fill-opacity="1" fill-rule="nonzero"/></g><g clip-path="url(#a3bff92abb)"><path fill="#ffe63f" d="M 995.757812 851.175781 C 915.273438 851.175781 863.226562 812.800781 837.855469 762.613281 L 908.429688 721.726562 C 927.027344 752.09375 951.144531 774.363281 993.894531 774.363281 C 1029.78125 774.363281 1052.699219 756.414062 1052.699219 731.632812 C 1052.699219 694.378906 1002.972656 679.785156 967.878906 664.765625 C 905.332031 638.140625 863.816406 604.691406 863.816406 534.078125 C 863.816406 469.074219 913.355469 419.554688 990.8125 419.554688 C 1045.890625 419.554688 1085.558594 438.742188 1114.011719 488.875 L 1046.515625 532.234375 C 1031.664062 505.609375 1015.574219 495.089844 990.792969 495.089844 C 965.386719 495.089844 949.28125 511.199219 949.28125 532.234375 C 949.28125 558.25 965.371094 568.765625 1002.546875 584.875 C 1080.449219 618.25 1139.398438 644.507812 1139.398438 730.394531 C 1139.433594 808.464844 1078.140625 851.175781 995.757812 851.175781 Z M 796.121094 720.507812 C 796.121094 810.308594 740.804688 857.78125 664.011719 857.78125 C 594.636719 857.78125 553.085938 831.25 532.640625 785.121094 L 531.441406 785.121094 L 601.960938 735.820312 C 615.578125 759.9375 627.847656 777.058594 657.554688 777.058594 C 686.058594 777.058594 703.863281 762.632812 703.863281 719.308594 L 703.863281 416.105469 L 796.121094 416.105469 Z M 288.71875 923.503906 L 1211.265625 923.503906 L 1211.265625 0.960938 L 288.71875 0.960938 Z M 288.71875 923.503906 " fill-opacity="1" fill-rule="evenodd"/></g><g clip-path="url(#e0143a8147)"><g transform="matrix(1, 0, 0, 1, 0, 942)"><g clip-path="url(#4ae9ea4678)"><g clip-path="url(#a8bd2cef79)"><g fill="#ffe63f" fill-opacity="1"><g transform="translate(-12.350469, 400.120665)"><g><path d="M 101.15625 -208.796875 L 67.28125 -196.734375 L 66.8125 19.03125 C 66.8125 28 66.113281 37.195312 64.71875 46.625 C 63.332031 56.0625 60.472656 64.644531 56.140625 72.375 C 51.804688 80.113281 45.15625 85.992188 36.1875 90.015625 C 27.21875 94.035156 15 94.960938 -0.46875 92.796875 C -2.9375 92.179688 -5.796875 91.332031 -9.046875 90.25 C -12.296875 89.164062 -15.003906 88.160156 -17.171875 87.234375 L -24.59375 109.5 C -18.09375 112.289062 -12.210938 114.378906 -6.953125 115.765625 C -1.703125 117.160156 4.632812 117.859375 12.0625 117.859375 C 39.28125 117.859375 60.929688 109.8125 77.015625 93.71875 C 93.109375 77.632812 101.15625 52.269531 101.15625 17.625 Z M 62.171875 -273.765625 L 62.171875 -274.21875 C 62.171875 -280.40625 64.335938 -285.585938 68.671875 -289.765625 C 73.003906 -293.941406 78.265625 -296.03125 84.453125 -296.03125 C 90.640625 -296.03125 95.816406 -293.863281 99.984375 -289.53125 C 104.160156 -285.207031 106.25 -279.953125 106.25 -273.765625 C 106.25 -267.878906 104.082031 -262.769531 99.75 -258.4375 C 95.425781 -254.113281 90.171875 -251.953125 83.984375 -251.953125 C 78.109375 -251.953125 73.003906 -254.113281 68.671875 -258.4375 C 64.335938 -262.769531 62.171875 -267.878906 62.171875 -273.765625 Z M 62.171875 -273.765625 "/></g></g></g></g><g fill="#ffe63f" fill-opacity="1"><g transform="translate(100.399815, 400.120665)"><g><path d="M 175.859375 -31.09375 C 166.265625 -21.5 153.65625 -13.222656 138.03125 -6.265625 C 122.414062 0.691406 104.554688 4.019531 84.453125 3.71875 C 72.390625 3.40625 61.253906 0.234375 51.046875 -5.796875 C 40.835938 -11.828125 32.789062 -19.867188 26.90625 -29.921875 C 21.03125 -39.984375 18.25 -51.195312 18.5625 -63.5625 C 18.875 -83.363281 25.753906 -98.910156 39.203125 -110.203125 C 52.660156 -121.492188 69.132812 -126.984375 88.625 -126.671875 C 99.757812 -126.671875 109.425781 -126.671875 117.625 -126.671875 C 125.820312 -126.671875 134.5625 -126.671875 143.84375 -126.671875 L 143.84375 -146.625 C 143.84375 -158.375 139.351562 -167.804688 130.375 -174.921875 C 121.40625 -182.035156 111.203125 -185.59375 99.765625 -185.59375 C 89.554688 -185.59375 80.351562 -184.351562 72.15625 -181.875 C 63.957031 -179.40625 55.375 -175.851562 46.40625 -171.21875 L 38.046875 -190.703125 C 50.109375 -197.203125 61.398438 -201.765625 71.921875 -204.390625 C 82.441406 -207.023438 94.660156 -208.34375 108.578125 -208.34375 C 120.023438 -208.34375 130.851562 -205.941406 141.0625 -201.140625 C 151.269531 -196.347656 159.617188 -189.539062 166.109375 -180.71875 C 172.609375 -171.90625 175.859375 -161.160156 175.859375 -148.484375 Z M 142.90625 -35.734375 L 142.90625 -105.328125 C 137.65625 -105.328125 131.003906 -105.328125 122.953125 -105.328125 C 114.910156 -105.328125 106.71875 -105.171875 98.375 -104.859375 C 85.375 -104.859375 74.539062 -101.300781 65.875 -94.1875 C 57.21875 -87.070312 52.890625 -77.175781 52.890625 -64.5 C 52.890625 -53.050781 57.296875 -42.609375 66.109375 -33.171875 C 74.929688 -23.742188 85.992188 -19.03125 99.296875 -19.03125 C 109.191406 -18.71875 118.160156 -20.648438 126.203125 -24.828125 C 134.242188 -29.003906 139.8125 -32.640625 142.90625 -35.734375 Z M 142.90625 -35.734375 "/></g></g></g><g fill="#ffe63f" fill-opacity="1"><g transform="translate(279.501337, 400.120665)"><g><path d="M 123.890625 -4.640625 L 93.734375 5.109375 L 9.75 -199.0625 L 40.828125 -212.046875 L 111.828125 -41.296875 L 176.3125 -209.265625 L 197.203125 -199.0625 Z M 123.890625 -4.640625 "/></g></g></g><g fill="#ffe63f" fill-opacity="1"><g transform="translate(465.562731, 400.120665)"><g><path d="M 175.859375 -31.09375 C 166.265625 -21.5 153.65625 -13.222656 138.03125 -6.265625 C 122.414062 0.691406 104.554688 4.019531 84.453125 3.71875 C 72.390625 3.40625 61.253906 0.234375 51.046875 -5.796875 C 40.835938 -11.828125 32.789062 -19.867188 26.90625 -29.921875 C 21.03125 -39.984375 18.25 -51.195312 18.5625 -63.5625 C 18.875 -83.363281 25.753906 -98.910156 39.203125 -110.203125 C 52.660156 -121.492188 69.132812 -126.984375 88.625 -126.671875 C 99.757812 -126.671875 109.425781 -126.671875 117.625 -126.671875 C 125.820312 -126.671875 134.5625 -126.671875 143.84375 -126.671875 L 143.84375 -146.625 C 143.84375 -158.375 139.351562 -167.804688 130.375 -174.921875 C 121.40625 -182.035156 111.203125 -185.59375 99.765625 -185.59375 C 89.554688 -185.59375 80.351562 -184.351562 72.15625 -181.875 C 63.957031 -179.40625 55.375 -175.851562 46.40625 -171.21875 L 38.046875 -190.703125 C 50.109375 -197.203125 61.398438 -201.765625 71.921875 -204.390625 C 82.441406 -207.023438 94.660156 -208.34375 108.578125 -208.34375 C 120.023438 -208.34375 130.851562 -205.941406 141.0625 -201.140625 C 151.269531 -196.347656 159.617188 -189.539062 166.109375 -180.71875 C 172.609375 -171.90625 175.859375 -161.160156 175.859375 -148.484375 Z M 142.90625 -35.734375 L 142.90625 -105.328125 C 137.65625 -105.328125 131.003906 -105.328125 122.953125 -105.328125 C 114.910156 -105.328125 106.71875 -105.171875 98.375 -104.859375 C 85.375 -104.859375 74.539062 -101.300781 65.875 -94.1875 C 57.21875 -87.070312 52.890625 -77.175781 52.890625 -64.5 C 52.890625 -53.050781 57.296875 -42.609375 66.109375 -33.171875 C 74.929688 -23.742188 85.992188 -19.03125 99.296875 -19.03125 C 109.191406 -18.71875 118.160156 -20.648438 126.203125 -24.828125 C 134.242188 -29.003906 139.8125 -32.640625 142.90625 -35.734375 Z M 142.90625 -35.734375 "/></g></g></g><g fill="#ffe63f" fill-opacity="1"><g transform="translate(644.664216, 400.120665)"><g><path d="M 80.265625 5.5625 C 68.515625 5.5625 56.992188 3.476562 45.703125 -0.6875 C 34.410156 -4.863281 24.28125 -10.359375 15.3125 -17.171875 L 27.375 -36.65625 C 34.488281 -31.394531 42.765625 -27.140625 52.203125 -23.890625 C 61.640625 -20.648438 70.84375 -18.875 79.8125 -18.5625 C 87.226562 -18.5625 94.648438 -19.796875 102.078125 -22.265625 C 109.503906 -24.742188 115.691406 -28.613281 120.640625 -33.875 C 125.585938 -39.132812 127.90625 -45.9375 127.59375 -54.28125 C 127.289062 -64.1875 123.503906 -71.222656 116.234375 -75.390625 C 108.960938 -79.566406 101.460938 -83.203125 93.734375 -86.296875 C 90.640625 -87.535156 87.546875 -88.773438 84.453125 -90.015625 C 81.359375 -91.253906 78.109375 -92.335938 74.703125 -93.265625 C 68.515625 -95.734375 62.25 -98.28125 55.90625 -100.90625 C 49.570312 -103.539062 43.773438 -106.867188 38.515625 -110.890625 C 32.941406 -114.910156 28.300781 -119.9375 24.59375 -125.96875 C 20.882812 -132.007812 19.03125 -139.820312 19.03125 -149.40625 C 19.03125 -162.394531 22.429688 -173.375 29.234375 -182.34375 C 36.035156 -191.320312 44.847656 -198.128906 55.671875 -202.765625 C 66.503906 -207.410156 77.953125 -209.734375 90.015625 -209.734375 C 100.535156 -209.734375 110.664062 -208.1875 120.40625 -205.09375 C 130.15625 -202 139.664062 -197.820312 148.9375 -192.5625 L 136.421875 -172.609375 C 121.566406 -180.960938 106.71875 -185.445312 91.875 -186.0625 C 82.28125 -186.0625 73.078125 -183.429688 64.265625 -178.171875 C 55.453125 -172.910156 50.890625 -164.867188 50.578125 -154.046875 C 50.578125 -148.171875 52.195312 -143.53125 55.4375 -140.125 C 58.6875 -136.726562 62.941406 -133.789062 68.203125 -131.3125 C 73.460938 -129.144531 79.335938 -126.671875 85.828125 -123.890625 C 92.328125 -121.109375 98.828125 -118.476562 105.328125 -116 C 111.515625 -113.519531 117.773438 -110.96875 124.109375 -108.34375 C 130.453125 -105.71875 136.253906 -102.238281 141.515625 -97.90625 C 147.085938 -93.570312 151.726562 -88.234375 155.4375 -81.890625 C 159.15625 -75.554688 161.015625 -67.75 161.015625 -58.46875 C 161.015625 -43.925781 156.988281 -31.9375 148.9375 -22.5 C 140.894531 -13.070312 130.6875 -6.035156 118.3125 -1.390625 C 105.945312 3.242188 93.265625 5.5625 80.265625 5.5625 Z M 80.265625 5.5625 "/></g></g></g><g fill="#ffe63f" fill-opacity="1"><g transform="translate(797.31804, 400.120665)"><g><path d="M 101.609375 4.171875 C 84.285156 3.867188 69.4375 -1.304688 57.0625 -11.359375 C 44.695312 -21.421875 35.265625 -34.335938 28.765625 -50.109375 C 22.273438 -65.890625 19.03125 -82.285156 19.03125 -99.296875 C 19.03125 -118.472656 22.816406 -136.722656 30.390625 -154.046875 C 37.972656 -171.367188 48.878906 -184.828125 63.109375 -194.421875 C 72.691406 -200.910156 83.4375 -205.082031 95.34375 -206.9375 C 107.257812 -208.800781 119.476562 -208.570312 132 -206.25 C 144.53125 -203.925781 156.054688 -199.363281 166.578125 -192.5625 L 156.828125 -174.46875 C 150.023438 -177.863281 142.210938 -180.722656 133.390625 -183.046875 C 124.578125 -185.367188 116.148438 -186.21875 108.109375 -185.59375 C 96.046875 -184.976562 85.914062 -180.1875 77.71875 -171.21875 C 69.519531 -162.25 63.410156 -151.265625 59.390625 -138.265625 C 55.367188 -125.273438 53.359375 -112.285156 53.359375 -99.296875 C 53.359375 -87.234375 55.523438 -75.015625 59.859375 -62.640625 C 64.191406 -50.265625 70.6875 -39.898438 79.34375 -31.546875 C 88.007812 -23.203125 98.679688 -18.875 111.359375 -18.5625 C 122.179688 -18.25 131.921875 -19.789062 140.578125 -23.1875 C 149.242188 -26.59375 158.21875 -30.460938 167.5 -34.796875 L 176.3125 -17.171875 C 166.414062 -10.671875 155.203125 -5.488281 142.671875 -1.625 C 130.148438 2.238281 116.460938 4.171875 101.609375 4.171875 Z M 101.609375 4.171875 "/></g></g></g><g fill="#ffe63f" fill-opacity="1"><g transform="translate(962.035681, 400.120665)"><g><path d="M 112.28125 -182.8125 L 111.828125 -182.8125 C 100.691406 -182.8125 91.175781 -181.03125 83.28125 -177.46875 C 75.394531 -173.914062 68.359375 -169.507812 62.171875 -164.25 L 62.171875 0 L 28.296875 0 L 28.296875 -168.890625 C 41.296875 -183.429688 57.382812 -193.953125 76.5625 -200.453125 C 86.769531 -204.160156 97.128906 -206.863281 107.640625 -208.5625 C 118.160156 -210.269531 130.535156 -209.882812 144.765625 -207.40625 C 142.597656 -203.382812 140.273438 -198.898438 137.796875 -193.953125 C 135.328125 -189.003906 133.164062 -184.363281 131.3125 -180.03125 C 128.21875 -180.644531 124.890625 -181.257812 121.328125 -181.875 C 117.773438 -182.5 114.757812 -182.8125 112.28125 -182.8125 Z M 112.28125 -182.8125 "/></g></g></g><g fill="#ffe63f" fill-opacity="1"><g transform="translate(1091.489772, 400.120665)"><g><path d="M 37.125 0 L 37.125 -197.203125 L 70.53125 -208.34375 L 70.53125 0 Z M 31.546875 -273.765625 L 31.546875 -274.21875 C 31.546875 -280.40625 33.710938 -285.585938 38.046875 -289.765625 C 42.378906 -293.941406 47.640625 -296.03125 53.828125 -296.03125 C 60.015625 -296.03125 65.191406 -293.863281 69.359375 -289.53125 C 73.535156 -285.207031 75.625 -279.953125 75.625 -273.765625 C 75.625 -267.878906 73.457031 -262.769531 69.125 -258.4375 C 64.800781 -254.113281 59.546875 -251.953125 53.359375 -251.953125 C 47.484375 -251.953125 42.378906 -254.113281 38.046875 -258.4375 C 33.710938 -262.769531 31.546875 -267.878906 31.546875 -273.765625 Z M 31.546875 -273.765625 "/></g></g></g><g fill="#ffe63f" fill-opacity="1"><g transform="translate(1173.152424, 400.120665)"><g><path d="M 124.8125 -207.875 L 124.359375 -208.34375 C 107.335938 -208.03125 92.71875 -206.09375 80.5 -202.53125 C 68.28125 -198.976562 58.457031 -194.878906 51.03125 -190.234375 C 43.613281 -185.597656 38.203125 -181.5 34.796875 -177.9375 C 31.398438 -174.382812 29.703125 -172.609375 29.703125 -172.609375 L 29.234375 94.1875 L 62.640625 106.25 L 62.640625 -13.921875 C 72.234375 -8.046875 81.976562 -3.484375 91.875 -0.234375 C 101.769531 3.015625 112.441406 4.640625 123.890625 4.640625 C 142.453125 4.023438 157.765625 -1.148438 169.828125 -10.890625 C 181.890625 -20.640625 190.859375 -33.25 196.734375 -48.71875 C 202.609375 -64.1875 205.546875 -80.582031 205.546875 -97.90625 C 205.546875 -117.695312 202.609375 -135.945312 196.734375 -152.65625 C 190.859375 -169.363281 182.039062 -182.820312 170.28125 -193.03125 C 158.53125 -203.238281 143.375 -208.1875 124.8125 -207.875 Z M 116.46875 -19.484375 C 105.945312 -18.867188 95.660156 -20.800781 85.609375 -25.28125 C 75.554688 -29.769531 67.742188 -33.71875 62.171875 -37.125 L 62.171875 -169.359375 C 63.722656 -170.910156 67.125 -173.078125 72.375 -175.859375 C 77.632812 -178.640625 84.285156 -181.113281 92.328125 -183.28125 C 100.378906 -185.445312 109.195312 -186.21875 118.78125 -185.59375 C 129.300781 -185.289062 137.726562 -182.273438 144.0625 -176.546875 C 150.40625 -170.828125 155.203125 -163.554688 158.453125 -154.734375 C 161.703125 -145.921875 163.867188 -136.71875 164.953125 -127.125 C 166.035156 -117.539062 166.578125 -108.570312 166.578125 -100.21875 C 166.578125 -91.5625 166.035156 -82.671875 164.953125 -73.546875 C 163.867188 -64.421875 161.625 -55.910156 158.21875 -48.015625 C 154.820312 -40.128906 149.796875 -33.554688 143.140625 -28.296875 C 136.492188 -23.046875 127.601562 -20.109375 116.46875 -19.484375 Z M 116.46875 -19.484375 "/></g></g></g><g fill="#ffe63f" fill-opacity="1"><g transform="translate(1383.341466, 400.120665)"><g><path d="M 36.65625 -181.421875 L 13.453125 -181.421875 L 13.453125 -203.234375 L 36.65625 -203.234375 L 36.65625 -259.84375 L 70.53125 -271.90625 L 70.53125 -203.234375 L 108.578125 -203.234375 L 108.578125 -181.421875 L 70.53125 -181.421875 L 70.53125 -49.1875 C 70.53125 -35.882812 73.929688 -26.988281 80.734375 -22.5 C 87.535156 -18.019531 96.816406 -15.46875 108.578125 -14.84375 L 108.578125 2.78125 C 85.992188 4.945312 68.359375 1.316406 55.671875 -8.109375 C 42.992188 -17.546875 36.65625 -30.925781 36.65625 -48.25 Z M 36.65625 -181.421875 "/></g></g></g></g></g></g></g></g></svg>