<svg xmlns="http://www.w3.org/2000/svg" xmlns:xlink="http://www.w3.org/1999/xlink" width="2000" zoomAndPan="magnify" viewBox="0 0 1500 1499.999933" height="2000" preserveAspectRatio="xMidYMid meet" version="1.0"><defs><g/><clipPath id="aee6c081b6"><path d="M 488.964844 233.28125 L 1184.375 233.28125 L 1184.375 928.695312 L 488.964844 928.695312 Z M 488.964844 233.28125 " clip-rule="nonzero"/></clipPath><clipPath id="4293a51343"><path d="M 260.722656 0.960938 L 1239.789062 0.960938 L 1239.789062 980 L 260.722656 980 Z M 260.722656 0.960938 " clip-rule="nonzero"/></clipPath><clipPath id="b2b50f4398"><path d="M 0 942 L 1492.800781 942 L 1492.800781 1466 L 0 1466 Z M 0 942 " clip-rule="nonzero"/></clipPath><clipPath id="87d6c4eb70"><path d="M 0 104 L 94 104 L 94 518 L 0 518 Z M 0 104 " clip-rule="nonzero"/></clipPath><clipPath id="2828c1faab"><rect x="0" width="1493" y="0" height="524"/></clipPath><clipPath id="42800baa0a"><rect x="0" width="1493" y="0" height="1466"/></clipPath></defs><g transform="matrix(1, 0, 0, 1, 0, 4)"><g clip-path="url(#42800baa0a)"><path fill="#ff0000" d="M 1175.941406 586.9375 C 1172.234375 593.027344 1165.929688 596.621094 1159.703125 600.097656 C 1162.335938 603.902344 1162.238281 609.011719 1161.066406 613.492188 C 1159.890625 617.96875 1157.757812 622.15625 1156.566406 626.632812 C 1155.375 631.113281 1155.683594 637.035156 1158.277344 640.851562 C 1154.703125 641.007812 1151.703125 643.871094 1150.246094 647.160156 C 1148.800781 650.445312 1148.570312 654.09375 1148.265625 657.667969 C 1147.957031 661.242188 1147.476562 664.933594 1145.613281 667.988281 L 1145.691406 668.007812 C 1150.824219 670.042969 1156.164062 672.214844 1159.800781 676.382812 C 1160.855469 677.613281 1161.761719 679 1162.316406 680.496094 C 1163.585938 683.953125 1163.066406 687.878906 1161.644531 691.257812 C 1160.222656 694.660156 1157.972656 697.636719 1155.765625 700.574219 C 1158.648438 703.441406 1163.375 706.667969 1164.679688 710.527344 C 1165.507812 712.992188 1165.585938 715.640625 1165.953125 718.214844 C 1167.222656 727.324219 1172.0625 735.898438 1171.753906 745.101562 L 1171.753906 745.117188 C 1171.738281 746.058594 1171.046875 746.847656 1170.238281 747.328125 C 1169.433594 747.8125 1168.527344 748.082031 1167.703125 748.503906 C 1164.839844 749.964844 1163.324219 753.214844 1162.726562 756.382812 C 1162.125 759.554688 1162.222656 762.824219 1161.550781 765.972656 C 1160.1875 772.386719 1155.269531 777.597656 1151 782.597656 C 1153.328125 785.515625 1155.6875 788.476562 1157.011719 791.957031 C 1158.339844 795.433594 1158.492188 799.566406 1156.511719 802.71875 C 1154.09375 806.578125 1148.269531 808.425781 1143.863281 809.578125 C 1147.113281 812.730469 1150.554688 816.207031 1151.203125 820.6875 C 1151.644531 823.800781 1150.683594 826.96875 1151.089844 830.085938 C 1151.4375 832.773438 1152.796875 835.253906 1154.546875 837.3125 C 1156.292969 839.371094 1158.425781 841.097656 1160.523438 842.808594 C 1156.714844 848.515625 1157.101562 856.6875 1158.890625 863.316406 C 1160.679688 869.945312 1163.847656 876.132812 1165.597656 882.78125 C 1167.847656 891.257812 1167.695312 900.347656 1165.195312 908.746094 C 1153.800781 911.453125 1140.597656 911.476562 1129.507812 907.6875 C 1124.417969 905.9375 1119.535156 903.539062 1114.269531 902.402344 C 1109 901.265625 1102.660156 901.441406 1098.375 904.6875 C 1096.414062 901.460938 1093.398438 898.882812 1089.902344 897.484375 C 1085.84375 895.851562 1081.347656 895.792969 1077.027344 895.101562 C 1072.707031 894.410156 1067.898438 892.546875 1065.460938 888.910156 C 1064.421875 893.464844 1062.289062 897.769531 1059.269531 901.34375 C 1058.195312 902.617188 1056.886719 903.863281 1055.238281 904.113281 C 1053.988281 904.285156 1052.757812 903.863281 1051.582031 903.402344 C 1047.164062 901.675781 1042.804688 899.023438 1038.917969 896.292969 C 1036.613281 896.175781 1034.539062 897.671875 1032.941406 899.328125 C 1031.347656 900.980469 1029.960938 902.921875 1028.023438 904.148438 C 1023.042969 907.285156 1016.28125 904.839844 1010.804688 906.972656 C 1006.308594 908.722656 1002.5 912.96875 1000.042969 917.121094 C 998.46875 915.777344 996.355469 915.3125 994.300781 915.140625 C 992.242188 914.96875 990.167969 915.042969 988.152344 914.585938 C 985.136719 913.914062 982.484375 912.125 979.542969 911.183594 C 975.375 909.839844 970.800781 910.242188 966.652344 908.878906 C 961.941406 907.339844 958.253906 903.691406 954.753906 900.171875 C 950.390625 903.441406 948.375 904.167969 943.300781 906.183594 C 941.265625 906.992188 939.050781 907.699219 936.917969 907.1875 C 935.152344 906.746094 933.691406 905.511719 932.40625 904.230469 C 928.617188 900.464844 925.5625 895.621094 923.449219 890.699219 C 917.910156 893.542969 911.03125 891.433594 905.09375 893.316406 C 900.945312 894.640625 897.234375 898.160156 895.792969 902.289062 C 892.792969 899.425781 888.007812 899.40625 884.050781 900.640625 C 880.089844 901.867188 876.515625 904.117188 872.558594 905.351562 C 867.191406 907 861.234375 906.65625 856.109375 904.371094 L 856.128906 903.257812 C 854.183594 910.640625 848.898438 917.074219 842.042969 920.402344 C 840.101562 921.34375 837.949219 922.054688 835.835938 921.730469 C 834.050781 921.441406 832.449219 920.460938 830.988281 919.402344 C 825.625 915.578125 821.054688 910.640625 817.632812 904.988281 C 811.542969 906.027344 805.335938 907.066406 799.664062 904.605469 C 796.761719 903.355469 794.246094 901.261719 791.285156 900.164062 C 786.636719 898.453125 781.0625 899.566406 777.410156 902.910156 C 776.679688 899.355469 773.625 896.398438 770.316406 894.917969 C 766.992188 893.441406 763.320312 893.039062 759.710938 892.652344 C 756.097656 892.269531 752.425781 891.847656 749.121094 890.324219 C 748.546875 895.609375 746.433594 899.667969 742.859375 903.601562 C 741.417969 905.199219 739.667969 906.65625 737.554688 906.988281 C 736.191406 907.199219 734.785156 906.910156 733.460938 906.546875 C 728.617188 905.238281 724.027344 903.050781 719.96875 900.105469 C 713.359375 902.375 709.4375 909.292969 702.617188 910.8125 C 699.410156 911.519531 695.988281 910.890625 692.78125 911.601562 C 690.261719 912.15625 688.011719 913.480469 685.535156 914.214844 C 681.171875 915.503906 676.214844 914.90625 672.3125 917.234375 C 670.253906 912.5625 665.242188 908.757812 660.339844 907.351562 C 657.457031 906.527344 654.402344 906.46875 651.460938 905.835938 C 645.851562 904.644531 639.71875 900.320312 636.320312 895.710938 C 633.804688 898.039062 633.339844 898.480469 630.363281 900.210938 C 627.382812 901.9375 623.886719 902.957031 620.507812 902.457031 C 617.414062 902 614.585938 900.226562 612.609375 897.828125 C 610.609375 895.425781 608.996094 891.429688 608.59375 888.332031 C 605.996094 892.480469 601.230469 895.039062 596.371094 895.535156 C 593.046875 895.882812 589.664062 895.347656 586.382812 895.957031 C 581.789062 896.824219 576.929688 900.742188 575.003906 904.988281 C 570.949219 901.988281 565.492188 901.605469 560.476562 902.300781 C 552.421875 903.414062 544.929688 906.929688 537.085938 909.027344 C 528.035156 911.445312 515.390625 911.507812 508.242188 908.757812 C 505.722656 900.363281 505.589844 891.269531 507.835938 882.796875 C 509.601562 876.167969 512.773438 869.957031 514.546875 863.328125 C 516.335938 856.699219 516.738281 848.53125 512.914062 842.824219 C 515.027344 841.113281 517.140625 839.402344 518.890625 837.324219 C 520.636719 835.25 522.003906 832.792969 522.347656 830.097656 C 522.75 826.984375 521.773438 823.816406 522.230469 820.699219 C 522.886719 816.222656 526.324219 812.746094 529.570312 809.59375 C 525.152344 808.457031 519.347656 806.59375 516.925781 802.730469 C 514.945312 799.578125 515.097656 795.449219 516.421875 791.972656 C 517.75 788.492188 520.113281 785.511719 522.4375 782.609375 C 518.171875 777.613281 513.253906 772.425781 511.882812 765.984375 C 511.210938 762.832031 511.328125 759.570312 510.710938 756.398438 C 510.113281 753.226562 508.597656 749.980469 505.730469 748.515625 C 504.90625 748.09375 503.984375 747.824219 503.195312 747.34375 C 502.390625 746.863281 501.699219 746.074219 501.679688 745.132812 L 501.679688 745.113281 C 501.355469 735.929688 506.195312 727.339844 507.484375 718.230469 C 507.851562 715.65625 507.925781 713.003906 508.753906 710.542969 C 510.0625 706.679688 514.769531 703.472656 517.671875 700.589844 C 515.441406 697.648438 513.210938 694.667969 511.792969 691.269531 C 510.375 687.871094 509.832031 683.949219 511.121094 680.511719 C 511.675781 678.996094 512.578125 677.609375 513.636719 676.398438 C 517.25 672.226562 522.613281 670.039062 527.746094 668.019531 L 527.824219 668.003906 C 525.960938 664.929688 525.496094 661.257812 525.171875 657.683594 C 524.867188 654.109375 524.632812 650.4375 523.191406 647.171875 C 521.75 643.902344 518.75 641.023438 515.15625 640.867188 C 517.753906 637.023438 518.058594 631.121094 516.867188 626.648438 C 515.675781 622.175781 513.542969 617.984375 512.371094 613.503906 C 511.199219 609.027344 511.101562 603.917969 513.734375 600.113281 C 507.507812 596.632812 501.203125 593.042969 497.492188 586.949219 C 496.089844 584.664062 495.128906 581.933594 495.613281 579.300781 C 495.976562 577.300781 497.128906 575.535156 498.378906 573.917969 C 500.414062 571.285156 502.761719 568.902344 505.375 566.824219 C 507.125 565.441406 509.003906 564.152344 510.390625 562.40625 C 511.773438 560.660156 512.601562 558.277344 511.851562 556.160156 C 511.449219 552.644531 511.566406 548.414062 512.675781 545.035156 C 513.925781 541.246094 516.710938 538.097656 517.847656 534.273438 C 519.152344 529.910156 518.152344 524.761719 515.15625 521.339844 C 517.253906 520.453125 519.421875 519.511719 520.925781 517.800781 C 522.269531 516.261719 522.941406 514.265625 523.460938 512.285156 C 524.921875 506.75 525.421875 501.007812 525.921875 495.316406 C 525.976562 494.761719 526.019531 494.144531 525.710938 493.667969 C 525.421875 493.183594 523.578125 492.707031 523.230469 493.148438 C 516.925781 491.632812 511.753906 486.152344 510.605469 479.753906 C 509.449219 473.355469 512.414062 466.433594 517.808594 462.824219 C 513.097656 459.867188 509.792969 454.671875 508.105469 449.371094 C 506.417969 444.066406 505.875 438.476562 505.03125 432.976562 C 504.1875 427.476562 502.957031 421.90625 500.09375 417.140625 C 504.574219 413.777344 509.394531 410.527344 510.875 405.359375 C 511.96875 401.59375 511.71875 397.539062 512.621094 393.714844 C 513.851562 388.429688 517.332031 383.722656 522 380.992188 C 519.695312 378.070312 517.425781 374.285156 516.273438 370.75 C 515.121094 367.214844 515.101562 363.160156 517.027344 359.972656 C 519.445312 355.914062 524.847656 353.84375 529.460938 352.769531 L 529.648438 352.769531 C 527.363281 351.074219 527.457031 351.191406 525.804688 348.886719 C 523.808594 346.082031 522.941406 342.605469 522.421875 339.183594 C 521.902344 335.761719 521.671875 332.285156 520.710938 328.960938 C 520.789062 326.597656 519.519531 323.792969 517.539062 322.503906 C 516.234375 321.660156 514.523438 321.121094 513.886719 319.699219 C 513.484375 318.777344 513.675781 317.683594 514.191406 316.832031 C 514.710938 315.988281 515.652344 315.203125 516.539062 314.71875 C 516.25 305.242188 512.390625 296.289062 509.945312 287.125 C 506.929688 275.882812 506.007812 264.101562 507.238281 252.535156 C 514.40625 249.785156 528.09375 250.457031 537.140625 252.882812 C 544.980469 254.980469 552.476562 258.492188 560.53125 259.609375 C 565.527344 260.300781 570.984375 259.917969 575.058594 256.921875 C 576.984375 261.1875 581.84375 265.109375 586.4375 265.953125 C 589.722656 266.570312 593.105469 266.03125 596.429688 266.375 C 601.308594 266.875 606.058594 269.429688 608.648438 273.578125 C 609.070312 270.488281 610.683594 266.507812 612.664062 264.085938 C 614.660156 261.683594 617.484375 259.933594 620.5625 259.453125 C 623.964844 258.933594 627.441406 259.972656 630.417969 261.703125 C 633.402344 263.410156 633.859375 263.851562 636.378906 266.199219 C 639.796875 261.585938 645.910156 257.261719 651.519531 256.070312 C 654.457031 255.453125 657.511719 255.378906 660.398438 254.550781 C 665.316406 253.148438 670.3125 249.363281 672.367188 244.671875 C 676.289062 247 681.226562 246.382812 685.589844 247.691406 C 688.050781 248.421875 690.316406 249.75 692.835938 250.304688 C 696.0625 251.015625 699.464844 250.382812 702.671875 251.09375 C 709.496094 252.609375 713.414062 259.550781 720.027344 261.796875 C 724.082031 258.859375 728.671875 256.648438 733.515625 255.359375 C 734.859375 254.992188 736.246094 254.707031 737.609375 254.917969 C 739.722656 255.242188 741.492188 256.707031 742.914062 258.304688 C 746.46875 262.242188 748.601562 266.296875 749.175781 271.582031 C 752.484375 270.066406 756.15625 269.636719 759.765625 269.253906 C 763.378906 268.867188 767.050781 268.464844 770.375 266.988281 C 773.699219 265.507812 776.734375 262.546875 777.464844 258.992188 C 781.121094 262.355469 786.691406 263.453125 791.34375 261.742188 C 794.320312 260.648438 796.816406 258.554688 799.71875 257.300781 C 805.390625 254.863281 811.597656 255.898438 817.6875 256.917969 C 821.109375 251.265625 825.683594 246.347656 831.046875 242.503906 C 832.523438 241.445312 834.101562 240.46875 835.890625 240.175781 C 838.023438 239.851562 840.175781 240.5625 842.097656 241.5 C 848.960938 244.824219 854.246094 251.265625 856.183594 258.644531 L 856.164062 257.535156 C 861.296875 255.246094 867.253906 254.898438 872.613281 256.554688 C 876.570312 257.785156 880.148438 260.03125 884.105469 261.265625 C 888.066406 262.492188 892.832031 262.457031 895.847656 259.613281 C 897.273438 263.726562 900.980469 267.265625 905.148438 268.589844 C 911.085938 270.472656 917.96875 268.359375 923.503906 271.207031 C 925.617188 266.285156 928.671875 261.460938 932.460938 257.675781 C 933.75 256.386719 935.210938 255.160156 936.976562 254.71875 C 939.109375 254.199219 941.320312 254.910156 943.355469 255.71875 C 948.40625 257.738281 950.449219 258.46875 954.808594 261.734375 C 958.304688 258.214844 961.976562 254.585938 966.707031 253.027344 C 970.855469 251.664062 975.449219 252.066406 979.601562 250.722656 C 982.539062 249.78125 985.191406 247.992188 988.207031 247.320312 C 990.226562 246.878906 992.300781 246.953125 994.355469 246.765625 C 996.414062 246.59375 998.527344 246.109375 1000.101562 244.785156 C 1002.5625 248.933594 1006.34375 253.203125 1010.859375 254.933594 C 1016.359375 257.046875 1023.125 254.609375 1028.078125 257.757812 C 1030.039062 258.984375 1031.402344 260.925781 1032.996094 262.578125 C 1034.59375 264.226562 1036.667969 265.730469 1038.972656 265.613281 C 1042.855469 262.90625 1047.234375 260.25 1051.640625 258.503906 C 1052.8125 258.042969 1054.042969 257.617188 1055.292969 257.792969 C 1056.941406 258.023438 1058.25 259.273438 1059.328125 260.5625 C 1062.34375 264.136719 1064.476562 268.441406 1065.515625 272.996094 C 1067.953125 269.363281 1072.761719 267.496094 1077.082031 266.804688 C 1081.40625 266.113281 1085.882812 266.054688 1089.957031 264.421875 C 1093.453125 263.019531 1096.46875 260.445312 1098.429688 257.21875 C 1102.714844 260.488281 1109.058594 260.65625 1114.324219 259.503906 C 1119.589844 258.367188 1124.472656 255.949219 1129.5625 254.21875 C 1140.652344 250.429688 1154.890625 249.820312 1166.308594 252.527344 C 1167.535156 264.09375 1166.613281 275.875 1163.601562 287.117188 C 1161.140625 296.28125 1157.277344 305.21875 1157.007812 314.710938 C 1157.894531 315.167969 1158.816406 315.957031 1159.355469 316.824219 C 1159.890625 317.691406 1160.0625 318.785156 1159.660156 319.6875 C 1159.023438 321.132812 1157.3125 321.648438 1156.007812 322.492188 C 1154.027344 323.78125 1152.757812 326.585938 1152.835938 328.953125 C 1151.894531 332.277344 1151.664062 335.753906 1151.125 339.175781 C 1150.585938 342.597656 1149.742188 346.054688 1147.742188 348.878906 C 1146.089844 351.183594 1146.183594 351.070312 1143.898438 352.757812 L 1144.085938 352.757812 C 1148.699219 353.832031 1154.078125 355.910156 1156.523438 359.960938 C 1158.421875 363.152344 1158.421875 367.210938 1157.273438 370.742188 C 1156.117188 374.277344 1153.851562 378.0625 1151.546875 380.984375 C 1156.214844 383.714844 1159.699219 388.4375 1160.925781 393.703125 C 1161.8125 397.527344 1161.578125 401.5625 1162.671875 405.351562 C 1164.171875 410.5 1168.980469 413.769531 1173.453125 417.128906 C 1170.570312 421.894531 1169.359375 427.46875 1168.515625 432.96875 C 1167.671875 438.464844 1167.132812 444.054688 1165.441406 449.359375 C 1163.75 454.664062 1160.460938 459.851562 1155.738281 462.8125 C 1161.140625 466.425781 1164.078125 473.367188 1162.941406 479.746094 C 1161.808594 486.125 1156.636719 491.621094 1150.320312 493.140625 C 1149.972656 492.699219 1148.125 493.175781 1147.839844 493.65625 C 1147.550781 494.140625 1147.585938 494.734375 1147.625 495.308594 C 1148.125 501.015625 1148.644531 506.742188 1150.085938 512.277344 C 1150.605469 514.257812 1151.277344 516.253906 1152.621094 517.792969 C 1154.121094 519.503906 1156.292969 520.445312 1158.390625 521.332031 C 1155.390625 524.753906 1154.394531 529.902344 1155.699219 534.265625 C 1156.835938 538.089844 1159.625 541.242188 1160.871094 545.027344 C 1161.984375 548.386719 1162.097656 552.613281 1161.695312 556.152344 C 1160.945312 558.246094 1161.773438 560.648438 1163.15625 562.398438 C 1164.539062 564.144531 1166.425781 565.414062 1168.171875 566.816406 C 1170.769531 568.890625 1173.128906 571.273438 1175.167969 573.910156 C 1176.414062 575.523438 1177.570312 577.292969 1177.9375 579.289062 C 1178.324219 581.917969 1177.347656 584.628906 1175.941406 586.9375 Z M 1175.941406 586.9375 " fill-opacity="1" fill-rule="nonzero"/><g clip-path="url(#aee6c081b6)"><path fill="#000000" d="M 488.964844 233.28125 L 1184.375 233.28125 L 1184.375 928.695312 L 488.964844 928.695312 Z M 488.964844 233.28125 " fill-opacity="1" fill-rule="nonzero"/></g><g clip-path="url(#4293a51343)"><path fill="#ffe63f" d="M 1010.679688 902.785156 C 925.308594 902.785156 870.101562 862.078125 843.191406 808.84375 L 918.050781 765.472656 C 937.777344 797.6875 963.355469 821.308594 1008.703125 821.308594 C 1046.765625 821.308594 1071.074219 802.265625 1071.074219 775.984375 C 1071.074219 736.46875 1018.332031 720.988281 981.105469 705.058594 C 914.761719 676.816406 870.726562 641.335938 870.726562 566.4375 C 870.726562 497.488281 923.273438 444.960938 1005.433594 444.960938 C 1063.851562 444.960938 1105.929688 465.316406 1136.109375 518.488281 L 1064.515625 564.480469 C 1048.761719 536.238281 1031.695312 525.085938 1005.414062 525.085938 C 978.464844 525.085938 961.378906 542.171875 961.378906 564.480469 C 961.378906 592.074219 978.445312 603.230469 1017.878906 620.316406 C 1100.507812 655.71875 1163.035156 683.570312 1163.035156 774.671875 C 1163.078125 857.476562 1098.0625 902.785156 1010.679688 902.785156 Z M 798.921875 764.183594 C 798.921875 859.433594 740.25 909.789062 658.792969 909.789062 C 585.207031 909.789062 541.136719 881.648438 519.449219 832.71875 L 518.179688 832.71875 L 592.976562 780.425781 C 607.421875 806.003906 620.4375 824.167969 651.945312 824.167969 C 682.183594 824.167969 701.066406 808.863281 701.066406 762.910156 L 701.066406 441.304688 L 798.921875 441.304688 Z M 260.722656 979.5 L 1239.265625 979.5 L 1239.265625 0.960938 L 260.722656 0.960938 Z M 260.722656 979.5 " fill-opacity="1" fill-rule="evenodd"/></g><g clip-path="url(#b2b50f4398)"><g transform="matrix(1, 0, 0, 1, 0, 942)"><g clip-path="url(#2828c1faab)"><g clip-path="url(#87d6c4eb70)"><g fill="#ffe63f" fill-opacity="1"><g transform="translate(-12.350469, 400.120665)"><g><path d="M 101.15625 -208.796875 L 67.28125 -196.734375 L 66.8125 19.03125 C 66.8125 28 66.113281 37.195312 64.71875 46.625 C 63.332031 56.0625 60.472656 64.644531 56.140625 72.375 C 51.804688 80.113281 45.15625 85.992188 36.1875 90.015625 C 27.21875 94.035156 15 94.960938 -0.46875 92.796875 C -2.9375 92.179688 -5.796875 91.332031 -9.046875 90.25 C -12.296875 89.164062 -15.003906 88.160156 -17.171875 87.234375 L -24.59375 109.5 C -18.09375 112.289062 -12.210938 114.378906 -6.953125 115.765625 C -1.703125 117.160156 4.632812 117.859375 12.0625 117.859375 C 39.28125 117.859375 60.929688 109.8125 77.015625 93.71875 C 93.109375 77.632812 101.15625 52.269531 101.15625 17.625 Z M 62.171875 -273.765625 L 62.171875 -274.21875 C 62.171875 -280.40625 64.335938 -285.585938 68.671875 -289.765625 C 73.003906 -293.941406 78.265625 -296.03125 84.453125 -296.03125 C 90.640625 -296.03125 95.816406 -293.863281 99.984375 -289.53125 C 104.160156 -285.207031 106.25 -279.953125 106.25 -273.765625 C 106.25 -267.878906 104.082031 -262.769531 99.75 -258.4375 C 95.425781 -254.113281 90.171875 -251.953125 83.984375 -251.953125 C 78.109375 -251.953125 73.003906 -254.113281 68.671875 -258.4375 C 64.335938 -262.769531 62.171875 -267.878906 62.171875 -273.765625 Z M 62.171875 -273.765625 "/></g></g></g></g><g fill="#ffe63f" fill-opacity="1"><g transform="translate(100.399815, 400.120665)"><g><path d="M 175.859375 -31.09375 C 166.265625 -21.5 153.65625 -13.222656 138.03125 -6.265625 C 122.414062 0.691406 104.554688 4.019531 84.453125 3.71875 C 72.390625 3.40625 61.253906 0.234375 51.046875 -5.796875 C 40.835938 -11.828125 32.789062 -19.867188 26.90625 -29.921875 C 21.03125 -39.984375 18.25 -51.195312 18.5625 -63.5625 C 18.875 -83.363281 25.753906 -98.910156 39.203125 -110.203125 C 52.660156 -121.492188 69.132812 -126.984375 88.625 -126.671875 C 99.757812 -126.671875 109.425781 -126.671875 117.625 -126.671875 C 125.820312 -126.671875 134.5625 -126.671875 143.84375 -126.671875 L 143.84375 -146.625 C 143.84375 -158.375 139.351562 -167.804688 130.375 -174.921875 C 121.40625 -182.035156 111.203125 -185.59375 99.765625 -185.59375 C 89.554688 -185.59375 80.351562 -184.351562 72.15625 -181.875 C 63.957031 -179.40625 55.375 -175.851562 46.40625 -171.21875 L 38.046875 -190.703125 C 50.109375 -197.203125 61.398438 -201.765625 71.921875 -204.390625 C 82.441406 -207.023438 94.660156 -208.34375 108.578125 -208.34375 C 120.023438 -208.34375 130.851562 -205.941406 141.0625 -201.140625 C 151.269531 -196.347656 159.617188 -189.539062 166.109375 -180.71875 C 172.609375 -171.90625 175.859375 -161.160156 175.859375 -148.484375 Z M 142.90625 -35.734375 L 142.90625 -105.328125 C 137.65625 -105.328125 131.003906 -105.328125 122.953125 -105.328125 C 114.910156 -105.328125 106.71875 -105.171875 98.375 -104.859375 C 85.375 -104.859375 74.539062 -101.300781 65.875 -94.1875 C 57.21875 -87.070312 52.890625 -77.175781 52.890625 -64.5 C 52.890625 -53.050781 57.296875 -42.609375 66.109375 -33.171875 C 74.929688 -23.742188 85.992188 -19.03125 99.296875 -19.03125 C 109.191406 -18.71875 118.160156 -20.648438 126.203125 -24.828125 C 134.242188 -29.003906 139.8125 -32.640625 142.90625 -35.734375 Z M 142.90625 -35.734375 "/></g></g></g><g fill="#ffe63f" fill-opacity="1"><g transform="translate(279.501337, 400.120665)"><g><path d="M 123.890625 -4.640625 L 93.734375 5.109375 L 9.75 -199.0625 L 40.828125 -212.046875 L 111.828125 -41.296875 L 176.3125 -209.265625 L 197.203125 -199.0625 Z M 123.890625 -4.640625 "/></g></g></g><g fill="#ffe63f" fill-opacity="1"><g transform="translate(465.562731, 400.120665)"><g><path d="M 175.859375 -31.09375 C 166.265625 -21.5 153.65625 -13.222656 138.03125 -6.265625 C 122.414062 0.691406 104.554688 4.019531 84.453125 3.71875 C 72.390625 3.40625 61.253906 0.234375 51.046875 -5.796875 C 40.835938 -11.828125 32.789062 -19.867188 26.90625 -29.921875 C 21.03125 -39.984375 18.25 -51.195312 18.5625 -63.5625 C 18.875 -83.363281 25.753906 -98.910156 39.203125 -110.203125 C 52.660156 -121.492188 69.132812 -126.984375 88.625 -126.671875 C 99.757812 -126.671875 109.425781 -126.671875 117.625 -126.671875 C 125.820312 -126.671875 134.5625 -126.671875 143.84375 -126.671875 L 143.84375 -146.625 C 143.84375 -158.375 139.351562 -167.804688 130.375 -174.921875 C 121.40625 -182.035156 111.203125 -185.59375 99.765625 -185.59375 C 89.554688 -185.59375 80.351562 -184.351562 72.15625 -181.875 C 63.957031 -179.40625 55.375 -175.851562 46.40625 -171.21875 L 38.046875 -190.703125 C 50.109375 -197.203125 61.398438 -201.765625 71.921875 -204.390625 C 82.441406 -207.023438 94.660156 -208.34375 108.578125 -208.34375 C 120.023438 -208.34375 130.851562 -205.941406 141.0625 -201.140625 C 151.269531 -196.347656 159.617188 -189.539062 166.109375 -180.71875 C 172.609375 -171.90625 175.859375 -161.160156 175.859375 -148.484375 Z M 142.90625 -35.734375 L 142.90625 -105.328125 C 137.65625 -105.328125 131.003906 -105.328125 122.953125 -105.328125 C 114.910156 -105.328125 106.71875 -105.171875 98.375 -104.859375 C 85.375 -104.859375 74.539062 -101.300781 65.875 -94.1875 C 57.21875 -87.070312 52.890625 -77.175781 52.890625 -64.5 C 52.890625 -53.050781 57.296875 -42.609375 66.109375 -33.171875 C 74.929688 -23.742188 85.992188 -19.03125 99.296875 -19.03125 C 109.191406 -18.71875 118.160156 -20.648438 126.203125 -24.828125 C 134.242188 -29.003906 139.8125 -32.640625 142.90625 -35.734375 Z M 142.90625 -35.734375 "/></g></g></g><g fill="#ffe63f" fill-opacity="1"><g transform="translate(644.664216, 400.120665)"><g><path d="M 80.265625 5.5625 C 68.515625 5.5625 56.992188 3.476562 45.703125 -0.6875 C 34.410156 -4.863281 24.28125 -10.359375 15.3125 -17.171875 L 27.375 -36.65625 C 34.488281 -31.394531 42.765625 -27.140625 52.203125 -23.890625 C 61.640625 -20.648438 70.84375 -18.875 79.8125 -18.5625 C 87.226562 -18.5625 94.648438 -19.796875 102.078125 -22.265625 C 109.503906 -24.742188 115.691406 -28.613281 120.640625 -33.875 C 125.585938 -39.132812 127.90625 -45.9375 127.59375 -54.28125 C 127.289062 -64.1875 123.503906 -71.222656 116.234375 -75.390625 C 108.960938 -79.566406 101.460938 -83.203125 93.734375 -86.296875 C 90.640625 -87.535156 87.546875 -88.773438 84.453125 -90.015625 C 81.359375 -91.253906 78.109375 -92.335938 74.703125 -93.265625 C 68.515625 -95.734375 62.25 -98.28125 55.90625 -100.90625 C 49.570312 -103.539062 43.773438 -106.867188 38.515625 -110.890625 C 32.941406 -114.910156 28.300781 -119.9375 24.59375 -125.96875 C 20.882812 -132.007812 19.03125 -139.820312 19.03125 -149.40625 C 19.03125 -162.394531 22.429688 -173.375 29.234375 -182.34375 C 36.035156 -191.320312 44.847656 -198.128906 55.671875 -202.765625 C 66.503906 -207.410156 77.953125 -209.734375 90.015625 -209.734375 C 100.535156 -209.734375 110.664062 -208.1875 120.40625 -205.09375 C 130.15625 -202 139.664062 -197.820312 148.9375 -192.5625 L 136.421875 -172.609375 C 121.566406 -180.960938 106.71875 -185.445312 91.875 -186.0625 C 82.28125 -186.0625 73.078125 -183.429688 64.265625 -178.171875 C 55.453125 -172.910156 50.890625 -164.867188 50.578125 -154.046875 C 50.578125 -148.171875 52.195312 -143.53125 55.4375 -140.125 C 58.6875 -136.726562 62.941406 -133.789062 68.203125 -131.3125 C 73.460938 -129.144531 79.335938 -126.671875 85.828125 -123.890625 C 92.328125 -121.109375 98.828125 -118.476562 105.328125 -116 C 111.515625 -113.519531 117.773438 -110.96875 124.109375 -108.34375 C 130.453125 -105.71875 136.253906 -102.238281 141.515625 -97.90625 C 147.085938 -93.570312 151.726562 -88.234375 155.4375 -81.890625 C 159.15625 -75.554688 161.015625 -67.75 161.015625 -58.46875 C 161.015625 -43.925781 156.988281 -31.9375 148.9375 -22.5 C 140.894531 -13.070312 130.6875 -6.035156 118.3125 -1.390625 C 105.945312 3.242188 93.265625 5.5625 80.265625 5.5625 Z M 80.265625 5.5625 "/></g></g></g><g fill="#ffe63f" fill-opacity="1"><g transform="translate(797.31804, 400.120665)"><g><path d="M 101.609375 4.171875 C 84.285156 3.867188 69.4375 -1.304688 57.0625 -11.359375 C 44.695312 -21.421875 35.265625 -34.335938 28.765625 -50.109375 C 22.273438 -65.890625 19.03125 -82.285156 19.03125 -99.296875 C 19.03125 -118.472656 22.816406 -136.722656 30.390625 -154.046875 C 37.972656 -171.367188 48.878906 -184.828125 63.109375 -194.421875 C 72.691406 -200.910156 83.4375 -205.082031 95.34375 -206.9375 C 107.257812 -208.800781 119.476562 -208.570312 132 -206.25 C 144.53125 -203.925781 156.054688 -199.363281 166.578125 -192.5625 L 156.828125 -174.46875 C 150.023438 -177.863281 142.210938 -180.722656 133.390625 -183.046875 C 124.578125 -185.367188 116.148438 -186.21875 108.109375 -185.59375 C 96.046875 -184.976562 85.914062 -180.1875 77.71875 -171.21875 C 69.519531 -162.25 63.410156 -151.265625 59.390625 -138.265625 C 55.367188 -125.273438 53.359375 -112.285156 53.359375 -99.296875 C 53.359375 -87.234375 55.523438 -75.015625 59.859375 -62.640625 C 64.191406 -50.265625 70.6875 -39.898438 79.34375 -31.546875 C 88.007812 -23.203125 98.679688 -18.875 111.359375 -18.5625 C 122.179688 -18.25 131.921875 -19.789062 140.578125 -23.1875 C 149.242188 -26.59375 158.21875 -30.460938 167.5 -34.796875 L 176.3125 -17.171875 C 166.414062 -10.671875 155.203125 -5.488281 142.671875 -1.625 C 130.148438 2.238281 116.460938 4.171875 101.609375 4.171875 Z M 101.609375 4.171875 "/></g></g></g><g fill="#ffe63f" fill-opacity="1"><g transform="translate(962.035681, 400.120665)"><g><path d="M 112.28125 -182.8125 L 111.828125 -182.8125 C 100.691406 -182.8125 91.175781 -181.03125 83.28125 -177.46875 C 75.394531 -173.914062 68.359375 -169.507812 62.171875 -164.25 L 62.171875 0 L 28.296875 0 L 28.296875 -168.890625 C 41.296875 -183.429688 57.382812 -193.953125 76.5625 -200.453125 C 86.769531 -204.160156 97.128906 -206.863281 107.640625 -208.5625 C 118.160156 -210.269531 130.535156 -209.882812 144.765625 -207.40625 C 142.597656 -203.382812 140.273438 -198.898438 137.796875 -193.953125 C 135.328125 -189.003906 133.164062 -184.363281 131.3125 -180.03125 C 128.21875 -180.644531 124.890625 -181.257812 121.328125 -181.875 C 117.773438 -182.5 114.757812 -182.8125 112.28125 -182.8125 Z M 112.28125 -182.8125 "/></g></g></g><g fill="#ffe63f" fill-opacity="1"><g transform="translate(1091.489772, 400.120665)"><g><path d="M 37.125 0 L 37.125 -197.203125 L 70.53125 -208.34375 L 70.53125 0 Z M 31.546875 -273.765625 L 31.546875 -274.21875 C 31.546875 -280.40625 33.710938 -285.585938 38.046875 -289.765625 C 42.378906 -293.941406 47.640625 -296.03125 53.828125 -296.03125 C 60.015625 -296.03125 65.191406 -293.863281 69.359375 -289.53125 C 73.535156 -285.207031 75.625 -279.953125 75.625 -273.765625 C 75.625 -267.878906 73.457031 -262.769531 69.125 -258.4375 C 64.800781 -254.113281 59.546875 -251.953125 53.359375 -251.953125 C 47.484375 -251.953125 42.378906 -254.113281 38.046875 -258.4375 C 33.710938 -262.769531 31.546875 -267.878906 31.546875 -273.765625 Z M 31.546875 -273.765625 "/></g></g></g><g fill="#ffe63f" fill-opacity="1"><g transform="translate(1173.152424, 400.120665)"><g><path d="M 124.8125 -207.875 L 124.359375 -208.34375 C 107.335938 -208.03125 92.71875 -206.09375 80.5 -202.53125 C 68.28125 -198.976562 58.457031 -194.878906 51.03125 -190.234375 C 43.613281 -185.597656 38.203125 -181.5 34.796875 -177.9375 C 31.398438 -174.382812 29.703125 -172.609375 29.703125 -172.609375 L 29.234375 94.1875 L 62.640625 106.25 L 62.640625 -13.921875 C 72.234375 -8.046875 81.976562 -3.484375 91.875 -0.234375 C 101.769531 3.015625 112.441406 4.640625 123.890625 4.640625 C 142.453125 4.023438 157.765625 -1.148438 169.828125 -10.890625 C 181.890625 -20.640625 190.859375 -33.25 196.734375 -48.71875 C 202.609375 -64.1875 205.546875 -80.582031 205.546875 -97.90625 C 205.546875 -117.695312 202.609375 -135.945312 196.734375 -152.65625 C 190.859375 -169.363281 182.039062 -182.820312 170.28125 -193.03125 C 158.53125 -203.238281 143.375 -208.1875 124.8125 -207.875 Z M 116.46875 -19.484375 C 105.945312 -18.867188 95.660156 -20.800781 85.609375 -25.28125 C 75.554688 -29.769531 67.742188 -33.71875 62.171875 -37.125 L 62.171875 -169.359375 C 63.722656 -170.910156 67.125 -173.078125 72.375 -175.859375 C 77.632812 -178.640625 84.285156 -181.113281 92.328125 -183.28125 C 100.378906 -185.445312 109.195312 -186.21875 118.78125 -185.59375 C 129.300781 -185.289062 137.726562 -182.273438 144.0625 -176.546875 C 150.40625 -170.828125 155.203125 -163.554688 158.453125 -154.734375 C 161.703125 -145.921875 163.867188 -136.71875 164.953125 -127.125 C 166.035156 -117.539062 166.578125 -108.570312 166.578125 -100.21875 C 166.578125 -91.5625 166.035156 -82.671875 164.953125 -73.546875 C 163.867188 -64.421875 161.625 -55.910156 158.21875 -48.015625 C 154.820312 -40.128906 149.796875 -33.554688 143.140625 -28.296875 C 136.492188 -23.046875 127.601562 -20.109375 116.46875 -19.484375 Z M 116.46875 -19.484375 "/></g></g></g><g fill="#ffe63f" fill-opacity="1"><g transform="translate(1383.341466, 400.120665)"><g><path d="M 36.65625 -181.421875 L 13.453125 -181.421875 L 13.453125 -203.234375 L 36.65625 -203.234375 L 36.65625 -259.84375 L 70.53125 -271.90625 L 70.53125 -203.234375 L 108.578125 -203.234375 L 108.578125 -181.421875 L 70.53125 -181.421875 L 70.53125 -49.1875 C 70.53125 -35.882812 73.929688 -26.988281 80.734375 -22.5 C 87.535156 -18.019531 96.816406 -15.46875 108.578125 -14.84375 L 108.578125 2.78125 C 85.992188 4.945312 68.359375 1.316406 55.671875 -8.109375 C 42.992188 -17.546875 36.65625 -30.925781 36.65625 -48.25 Z M 36.65625 -181.421875 "/></g></g></g></g></g></g></g></g></svg>