<svg xmlns="http://www.w3.org/2000/svg" xmlns:xlink="http://www.w3.org/1999/xlink" width="2000" zoomAndPan="magnify" viewBox="0 0 1500 1499.999933" height="2000" preserveAspectRatio="xMidYMid meet" version="1.0"><defs><g/><clipPath id="31ed192b96"><path d="M 536.636719 260.464844 L 1128.347656 260.464844 L 1128.347656 852.175781 L 536.636719 852.175781 Z M 536.636719 260.464844 " clip-rule="nonzero"/></clipPath><clipPath id="9c22be1b59"><path d="M 304.730469 0.714844 L 1195.347656 0.714844 L 1195.347656 891.328125 L 304.730469 891.328125 Z M 304.730469 0.714844 " clip-rule="nonzero"/></clipPath><clipPath id="ab84ffbe62"><path d="M 0 836 L 1477.917969 836 L 1477.917969 1339.441406 L 0 1339.441406 Z M 0 836 " clip-rule="nonzero"/></clipPath><clipPath id="f9ae9ad33b"><path d="M 0 96 L 112 96 L 112 500 L 0 500 Z M 0 96 " clip-rule="nonzero"/></clipPath><clipPath id="b8f9fa66ab"><rect x="0" width="1478" y="0" height="504"/></clipPath><clipPath id="ca648cb791"><rect x="0" width="1478" y="0" height="1340"/></clipPath></defs><g transform="matrix(1, 0, 0, 1, 0, 138)"><g clip-path="url(#ca648cb791)"><path fill="#ff0000" d="M 1121.171875 561.382812 C 1118.015625 566.566406 1112.648438 569.621094 1107.351562 572.582031 C 1109.59375 575.820312 1109.511719 580.167969 1108.511719 583.976562 C 1107.515625 587.789062 1105.699219 591.347656 1104.683594 595.160156 C 1103.671875 598.972656 1103.933594 604.007812 1106.140625 607.257812 C 1103.101562 607.390625 1100.546875 609.828125 1099.304688 612.625 C 1098.078125 615.421875 1097.878906 618.523438 1097.621094 621.566406 C 1097.359375 624.609375 1096.949219 627.746094 1095.363281 630.347656 L 1095.429688 630.363281 C 1099.796875 632.09375 1104.34375 633.945312 1107.433594 637.492188 C 1108.335938 638.535156 1109.105469 639.714844 1109.578125 640.988281 C 1110.65625 643.933594 1110.214844 647.269531 1109.003906 650.144531 C 1107.792969 653.042969 1105.878906 655.574219 1104.003906 658.074219 C 1106.457031 660.511719 1110.476562 663.257812 1111.589844 666.542969 C 1112.289062 668.640625 1112.359375 670.894531 1112.667969 673.085938 C 1113.75 680.835938 1117.867188 688.128906 1117.609375 695.960938 L 1117.609375 695.976562 C 1117.59375 696.777344 1117.003906 697.445312 1116.320312 697.855469 C 1115.632812 698.265625 1114.863281 698.496094 1114.160156 698.855469 C 1111.722656 700.097656 1110.433594 702.863281 1109.925781 705.5625 C 1109.414062 708.257812 1109.5 711.039062 1108.925781 713.71875 C 1107.765625 719.179688 1103.582031 723.613281 1099.949219 727.863281 C 1101.929688 730.351562 1103.9375 732.867188 1105.0625 735.828125 C 1106.191406 738.789062 1106.324219 742.300781 1104.636719 744.984375 C 1102.578125 748.269531 1097.625 749.839844 1093.878906 750.824219 C 1096.640625 753.503906 1099.570312 756.464844 1100.121094 760.273438 C 1100.496094 762.925781 1099.679688 765.621094 1100.023438 768.269531 C 1100.320312 770.558594 1101.476562 772.667969 1102.964844 774.421875 C 1104.453125 776.171875 1106.265625 777.644531 1108.050781 779.097656 C 1104.8125 783.953125 1105.140625 790.90625 1106.660156 796.546875 C 1108.183594 802.1875 1110.878906 807.453125 1112.371094 813.109375 C 1114.28125 820.320312 1114.152344 828.058594 1112.027344 835.199219 C 1102.332031 837.503906 1091.097656 837.523438 1081.660156 834.300781 C 1077.328125 832.8125 1073.175781 830.769531 1068.695312 829.804688 C 1064.210938 828.839844 1058.816406 828.988281 1055.171875 831.75 C 1053.503906 829.003906 1050.933594 826.808594 1047.960938 825.621094 C 1044.507812 824.230469 1040.683594 824.179688 1037.003906 823.589844 C 1033.328125 823.003906 1029.238281 821.417969 1027.164062 818.324219 C 1026.28125 822.199219 1024.464844 825.863281 1021.898438 828.90625 C 1020.980469 829.984375 1019.871094 831.046875 1018.464844 831.261719 C 1017.40625 831.40625 1016.355469 831.046875 1015.355469 830.65625 C 1011.597656 829.183594 1007.886719 826.929688 1004.582031 824.605469 C 1002.621094 824.507812 1000.851562 825.78125 999.496094 827.1875 C 998.136719 828.59375 996.957031 830.246094 995.308594 831.292969 C 991.074219 833.957031 985.316406 831.878906 980.660156 833.695312 C 976.832031 835.179688 973.59375 838.792969 971.503906 842.328125 C 970.164062 841.183594 968.363281 840.789062 966.617188 840.644531 C 964.863281 840.5 963.101562 840.5625 961.386719 840.171875 C 958.816406 839.597656 956.5625 838.078125 954.058594 837.277344 C 950.511719 836.132812 946.621094 836.476562 943.089844 835.316406 C 939.082031 834.003906 935.945312 830.902344 932.96875 827.90625 C 929.253906 830.6875 927.539062 831.308594 923.21875 833.023438 C 921.488281 833.710938 919.605469 834.3125 917.792969 833.875 C 916.289062 833.5 915.046875 832.453125 913.949219 831.359375 C 910.726562 828.15625 908.128906 824.035156 906.328125 819.847656 C 901.617188 822.265625 895.765625 820.472656 890.710938 822.074219 C 887.179688 823.199219 884.023438 826.195312 882.796875 829.710938 C 880.246094 827.273438 876.175781 827.257812 872.804688 828.304688 C 869.4375 829.351562 866.394531 831.265625 863.027344 832.3125 C 858.464844 833.71875 853.394531 833.425781 849.03125 831.480469 L 849.046875 830.535156 C 847.394531 836.8125 842.898438 842.289062 837.0625 845.121094 C 835.410156 845.921875 833.578125 846.527344 831.78125 846.25 C 830.261719 846.003906 828.902344 845.167969 827.660156 844.269531 C 823.09375 841.015625 819.207031 836.8125 816.292969 832.003906 C 811.109375 832.890625 805.828125 833.773438 801.003906 831.679688 C 798.535156 830.617188 796.394531 828.835938 793.875 827.898438 C 789.917969 826.445312 785.179688 827.390625 782.070312 830.238281 C 781.445312 827.210938 778.847656 824.695312 776.035156 823.4375 C 773.207031 822.179688 770.082031 821.835938 767.007812 821.507812 C 763.9375 821.179688 760.8125 820.824219 758 819.527344 C 757.507812 824.027344 755.710938 827.476562 752.667969 830.828125 C 751.441406 832.183594 749.957031 833.425781 748.15625 833.707031 C 746.996094 833.886719 745.800781 833.640625 744.671875 833.332031 C 740.550781 832.21875 736.644531 830.355469 733.195312 827.851562 C 727.570312 829.78125 724.230469 835.667969 718.429688 836.960938 C 715.699219 837.5625 712.789062 837.027344 710.058594 837.632812 C 707.917969 838.105469 706.003906 839.234375 703.894531 839.855469 C 700.179688 840.953125 695.964844 840.445312 692.644531 842.421875 C 690.890625 838.453125 686.625 835.210938 682.457031 834.015625 C 680.003906 833.316406 677.402344 833.265625 674.902344 832.726562 C 670.128906 831.714844 664.910156 828.035156 662.019531 824.113281 C 659.878906 826.09375 659.484375 826.46875 656.949219 827.9375 C 654.414062 829.410156 651.441406 830.277344 648.5625 829.851562 C 645.933594 829.460938 643.527344 827.953125 641.84375 825.910156 C 640.140625 823.867188 638.769531 820.46875 638.425781 817.832031 C 636.21875 821.363281 632.160156 823.539062 628.027344 823.960938 C 625.199219 824.257812 622.320312 823.800781 619.527344 824.320312 C 615.617188 825.058594 611.484375 828.390625 609.847656 832.003906 C 606.394531 829.453125 601.753906 829.125 597.484375 829.71875 C 590.632812 830.664062 584.257812 833.660156 577.582031 835.441406 C 569.882812 837.5 559.121094 837.550781 553.039062 835.210938 C 550.898438 828.070312 550.78125 820.332031 552.695312 813.121094 C 554.199219 807.480469 556.898438 802.199219 558.402344 796.558594 C 559.925781 790.917969 560.269531 783.964844 557.015625 779.109375 C 558.8125 777.65625 560.613281 776.199219 562.097656 774.433594 C 563.585938 772.664062 564.75 770.574219 565.042969 768.28125 C 565.386719 765.632812 564.554688 762.9375 564.945312 760.285156 C 565.5 756.476562 568.425781 753.515625 571.1875 750.835938 C 567.429688 749.867188 562.488281 748.28125 560.425781 744.996094 C 558.742188 742.3125 558.871094 738.800781 560 735.839844 C 561.128906 732.882812 563.140625 730.347656 565.117188 727.875 C 561.488281 723.625 557.304688 719.210938 556.140625 713.730469 C 555.566406 711.046875 555.664062 708.269531 555.140625 705.574219 C 554.632812 702.875 553.34375 700.113281 550.90625 698.867188 C 550.203125 698.507812 549.417969 698.28125 548.746094 697.867188 C 548.058594 697.457031 547.472656 696.789062 547.457031 695.988281 L 547.457031 695.972656 C 547.179688 688.15625 551.300781 680.847656 552.394531 673.097656 C 552.707031 670.90625 552.769531 668.652344 553.476562 666.554688 C 554.589844 663.269531 558.59375 660.539062 561.0625 658.085938 C 559.164062 655.585938 557.265625 653.050781 556.058594 650.15625 C 554.851562 647.265625 554.390625 643.929688 555.488281 641 C 555.960938 639.710938 556.730469 638.53125 557.628906 637.503906 C 560.703125 633.953125 565.265625 632.089844 569.632812 630.375 L 569.699219 630.359375 C 568.117188 627.742188 567.722656 624.621094 567.445312 621.578125 C 567.183594 618.535156 566.988281 615.414062 565.761719 612.636719 C 564.535156 609.855469 561.980469 607.40625 558.925781 607.269531 C 561.132812 604 561.394531 598.980469 560.378906 595.171875 C 559.367188 591.367188 557.550781 587.800781 556.554688 583.988281 C 555.554688 580.179688 555.472656 575.832031 557.714844 572.59375 C 552.414062 569.632812 547.050781 566.578125 543.894531 561.394531 C 542.699219 559.449219 541.882812 557.125 542.292969 554.882812 C 542.605469 553.183594 543.582031 551.679688 544.648438 550.304688 C 546.378906 548.0625 548.375 546.035156 550.601562 544.269531 C 552.085938 543.09375 553.6875 541.996094 554.867188 540.511719 C 556.042969 539.023438 556.75 536.996094 556.113281 535.195312 C 555.769531 532.203125 555.867188 528.605469 556.8125 525.730469 C 557.875 522.507812 560.246094 519.828125 561.210938 516.574219 C 562.324219 512.859375 561.472656 508.480469 558.925781 505.566406 C 560.707031 504.8125 562.554688 504.011719 563.832031 502.558594 C 564.976562 501.246094 565.546875 499.546875 565.988281 497.863281 C 567.230469 493.152344 567.65625 488.265625 568.082031 483.425781 C 568.132812 482.953125 568.167969 482.425781 567.902344 482.019531 C 567.65625 481.609375 566.085938 481.203125 565.792969 481.578125 C 560.425781 480.289062 556.027344 475.625 555.050781 470.183594 C 554.066406 464.738281 556.589844 458.851562 561.179688 455.777344 C 557.171875 453.261719 554.359375 448.84375 552.925781 444.328125 C 551.488281 439.816406 551.027344 435.058594 550.308594 430.382812 C 549.589844 425.703125 548.542969 420.960938 546.109375 416.90625 C 549.917969 414.046875 554.019531 411.28125 555.277344 406.882812 C 556.210938 403.679688 555.996094 400.226562 556.765625 396.972656 C 557.8125 392.476562 560.773438 388.472656 564.746094 386.148438 C 562.785156 383.664062 560.851562 380.441406 559.875 377.433594 C 558.890625 374.425781 558.875 370.976562 560.515625 368.261719 C 562.574219 364.8125 567.167969 363.046875 571.09375 362.132812 L 571.253906 362.132812 C 569.3125 360.691406 569.390625 360.792969 567.984375 358.832031 C 566.285156 356.445312 565.546875 353.484375 565.105469 350.574219 C 564.664062 347.664062 564.464844 344.707031 563.648438 341.875 C 563.71875 339.863281 562.636719 337.480469 560.953125 336.382812 C 559.839844 335.664062 558.382812 335.207031 557.84375 333.996094 C 557.5 333.210938 557.660156 332.28125 558.105469 331.558594 C 558.546875 330.839844 559.347656 330.167969 560.101562 329.757812 C 559.855469 321.695312 556.570312 314.078125 554.488281 306.28125 C 551.921875 296.714844 551.136719 286.691406 552.1875 276.847656 C 558.285156 274.507812 569.929688 275.082031 577.628906 277.144531 C 584.300781 278.925781 590.679688 281.917969 597.53125 282.867188 C 601.785156 283.457031 606.425781 283.128906 609.894531 280.578125 C 611.53125 284.207031 615.664062 287.546875 619.574219 288.265625 C 622.371094 288.789062 625.246094 288.332031 628.074219 288.625 C 632.230469 289.050781 636.269531 291.222656 638.472656 294.753906 C 638.832031 292.121094 640.207031 288.738281 641.890625 286.675781 C 643.589844 284.632812 645.992188 283.144531 648.613281 282.734375 C 651.507812 282.292969 654.464844 283.175781 656.996094 284.648438 C 659.535156 286.101562 659.925781 286.476562 662.066406 288.472656 C 664.976562 284.546875 670.175781 280.867188 674.949219 279.855469 C 677.453125 279.328125 680.050781 279.265625 682.503906 278.5625 C 686.691406 277.367188 690.941406 274.148438 692.691406 270.15625 C 696.027344 272.136719 700.226562 271.613281 703.941406 272.726562 C 706.035156 273.347656 707.964844 274.476562 710.105469 274.949219 C 712.851562 275.554688 715.746094 275.019531 718.476562 275.621094 C 724.285156 276.910156 727.617188 282.816406 733.242188 284.730469 C 736.695312 282.230469 740.597656 280.347656 744.722656 279.25 C 745.863281 278.9375 747.042969 278.695312 748.203125 278.875 C 750.003906 279.152344 751.503906 280.398438 752.71875 281.753906 C 755.742188 285.109375 757.558594 288.554688 758.046875 293.054688 C 760.859375 291.761719 763.984375 291.398438 767.054688 291.074219 C 770.128906 290.746094 773.253906 290.402344 776.082031 289.144531 C 778.910156 287.886719 781.492188 285.363281 782.117188 282.34375 C 785.226562 285.203125 789.96875 286.136719 793.921875 284.683594 C 796.457031 283.75 798.582031 281.96875 801.050781 280.902344 C 805.875 278.828125 811.15625 279.707031 816.339844 280.574219 C 819.253906 275.765625 823.140625 271.582031 827.707031 268.3125 C 828.964844 267.414062 830.304688 266.578125 831.828125 266.332031 C 833.644531 266.054688 835.472656 266.660156 837.109375 267.460938 C 842.949219 270.289062 847.445312 275.765625 849.09375 282.046875 L 849.078125 281.101562 C 853.445312 279.15625 858.515625 278.859375 863.074219 280.269531 C 866.445312 281.3125 869.484375 283.226562 872.855469 284.277344 C 876.222656 285.320312 880.277344 285.289062 882.847656 282.871094 C 884.058594 286.371094 887.210938 289.378906 890.757812 290.507812 C 895.8125 292.109375 901.667969 290.3125 906.375 292.734375 C 908.175781 288.546875 910.773438 284.441406 913.996094 281.222656 C 915.09375 280.125 916.335938 279.082031 917.839844 278.707031 C 919.652344 278.265625 921.535156 278.867188 923.265625 279.558594 C 927.566406 281.273438 929.304688 281.898438 933.015625 284.675781 C 935.988281 281.679688 939.113281 278.589844 943.136719 277.265625 C 946.667969 276.105469 950.578125 276.449219 954.105469 275.304688 C 956.609375 274.503906 958.863281 272.980469 961.433594 272.410156 C 963.148438 272.035156 964.914062 272.097656 966.664062 271.9375 C 968.414062 271.789062 970.214844 271.378906 971.550781 270.253906 C 973.644531 273.78125 976.863281 277.417969 980.707031 278.886719 C 985.386719 280.6875 991.140625 278.609375 995.355469 281.289062 C 997.027344 282.335938 998.1875 283.988281 999.542969 285.390625 C 1000.898438 286.796875 1002.667969 288.074219 1004.628906 287.976562 C 1007.929688 285.671875 1011.65625 283.410156 1015.40625 281.925781 C 1016.402344 281.535156 1017.449219 281.171875 1018.511719 281.320312 C 1019.917969 281.519531 1021.03125 282.578125 1021.945312 283.675781 C 1024.511719 286.71875 1026.328125 290.382812 1027.210938 294.257812 C 1029.285156 291.167969 1033.375 289.578125 1037.054688 288.988281 C 1040.734375 288.402344 1044.539062 288.351562 1048.007812 286.960938 C 1050.980469 285.765625 1053.550781 283.578125 1055.21875 280.832031 C 1058.863281 283.613281 1064.261719 283.757812 1068.742188 282.777344 C 1073.222656 281.808594 1077.375 279.75 1081.707031 278.28125 C 1091.144531 275.058594 1103.257812 274.535156 1112.972656 276.839844 C 1114.019531 286.683594 1113.234375 296.707031 1110.667969 306.273438 C 1108.574219 314.070312 1105.289062 321.675781 1105.058594 329.75 C 1105.8125 330.140625 1106.597656 330.8125 1107.054688 331.550781 C 1107.515625 332.289062 1107.660156 333.21875 1107.316406 333.988281 C 1106.777344 335.214844 1105.320312 335.65625 1104.207031 336.375 C 1102.523438 337.46875 1101.441406 339.855469 1101.511719 341.867188 C 1100.710938 344.699219 1100.511719 347.65625 1100.054688 350.566406 C 1099.597656 353.476562 1098.878906 356.421875 1097.175781 358.824219 C 1095.769531 360.785156 1095.847656 360.6875 1093.90625 362.125 L 1094.066406 362.125 C 1097.992188 363.039062 1102.566406 364.808594 1104.644531 368.253906 C 1106.261719 370.96875 1106.261719 374.421875 1105.285156 377.425781 C 1104.304688 380.4375 1102.375 383.65625 1100.414062 386.140625 C 1104.386719 388.464844 1107.347656 392.484375 1108.394531 396.964844 C 1109.148438 400.21875 1108.949219 403.652344 1109.878906 406.875 C 1111.15625 411.257812 1115.246094 414.039062 1119.050781 416.898438 C 1116.597656 420.953125 1115.570312 425.695312 1114.851562 430.371094 C 1114.132812 435.050781 1113.675781 439.808594 1112.234375 444.320312 C 1110.796875 448.835938 1108 453.25 1103.980469 455.769531 C 1108.574219 458.84375 1111.074219 464.746094 1110.109375 470.175781 C 1109.144531 475.601562 1104.746094 480.28125 1099.367188 481.570312 C 1099.070312 481.195312 1097.503906 481.601562 1097.257812 482.011719 C 1097.011719 482.421875 1097.042969 482.929688 1097.078125 483.417969 C 1097.503906 488.273438 1097.945312 493.144531 1099.171875 497.855469 C 1099.613281 499.539062 1100.183594 501.238281 1101.328125 502.550781 C 1102.601562 504.003906 1104.453125 504.804688 1106.234375 505.558594 C 1103.683594 508.472656 1102.835938 512.851562 1103.949219 516.566406 C 1104.914062 519.820312 1107.285156 522.503906 1108.347656 525.722656 C 1109.292969 528.582031 1109.390625 532.179688 1109.046875 535.1875 C 1108.410156 536.972656 1109.117188 539.015625 1110.292969 540.503906 C 1111.464844 541.988281 1113.070312 543.070312 1114.558594 544.261719 C 1116.769531 546.027344 1118.777344 548.054688 1120.511719 550.296875 C 1121.574219 551.667969 1122.554688 553.175781 1122.867188 554.875 C 1123.199219 557.113281 1122.367188 559.417969 1121.171875 561.382812 Z M 1121.171875 561.382812 " fill-opacity="1" fill-rule="nonzero"/><g clip-path="url(#31ed192b96)"><path fill="#000000" d="M 536.636719 260.464844 L 1128.347656 260.464844 L 1128.347656 852.175781 L 536.636719 852.175781 Z M 536.636719 260.464844 " fill-opacity="1" fill-rule="nonzero"/></g><g clip-path="url(#9c22be1b59)"><path fill="#ffe63f" d="M 987.226562 821.417969 C 909.535156 821.417969 859.292969 784.371094 834.804688 735.925781 L 902.929688 696.460938 C 920.882812 725.773438 944.160156 747.273438 985.425781 747.273438 C 1020.066406 747.273438 1042.1875 729.941406 1042.1875 706.023438 C 1042.1875 670.0625 994.1875 655.976562 960.3125 641.476562 C 899.9375 615.777344 859.863281 583.488281 859.863281 515.328125 C 859.863281 452.582031 907.683594 404.777344 982.453125 404.777344 C 1035.617188 404.777344 1073.910156 423.300781 1101.371094 471.691406 L 1036.222656 513.546875 C 1021.882812 487.84375 1006.355469 477.695312 982.433594 477.695312 C 957.910156 477.695312 942.359375 493.242188 942.359375 513.546875 C 942.359375 538.660156 957.890625 548.808594 993.78125 564.359375 C 1068.976562 596.578125 1125.878906 621.921875 1125.878906 704.828125 C 1125.914062 780.1875 1066.75 821.417969 987.226562 821.417969 Z M 794.515625 695.285156 C 794.515625 781.96875 741.121094 827.792969 666.996094 827.792969 C 600.027344 827.792969 559.917969 802.183594 540.183594 757.65625 L 539.027344 757.65625 L 607.097656 710.066406 C 620.242188 733.34375 632.085938 749.875 660.761719 749.875 C 688.277344 749.875 705.464844 735.945312 705.464844 694.128906 L 705.464844 401.449219 L 794.515625 401.449219 Z M 304.730469 891.234375 L 1195.25 891.234375 L 1195.25 0.714844 L 304.730469 0.714844 Z M 304.730469 891.234375 " fill-opacity="1" fill-rule="evenodd"/></g><g clip-path="url(#ab84ffbe62)"><g transform="matrix(1, 0, 0, 1, 0, 836)"><g clip-path="url(#b8f9fa66ab)"><g clip-path="url(#f9ae9ad33b)"><g fill="#ffe63f" fill-opacity="1"><g transform="translate(7.81579, 384.838782)"><g><path d="M 98.46875 -203.28125 L 65.5 -191.53125 L 65.046875 18.515625 C 65.046875 27.253906 64.367188 36.210938 63.015625 45.390625 C 61.660156 54.578125 58.875 62.9375 54.65625 70.46875 C 50.4375 78 43.960938 83.71875 35.234375 87.625 C 26.503906 91.539062 14.609375 92.445312 -0.453125 90.34375 C -2.859375 89.738281 -5.640625 88.910156 -8.796875 87.859375 C -11.960938 86.804688 -14.601562 85.828125 -16.71875 84.921875 L -23.9375 106.609375 C -17.613281 109.316406 -11.890625 111.347656 -6.765625 112.703125 C -1.648438 114.054688 4.519531 114.734375 11.75 114.734375 C 38.25 114.734375 59.328125 106.90625 74.984375 91.25 C 90.640625 75.59375 98.46875 50.898438 98.46875 17.171875 Z M 60.53125 -266.515625 L 60.53125 -266.96875 C 60.53125 -272.988281 62.632812 -278.03125 66.84375 -282.09375 C 71.0625 -286.164062 76.1875 -288.203125 82.21875 -288.203125 C 88.238281 -288.203125 93.28125 -286.09375 97.34375 -281.875 C 101.40625 -277.65625 103.4375 -272.535156 103.4375 -266.515625 C 103.4375 -260.796875 101.328125 -255.828125 97.109375 -251.609375 C 92.898438 -247.390625 87.785156 -245.28125 81.765625 -245.28125 C 76.035156 -245.28125 71.0625 -247.390625 66.84375 -251.609375 C 62.632812 -255.828125 60.53125 -260.796875 60.53125 -266.515625 Z M 60.53125 -266.515625 "/></g></g></g></g><g fill="#ffe63f" fill-opacity="1"><g transform="translate(117.582587, 384.838782)"><g><path d="M 171.203125 -30.265625 C 161.867188 -20.929688 149.597656 -12.875 134.390625 -6.09375 C 119.179688 0.675781 101.789062 3.910156 82.21875 3.609375 C 70.46875 3.304688 59.625 0.222656 49.6875 -5.640625 C 39.75 -11.515625 31.914062 -19.34375 26.1875 -29.125 C 20.46875 -38.914062 17.757812 -49.835938 18.0625 -61.890625 C 18.363281 -81.160156 25.0625 -96.289062 38.15625 -107.28125 C 51.257812 -118.269531 67.300781 -123.613281 86.28125 -123.3125 C 97.125 -123.3125 106.535156 -123.3125 114.515625 -123.3125 C 122.492188 -123.3125 131 -123.3125 140.03125 -123.3125 L 140.03125 -142.75 C 140.03125 -154.1875 135.660156 -163.367188 126.921875 -170.296875 C 118.191406 -177.222656 108.257812 -180.6875 97.125 -180.6875 C 87.1875 -180.6875 78.222656 -179.476562 70.234375 -177.0625 C 62.253906 -174.65625 53.898438 -171.195312 45.171875 -166.6875 L 37.046875 -185.65625 C 48.785156 -191.976562 59.773438 -196.421875 70.015625 -198.984375 C 80.253906 -201.546875 92.148438 -202.828125 105.703125 -202.828125 C 116.847656 -202.828125 127.390625 -200.488281 137.328125 -195.8125 C 147.265625 -191.144531 155.394531 -184.519531 161.71875 -175.9375 C 168.039062 -167.363281 171.203125 -156.898438 171.203125 -144.546875 Z M 139.125 -34.78125 L 139.125 -102.546875 C 134.007812 -102.546875 127.535156 -102.546875 119.703125 -102.546875 C 111.867188 -102.546875 103.890625 -102.394531 95.765625 -102.09375 C 83.117188 -102.09375 72.578125 -98.628906 64.140625 -91.703125 C 55.710938 -84.773438 51.5 -75.132812 51.5 -62.78125 C 51.5 -51.644531 55.789062 -41.484375 64.375 -32.296875 C 72.957031 -23.109375 83.722656 -18.515625 96.671875 -18.515625 C 106.304688 -18.210938 115.035156 -20.09375 122.859375 -24.15625 C 130.691406 -28.226562 136.113281 -31.769531 139.125 -34.78125 Z M 139.125 -34.78125 "/></g></g></g><g fill="#ffe63f" fill-opacity="1"><g transform="translate(291.944631, 384.838782)"><g><path d="M 120.609375 -4.515625 L 91.25 4.96875 L 9.484375 -193.78125 L 39.75 -206.4375 L 108.859375 -40.203125 L 171.65625 -203.71875 L 191.984375 -193.78125 Z M 120.609375 -4.515625 "/></g></g></g><g fill="#ffe63f" fill-opacity="1"><g transform="translate(473.082391, 384.838782)"><g><path d="M 171.203125 -30.265625 C 161.867188 -20.929688 149.597656 -12.875 134.390625 -6.09375 C 119.179688 0.675781 101.789062 3.910156 82.21875 3.609375 C 70.46875 3.304688 59.625 0.222656 49.6875 -5.640625 C 39.75 -11.515625 31.914062 -19.34375 26.1875 -29.125 C 20.46875 -38.914062 17.757812 -49.835938 18.0625 -61.890625 C 18.363281 -81.160156 25.0625 -96.289062 38.15625 -107.28125 C 51.257812 -118.269531 67.300781 -123.613281 86.28125 -123.3125 C 97.125 -123.3125 106.535156 -123.3125 114.515625 -123.3125 C 122.492188 -123.3125 131 -123.3125 140.03125 -123.3125 L 140.03125 -142.75 C 140.03125 -154.1875 135.660156 -163.367188 126.921875 -170.296875 C 118.191406 -177.222656 108.257812 -180.6875 97.125 -180.6875 C 87.1875 -180.6875 78.222656 -179.476562 70.234375 -177.0625 C 62.253906 -174.65625 53.898438 -171.195312 45.171875 -166.6875 L 37.046875 -185.65625 C 48.785156 -191.976562 59.773438 -196.421875 70.015625 -198.984375 C 80.253906 -201.546875 92.148438 -202.828125 105.703125 -202.828125 C 116.847656 -202.828125 127.390625 -200.488281 137.328125 -195.8125 C 147.265625 -191.144531 155.394531 -184.519531 161.71875 -175.9375 C 168.039062 -167.363281 171.203125 -156.898438 171.203125 -144.546875 Z M 139.125 -34.78125 L 139.125 -102.546875 C 134.007812 -102.546875 127.535156 -102.546875 119.703125 -102.546875 C 111.867188 -102.546875 103.890625 -102.394531 95.765625 -102.09375 C 83.117188 -102.09375 72.578125 -98.628906 64.140625 -91.703125 C 55.710938 -84.773438 51.5 -75.132812 51.5 -62.78125 C 51.5 -51.644531 55.789062 -41.484375 64.375 -32.296875 C 72.957031 -23.109375 83.722656 -18.515625 96.671875 -18.515625 C 106.304688 -18.210938 115.035156 -20.09375 122.859375 -24.15625 C 130.691406 -28.226562 136.113281 -31.769531 139.125 -34.78125 Z M 139.125 -34.78125 "/></g></g></g><g fill="#ffe63f" fill-opacity="1"><g transform="translate(647.444434, 384.838782)"><g><path d="M 78.140625 5.421875 C 66.703125 5.421875 55.484375 3.390625 44.484375 -0.671875 C 33.492188 -4.742188 23.632812 -10.09375 14.90625 -16.71875 L 26.65625 -35.6875 C 33.582031 -30.5625 41.632812 -26.414062 50.8125 -23.25 C 60 -20.09375 68.960938 -18.363281 77.703125 -18.0625 C 84.921875 -18.0625 92.144531 -19.265625 99.375 -21.671875 C 106.601562 -24.085938 112.625 -27.851562 117.4375 -32.96875 C 122.257812 -38.09375 124.519531 -44.71875 124.21875 -52.84375 C 123.914062 -62.488281 120.226562 -69.34375 113.15625 -73.40625 C 106.082031 -77.46875 98.78125 -81.003906 91.25 -84.015625 C 88.238281 -85.222656 85.226562 -86.425781 82.21875 -87.625 C 79.207031 -88.832031 76.046875 -89.890625 72.734375 -90.796875 C 66.703125 -93.203125 60.597656 -95.6875 54.421875 -98.25 C 48.253906 -100.8125 42.613281 -104.046875 37.5 -107.953125 C 32.070312 -111.867188 27.550781 -116.765625 23.9375 -122.640625 C 20.320312 -128.515625 18.515625 -136.117188 18.515625 -145.453125 C 18.515625 -158.097656 21.828125 -168.785156 28.453125 -177.515625 C 35.078125 -186.253906 43.660156 -192.878906 54.203125 -197.390625 C 64.742188 -201.910156 75.890625 -204.171875 87.640625 -204.171875 C 97.867188 -204.171875 107.726562 -202.664062 117.21875 -199.65625 C 126.707031 -196.644531 135.96875 -192.582031 145 -187.46875 L 132.8125 -168.046875 C 118.351562 -176.171875 103.894531 -180.535156 89.4375 -181.140625 C 80.101562 -181.140625 71.144531 -178.578125 62.5625 -173.453125 C 53.976562 -168.335938 49.535156 -160.507812 49.234375 -149.96875 C 49.234375 -144.25 50.8125 -139.734375 53.96875 -136.421875 C 57.132812 -133.109375 61.28125 -130.25 66.40625 -127.84375 C 71.519531 -125.726562 77.238281 -123.316406 83.5625 -120.609375 C 89.882812 -117.898438 96.210938 -115.34375 102.546875 -112.9375 C 108.566406 -110.519531 114.660156 -108.03125 120.828125 -105.46875 C 127.003906 -102.914062 132.65625 -99.53125 137.78125 -95.3125 C 143.195312 -91.09375 147.710938 -85.894531 151.328125 -79.71875 C 154.941406 -73.550781 156.75 -65.953125 156.75 -56.921875 C 156.75 -42.765625 152.832031 -31.09375 145 -21.90625 C 137.164062 -12.71875 127.226562 -5.863281 115.1875 -1.34375 C 103.144531 3.164062 90.796875 5.421875 78.140625 5.421875 Z M 78.140625 5.421875 "/></g></g></g><g fill="#ffe63f" fill-opacity="1"><g transform="translate(796.05871, 384.838782)"><g><path d="M 98.921875 4.0625 C 82.054688 3.757812 67.601562 -1.28125 55.5625 -11.0625 C 43.519531 -20.851562 34.332031 -33.425781 28 -48.78125 C 21.675781 -64.144531 18.515625 -80.109375 18.515625 -96.671875 C 18.515625 -115.335938 22.203125 -133.101562 29.578125 -149.96875 C 36.960938 -166.832031 47.582031 -179.929688 61.4375 -189.265625 C 70.769531 -195.585938 81.234375 -199.648438 92.828125 -201.453125 C 104.421875 -203.265625 116.316406 -203.039062 128.515625 -200.78125 C 140.710938 -198.53125 151.929688 -194.09375 162.171875 -187.46875 L 152.6875 -169.84375 C 146.0625 -173.15625 138.457031 -175.941406 129.875 -178.203125 C 121.289062 -180.460938 113.082031 -181.289062 105.25 -180.6875 C 93.507812 -180.082031 83.644531 -175.410156 75.65625 -166.671875 C 67.675781 -157.941406 61.726562 -147.253906 57.8125 -134.609375 C 53.90625 -121.960938 51.953125 -109.316406 51.953125 -96.671875 C 51.953125 -84.921875 54.054688 -73.019531 58.265625 -60.96875 C 62.484375 -48.925781 68.804688 -38.835938 77.234375 -30.703125 C 85.671875 -22.578125 96.0625 -18.363281 108.40625 -18.0625 C 118.945312 -17.757812 128.429688 -19.265625 136.859375 -22.578125 C 145.296875 -25.898438 154.035156 -29.664062 163.078125 -33.875 L 171.65625 -16.71875 C 162.019531 -10.394531 151.101562 -5.347656 138.90625 -1.578125 C 126.707031 2.179688 113.378906 4.0625 98.921875 4.0625 Z M 98.921875 4.0625 "/></g></g></g><g fill="#ffe63f" fill-opacity="1"><g transform="translate(956.417601, 384.838782)"><g><path d="M 109.3125 -177.984375 L 108.859375 -177.984375 C 98.023438 -177.984375 88.765625 -176.25 81.078125 -172.78125 C 73.398438 -169.320312 66.550781 -165.03125 60.53125 -159.90625 L 60.53125 0 L 27.5625 0 L 27.5625 -164.421875 C 40.207031 -178.578125 55.863281 -188.816406 74.53125 -195.140625 C 84.46875 -198.753906 94.554688 -201.390625 104.796875 -203.046875 C 115.035156 -204.703125 127.082031 -204.328125 140.9375 -201.921875 C 138.832031 -198.003906 136.570312 -193.632812 134.15625 -188.8125 C 131.75 -184 129.644531 -179.484375 127.84375 -175.265625 C 124.820312 -175.867188 121.582031 -176.472656 118.125 -177.078125 C 114.664062 -177.679688 111.726562 -177.984375 109.3125 -177.984375 Z M 109.3125 -177.984375 "/></g></g></g><g fill="#ffe63f" fill-opacity="1"><g transform="translate(1082.446101, 384.838782)"><g><path d="M 36.140625 0 L 36.140625 -191.984375 L 68.65625 -202.828125 L 68.65625 0 Z M 30.71875 -266.515625 L 30.71875 -266.96875 C 30.71875 -272.988281 32.820312 -278.03125 37.03125 -282.09375 C 41.25 -286.164062 46.375 -288.203125 52.40625 -288.203125 C 58.425781 -288.203125 63.46875 -286.09375 67.53125 -281.875 C 71.59375 -277.65625 73.625 -272.535156 73.625 -266.515625 C 73.625 -260.796875 71.515625 -255.828125 67.296875 -251.609375 C 63.085938 -247.390625 57.972656 -245.28125 51.953125 -245.28125 C 46.222656 -245.28125 41.25 -247.390625 37.03125 -251.609375 C 32.820312 -255.828125 30.71875 -260.796875 30.71875 -266.515625 Z M 30.71875 -266.515625 "/></g></g></g><g fill="#ffe63f" fill-opacity="1"><g transform="translate(1161.947957, 384.838782)"><g><path d="M 121.515625 -202.375 L 121.0625 -202.828125 C 104.5 -202.523438 90.269531 -200.640625 78.375 -197.171875 C 66.476562 -193.710938 56.914062 -189.722656 49.6875 -185.203125 C 42.457031 -180.679688 37.1875 -176.691406 33.875 -173.234375 C 30.5625 -169.773438 28.90625 -168.046875 28.90625 -168.046875 L 28.453125 91.703125 L 60.984375 103.4375 L 60.984375 -13.546875 C 70.316406 -7.828125 79.800781 -3.382812 89.4375 -0.21875 C 99.070312 2.9375 109.460938 4.515625 120.609375 4.515625 C 138.679688 3.910156 153.585938 -1.128906 165.328125 -10.609375 C 177.078125 -20.097656 185.8125 -32.367188 191.53125 -47.421875 C 197.25 -62.484375 200.109375 -78.445312 200.109375 -95.3125 C 200.109375 -114.582031 197.25 -132.347656 191.53125 -148.609375 C 185.8125 -164.878906 177.226562 -177.984375 165.78125 -187.921875 C 154.332031 -197.859375 139.578125 -202.675781 121.515625 -202.375 Z M 113.375 -18.96875 C 103.132812 -18.363281 93.117188 -20.242188 83.328125 -24.609375 C 73.546875 -28.984375 65.945312 -32.828125 60.53125 -36.140625 L 60.53125 -164.875 C 62.03125 -166.382812 65.335938 -168.492188 70.453125 -171.203125 C 75.578125 -173.910156 82.054688 -176.316406 89.890625 -178.421875 C 97.722656 -180.535156 106.304688 -181.289062 115.640625 -180.6875 C 125.878906 -180.382812 134.082031 -177.445312 140.25 -171.875 C 146.425781 -166.300781 151.09375 -159.222656 154.25 -150.640625 C 157.414062 -142.066406 159.523438 -133.109375 160.578125 -123.765625 C 161.640625 -114.429688 162.171875 -105.703125 162.171875 -97.578125 C 162.171875 -89.140625 161.640625 -80.476562 160.578125 -71.59375 C 159.523438 -62.707031 157.34375 -54.425781 154.03125 -46.75 C 150.71875 -39.070312 145.820312 -32.671875 139.34375 -27.546875 C 132.875 -22.429688 124.21875 -19.570312 113.375 -18.96875 Z M 113.375 -18.96875 "/></g></g></g><g fill="#ffe63f" fill-opacity="1"><g transform="translate(1366.574946, 384.838782)"><g><path d="M 35.6875 -176.625 L 13.09375 -176.625 L 13.09375 -197.859375 L 35.6875 -197.859375 L 35.6875 -252.96875 L 68.65625 -264.703125 L 68.65625 -197.859375 L 105.703125 -197.859375 L 105.703125 -176.625 L 68.65625 -176.625 L 68.65625 -47.875 C 68.65625 -34.925781 71.96875 -26.269531 78.59375 -21.90625 C 85.21875 -17.539062 94.253906 -15.054688 105.703125 -14.453125 L 105.703125 2.703125 C 83.722656 4.816406 66.554688 1.28125 54.203125 -7.90625 C 41.859375 -17.09375 35.6875 -30.117188 35.6875 -46.984375 Z M 35.6875 -176.625 "/></g></g></g></g></g></g></g></g></svg>