<svg xmlns="http://www.w3.org/2000/svg" xmlns:xlink="http://www.w3.org/1999/xlink" width="2000" zoomAndPan="magnify" viewBox="0 0 1500 1499.999933" height="2000" preserveAspectRatio="xMidYMid meet" version="1.0"><defs><g/><clipPath id="f04b7be6b5"><path d="M 488.964844 273.613281 L 1195.050781 273.613281 L 1195.050781 979.699219 L 488.964844 979.699219 Z M 488.964844 273.613281 " clip-rule="nonzero"/></clipPath><clipPath id="5e1ba24269"><path d="M 243.5 0.960938 L 1256.117188 0.960938 L 1256.117188 1013.578125 L 243.5 1013.578125 Z M 243.5 0.960938 " clip-rule="nonzero"/></clipPath><clipPath id="52b459d123"><path d="M 0 946 L 1492.800781 946 L 1492.800781 1470.558594 L 0 1470.558594 Z M 0 946 " clip-rule="nonzero"/></clipPath><clipPath id="5f98b13b83"><path d="M 0 104 L 94 104 L 94 519 L 0 519 Z M 0 104 " clip-rule="nonzero"/></clipPath><clipPath id="6465e10a07"><rect x="0" width="1493" y="0" height="525"/></clipPath><clipPath id="804fc05467"><rect x="0" width="1493" y="0" height="1471"/></clipPath></defs><g transform="matrix(1, 0, 0, 1, 0, 4)"><g clip-path="url(#804fc05467)"><path fill="#ff0000" d="M 1186.488281 632.695312 C 1182.722656 638.878906 1176.320312 642.527344 1170 646.058594 C 1172.671875 649.921875 1172.574219 655.109375 1171.382812 659.65625 C 1170.191406 664.207031 1168.027344 668.457031 1166.816406 673.003906 C 1165.605469 677.550781 1165.917969 683.5625 1168.554688 687.441406 C 1164.925781 687.59375 1161.878906 690.503906 1160.394531 693.84375 C 1158.929688 697.179688 1158.695312 700.882812 1158.386719 704.511719 C 1158.074219 708.144531 1157.585938 711.890625 1155.691406 714.992188 L 1155.773438 715.011719 C 1160.984375 717.078125 1166.40625 719.285156 1170.097656 723.515625 C 1171.171875 724.765625 1172.089844 726.171875 1172.652344 727.691406 C 1173.941406 731.203125 1173.414062 735.1875 1171.972656 738.617188 C 1170.527344 742.074219 1168.242188 745.09375 1166.003906 748.078125 C 1168.929688 750.988281 1173.726562 754.265625 1175.054688 758.183594 C 1175.890625 760.683594 1175.972656 763.378906 1176.34375 765.988281 C 1177.632812 775.238281 1182.546875 783.945312 1182.238281 793.289062 L 1182.238281 793.304688 C 1182.21875 794.261719 1181.515625 795.0625 1180.699219 795.550781 C 1179.878906 796.042969 1178.960938 796.3125 1178.125 796.742188 C 1175.214844 798.226562 1173.675781 801.523438 1173.066406 804.746094 C 1172.460938 807.964844 1172.558594 811.28125 1171.875 814.480469 C 1170.492188 820.992188 1165.5 826.285156 1161.164062 831.359375 C 1163.527344 834.324219 1165.921875 837.328125 1167.269531 840.863281 C 1168.613281 844.394531 1168.769531 848.589844 1166.761719 851.789062 C 1164.300781 855.710938 1158.390625 857.582031 1153.917969 858.753906 C 1157.21875 861.957031 1160.710938 865.488281 1161.371094 870.035156 C 1161.816406 873.199219 1160.84375 876.414062 1161.253906 879.574219 C 1161.605469 882.304688 1162.988281 884.824219 1164.765625 886.914062 C 1166.539062 889.003906 1168.703125 890.761719 1170.832031 892.496094 C 1166.96875 898.292969 1167.359375 906.585938 1169.175781 913.316406 C 1170.992188 920.046875 1174.207031 926.332031 1175.984375 933.082031 C 1178.269531 941.6875 1178.113281 950.917969 1175.578125 959.445312 C 1164.007812 962.191406 1150.601562 962.214844 1139.339844 958.371094 C 1134.171875 956.59375 1129.214844 954.15625 1123.867188 953.003906 C 1118.519531 951.851562 1112.082031 952.03125 1107.730469 955.324219 C 1105.738281 952.046875 1102.675781 949.429688 1099.125 948.007812 C 1095.007812 946.351562 1090.441406 946.292969 1086.054688 945.589844 C 1081.667969 944.890625 1076.785156 942.996094 1074.308594 939.304688 C 1073.253906 943.929688 1071.089844 948.300781 1068.023438 951.929688 C 1066.933594 953.21875 1065.605469 954.488281 1063.929688 954.742188 C 1062.664062 954.914062 1061.410156 954.488281 1060.222656 954.019531 C 1055.734375 952.265625 1051.304688 949.574219 1047.359375 946.800781 C 1045.019531 946.683594 1042.914062 948.203125 1041.292969 949.882812 C 1039.671875 951.558594 1038.265625 953.53125 1036.296875 954.777344 C 1031.242188 957.960938 1024.375 955.480469 1018.816406 957.644531 C 1014.25 959.421875 1010.386719 963.730469 1007.890625 967.949219 C 1006.289062 966.585938 1004.144531 966.113281 1002.058594 965.941406 C 999.96875 965.765625 997.863281 965.839844 995.816406 965.375 C 992.75 964.691406 990.058594 962.875 987.074219 961.917969 C 982.84375 960.554688 978.195312 960.964844 973.984375 959.578125 C 969.203125 958.015625 965.460938 954.3125 961.90625 950.738281 C 957.476562 954.058594 955.429688 954.796875 950.273438 956.84375 C 948.207031 957.664062 945.960938 958.382812 943.796875 957.863281 C 942.003906 957.414062 940.519531 956.164062 939.210938 954.859375 C 935.367188 951.035156 932.265625 946.117188 930.117188 941.121094 C 924.496094 944.007812 917.511719 941.867188 911.480469 943.777344 C 907.269531 945.125 903.503906 948.695312 902.039062 952.890625 C 898.992188 949.980469 894.136719 949.964844 890.113281 951.214844 C 886.09375 952.460938 882.464844 954.746094 878.445312 955.996094 C 873 957.671875 866.949219 957.324219 861.746094 955.003906 L 861.761719 953.875 C 859.789062 961.367188 854.425781 967.902344 847.460938 971.28125 C 845.492188 972.238281 843.304688 972.957031 841.160156 972.628906 C 839.347656 972.335938 837.722656 971.339844 836.242188 970.265625 C 830.792969 966.382812 826.152344 961.367188 822.679688 955.628906 C 816.492188 956.683594 810.191406 957.738281 804.433594 955.238281 C 801.488281 953.972656 798.929688 951.847656 795.929688 950.730469 C 791.207031 948.992188 785.546875 950.125 781.839844 953.523438 C 781.09375 949.910156 777.992188 946.90625 774.636719 945.40625 C 771.261719 943.90625 767.535156 943.496094 763.867188 943.105469 C 760.199219 942.714844 756.472656 942.285156 753.117188 940.742188 C 752.53125 946.109375 750.386719 950.226562 746.757812 954.222656 C 745.292969 955.84375 743.515625 957.324219 741.371094 957.660156 C 739.988281 957.875 738.5625 957.578125 737.214844 957.210938 C 732.296875 955.886719 727.636719 953.664062 723.515625 950.675781 C 716.804688 952.976562 712.820312 960 705.898438 961.542969 C 702.640625 962.261719 699.164062 961.621094 695.910156 962.34375 C 693.351562 962.90625 691.070312 964.253906 688.550781 965 C 684.121094 966.308594 679.089844 965.699219 675.125 968.0625 C 673.035156 963.324219 667.945312 959.457031 662.972656 958.03125 C 660.042969 957.195312 656.941406 957.132812 653.957031 956.492188 C 648.261719 955.28125 642.035156 950.890625 638.582031 946.210938 C 636.027344 948.574219 635.558594 949.023438 632.535156 950.777344 C 629.507812 952.535156 625.957031 953.570312 622.527344 953.058594 C 619.386719 952.59375 616.515625 950.796875 614.507812 948.359375 C 612.476562 945.917969 610.839844 941.863281 610.429688 938.71875 C 607.792969 942.929688 602.953125 945.527344 598.019531 946.03125 C 594.644531 946.386719 591.210938 945.839844 587.878906 946.460938 C 583.210938 947.339844 578.277344 951.320312 576.324219 955.628906 C 572.207031 952.585938 566.667969 952.195312 561.574219 952.902344 C 553.394531 954.03125 545.789062 957.601562 537.824219 959.730469 C 528.636719 962.1875 515.796875 962.25 508.535156 959.457031 C 505.980469 950.933594 505.84375 941.703125 508.125 933.097656 C 509.921875 926.367188 513.140625 920.0625 514.9375 913.332031 C 516.753906 906.601562 517.164062 898.304688 513.28125 892.511719 C 515.429688 890.773438 517.574219 889.039062 519.347656 886.929688 C 521.125 884.820312 522.511719 882.324219 522.859375 879.589844 C 523.269531 876.425781 522.277344 873.210938 522.742188 870.046875 C 523.40625 865.5 526.898438 861.96875 530.195312 858.769531 C 525.707031 857.617188 519.816406 855.722656 517.351562 851.804688 C 515.34375 848.601562 515.5 844.40625 516.84375 840.878906 C 518.191406 837.347656 520.589844 834.320312 522.949219 831.375 C 518.621094 826.300781 513.625 821.03125 512.234375 814.492188 C 511.554688 811.292969 511.671875 807.980469 511.046875 804.757812 C 510.4375 801.539062 508.898438 798.242188 505.988281 796.757812 C 505.152344 796.328125 504.214844 796.054688 503.414062 795.566406 C 502.597656 795.074219 501.894531 794.277344 501.875 793.320312 L 501.875 793.300781 C 501.546875 783.976562 506.460938 775.253906 507.769531 766.003906 C 508.140625 763.390625 508.214844 760.699219 509.058594 758.199219 C 510.386719 754.277344 515.164062 751.019531 518.109375 748.09375 C 515.847656 745.109375 513.582031 742.082031 512.140625 738.632812 C 510.703125 735.179688 510.152344 731.199219 511.460938 727.707031 C 512.023438 726.167969 512.941406 724.757812 514.015625 723.53125 C 517.683594 719.292969 523.128906 717.074219 528.339844 715.023438 L 528.417969 715.003906 C 526.527344 711.886719 526.058594 708.15625 525.726562 704.527344 C 525.417969 700.898438 525.179688 697.171875 523.71875 693.855469 C 522.253906 690.539062 519.207031 687.613281 515.558594 687.453125 C 518.195312 683.550781 518.507812 677.558594 517.296875 673.015625 C 516.085938 668.476562 513.921875 664.21875 512.730469 659.671875 C 511.539062 655.125 511.441406 649.9375 514.113281 646.074219 C 507.792969 642.542969 501.390625 638.894531 497.625 632.710938 C 496.199219 630.386719 495.222656 627.617188 495.714844 624.941406 C 496.085938 622.914062 497.253906 621.121094 498.523438 619.476562 C 500.589844 616.804688 502.972656 614.382812 505.628906 612.273438 C 507.402344 610.871094 509.3125 609.5625 510.71875 607.789062 C 512.125 606.015625 512.964844 603.59375 512.203125 601.449219 C 511.792969 597.875 511.910156 593.582031 513.042969 590.152344 C 514.308594 586.304688 517.136719 583.109375 518.289062 579.226562 C 519.617188 574.796875 518.601562 569.566406 515.558594 566.09375 C 517.6875 565.191406 519.890625 564.238281 521.414062 562.5 C 522.78125 560.9375 523.464844 558.910156 523.992188 556.898438 C 525.472656 551.277344 525.980469 545.445312 526.488281 539.671875 C 526.546875 539.105469 526.589844 538.480469 526.273438 537.996094 C 525.980469 537.503906 524.109375 537.019531 523.753906 537.46875 C 517.351562 535.929688 512.105469 530.363281 510.9375 523.867188 C 509.765625 517.371094 512.773438 510.34375 518.253906 506.675781 C 513.46875 503.675781 510.113281 498.402344 508.398438 493.015625 C 506.6875 487.632812 506.136719 481.953125 505.277344 476.371094 C 504.421875 470.789062 503.171875 465.132812 500.265625 460.292969 C 504.8125 456.878906 509.707031 453.578125 511.210938 448.332031 C 512.320312 444.507812 512.066406 440.390625 512.984375 436.507812 C 514.230469 431.140625 517.765625 426.363281 522.507812 423.589844 C 520.167969 420.625 517.863281 416.777344 516.695312 413.191406 C 515.523438 409.601562 515.503906 405.484375 517.457031 402.246094 C 519.914062 398.128906 525.398438 396.023438 530.082031 394.933594 L 530.273438 394.933594 C 527.953125 393.214844 528.046875 393.332031 526.371094 390.992188 C 524.34375 388.144531 523.464844 384.613281 522.9375 381.140625 C 522.410156 377.664062 522.171875 374.136719 521.199219 370.761719 C 521.277344 368.359375 519.988281 365.511719 517.980469 364.203125 C 516.652344 363.347656 514.914062 362.800781 514.269531 361.355469 C 513.859375 360.417969 514.054688 359.308594 514.582031 358.445312 C 515.109375 357.589844 516.0625 356.789062 516.960938 356.300781 C 516.671875 346.679688 512.75 337.589844 510.269531 328.28125 C 507.203125 316.867188 506.265625 304.90625 507.519531 293.160156 C 514.796875 290.371094 528.691406 291.050781 537.882812 293.515625 C 545.839844 295.640625 553.453125 299.210938 561.628906 300.34375 C 566.703125 301.046875 572.246094 300.65625 576.382812 297.613281 C 578.335938 301.945312 583.269531 305.925781 587.933594 306.785156 C 591.269531 307.410156 594.703125 306.863281 598.078125 307.210938 C 603.035156 307.722656 607.855469 310.316406 610.484375 314.527344 C 610.914062 311.386719 612.550781 307.347656 614.5625 304.886719 C 616.589844 302.449219 619.457031 300.675781 622.582031 300.183594 C 626.039062 299.65625 629.570312 300.710938 632.589844 302.46875 C 635.617188 304.203125 636.082031 304.652344 638.640625 307.035156 C 642.113281 302.351562 648.316406 297.957031 654.015625 296.75 C 657 296.121094 660.101562 296.046875 663.027344 295.210938 C 668.023438 293.78125 673.097656 289.941406 675.183594 285.179688 C 679.164062 287.542969 684.179688 286.914062 688.605469 288.242188 C 691.105469 288.984375 693.410156 290.332031 695.964844 290.898438 C 699.242188 291.617188 702.695312 290.976562 705.953125 291.699219 C 712.882812 293.238281 716.859375 300.285156 723.574219 302.566406 C 727.691406 299.582031 732.351562 297.335938 737.269531 296.027344 C 738.636719 295.65625 740.042969 295.363281 741.425781 295.582031 C 743.574219 295.910156 745.367188 297.398438 746.8125 299.015625 C 750.421875 303.019531 752.589844 307.132812 753.171875 312.5 C 756.527344 310.960938 760.257812 310.527344 763.921875 310.136719 C 767.589844 309.746094 771.316406 309.335938 774.695312 307.832031 C 778.070312 306.332031 781.152344 303.324219 781.894531 299.71875 C 785.605469 303.132812 791.261719 304.246094 795.984375 302.511719 C 799.007812 301.398438 801.542969 299.273438 804.492188 298 C 810.246094 295.523438 816.550781 296.574219 822.734375 297.609375 C 826.210938 291.871094 830.851562 286.878906 836.296875 282.976562 C 837.796875 281.902344 839.398438 280.910156 841.214844 280.613281 C 843.382812 280.28125 845.566406 281.003906 847.519531 281.957031 C 854.484375 285.332031 859.851562 291.871094 861.820312 299.367188 L 861.800781 298.234375 C 867.011719 295.914062 873.0625 295.5625 878.503906 297.242188 C 882.523438 298.488281 886.152344 300.773438 890.171875 302.023438 C 894.191406 303.273438 899.03125 303.234375 902.09375 300.347656 C 903.539062 304.523438 907.304688 308.117188 911.539062 309.460938 C 917.566406 311.375 924.554688 309.226562 930.171875 312.117188 C 932.320312 307.125 935.421875 302.222656 939.269531 298.382812 C 940.578125 297.074219 942.058594 295.824219 943.851562 295.378906 C 946.019531 294.851562 948.261719 295.570312 950.332031 296.394531 C 955.460938 298.441406 957.53125 299.1875 961.960938 302.5 C 965.511719 298.929688 969.238281 295.242188 974.039062 293.660156 C 978.253906 292.277344 982.917969 292.6875 987.132812 291.320312 C 990.117188 290.367188 992.808594 288.546875 995.871094 287.867188 C 997.921875 287.417969 1000.027344 287.492188 1002.113281 287.300781 C 1004.203125 287.125 1006.351562 286.636719 1007.945312 285.289062 C 1010.445312 289.503906 1014.289062 293.839844 1018.871094 295.59375 C 1024.457031 297.742188 1031.324219 295.265625 1036.355469 298.460938 C 1038.347656 299.710938 1039.730469 301.679688 1041.347656 303.355469 C 1042.96875 305.03125 1045.078125 306.558594 1047.417969 306.441406 C 1051.355469 303.691406 1055.804688 300.996094 1060.277344 299.21875 C 1061.46875 298.753906 1062.714844 298.320312 1063.988281 298.5 C 1065.664062 298.734375 1066.988281 300 1068.082031 301.308594 C 1071.144531 304.9375 1073.3125 309.3125 1074.367188 313.933594 C 1076.84375 310.25 1081.722656 308.351562 1086.109375 307.648438 C 1090.503906 306.949219 1095.042969 306.886719 1099.183594 305.230469 C 1102.730469 303.804688 1105.796875 301.191406 1107.789062 297.914062 C 1112.136719 301.234375 1118.578125 301.410156 1123.925781 300.238281 C 1129.269531 299.082031 1134.226562 296.625 1139.398438 294.871094 C 1150.65625 291.023438 1165.113281 290.402344 1176.707031 293.152344 C 1177.953125 304.898438 1177.015625 316.859375 1173.957031 328.273438 C 1171.457031 337.578125 1167.535156 346.65625 1167.261719 356.289062 C 1168.164062 356.757812 1169.097656 357.554688 1169.644531 358.4375 C 1170.191406 359.316406 1170.367188 360.429688 1169.957031 361.347656 C 1169.3125 362.808594 1167.574219 363.335938 1166.246094 364.195312 C 1164.238281 365.503906 1162.945312 368.351562 1163.027344 370.75 C 1162.070312 374.125 1161.835938 377.65625 1161.289062 381.128906 C 1160.742188 384.605469 1159.886719 388.117188 1157.855469 390.984375 C 1156.179688 393.320312 1156.273438 393.210938 1153.953125 394.921875 L 1154.144531 394.921875 C 1158.828125 396.015625 1164.289062 398.125 1166.769531 402.238281 C 1168.699219 405.476562 1168.699219 409.59375 1167.53125 413.183594 C 1166.359375 416.773438 1164.058594 420.613281 1161.71875 423.582031 C 1166.457031 426.351562 1169.992188 431.148438 1171.242188 436.496094 C 1172.140625 440.378906 1171.90625 444.476562 1173.015625 448.320312 C 1174.535156 453.550781 1179.417969 456.871094 1183.960938 460.28125 C 1181.03125 465.121094 1179.804688 470.78125 1178.945312 476.363281 C 1178.089844 481.945312 1177.542969 487.621094 1175.824219 493.007812 C 1174.109375 498.394531 1170.769531 503.660156 1165.972656 506.667969 C 1171.457031 510.335938 1174.441406 517.382812 1173.289062 523.859375 C 1172.136719 530.335938 1166.886719 535.917969 1160.472656 537.457031 C 1160.117188 537.011719 1158.246094 537.496094 1157.953125 537.984375 C 1157.660156 538.476562 1157.699219 539.078125 1157.734375 539.660156 C 1158.246094 545.457031 1158.773438 551.269531 1160.234375 556.890625 C 1160.761719 558.898438 1161.445312 560.929688 1162.808594 562.492188 C 1164.332031 564.226562 1166.539062 565.183594 1168.667969 566.082031 C 1165.621094 569.558594 1164.609375 574.785156 1165.9375 579.214844 C 1167.089844 583.097656 1169.917969 586.300781 1171.183594 590.140625 C 1172.3125 593.554688 1172.433594 597.847656 1172.023438 601.4375 C 1171.261719 603.566406 1172.101562 606.003906 1173.503906 607.78125 C 1174.90625 609.554688 1176.824219 610.84375 1178.597656 612.265625 C 1181.234375 614.375 1183.628906 616.792969 1185.703125 619.46875 C 1186.96875 621.105469 1188.140625 622.902344 1188.511719 624.933594 C 1188.90625 627.601562 1187.914062 630.351562 1186.488281 632.695312 Z M 1186.488281 632.695312 " fill-opacity="1" fill-rule="nonzero"/><g clip-path="url(#f04b7be6b5)"><path fill="#000000" d="M 488.964844 273.613281 L 1195.050781 273.613281 L 1195.050781 979.699219 L 488.964844 979.699219 Z M 488.964844 273.613281 " fill-opacity="1" fill-rule="nonzero"/></g><g clip-path="url(#5e1ba24269)"><path fill="#ffe63f" d="M 1019.863281 934.539062 C 931.488281 934.539062 874.335938 892.398438 846.476562 837.292969 L 923.972656 792.394531 C 944.394531 825.742188 970.871094 850.195312 1017.816406 850.195312 C 1057.222656 850.195312 1082.382812 830.484375 1082.382812 803.273438 C 1082.382812 762.371094 1027.78125 746.34375 989.25 729.851562 C 920.566406 700.617188 874.984375 663.886719 874.984375 586.351562 C 874.984375 514.976562 929.378906 460.597656 1014.433594 460.597656 C 1074.90625 460.597656 1118.464844 481.667969 1149.707031 536.714844 L 1075.597656 584.324219 C 1059.289062 555.089844 1041.621094 543.542969 1014.410156 543.542969 C 986.511719 543.542969 968.828125 561.230469 968.828125 584.324219 C 968.828125 612.890625 986.492188 624.4375 1027.316406 642.125 C 1112.855469 678.777344 1177.585938 707.605469 1177.585938 801.917969 C 1177.625 887.636719 1110.320312 934.539062 1019.863281 934.539062 Z M 800.648438 791.058594 C 800.648438 889.664062 739.910156 941.792969 655.585938 941.792969 C 579.410156 941.792969 533.785156 912.660156 511.335938 862.011719 L 510.019531 862.011719 L 587.453125 807.875 C 602.40625 834.355469 615.878906 853.15625 648.496094 853.15625 C 679.796875 853.15625 699.347656 837.3125 699.347656 789.742188 L 699.347656 456.8125 L 800.648438 456.8125 Z M 243.5 1013.960938 L 1256.496094 1013.960938 L 1256.496094 0.960938 L 243.5 0.960938 Z M 243.5 1013.960938 " fill-opacity="1" fill-rule="evenodd"/></g><g clip-path="url(#52b459d123)"><g transform="matrix(1, 0, 0, 1, 0, 946)"><g clip-path="url(#6465e10a07)"><g clip-path="url(#5f98b13b83)"><g fill="#ffe63f" fill-opacity="1"><g transform="translate(-12.350469, 400.620607)"><g><path d="M 101.15625 -208.796875 L 67.28125 -196.734375 L 66.8125 19.03125 C 66.8125 28 66.113281 37.195312 64.71875 46.625 C 63.332031 56.0625 60.472656 64.644531 56.140625 72.375 C 51.804688 80.113281 45.15625 85.992188 36.1875 90.015625 C 27.21875 94.035156 15 94.960938 -0.46875 92.796875 C -2.9375 92.179688 -5.796875 91.332031 -9.046875 90.25 C -12.296875 89.164062 -15.003906 88.160156 -17.171875 87.234375 L -24.59375 109.5 C -18.09375 112.289062 -12.210938 114.378906 -6.953125 115.765625 C -1.703125 117.160156 4.632812 117.859375 12.0625 117.859375 C 39.28125 117.859375 60.929688 109.8125 77.015625 93.71875 C 93.109375 77.632812 101.15625 52.269531 101.15625 17.625 Z M 62.171875 -273.765625 L 62.171875 -274.21875 C 62.171875 -280.40625 64.335938 -285.585938 68.671875 -289.765625 C 73.003906 -293.941406 78.265625 -296.03125 84.453125 -296.03125 C 90.640625 -296.03125 95.816406 -293.863281 99.984375 -289.53125 C 104.160156 -285.207031 106.25 -279.953125 106.25 -273.765625 C 106.25 -267.878906 104.082031 -262.769531 99.75 -258.4375 C 95.425781 -254.113281 90.171875 -251.953125 83.984375 -251.953125 C 78.109375 -251.953125 73.003906 -254.113281 68.671875 -258.4375 C 64.335938 -262.769531 62.171875 -267.878906 62.171875 -273.765625 Z M 62.171875 -273.765625 "/></g></g></g></g><g fill="#ffe63f" fill-opacity="1"><g transform="translate(100.399815, 400.620607)"><g><path d="M 175.859375 -31.09375 C 166.265625 -21.5 153.65625 -13.222656 138.03125 -6.265625 C 122.414062 0.691406 104.554688 4.019531 84.453125 3.71875 C 72.390625 3.40625 61.253906 0.234375 51.046875 -5.796875 C 40.835938 -11.828125 32.789062 -19.867188 26.90625 -29.921875 C 21.03125 -39.984375 18.25 -51.195312 18.5625 -63.5625 C 18.875 -83.363281 25.753906 -98.910156 39.203125 -110.203125 C 52.660156 -121.492188 69.132812 -126.984375 88.625 -126.671875 C 99.757812 -126.671875 109.425781 -126.671875 117.625 -126.671875 C 125.820312 -126.671875 134.5625 -126.671875 143.84375 -126.671875 L 143.84375 -146.625 C 143.84375 -158.375 139.351562 -167.804688 130.375 -174.921875 C 121.40625 -182.035156 111.203125 -185.59375 99.765625 -185.59375 C 89.554688 -185.59375 80.351562 -184.351562 72.15625 -181.875 C 63.957031 -179.40625 55.375 -175.851562 46.40625 -171.21875 L 38.046875 -190.703125 C 50.109375 -197.203125 61.398438 -201.765625 71.921875 -204.390625 C 82.441406 -207.023438 94.660156 -208.34375 108.578125 -208.34375 C 120.023438 -208.34375 130.851562 -205.941406 141.0625 -201.140625 C 151.269531 -196.347656 159.617188 -189.539062 166.109375 -180.71875 C 172.609375 -171.90625 175.859375 -161.160156 175.859375 -148.484375 Z M 142.90625 -35.734375 L 142.90625 -105.328125 C 137.65625 -105.328125 131.003906 -105.328125 122.953125 -105.328125 C 114.910156 -105.328125 106.71875 -105.171875 98.375 -104.859375 C 85.375 -104.859375 74.539062 -101.300781 65.875 -94.1875 C 57.21875 -87.070312 52.890625 -77.175781 52.890625 -64.5 C 52.890625 -53.050781 57.296875 -42.609375 66.109375 -33.171875 C 74.929688 -23.742188 85.992188 -19.03125 99.296875 -19.03125 C 109.191406 -18.71875 118.160156 -20.648438 126.203125 -24.828125 C 134.242188 -29.003906 139.8125 -32.640625 142.90625 -35.734375 Z M 142.90625 -35.734375 "/></g></g></g><g fill="#ffe63f" fill-opacity="1"><g transform="translate(279.501337, 400.620607)"><g><path d="M 123.890625 -4.640625 L 93.734375 5.109375 L 9.75 -199.0625 L 40.828125 -212.046875 L 111.828125 -41.296875 L 176.3125 -209.265625 L 197.203125 -199.0625 Z M 123.890625 -4.640625 "/></g></g></g><g fill="#ffe63f" fill-opacity="1"><g transform="translate(465.562731, 400.620607)"><g><path d="M 175.859375 -31.09375 C 166.265625 -21.5 153.65625 -13.222656 138.03125 -6.265625 C 122.414062 0.691406 104.554688 4.019531 84.453125 3.71875 C 72.390625 3.40625 61.253906 0.234375 51.046875 -5.796875 C 40.835938 -11.828125 32.789062 -19.867188 26.90625 -29.921875 C 21.03125 -39.984375 18.25 -51.195312 18.5625 -63.5625 C 18.875 -83.363281 25.753906 -98.910156 39.203125 -110.203125 C 52.660156 -121.492188 69.132812 -126.984375 88.625 -126.671875 C 99.757812 -126.671875 109.425781 -126.671875 117.625 -126.671875 C 125.820312 -126.671875 134.5625 -126.671875 143.84375 -126.671875 L 143.84375 -146.625 C 143.84375 -158.375 139.351562 -167.804688 130.375 -174.921875 C 121.40625 -182.035156 111.203125 -185.59375 99.765625 -185.59375 C 89.554688 -185.59375 80.351562 -184.351562 72.15625 -181.875 C 63.957031 -179.40625 55.375 -175.851562 46.40625 -171.21875 L 38.046875 -190.703125 C 50.109375 -197.203125 61.398438 -201.765625 71.921875 -204.390625 C 82.441406 -207.023438 94.660156 -208.34375 108.578125 -208.34375 C 120.023438 -208.34375 130.851562 -205.941406 141.0625 -201.140625 C 151.269531 -196.347656 159.617188 -189.539062 166.109375 -180.71875 C 172.609375 -171.90625 175.859375 -161.160156 175.859375 -148.484375 Z M 142.90625 -35.734375 L 142.90625 -105.328125 C 137.65625 -105.328125 131.003906 -105.328125 122.953125 -105.328125 C 114.910156 -105.328125 106.71875 -105.171875 98.375 -104.859375 C 85.375 -104.859375 74.539062 -101.300781 65.875 -94.1875 C 57.21875 -87.070312 52.890625 -77.175781 52.890625 -64.5 C 52.890625 -53.050781 57.296875 -42.609375 66.109375 -33.171875 C 74.929688 -23.742188 85.992188 -19.03125 99.296875 -19.03125 C 109.191406 -18.71875 118.160156 -20.648438 126.203125 -24.828125 C 134.242188 -29.003906 139.8125 -32.640625 142.90625 -35.734375 Z M 142.90625 -35.734375 "/></g></g></g><g fill="#ffe63f" fill-opacity="1"><g transform="translate(644.664216, 400.620607)"><g><path d="M 80.265625 5.5625 C 68.515625 5.5625 56.992188 3.476562 45.703125 -0.6875 C 34.410156 -4.863281 24.28125 -10.359375 15.3125 -17.171875 L 27.375 -36.65625 C 34.488281 -31.394531 42.765625 -27.140625 52.203125 -23.890625 C 61.640625 -20.648438 70.84375 -18.875 79.8125 -18.5625 C 87.226562 -18.5625 94.648438 -19.796875 102.078125 -22.265625 C 109.503906 -24.742188 115.691406 -28.613281 120.640625 -33.875 C 125.585938 -39.132812 127.90625 -45.9375 127.59375 -54.28125 C 127.289062 -64.1875 123.503906 -71.222656 116.234375 -75.390625 C 108.960938 -79.566406 101.460938 -83.203125 93.734375 -86.296875 C 90.640625 -87.535156 87.546875 -88.773438 84.453125 -90.015625 C 81.359375 -91.253906 78.109375 -92.335938 74.703125 -93.265625 C 68.515625 -95.734375 62.25 -98.28125 55.90625 -100.90625 C 49.570312 -103.539062 43.773438 -106.867188 38.515625 -110.890625 C 32.941406 -114.910156 28.300781 -119.9375 24.59375 -125.96875 C 20.882812 -132.007812 19.03125 -139.820312 19.03125 -149.40625 C 19.03125 -162.394531 22.429688 -173.375 29.234375 -182.34375 C 36.035156 -191.320312 44.847656 -198.128906 55.671875 -202.765625 C 66.503906 -207.410156 77.953125 -209.734375 90.015625 -209.734375 C 100.535156 -209.734375 110.664062 -208.1875 120.40625 -205.09375 C 130.15625 -202 139.664062 -197.820312 148.9375 -192.5625 L 136.421875 -172.609375 C 121.566406 -180.960938 106.71875 -185.445312 91.875 -186.0625 C 82.28125 -186.0625 73.078125 -183.429688 64.265625 -178.171875 C 55.453125 -172.910156 50.890625 -164.867188 50.578125 -154.046875 C 50.578125 -148.171875 52.195312 -143.53125 55.4375 -140.125 C 58.6875 -136.726562 62.941406 -133.789062 68.203125 -131.3125 C 73.460938 -129.144531 79.335938 -126.671875 85.828125 -123.890625 C 92.328125 -121.109375 98.828125 -118.476562 105.328125 -116 C 111.515625 -113.519531 117.773438 -110.96875 124.109375 -108.34375 C 130.453125 -105.71875 136.253906 -102.238281 141.515625 -97.90625 C 147.085938 -93.570312 151.726562 -88.234375 155.4375 -81.890625 C 159.15625 -75.554688 161.015625 -67.75 161.015625 -58.46875 C 161.015625 -43.925781 156.988281 -31.9375 148.9375 -22.5 C 140.894531 -13.070312 130.6875 -6.035156 118.3125 -1.390625 C 105.945312 3.242188 93.265625 5.5625 80.265625 5.5625 Z M 80.265625 5.5625 "/></g></g></g><g fill="#ffe63f" fill-opacity="1"><g transform="translate(797.31804, 400.620607)"><g><path d="M 101.609375 4.171875 C 84.285156 3.867188 69.4375 -1.304688 57.0625 -11.359375 C 44.695312 -21.421875 35.265625 -34.335938 28.765625 -50.109375 C 22.273438 -65.890625 19.03125 -82.285156 19.03125 -99.296875 C 19.03125 -118.472656 22.816406 -136.722656 30.390625 -154.046875 C 37.972656 -171.367188 48.878906 -184.828125 63.109375 -194.421875 C 72.691406 -200.910156 83.4375 -205.082031 95.34375 -206.9375 C 107.257812 -208.800781 119.476562 -208.570312 132 -206.25 C 144.53125 -203.925781 156.054688 -199.363281 166.578125 -192.5625 L 156.828125 -174.46875 C 150.023438 -177.863281 142.210938 -180.722656 133.390625 -183.046875 C 124.578125 -185.367188 116.148438 -186.21875 108.109375 -185.59375 C 96.046875 -184.976562 85.914062 -180.1875 77.71875 -171.21875 C 69.519531 -162.25 63.410156 -151.265625 59.390625 -138.265625 C 55.367188 -125.273438 53.359375 -112.285156 53.359375 -99.296875 C 53.359375 -87.234375 55.523438 -75.015625 59.859375 -62.640625 C 64.191406 -50.265625 70.6875 -39.898438 79.34375 -31.546875 C 88.007812 -23.203125 98.679688 -18.875 111.359375 -18.5625 C 122.179688 -18.25 131.921875 -19.789062 140.578125 -23.1875 C 149.242188 -26.59375 158.21875 -30.460938 167.5 -34.796875 L 176.3125 -17.171875 C 166.414062 -10.671875 155.203125 -5.488281 142.671875 -1.625 C 130.148438 2.238281 116.460938 4.171875 101.609375 4.171875 Z M 101.609375 4.171875 "/></g></g></g><g fill="#ffe63f" fill-opacity="1"><g transform="translate(962.035681, 400.620607)"><g><path d="M 112.28125 -182.8125 L 111.828125 -182.8125 C 100.691406 -182.8125 91.175781 -181.03125 83.28125 -177.46875 C 75.394531 -173.914062 68.359375 -169.507812 62.171875 -164.25 L 62.171875 0 L 28.296875 0 L 28.296875 -168.890625 C 41.296875 -183.429688 57.382812 -193.953125 76.5625 -200.453125 C 86.769531 -204.160156 97.128906 -206.863281 107.640625 -208.5625 C 118.160156 -210.269531 130.535156 -209.882812 144.765625 -207.40625 C 142.597656 -203.382812 140.273438 -198.898438 137.796875 -193.953125 C 135.328125 -189.003906 133.164062 -184.363281 131.3125 -180.03125 C 128.21875 -180.644531 124.890625 -181.257812 121.328125 -181.875 C 117.773438 -182.5 114.757812 -182.8125 112.28125 -182.8125 Z M 112.28125 -182.8125 "/></g></g></g><g fill="#ffe63f" fill-opacity="1"><g transform="translate(1091.489772, 400.620607)"><g><path d="M 37.125 0 L 37.125 -197.203125 L 70.53125 -208.34375 L 70.53125 0 Z M 31.546875 -273.765625 L 31.546875 -274.21875 C 31.546875 -280.40625 33.710938 -285.585938 38.046875 -289.765625 C 42.378906 -293.941406 47.640625 -296.03125 53.828125 -296.03125 C 60.015625 -296.03125 65.191406 -293.863281 69.359375 -289.53125 C 73.535156 -285.207031 75.625 -279.953125 75.625 -273.765625 C 75.625 -267.878906 73.457031 -262.769531 69.125 -258.4375 C 64.800781 -254.113281 59.546875 -251.953125 53.359375 -251.953125 C 47.484375 -251.953125 42.378906 -254.113281 38.046875 -258.4375 C 33.710938 -262.769531 31.546875 -267.878906 31.546875 -273.765625 Z M 31.546875 -273.765625 "/></g></g></g><g fill="#ffe63f" fill-opacity="1"><g transform="translate(1173.152424, 400.620607)"><g><path d="M 124.8125 -207.875 L 124.359375 -208.34375 C 107.335938 -208.03125 92.71875 -206.09375 80.5 -202.53125 C 68.28125 -198.976562 58.457031 -194.878906 51.03125 -190.234375 C 43.613281 -185.597656 38.203125 -181.5 34.796875 -177.9375 C 31.398438 -174.382812 29.703125 -172.609375 29.703125 -172.609375 L 29.234375 94.1875 L 62.640625 106.25 L 62.640625 -13.921875 C 72.234375 -8.046875 81.976562 -3.484375 91.875 -0.234375 C 101.769531 3.015625 112.441406 4.640625 123.890625 4.640625 C 142.453125 4.023438 157.765625 -1.148438 169.828125 -10.890625 C 181.890625 -20.640625 190.859375 -33.25 196.734375 -48.71875 C 202.609375 -64.1875 205.546875 -80.582031 205.546875 -97.90625 C 205.546875 -117.695312 202.609375 -135.945312 196.734375 -152.65625 C 190.859375 -169.363281 182.039062 -182.820312 170.28125 -193.03125 C 158.53125 -203.238281 143.375 -208.1875 124.8125 -207.875 Z M 116.46875 -19.484375 C 105.945312 -18.867188 95.660156 -20.800781 85.609375 -25.28125 C 75.554688 -29.769531 67.742188 -33.71875 62.171875 -37.125 L 62.171875 -169.359375 C 63.722656 -170.910156 67.125 -173.078125 72.375 -175.859375 C 77.632812 -178.640625 84.285156 -181.113281 92.328125 -183.28125 C 100.378906 -185.445312 109.195312 -186.21875 118.78125 -185.59375 C 129.300781 -185.289062 137.726562 -182.273438 144.0625 -176.546875 C 150.40625 -170.828125 155.203125 -163.554688 158.453125 -154.734375 C 161.703125 -145.921875 163.867188 -136.71875 164.953125 -127.125 C 166.035156 -117.539062 166.578125 -108.570312 166.578125 -100.21875 C 166.578125 -91.5625 166.035156 -82.671875 164.953125 -73.546875 C 163.867188 -64.421875 161.625 -55.910156 158.21875 -48.015625 C 154.820312 -40.128906 149.796875 -33.554688 143.140625 -28.296875 C 136.492188 -23.046875 127.601562 -20.109375 116.46875 -19.484375 Z M 116.46875 -19.484375 "/></g></g></g><g fill="#ffe63f" fill-opacity="1"><g transform="translate(1383.341466, 400.620607)"><g><path d="M 36.65625 -181.421875 L 13.453125 -181.421875 L 13.453125 -203.234375 L 36.65625 -203.234375 L 36.65625 -259.84375 L 70.53125 -271.90625 L 70.53125 -203.234375 L 108.578125 -203.234375 L 108.578125 -181.421875 L 70.53125 -181.421875 L 70.53125 -49.1875 C 70.53125 -35.882812 73.929688 -26.988281 80.734375 -22.5 C 87.535156 -18.019531 96.816406 -15.46875 108.578125 -14.84375 L 108.578125 2.78125 C 85.992188 4.945312 68.359375 1.316406 55.671875 -8.109375 C 42.992188 -17.546875 36.65625 -30.925781 36.65625 -48.25 Z M 36.65625 -181.421875 "/></g></g></g></g></g></g></g></g></svg>