<svg xmlns="http://www.w3.org/2000/svg" xmlns:xlink="http://www.w3.org/1999/xlink" width="2000" zoomAndPan="magnify" viewBox="0 0 1500 1499.999933" height="2000" preserveAspectRatio="xMidYMid meet" version="1.0"><defs><g/><clipPath id="9971fcd9ad"><path d="M 488.964844 277.613281 L 1225.550781 277.613281 L 1225.550781 1014.199219 L 488.964844 1014.199219 Z M 488.964844 277.613281 " clip-rule="nonzero"/></clipPath><clipPath id="72555503d0"><path d="M 226.828125 0.460938 L 1272.996094 0.460938 L 1272.996094 1046.628906 L 226.828125 1046.628906 Z M 226.828125 0.460938 " clip-rule="nonzero"/></clipPath><clipPath id="87a3491ede"><path d="M 0 959 L 1492.800781 959 L 1492.800781 1483.441406 L 0 1483.441406 Z M 0 959 " clip-rule="nonzero"/></clipPath><clipPath id="c33c1656f3"><path d="M 0 104 L 94 104 L 94 519 L 0 519 Z M 0 104 " clip-rule="nonzero"/></clipPath><clipPath id="de6bafd3b9"><rect x="0" width="1493" y="0" height="525"/></clipPath><clipPath id="e8577d6570"><rect x="0" width="1493" y="0" height="1484"/></clipPath></defs><g transform="matrix(1, 0, 0, 1, 0, 0.000000000000112854)"><g clip-path="url(#e8577d6570)"><path fill="#ff0000" d="M 1216.617188 652.207031 C 1212.691406 658.660156 1206.011719 662.464844 1199.417969 666.148438 C 1202.207031 670.179688 1202.101562 675.589844 1200.859375 680.332031 C 1199.617188 685.078125 1197.359375 689.511719 1196.097656 694.253906 C 1194.835938 699 1195.160156 705.269531 1197.910156 709.316406 C 1194.121094 709.476562 1190.945312 712.511719 1189.398438 715.996094 C 1187.871094 719.476562 1187.625 723.339844 1187.300781 727.125 C 1186.976562 730.914062 1186.46875 734.820312 1184.492188 738.058594 L 1184.578125 738.078125 C 1190.011719 740.234375 1195.667969 742.535156 1199.519531 746.949219 C 1200.640625 748.253906 1201.597656 749.71875 1202.1875 751.304688 C 1203.53125 754.96875 1202.980469 759.125 1201.472656 762.703125 C 1199.964844 766.308594 1197.585938 769.460938 1195.246094 772.574219 C 1198.300781 775.609375 1203.304688 779.027344 1204.691406 783.117188 C 1205.566406 785.726562 1205.648438 788.535156 1206.035156 791.257812 C 1207.382812 800.90625 1212.507812 809.988281 1212.183594 819.734375 L 1212.183594 819.753906 C 1212.164062 820.75 1211.433594 821.585938 1210.578125 822.097656 C 1209.722656 822.609375 1208.765625 822.894531 1207.890625 823.339844 C 1204.859375 824.886719 1203.25 828.328125 1202.617188 831.6875 C 1201.984375 835.046875 1202.089844 838.507812 1201.375 841.84375 C 1199.933594 848.640625 1194.722656 854.160156 1190.199219 859.453125 C 1192.664062 862.546875 1195.164062 865.679688 1196.570312 869.367188 C 1197.972656 873.050781 1198.136719 877.425781 1196.039062 880.765625 C 1193.476562 884.855469 1187.308594 886.808594 1182.640625 888.03125 C 1186.085938 891.371094 1189.726562 895.054688 1190.414062 899.796875 C 1190.882812 903.097656 1189.867188 906.453125 1190.292969 909.75 C 1190.660156 912.597656 1192.105469 915.226562 1193.957031 917.40625 C 1195.808594 919.585938 1198.066406 921.417969 1200.285156 923.230469 C 1196.253906 929.277344 1196.660156 937.929688 1198.558594 944.949219 C 1200.453125 951.972656 1203.804688 958.527344 1205.664062 965.570312 C 1208.042969 974.546875 1207.882812 984.175781 1205.234375 993.070312 C 1193.164062 995.9375 1179.179688 995.960938 1167.433594 991.949219 C 1162.042969 990.097656 1156.871094 987.554688 1151.292969 986.351562 C 1145.714844 985.148438 1138.996094 985.335938 1134.460938 988.773438 C 1132.382812 985.355469 1129.183594 982.625 1125.484375 981.140625 C 1121.1875 979.414062 1116.421875 979.347656 1111.847656 978.617188 C 1107.269531 977.886719 1102.175781 975.910156 1099.59375 972.0625 C 1098.496094 976.882812 1096.234375 981.445312 1093.039062 985.230469 C 1091.898438 986.578125 1090.515625 987.898438 1088.765625 988.164062 C 1087.445312 988.34375 1086.140625 987.898438 1084.898438 987.410156 C 1080.21875 985.582031 1075.597656 982.769531 1071.480469 979.878906 C 1069.039062 979.757812 1066.839844 981.34375 1065.152344 983.09375 C 1063.460938 984.84375 1061.992188 986.902344 1059.941406 988.203125 C 1054.667969 991.523438 1047.503906 988.933594 1041.703125 991.191406 C 1036.941406 993.042969 1032.910156 997.542969 1030.304688 1001.941406 C 1028.636719 1000.519531 1026.398438 1000.027344 1024.222656 999.84375 C 1022.042969 999.664062 1019.847656 999.742188 1017.710938 999.257812 C 1014.511719 998.542969 1011.703125 996.648438 1008.589844 995.652344 C 1004.175781 994.226562 999.332031 994.65625 994.933594 993.210938 C 989.945312 991.582031 986.042969 987.714844 982.335938 983.988281 C 977.714844 987.453125 975.578125 988.222656 970.199219 990.359375 C 968.042969 991.210938 965.703125 991.964844 963.445312 991.417969 C 961.574219 990.953125 960.027344 989.644531 958.660156 988.285156 C 954.648438 984.296875 951.414062 979.167969 949.171875 973.957031 C 943.308594 976.96875 936.023438 974.734375 929.734375 976.726562 C 925.335938 978.132812 921.410156 981.859375 919.882812 986.234375 C 916.703125 983.199219 911.636719 983.179688 907.441406 984.484375 C 903.25 985.785156 899.464844 988.167969 895.269531 989.472656 C 889.589844 991.222656 883.277344 990.859375 877.847656 988.4375 L 877.867188 987.257812 C 875.808594 995.078125 870.210938 1001.894531 862.949219 1005.417969 C 860.890625 1006.414062 858.613281 1007.167969 856.375 1006.824219 C 854.484375 1006.519531 852.789062 1005.476562 851.242188 1004.359375 C 845.558594 1000.308594 840.71875 995.078125 837.09375 989.089844 C 830.640625 990.191406 824.066406 991.292969 818.0625 988.683594 C 814.988281 987.363281 812.320312 985.144531 809.1875 983.980469 C 804.261719 982.167969 798.359375 983.347656 794.488281 986.890625 C 793.714844 983.125 790.476562 979.992188 786.976562 978.425781 C 783.457031 976.859375 779.566406 976.433594 775.742188 976.023438 C 771.917969 975.617188 768.027344 975.167969 764.527344 973.558594 C 763.917969 979.15625 761.675781 983.453125 757.890625 987.625 C 756.363281 989.3125 754.511719 990.859375 752.273438 991.207031 C 750.832031 991.433594 749.34375 991.125 747.9375 990.742188 C 742.804688 989.355469 737.945312 987.039062 733.648438 983.921875 C 726.644531 986.320312 722.492188 993.648438 715.269531 995.257812 C 711.871094 996.011719 708.246094 995.34375 704.847656 996.09375 C 702.179688 996.683594 699.800781 998.085938 697.171875 998.863281 C 692.550781 1000.230469 687.300781 999.59375 683.167969 1002.058594 C 680.988281 997.117188 675.679688 993.082031 670.488281 991.597656 C 667.433594 990.722656 664.199219 990.65625 661.085938 989.988281 C 655.144531 988.726562 648.644531 984.144531 645.046875 979.265625 C 642.378906 981.730469 641.890625 982.195312 638.738281 984.027344 C 635.578125 985.859375 631.875 986.941406 628.296875 986.410156 C 625.019531 985.925781 622.027344 984.046875 619.929688 981.503906 C 617.8125 978.960938 616.101562 974.726562 615.675781 971.449219 C 612.925781 975.84375 607.878906 978.554688 602.730469 979.078125 C 599.210938 979.445312 595.625 978.878906 592.148438 979.527344 C 587.285156 980.445312 582.136719 984.59375 580.097656 989.089844 C 575.800781 985.914062 570.023438 985.507812 564.710938 986.242188 C 556.179688 987.421875 548.246094 991.148438 539.933594 993.367188 C 530.351562 995.933594 516.953125 995.996094 509.382812 993.082031 C 506.714844 984.191406 506.574219 974.5625 508.953125 965.585938 C 510.824219 958.5625 514.183594 951.988281 516.058594 944.964844 C 517.957031 937.941406 518.382812 929.289062 514.332031 923.246094 C 516.570312 921.433594 518.808594 919.621094 520.660156 917.421875 C 522.511719 915.222656 523.960938 912.617188 524.324219 909.765625 C 524.753906 906.464844 523.714844 903.113281 524.203125 899.8125 C 524.894531 895.070312 528.539062 891.386719 531.976562 888.046875 C 527.296875 886.84375 521.148438 884.871094 518.578125 880.777344 C 516.484375 877.441406 516.644531 873.0625 518.050781 869.382812 C 519.453125 865.699219 521.957031 862.539062 524.417969 859.46875 C 519.898438 854.171875 514.691406 848.679688 513.242188 841.859375 C 512.53125 838.519531 512.652344 835.0625 512 831.703125 C 511.367188 828.34375 509.761719 824.90625 506.726562 823.355469 C 505.851562 822.90625 504.875 822.621094 504.039062 822.113281 C 503.183594 821.601562 502.453125 820.765625 502.433594 819.769531 L 502.433594 819.75 C 502.089844 810.023438 507.214844 800.921875 508.582031 791.273438 C 508.96875 788.546875 509.046875 785.738281 509.925781 783.132812 C 511.3125 779.042969 516.296875 775.644531 519.371094 772.589844 C 517.007812 769.476562 514.644531 766.316406 513.144531 762.71875 C 511.640625 759.121094 511.066406 754.964844 512.429688 751.320312 C 513.019531 749.714844 513.976562 748.246094 515.097656 746.964844 C 518.921875 742.546875 524.605469 740.226562 530.039062 738.09375 L 530.125 738.074219 C 528.148438 734.816406 527.660156 730.925781 527.316406 727.140625 C 526.992188 723.355469 526.746094 719.464844 525.21875 716.007812 C 523.691406 712.546875 520.515625 709.496094 516.707031 709.332031 C 519.457031 705.261719 519.78125 699.007812 518.519531 694.269531 C 517.257812 689.53125 515 685.09375 513.757812 680.347656 C 512.515625 675.605469 512.410156 670.195312 515.199219 666.160156 C 508.605469 662.480469 501.925781 658.671875 498 652.222656 C 496.511719 649.800781 495.496094 646.90625 496.003906 644.117188 C 496.394531 642 497.609375 640.132812 498.9375 638.417969 C 501.09375 635.628906 503.578125 633.105469 506.347656 630.902344 C 508.199219 629.441406 510.191406 628.074219 511.660156 626.222656 C 513.125 624.371094 514.003906 621.847656 513.207031 619.609375 C 512.78125 615.882812 512.902344 611.402344 514.082031 607.824219 C 515.402344 603.8125 518.351562 600.476562 519.554688 596.425781 C 520.941406 591.804688 519.878906 586.351562 516.707031 582.726562 C 518.929688 581.789062 521.226562 580.792969 522.816406 578.980469 C 524.242188 577.347656 524.953125 575.234375 525.503906 573.136719 C 527.050781 567.273438 527.582031 561.1875 528.109375 555.164062 C 528.167969 554.574219 528.214844 553.921875 527.886719 553.414062 C 527.582031 552.90625 525.625 552.398438 525.257812 552.863281 C 518.578125 551.257812 513.105469 545.453125 511.886719 538.679688 C 510.664062 531.902344 513.800781 524.570312 519.515625 520.746094 C 514.527344 517.613281 511.027344 512.113281 509.238281 506.496094 C 507.453125 500.875 506.878906 494.953125 505.984375 489.128906 C 505.089844 483.308594 503.785156 477.402344 500.753906 472.355469 C 505.496094 468.796875 510.605469 465.355469 512.171875 459.878906 C 513.328125 455.890625 513.066406 451.59375 514.023438 447.542969 C 515.324219 441.945312 519.011719 436.960938 523.957031 434.066406 C 521.515625 430.976562 519.109375 426.960938 517.890625 423.222656 C 516.667969 419.472656 516.648438 415.183594 518.6875 411.804688 C 521.25 407.507812 526.972656 405.3125 531.859375 404.171875 L 532.058594 404.171875 C 529.636719 402.378906 529.734375 402.503906 527.988281 400.0625 C 525.871094 397.089844 524.953125 393.410156 524.402344 389.785156 C 523.851562 386.160156 523.609375 382.476562 522.589844 378.957031 C 522.675781 376.453125 521.328125 373.480469 519.234375 372.117188 C 517.847656 371.222656 516.035156 370.652344 515.363281 369.144531 C 514.9375 368.167969 515.136719 367.007812 515.6875 366.109375 C 516.238281 365.21875 517.234375 364.382812 518.171875 363.871094 C 517.867188 353.835938 513.777344 344.351562 511.1875 334.644531 C 507.992188 322.734375 507.015625 310.257812 508.320312 298.007812 C 515.914062 295.09375 530.410156 295.804688 539.996094 298.375 C 548.296875 300.59375 556.238281 304.316406 564.769531 305.5 C 570.0625 306.230469 575.839844 305.824219 580.15625 302.652344 C 582.195312 307.167969 587.34375 311.324219 592.207031 312.21875 C 595.691406 312.871094 599.269531 312.300781 602.789062 312.664062 C 607.960938 313.195312 612.988281 315.898438 615.734375 320.296875 C 616.183594 317.019531 617.890625 312.804688 619.988281 310.238281 C 622.105469 307.695312 625.09375 305.84375 628.355469 305.332031 C 631.960938 304.78125 635.644531 305.882812 638.796875 307.714844 C 641.953125 309.527344 642.4375 309.992188 645.105469 312.476562 C 648.730469 307.589844 655.203125 303.011719 661.144531 301.746094 C 664.257812 301.09375 667.492188 301.015625 670.546875 300.140625 C 675.757812 298.652344 681.050781 294.648438 683.226562 289.675781 C 687.378906 292.144531 692.609375 291.488281 697.230469 292.875 C 699.839844 293.648438 702.238281 295.054688 704.90625 295.644531 C 708.324219 296.394531 711.929688 295.726562 715.328125 296.480469 C 722.554688 298.085938 726.703125 305.4375 733.707031 307.816406 C 738.003906 304.703125 742.863281 302.363281 747.996094 300.996094 C 749.421875 300.609375 750.890625 300.304688 752.332031 300.53125 C 754.570312 300.875 756.441406 302.425781 757.949219 304.113281 C 761.71875 308.289062 763.976562 312.582031 764.585938 318.179688 C 768.085938 316.574219 771.976562 316.121094 775.800781 315.714844 C 779.625 315.304688 783.515625 314.878906 787.035156 313.3125 C 790.558594 311.746094 793.773438 308.609375 794.550781 304.847656 C 798.417969 308.40625 804.320312 309.570312 809.246094 307.757812 C 812.398438 306.597656 815.046875 304.378906 818.121094 303.054688 C 824.125 300.472656 830.699219 301.566406 837.152344 302.644531 C 840.777344 296.660156 845.617188 291.449219 851.300781 287.378906 C 852.867188 286.261719 854.535156 285.222656 856.433594 284.914062 C 858.691406 284.570312 860.96875 285.320312 863.007812 286.320312 C 870.273438 289.839844 875.875 296.660156 877.925781 304.476562 L 877.90625 303.300781 C 883.34375 300.878906 889.652344 300.511719 895.328125 302.261719 C 899.523438 303.566406 903.308594 305.945312 907.503906 307.253906 C 911.695312 308.554688 916.742188 308.515625 919.941406 305.503906 C 921.449219 309.859375 925.375 313.605469 929.792969 315.011719 C 936.082031 317.003906 943.371094 314.765625 949.230469 317.78125 C 951.472656 312.570312 954.707031 307.457031 958.71875 303.453125 C 960.085938 302.085938 961.632812 300.785156 963.503906 300.320312 C 965.761719 299.769531 968.105469 300.519531 970.257812 301.378906 C 975.613281 303.515625 977.773438 304.292969 982.394531 307.75 C 986.097656 304.019531 989.984375 300.175781 994.992188 298.527344 C 999.390625 297.082031 1004.253906 297.511719 1008.652344 296.085938 C 1011.765625 295.089844 1014.574219 293.195312 1017.769531 292.480469 C 1019.90625 292.015625 1022.105469 292.09375 1024.28125 291.890625 C 1026.460938 291.710938 1028.699219 291.199219 1030.363281 289.796875 C 1032.972656 294.191406 1036.980469 298.714844 1041.761719 300.542969 C 1047.585938 302.785156 1054.75 300.199219 1060 303.535156 C 1062.078125 304.835938 1063.519531 306.894531 1065.210938 308.640625 C 1066.898438 310.390625 1069.101562 311.980469 1071.539062 311.859375 C 1075.648438 308.992188 1080.289062 306.175781 1084.957031 304.324219 C 1086.199219 303.839844 1087.5 303.386719 1088.824219 303.574219 C 1090.574219 303.820312 1091.957031 305.140625 1093.097656 306.507812 C 1096.292969 310.292969 1098.554688 314.855469 1099.652344 319.675781 C 1102.234375 315.832031 1107.328125 313.851562 1111.90625 313.121094 C 1116.488281 312.390625 1121.226562 312.324219 1125.542969 310.597656 C 1129.246094 309.109375 1132.441406 306.382812 1134.519531 302.964844 C 1139.054688 306.425781 1145.773438 306.609375 1151.351562 305.386719 C 1156.929688 304.183594 1162.101562 301.621094 1167.492188 299.789062 C 1179.238281 295.777344 1194.320312 295.128906 1206.414062 297.996094 C 1207.714844 310.246094 1206.738281 322.726562 1203.546875 334.632812 C 1200.9375 344.34375 1196.847656 353.808594 1196.5625 363.863281 C 1197.5 364.347656 1198.480469 365.183594 1199.046875 366.101562 C 1199.617188 367.019531 1199.800781 368.179688 1199.371094 369.136719 C 1198.699219 370.664062 1196.886719 371.210938 1195.503906 372.105469 C 1193.40625 373.472656 1192.0625 376.441406 1192.144531 378.945312 C 1191.148438 382.46875 1190.902344 386.152344 1190.332031 389.773438 C 1189.761719 393.398438 1188.867188 397.0625 1186.746094 400.050781 C 1185 402.492188 1185.097656 402.375 1182.675781 404.164062 L 1182.878906 404.164062 C 1187.765625 405.300781 1193.460938 407.503906 1196.046875 411.792969 C 1198.0625 415.171875 1198.0625 419.46875 1196.84375 423.210938 C 1195.621094 426.957031 1193.21875 430.964844 1190.777344 434.058594 C 1195.722656 436.949219 1199.410156 441.953125 1200.714844 447.53125 C 1201.652344 451.585938 1201.40625 455.855469 1202.5625 459.867188 C 1204.152344 465.324219 1209.242188 468.785156 1213.980469 472.347656 C 1210.925781 477.394531 1209.644531 483.296875 1208.75 489.121094 C 1207.859375 494.945312 1207.289062 500.867188 1205.496094 506.484375 C 1203.703125 512.101562 1200.222656 517.597656 1195.21875 520.734375 C 1200.9375 524.558594 1204.050781 531.910156 1202.847656 538.667969 C 1201.644531 545.425781 1196.171875 551.25 1189.476562 552.855469 C 1189.109375 552.390625 1187.15625 552.894531 1186.851562 553.40625 C 1186.546875 553.914062 1186.585938 554.542969 1186.625 555.152344 C 1187.15625 561.199219 1187.703125 567.261719 1189.230469 573.125 C 1189.78125 575.222656 1190.496094 577.339844 1191.917969 578.96875 C 1193.503906 580.78125 1195.808594 581.777344 1198.027344 582.714844 C 1194.851562 586.339844 1193.792969 591.796875 1195.179688 596.417969 C 1196.382812 600.46875 1199.332031 603.808594 1200.652344 607.816406 C 1201.832031 611.375 1201.957031 615.851562 1201.527344 619.601562 C 1200.734375 621.820312 1201.613281 624.363281 1203.074219 626.214844 C 1204.539062 628.066406 1206.535156 629.410156 1208.386719 630.894531 C 1211.136719 633.09375 1213.636719 635.617188 1215.796875 638.40625 C 1217.121094 640.117188 1218.34375 641.992188 1218.730469 644.109375 C 1219.140625 646.894531 1218.105469 649.761719 1216.617188 652.207031 Z M 1216.617188 652.207031 " fill-opacity="1" fill-rule="nonzero"/><g clip-path="url(#9971fcd9ad)"><path fill="#000000" d="M 488.964844 277.613281 L 1225.550781 277.613281 L 1225.550781 1014.199219 L 488.964844 1014.199219 Z M 488.964844 277.613281 " fill-opacity="1" fill-rule="nonzero"/></g><g clip-path="url(#72555503d0)"><path fill="#ffe63f" d="M 1028.738281 964.761719 C 937.457031 964.761719 878.421875 921.234375 849.648438 864.316406 L 929.691406 817.941406 C 950.789062 852.386719 978.136719 877.644531 1026.625 877.644531 C 1067.328125 877.644531 1093.320312 857.28125 1093.320312 829.179688 C 1093.320312 786.925781 1036.921875 770.375 997.117188 753.339844 C 926.175781 723.140625 879.09375 685.203125 879.09375 605.113281 C 879.09375 531.390625 935.28125 475.222656 1023.128906 475.222656 C 1085.597656 475.222656 1130.589844 496.988281 1162.859375 553.84375 L 1086.308594 603.023438 C 1069.460938 572.824219 1051.214844 560.898438 1023.109375 560.898438 C 994.292969 560.898438 976.023438 579.167969 976.023438 603.023438 C 976.023438 632.53125 994.273438 644.457031 1036.441406 662.726562 C 1124.792969 700.582031 1191.652344 730.359375 1191.652344 827.773438 C 1191.695312 916.316406 1122.175781 964.761719 1028.738281 964.761719 Z M 802.3125 816.558594 C 802.3125 918.410156 739.574219 972.253906 652.476562 972.253906 C 573.792969 972.253906 526.667969 942.164062 503.480469 889.84375 L 502.121094 889.84375 L 582.101562 833.929688 C 597.546875 861.28125 611.460938 880.699219 645.152344 880.699219 C 677.484375 880.699219 697.679688 864.335938 697.679688 815.199219 L 697.679688 471.3125 L 802.3125 471.3125 Z M 226.828125 1046.796875 L 1273.164062 1046.796875 L 1273.164062 0.460938 L 226.828125 0.460938 Z M 226.828125 1046.796875 " fill-opacity="1" fill-rule="evenodd"/></g><g clip-path="url(#87a3491ede)"><g transform="matrix(1, 0, 0, 1, 0, 959)"><g clip-path="url(#de6bafd3b9)"><g clip-path="url(#c33c1656f3)"><g fill="#ffe63f" fill-opacity="1"><g transform="translate(-12.350469, 400.620664)"><g><path d="M 101.15625 -208.796875 L 67.28125 -196.734375 L 66.8125 19.03125 C 66.8125 28 66.113281 37.195312 64.71875 46.625 C 63.332031 56.0625 60.472656 64.644531 56.140625 72.375 C 51.804688 80.113281 45.15625 85.992188 36.1875 90.015625 C 27.21875 94.035156 15 94.960938 -0.46875 92.796875 C -2.9375 92.179688 -5.796875 91.332031 -9.046875 90.25 C -12.296875 89.164062 -15.003906 88.160156 -17.171875 87.234375 L -24.59375 109.5 C -18.09375 112.289062 -12.210938 114.378906 -6.953125 115.765625 C -1.703125 117.160156 4.632812 117.859375 12.0625 117.859375 C 39.28125 117.859375 60.929688 109.8125 77.015625 93.71875 C 93.109375 77.632812 101.15625 52.269531 101.15625 17.625 Z M 62.171875 -273.765625 L 62.171875 -274.21875 C 62.171875 -280.40625 64.335938 -285.585938 68.671875 -289.765625 C 73.003906 -293.941406 78.265625 -296.03125 84.453125 -296.03125 C 90.640625 -296.03125 95.816406 -293.863281 99.984375 -289.53125 C 104.160156 -285.207031 106.25 -279.953125 106.25 -273.765625 C 106.25 -267.878906 104.082031 -262.769531 99.75 -258.4375 C 95.425781 -254.113281 90.171875 -251.953125 83.984375 -251.953125 C 78.109375 -251.953125 73.003906 -254.113281 68.671875 -258.4375 C 64.335938 -262.769531 62.171875 -267.878906 62.171875 -273.765625 Z M 62.171875 -273.765625 "/></g></g></g></g><g fill="#ffe63f" fill-opacity="1"><g transform="translate(100.399815, 400.620664)"><g><path d="M 175.859375 -31.09375 C 166.265625 -21.5 153.65625 -13.222656 138.03125 -6.265625 C 122.414062 0.691406 104.554688 4.019531 84.453125 3.71875 C 72.390625 3.40625 61.253906 0.234375 51.046875 -5.796875 C 40.835938 -11.828125 32.789062 -19.867188 26.90625 -29.921875 C 21.03125 -39.984375 18.25 -51.195312 18.5625 -63.5625 C 18.875 -83.363281 25.753906 -98.910156 39.203125 -110.203125 C 52.660156 -121.492188 69.132812 -126.984375 88.625 -126.671875 C 99.757812 -126.671875 109.425781 -126.671875 117.625 -126.671875 C 125.820312 -126.671875 134.5625 -126.671875 143.84375 -126.671875 L 143.84375 -146.625 C 143.84375 -158.375 139.351562 -167.804688 130.375 -174.921875 C 121.40625 -182.035156 111.203125 -185.59375 99.765625 -185.59375 C 89.554688 -185.59375 80.351562 -184.351562 72.15625 -181.875 C 63.957031 -179.40625 55.375 -175.851562 46.40625 -171.21875 L 38.046875 -190.703125 C 50.109375 -197.203125 61.398438 -201.765625 71.921875 -204.390625 C 82.441406 -207.023438 94.660156 -208.34375 108.578125 -208.34375 C 120.023438 -208.34375 130.851562 -205.941406 141.0625 -201.140625 C 151.269531 -196.347656 159.617188 -189.539062 166.109375 -180.71875 C 172.609375 -171.90625 175.859375 -161.160156 175.859375 -148.484375 Z M 142.90625 -35.734375 L 142.90625 -105.328125 C 137.65625 -105.328125 131.003906 -105.328125 122.953125 -105.328125 C 114.910156 -105.328125 106.71875 -105.171875 98.375 -104.859375 C 85.375 -104.859375 74.539062 -101.300781 65.875 -94.1875 C 57.21875 -87.070312 52.890625 -77.175781 52.890625 -64.5 C 52.890625 -53.050781 57.296875 -42.609375 66.109375 -33.171875 C 74.929688 -23.742188 85.992188 -19.03125 99.296875 -19.03125 C 109.191406 -18.71875 118.160156 -20.648438 126.203125 -24.828125 C 134.242188 -29.003906 139.8125 -32.640625 142.90625 -35.734375 Z M 142.90625 -35.734375 "/></g></g></g><g fill="#ffe63f" fill-opacity="1"><g transform="translate(279.501337, 400.620664)"><g><path d="M 123.890625 -4.640625 L 93.734375 5.109375 L 9.75 -199.0625 L 40.828125 -212.046875 L 111.828125 -41.296875 L 176.3125 -209.265625 L 197.203125 -199.0625 Z M 123.890625 -4.640625 "/></g></g></g><g fill="#ffe63f" fill-opacity="1"><g transform="translate(465.562731, 400.620664)"><g><path d="M 175.859375 -31.09375 C 166.265625 -21.5 153.65625 -13.222656 138.03125 -6.265625 C 122.414062 0.691406 104.554688 4.019531 84.453125 3.71875 C 72.390625 3.40625 61.253906 0.234375 51.046875 -5.796875 C 40.835938 -11.828125 32.789062 -19.867188 26.90625 -29.921875 C 21.03125 -39.984375 18.25 -51.195312 18.5625 -63.5625 C 18.875 -83.363281 25.753906 -98.910156 39.203125 -110.203125 C 52.660156 -121.492188 69.132812 -126.984375 88.625 -126.671875 C 99.757812 -126.671875 109.425781 -126.671875 117.625 -126.671875 C 125.820312 -126.671875 134.5625 -126.671875 143.84375 -126.671875 L 143.84375 -146.625 C 143.84375 -158.375 139.351562 -167.804688 130.375 -174.921875 C 121.40625 -182.035156 111.203125 -185.59375 99.765625 -185.59375 C 89.554688 -185.59375 80.351562 -184.351562 72.15625 -181.875 C 63.957031 -179.40625 55.375 -175.851562 46.40625 -171.21875 L 38.046875 -190.703125 C 50.109375 -197.203125 61.398438 -201.765625 71.921875 -204.390625 C 82.441406 -207.023438 94.660156 -208.34375 108.578125 -208.34375 C 120.023438 -208.34375 130.851562 -205.941406 141.0625 -201.140625 C 151.269531 -196.347656 159.617188 -189.539062 166.109375 -180.71875 C 172.609375 -171.90625 175.859375 -161.160156 175.859375 -148.484375 Z M 142.90625 -35.734375 L 142.90625 -105.328125 C 137.65625 -105.328125 131.003906 -105.328125 122.953125 -105.328125 C 114.910156 -105.328125 106.71875 -105.171875 98.375 -104.859375 C 85.375 -104.859375 74.539062 -101.300781 65.875 -94.1875 C 57.21875 -87.070312 52.890625 -77.175781 52.890625 -64.5 C 52.890625 -53.050781 57.296875 -42.609375 66.109375 -33.171875 C 74.929688 -23.742188 85.992188 -19.03125 99.296875 -19.03125 C 109.191406 -18.71875 118.160156 -20.648438 126.203125 -24.828125 C 134.242188 -29.003906 139.8125 -32.640625 142.90625 -35.734375 Z M 142.90625 -35.734375 "/></g></g></g><g fill="#ffe63f" fill-opacity="1"><g transform="translate(644.664216, 400.620664)"><g><path d="M 80.265625 5.5625 C 68.515625 5.5625 56.992188 3.476562 45.703125 -0.6875 C 34.410156 -4.863281 24.28125 -10.359375 15.3125 -17.171875 L 27.375 -36.65625 C 34.488281 -31.394531 42.765625 -27.140625 52.203125 -23.890625 C 61.640625 -20.648438 70.84375 -18.875 79.8125 -18.5625 C 87.226562 -18.5625 94.648438 -19.796875 102.078125 -22.265625 C 109.503906 -24.742188 115.691406 -28.613281 120.640625 -33.875 C 125.585938 -39.132812 127.90625 -45.9375 127.59375 -54.28125 C 127.289062 -64.1875 123.503906 -71.222656 116.234375 -75.390625 C 108.960938 -79.566406 101.460938 -83.203125 93.734375 -86.296875 C 90.640625 -87.535156 87.546875 -88.773438 84.453125 -90.015625 C 81.359375 -91.253906 78.109375 -92.335938 74.703125 -93.265625 C 68.515625 -95.734375 62.25 -98.28125 55.90625 -100.90625 C 49.570312 -103.539062 43.773438 -106.867188 38.515625 -110.890625 C 32.941406 -114.910156 28.300781 -119.9375 24.59375 -125.96875 C 20.882812 -132.007812 19.03125 -139.820312 19.03125 -149.40625 C 19.03125 -162.394531 22.429688 -173.375 29.234375 -182.34375 C 36.035156 -191.320312 44.847656 -198.128906 55.671875 -202.765625 C 66.503906 -207.410156 77.953125 -209.734375 90.015625 -209.734375 C 100.535156 -209.734375 110.664062 -208.1875 120.40625 -205.09375 C 130.15625 -202 139.664062 -197.820312 148.9375 -192.5625 L 136.421875 -172.609375 C 121.566406 -180.960938 106.71875 -185.445312 91.875 -186.0625 C 82.28125 -186.0625 73.078125 -183.429688 64.265625 -178.171875 C 55.453125 -172.910156 50.890625 -164.867188 50.578125 -154.046875 C 50.578125 -148.171875 52.195312 -143.53125 55.4375 -140.125 C 58.6875 -136.726562 62.941406 -133.789062 68.203125 -131.3125 C 73.460938 -129.144531 79.335938 -126.671875 85.828125 -123.890625 C 92.328125 -121.109375 98.828125 -118.476562 105.328125 -116 C 111.515625 -113.519531 117.773438 -110.96875 124.109375 -108.34375 C 130.453125 -105.71875 136.253906 -102.238281 141.515625 -97.90625 C 147.085938 -93.570312 151.726562 -88.234375 155.4375 -81.890625 C 159.15625 -75.554688 161.015625 -67.75 161.015625 -58.46875 C 161.015625 -43.925781 156.988281 -31.9375 148.9375 -22.5 C 140.894531 -13.070312 130.6875 -6.035156 118.3125 -1.390625 C 105.945312 3.242188 93.265625 5.5625 80.265625 5.5625 Z M 80.265625 5.5625 "/></g></g></g><g fill="#ffe63f" fill-opacity="1"><g transform="translate(797.31804, 400.620664)"><g><path d="M 101.609375 4.171875 C 84.285156 3.867188 69.4375 -1.304688 57.0625 -11.359375 C 44.695312 -21.421875 35.265625 -34.335938 28.765625 -50.109375 C 22.273438 -65.890625 19.03125 -82.285156 19.03125 -99.296875 C 19.03125 -118.472656 22.816406 -136.722656 30.390625 -154.046875 C 37.972656 -171.367188 48.878906 -184.828125 63.109375 -194.421875 C 72.691406 -200.910156 83.4375 -205.082031 95.34375 -206.9375 C 107.257812 -208.800781 119.476562 -208.570312 132 -206.25 C 144.53125 -203.925781 156.054688 -199.363281 166.578125 -192.5625 L 156.828125 -174.46875 C 150.023438 -177.863281 142.210938 -180.722656 133.390625 -183.046875 C 124.578125 -185.367188 116.148438 -186.21875 108.109375 -185.59375 C 96.046875 -184.976562 85.914062 -180.1875 77.71875 -171.21875 C 69.519531 -162.25 63.410156 -151.265625 59.390625 -138.265625 C 55.367188 -125.273438 53.359375 -112.285156 53.359375 -99.296875 C 53.359375 -87.234375 55.523438 -75.015625 59.859375 -62.640625 C 64.191406 -50.265625 70.6875 -39.898438 79.34375 -31.546875 C 88.007812 -23.203125 98.679688 -18.875 111.359375 -18.5625 C 122.179688 -18.25 131.921875 -19.789062 140.578125 -23.1875 C 149.242188 -26.59375 158.21875 -30.460938 167.5 -34.796875 L 176.3125 -17.171875 C 166.414062 -10.671875 155.203125 -5.488281 142.671875 -1.625 C 130.148438 2.238281 116.460938 4.171875 101.609375 4.171875 Z M 101.609375 4.171875 "/></g></g></g><g fill="#ffe63f" fill-opacity="1"><g transform="translate(962.035681, 400.620664)"><g><path d="M 112.28125 -182.8125 L 111.828125 -182.8125 C 100.691406 -182.8125 91.175781 -181.03125 83.28125 -177.46875 C 75.394531 -173.914062 68.359375 -169.507812 62.171875 -164.25 L 62.171875 0 L 28.296875 0 L 28.296875 -168.890625 C 41.296875 -183.429688 57.382812 -193.953125 76.5625 -200.453125 C 86.769531 -204.160156 97.128906 -206.863281 107.640625 -208.5625 C 118.160156 -210.269531 130.535156 -209.882812 144.765625 -207.40625 C 142.597656 -203.382812 140.273438 -198.898438 137.796875 -193.953125 C 135.328125 -189.003906 133.164062 -184.363281 131.3125 -180.03125 C 128.21875 -180.644531 124.890625 -181.257812 121.328125 -181.875 C 117.773438 -182.5 114.757812 -182.8125 112.28125 -182.8125 Z M 112.28125 -182.8125 "/></g></g></g><g fill="#ffe63f" fill-opacity="1"><g transform="translate(1091.489772, 400.620664)"><g><path d="M 37.125 0 L 37.125 -197.203125 L 70.53125 -208.34375 L 70.53125 0 Z M 31.546875 -273.765625 L 31.546875 -274.21875 C 31.546875 -280.40625 33.710938 -285.585938 38.046875 -289.765625 C 42.378906 -293.941406 47.640625 -296.03125 53.828125 -296.03125 C 60.015625 -296.03125 65.191406 -293.863281 69.359375 -289.53125 C 73.535156 -285.207031 75.625 -279.953125 75.625 -273.765625 C 75.625 -267.878906 73.457031 -262.769531 69.125 -258.4375 C 64.800781 -254.113281 59.546875 -251.953125 53.359375 -251.953125 C 47.484375 -251.953125 42.378906 -254.113281 38.046875 -258.4375 C 33.710938 -262.769531 31.546875 -267.878906 31.546875 -273.765625 Z M 31.546875 -273.765625 "/></g></g></g><g fill="#ffe63f" fill-opacity="1"><g transform="translate(1173.152424, 400.620664)"><g><path d="M 124.8125 -207.875 L 124.359375 -208.34375 C 107.335938 -208.03125 92.71875 -206.09375 80.5 -202.53125 C 68.28125 -198.976562 58.457031 -194.878906 51.03125 -190.234375 C 43.613281 -185.597656 38.203125 -181.5 34.796875 -177.9375 C 31.398438 -174.382812 29.703125 -172.609375 29.703125 -172.609375 L 29.234375 94.1875 L 62.640625 106.25 L 62.640625 -13.921875 C 72.234375 -8.046875 81.976562 -3.484375 91.875 -0.234375 C 101.769531 3.015625 112.441406 4.640625 123.890625 4.640625 C 142.453125 4.023438 157.765625 -1.148438 169.828125 -10.890625 C 181.890625 -20.640625 190.859375 -33.25 196.734375 -48.71875 C 202.609375 -64.1875 205.546875 -80.582031 205.546875 -97.90625 C 205.546875 -117.695312 202.609375 -135.945312 196.734375 -152.65625 C 190.859375 -169.363281 182.039062 -182.820312 170.28125 -193.03125 C 158.53125 -203.238281 143.375 -208.1875 124.8125 -207.875 Z M 116.46875 -19.484375 C 105.945312 -18.867188 95.660156 -20.800781 85.609375 -25.28125 C 75.554688 -29.769531 67.742188 -33.71875 62.171875 -37.125 L 62.171875 -169.359375 C 63.722656 -170.910156 67.125 -173.078125 72.375 -175.859375 C 77.632812 -178.640625 84.285156 -181.113281 92.328125 -183.28125 C 100.378906 -185.445312 109.195312 -186.21875 118.78125 -185.59375 C 129.300781 -185.289062 137.726562 -182.273438 144.0625 -176.546875 C 150.40625 -170.828125 155.203125 -163.554688 158.453125 -154.734375 C 161.703125 -145.921875 163.867188 -136.71875 164.953125 -127.125 C 166.035156 -117.539062 166.578125 -108.570312 166.578125 -100.21875 C 166.578125 -91.5625 166.035156 -82.671875 164.953125 -73.546875 C 163.867188 -64.421875 161.625 -55.910156 158.21875 -48.015625 C 154.820312 -40.128906 149.796875 -33.554688 143.140625 -28.296875 C 136.492188 -23.046875 127.601562 -20.109375 116.46875 -19.484375 Z M 116.46875 -19.484375 "/></g></g></g><g fill="#ffe63f" fill-opacity="1"><g transform="translate(1383.341466, 400.620664)"><g><path d="M 36.65625 -181.421875 L 13.453125 -181.421875 L 13.453125 -203.234375 L 36.65625 -203.234375 L 36.65625 -259.84375 L 70.53125 -271.90625 L 70.53125 -203.234375 L 108.578125 -203.234375 L 108.578125 -181.421875 L 70.53125 -181.421875 L 70.53125 -49.1875 C 70.53125 -35.882812 73.929688 -26.988281 80.734375 -22.5 C 87.535156 -18.019531 96.816406 -15.46875 108.578125 -14.84375 L 108.578125 2.78125 C 85.992188 4.945312 68.359375 1.316406 55.671875 -8.109375 C 42.992188 -17.546875 36.65625 -30.925781 36.65625 -48.25 Z M 36.65625 -181.421875 "/></g></g></g></g></g></g></g></g></svg>